<?xml version="1.0" encoding="UTF-8"?>
<svg xmlns="http://www.w3.org/2000/svg" width="385.44" height="240.90" viewBox="0,0,385.44,240.90">
<desc>R SVG Plot!</desc>
<rect width="100%" height="100%" style="fill:#FFFFFF"/>
<polygon points="0.00 , 0.00 385.44 , 0.00 385.44 , 240.90 0.00 , 240.90 " style="stroke-width:1;stroke:#FFFFFF;fill:#FFFFFF;stroke-opacity:1.000000;fill-opacity:1.000000" />
<polygon points="46.35 , 205.54 46.35 , 12.05 373.39 , 12.05 373.39 , 205.54 " style="stroke-width:1;stroke:#FFFFFF;fill:#E5E5E5;stroke-opacity:0.000000;fill-opacity:1.000000" />
<polyline points="82.56 , 205.54 82.56 , 12.05 " style="stroke-width:0;stroke:#F2F2F2;fill:#000000;stroke-opacity:1.000000;fill-opacity:0.000000"/>
<polyline points="166.79 , 205.54 166.79 , 12.05 " style="stroke-width:0;stroke:#F2F2F2;fill:#000000;stroke-opacity:1.000000;fill-opacity:0.000000"/>
<polyline points="251.02 , 205.54 251.02 , 12.05 " style="stroke-width:0;stroke:#F2F2F2;fill:#000000;stroke-opacity:1.000000;fill-opacity:0.000000"/>
<polyline points="335.25 , 205.54 335.25 , 12.05 " style="stroke-width:0;stroke:#F2F2F2;fill:#000000;stroke-opacity:1.000000;fill-opacity:0.000000"/>
<polyline points="46.35 , 183.22 373.39 , 183.22 " style="stroke-width:1;stroke:#FFFFFF;fill:#000000;stroke-opacity:1.000000;fill-opacity:0.000000"/>
<polyline points="46.35 , 146.00 373.39 , 146.00 " style="stroke-width:1;stroke:#FFFFFF;fill:#000000;stroke-opacity:1.000000;fill-opacity:0.000000"/>
<polyline points="46.35 , 108.79 373.39 , 108.79 " style="stroke-width:1;stroke:#FFFFFF;fill:#000000;stroke-opacity:1.000000;fill-opacity:0.000000"/>
<polyline points="46.35 , 71.58 373.39 , 71.58 " style="stroke-width:1;stroke:#FFFFFF;fill:#000000;stroke-opacity:1.000000;fill-opacity:0.000000"/>
<polyline points="46.35 , 34.37 373.39 , 34.37 " style="stroke-width:1;stroke:#FFFFFF;fill:#000000;stroke-opacity:1.000000;fill-opacity:0.000000"/>
<polyline points="124.67 , 205.54 124.67 , 12.05 " style="stroke-width:1;stroke:#FFFFFF;fill:#000000;stroke-opacity:1.000000;fill-opacity:0.000000"/>
<polyline points="208.90 , 205.54 208.90 , 12.05 " style="stroke-width:1;stroke:#FFFFFF;fill:#000000;stroke-opacity:1.000000;fill-opacity:0.000000"/>
<polyline points="293.14 , 205.54 293.14 , 12.05 " style="stroke-width:1;stroke:#FFFFFF;fill:#000000;stroke-opacity:1.000000;fill-opacity:0.000000"/>
<line x1="208.90" y1="205.54" x2="208.90" y2="12.05" style="stroke-width:1;stroke:#7F7F7F;fill:#000000;stroke-opacity:1.000000;fill-opacity:0.000000"/>
<line x1="108.24" y1="183.22" x2="261.15" y2="183.22" style="stroke-width:1;stroke:#000000;fill:#000000;stroke-opacity:1.000000;fill-opacity:0.000000"/>
<circle cx="184.14" cy="183.22" r="3.20" style="stroke-width:1;stroke:#FFFFFF;fill:#000000;stroke-opacity:0.000000;fill-opacity:1.000000" />
<line x1="61.22" y1="146.00" x2="284.30" y2="146.00" style="stroke-width:1;stroke:#000000;fill:#000000;stroke-opacity:1.000000;fill-opacity:0.000000"/>
<circle cx="186.06" cy="146.00" r="3.20" style="stroke-width:1;stroke:#FFFFFF;fill:#000000;stroke-opacity:0.000000;fill-opacity:1.000000" />
<line x1="93.49" y1="108.79" x2="302.91" y2="108.79" style="stroke-width:1;stroke:#000000;fill:#000000;stroke-opacity:1.000000;fill-opacity:0.000000"/>
<circle cx="198.36" cy="108.79" r="3.20" style="stroke-width:1;stroke:#FFFFFF;fill:#000000;stroke-opacity:0.000000;fill-opacity:1.000000" />
<line x1="173.37" y1="71.58" x2="358.53" y2="71.58" style="stroke-width:1;stroke:#000000;fill:#000000;stroke-opacity:1.000000;fill-opacity:0.000000"/>
<circle cx="254.06" cy="71.58" r="3.20" style="stroke-width:1;stroke:#FFFFFF;fill:#000000;stroke-opacity:0.000000;fill-opacity:1.000000" />
<line x1="140.75" y1="34.37" x2="336.49" y2="34.37" style="stroke-width:1;stroke:#000000;fill:#000000;stroke-opacity:1.000000;fill-opacity:0.000000"/>
<circle cx="229.82" cy="34.37" r="3.20" style="stroke-width:1;stroke:#FFFFFF;fill:#000000;stroke-opacity:0.000000;fill-opacity:1.000000" />
<text transform="translate(36.46,186.82)"  style="font-size:10" >I</text>
<text transform="translate(24.93,149.60)"  style="font-size:10" >I'D</text>
<text transform="translate(21.27,112.39)"  style="font-size:10" >I'LL</text>
<text transform="translate(23.10,75.18)"  style="font-size:10" >I'M</text>
<text transform="translate(19.13,37.97)"  style="font-size:10" >I'VE</text>
<polyline points="42.08 , 183.22 46.35 , 183.22 " style="stroke-width:1;stroke:#7F7F7F;fill:#000000;stroke-opacity:1.000000;fill-opacity:0.000000"/>
<polyline points="42.08 , 146.00 46.35 , 146.00 " style="stroke-width:1;stroke:#7F7F7F;fill:#000000;stroke-opacity:1.000000;fill-opacity:0.000000"/>
<polyline points="42.08 , 108.79 46.35 , 108.79 " style="stroke-width:1;stroke:#7F7F7F;fill:#000000;stroke-opacity:1.000000;fill-opacity:0.000000"/>
<polyline points="42.08 , 71.58 46.35 , 71.58 " style="stroke-width:1;stroke:#7F7F7F;fill:#000000;stroke-opacity:1.000000;fill-opacity:0.000000"/>
<polyline points="42.08 , 34.37 46.35 , 34.37 " style="stroke-width:1;stroke:#7F7F7F;fill:#000000;stroke-opacity:1.000000;fill-opacity:0.000000"/>
<polyline points="124.67 , 209.81 124.67 , 205.54 " style="stroke-width:1;stroke:#7F7F7F;fill:#000000;stroke-opacity:1.000000;fill-opacity:0.000000"/>
<polyline points="208.90 , 209.81 208.90 , 205.54 " style="stroke-width:1;stroke:#7F7F7F;fill:#000000;stroke-opacity:1.000000;fill-opacity:0.000000"/>
<polyline points="293.14 , 209.81 293.14 , 205.54 " style="stroke-width:1;stroke:#7F7F7F;fill:#000000;stroke-opacity:1.000000;fill-opacity:0.000000"/>
<text transform="translate(115.81,219.85)"  style="font-size:10" >-0.2</text>
<text transform="translate(201.88,219.85)"  style="font-size:10" >0.0</text>
<text transform="translate(286.11,219.85)"  style="font-size:10" >0.2</text>
<text transform="translate(195.09,231.87)"  style="font-size:12" >mean</text>
<text transform="translate(18.03,122.16) rotate(-90)"  style="font-size:12" >word</text>
</svg>
