<?xml version="1.0" encoding="UTF-8"?>
<svg xmlns="http://www.w3.org/2000/svg" width="385.44" height="240.90" viewBox="0,0,385.44,240.90">
<desc>R SVG Plot!</desc>
<rect width="100%" height="100%" style="fill:#FFFFFF"/>
<polygon points="0.00 , 0.00 385.44 , 0.00 385.44 , 240.90 0.00 , 240.90 " style="stroke-width:1;stroke:#FFFFFF;fill:#FFFFFF;stroke-opacity:1.000000;fill-opacity:1.000000" />
<polygon points="40.94 , 205.54 40.94 , 12.05 373.39 , 12.05 373.39 , 205.54 " style="stroke-width:1;stroke:#FFFFFF;fill:#E5E5E5;stroke-opacity:0.000000;fill-opacity:1.000000" />
<polyline points="40.94 , 45.73 373.39 , 45.73 " style="stroke-width:0;stroke:#F2F2F2;fill:#000000;stroke-opacity:1.000000;fill-opacity:0.000000"/>
<polyline points="40.94 , 94.62 373.39 , 94.62 " style="stroke-width:0;stroke:#F2F2F2;fill:#000000;stroke-opacity:1.000000;fill-opacity:0.000000"/>
<polyline points="40.94 , 143.52 373.39 , 143.52 " style="stroke-width:0;stroke:#F2F2F2;fill:#000000;stroke-opacity:1.000000;fill-opacity:0.000000"/>
<polyline points="56.05 , 205.54 56.05 , 12.05 " style="stroke-width:0;stroke:#F2F2F2;fill:#000000;stroke-opacity:1.000000;fill-opacity:0.000000"/>
<polyline points="137.73 , 205.54 137.73 , 12.05 " style="stroke-width:0;stroke:#F2F2F2;fill:#000000;stroke-opacity:1.000000;fill-opacity:0.000000"/>
<polyline points="219.42 , 205.54 219.42 , 12.05 " style="stroke-width:0;stroke:#F2F2F2;fill:#000000;stroke-opacity:1.000000;fill-opacity:0.000000"/>
<polyline points="301.10 , 205.54 301.10 , 12.05 " style="stroke-width:0;stroke:#F2F2F2;fill:#000000;stroke-opacity:1.000000;fill-opacity:0.000000"/>
<polyline points="40.94 , 21.28 373.39 , 21.28 " style="stroke-width:1;stroke:#FFFFFF;fill:#000000;stroke-opacity:1.000000;fill-opacity:0.000000"/>
<polyline points="40.94 , 70.17 373.39 , 70.17 " style="stroke-width:1;stroke:#FFFFFF;fill:#000000;stroke-opacity:1.000000;fill-opacity:0.000000"/>
<polyline points="40.94 , 119.07 373.39 , 119.07 " style="stroke-width:1;stroke:#FFFFFF;fill:#000000;stroke-opacity:1.000000;fill-opacity:0.000000"/>
<polyline points="40.94 , 167.97 373.39 , 167.97 " style="stroke-width:1;stroke:#FFFFFF;fill:#000000;stroke-opacity:1.000000;fill-opacity:0.000000"/>
<polyline points="96.89 , 205.54 96.89 , 12.05 " style="stroke-width:1;stroke:#FFFFFF;fill:#000000;stroke-opacity:1.000000;fill-opacity:0.000000"/>
<polyline points="178.58 , 205.54 178.58 , 12.05 " style="stroke-width:1;stroke:#FFFFFF;fill:#000000;stroke-opacity:1.000000;fill-opacity:0.000000"/>
<polyline points="260.26 , 205.54 260.26 , 12.05 " style="stroke-width:1;stroke:#FFFFFF;fill:#000000;stroke-opacity:1.000000;fill-opacity:0.000000"/>
<polyline points="341.95 , 205.54 341.95 , 12.05 " style="stroke-width:1;stroke:#FFFFFF;fill:#000000;stroke-opacity:1.000000;fill-opacity:0.000000"/>
<polyline points="56.05 , 49.18 64.22 , 59.13 72.38 , 68.83 80.55 , 78.21 88.72 , 86.90 96.89 , 94.59 105.06 , 101.42 113.23 , 107.87 121.40 , 113.86 129.56 , 120.05 137.73 , 126.08 145.90 , 131.57 154.07 , 136.53 162.24 , 140.94 170.41 , 144.79 178.58 , 147.95 186.74 , 150.48 194.91 , 152.18 203.08 , 152.88 211.25 , 152.35 219.42 , 150.98 227.59 , 149.11 235.76 , 147.00 243.92 , 144.93 252.09 , 143.20 260.26 , 141.82 268.43 , 140.81 276.60 , 140.16 284.77 , 139.82 292.94 , 139.60 301.10 , 139.28 309.27 , 138.87 317.44 , 138.23 325.61 , 137.18 333.78 , 135.80 341.95 , 134.29 350.11 , 132.73 358.28 , 131.08 " style="stroke-width:1;stroke:#CD0000;fill:#000000;stroke-opacity:1.000000;fill-opacity:0.000000"/>
<polygon points="56.05 , 72.71 64.22 , 80.88 72.38 , 90.47 80.55 , 99.59 88.72 , 108.09 96.89 , 115.51 105.06 , 122.36 113.23 , 129.27 121.40 , 135.31 129.56 , 141.79 137.73 , 147.48 145.90 , 153.25 154.07 , 158.39 162.24 , 163.84 170.41 , 167.84 178.58 , 171.31 186.74 , 173.52 194.91 , 175.78 203.08 , 176.79 211.25 , 175.77 219.42 , 175.12 227.59 , 173.63 235.76 , 172.80 243.92 , 172.96 252.09 , 172.32 260.26 , 170.98 268.43 , 171.21 276.60 , 171.41 284.77 , 171.83 292.94 , 172.95 301.10 , 174.26 309.27 , 174.79 317.44 , 176.46 325.61 , 177.82 333.78 , 183.22 341.95 , 185.72 350.11 , 190.06 358.28 , 196.75 358.28 , 66.10 350.11 , 74.41 341.95 , 82.36 333.78 , 91.48 325.61 , 97.26 317.44 , 99.84 309.27 , 103.15 301.10 , 105.85 292.94 , 107.88 284.77 , 107.78 276.60 , 107.82 268.43 , 110.09 260.26 , 110.97 252.09 , 113.13 243.92 , 117.00 235.76 , 120.35 227.59 , 124.80 219.42 , 128.02 211.25 , 130.19 203.08 , 131.69 194.91 , 131.89 186.74 , 130.69 178.58 , 128.43 170.41 , 125.52 162.24 , 122.25 154.07 , 118.12 145.90 , 112.35 137.73 , 107.48 129.56 , 102.17 121.40 , 95.86 113.23 , 89.61 105.06 , 83.60 96.89 , 76.30 88.72 , 68.45 80.55 , 59.18 72.38 , 49.24 64.22 , 38.24 56.05 , 25.89 " style="stroke-width:1;stroke:#FFFFFF;fill:#CD0000;stroke-opacity:0.000000;fill-opacity:0.606299" />
<polygon points="56.05 , 20.84 59.87 , 29.89 63.70 , 38.28 67.53 , 45.98 71.35 , 52.95 75.18 , 59.16 79.00 , 64.63 82.83 , 69.42 86.65 , 73.67 90.48 , 77.53 94.31 , 81.01 98.13 , 84.28 101.96 , 86.93 105.78 , 89.44 109.61 , 91.24 113.43 , 92.79 117.26 , 95.84 121.09 , 99.19 124.91 , 102.22 128.74 , 105.02 132.56 , 108.06 136.39 , 111.26 140.21 , 114.16 144.04 , 116.70 147.87 , 119.12 151.69 , 121.61 155.52 , 124.09 159.34 , 126.49 163.17 , 128.72 166.99 , 130.76 170.82 , 132.58 174.65 , 134.17 178.47 , 135.52 182.30 , 136.65 186.12 , 137.60 189.95 , 138.41 193.78 , 139.07 197.60 , 139.61 201.43 , 140.02 205.25 , 140.33 209.08 , 140.53 212.90 , 140.63 216.73 , 140.62 220.56 , 140.52 224.38 , 140.31 228.21 , 140.00 232.03 , 139.58 235.86 , 139.04 239.68 , 138.39 243.51 , 137.63 247.34 , 136.73 251.16 , 135.71 254.99 , 134.56 258.81 , 133.26 262.64 , 131.83 266.46 , 130.25 270.29 , 128.52 274.12 , 126.64 277.94 , 124.61 281.77 , 122.43 285.59 , 120.10 289.42 , 117.62 293.25 , 114.99 297.07 , 112.21 300.90 , 109.28 304.72 , 106.20 308.55 , 102.98 312.37 , 99.62 316.20 , 96.11 320.03 , 92.46 323.85 , 88.68 327.68 , 84.75 331.50 , 80.69 335.33 , 76.50 339.15 , 72.17 342.98 , 67.71 346.81 , 63.11 350.63 , 58.39 354.46 , 53.54 358.28 , 48.56 358.28 , 168.13 354.46 , 167.43 350.63 , 166.79 346.81 , 166.21 342.98 , 165.68 339.15 , 165.22 335.33 , 164.80 331.50 , 164.43 327.68 , 164.11 323.85 , 163.83 320.03 , 163.60 316.20 , 163.41 312.37 , 163.26 308.55 , 163.14 304.72 , 163.06 300.90 , 163.01 297.07 , 162.99 293.25 , 163.00 289.42 , 163.04 285.59 , 163.10 281.77 , 163.18 277.94 , 163.27 274.12 , 163.38 270.29 , 163.50 266.46 , 163.63 262.64 , 163.75 258.81 , 163.87 254.99 , 163.97 251.16 , 164.06 247.34 , 164.11 243.51 , 164.13 239.68 , 164.10 235.86 , 164.02 232.03 , 163.87 228.21 , 163.66 224.38 , 163.37 220.56 , 163.00 216.73 , 162.54 212.90 , 161.99 209.08 , 161.34 205.25 , 160.59 201.43 , 159.75 197.60 , 158.80 193.78 , 157.76 189.95 , 156.63 186.12 , 155.43 182.30 , 154.15 178.47 , 152.82 174.65 , 151.27 170.82 , 149.40 166.99 , 147.29 163.17 , 145.01 159.34 , 142.63 155.52 , 140.20 151.69 , 137.74 147.87 , 135.24 144.04 , 132.62 140.21 , 129.55 136.39 , 126.44 132.56 , 123.55 128.74 , 120.71 124.91 , 117.42 121.09 , 114.15 117.26 , 111.32 113.43 , 108.64 109.61 , 106.21 105.78 , 103.94 101.96 , 100.81 98.13 , 97.67 94.31 , 94.27 90.48 , 90.75 86.65 , 86.95 82.83 , 83.09 79.00 , 79.21 75.18 , 75.43 71.35 , 71.85 67.53 , 68.50 63.70 , 65.36 59.87 , 62.41 56.05 , 59.62 " style="stroke-width:1;stroke:#FFFFFF;fill:#0000CD;stroke-opacity:0.000000;fill-opacity:0.803150" />
<polyline points="56.05 , 40.23 59.87 , 46.15 63.70 , 51.82 67.53 , 57.24 71.35 , 62.40 75.18 , 67.29 79.00 , 71.92 82.83 , 76.26 86.65 , 80.31 90.48 , 84.14 94.31 , 87.64 98.13 , 90.98 101.96 , 93.87 105.78 , 96.69 109.61 , 98.73 113.43 , 100.72 117.26 , 103.58 121.09 , 106.67 124.91 , 109.82 128.74 , 112.86 132.56 , 115.80 136.39 , 118.85 140.21 , 121.85 144.04 , 124.66 147.87 , 127.18 151.69 , 129.67 155.52 , 132.15 159.34 , 134.56 163.17 , 136.87 166.99 , 139.02 170.82 , 140.99 174.65 , 142.72 178.47 , 144.17 182.30 , 145.40 186.12 , 146.51 189.95 , 147.52 193.78 , 148.42 197.60 , 149.20 201.43 , 149.89 205.25 , 150.46 209.08 , 150.94 212.90 , 151.31 216.73 , 151.58 220.56 , 151.76 224.38 , 151.84 228.21 , 151.83 232.03 , 151.72 235.86 , 151.53 239.68 , 151.25 243.51 , 150.88 247.34 , 150.42 251.16 , 149.88 254.99 , 149.27 258.81 , 148.57 262.64 , 147.79 266.46 , 146.94 270.29 , 146.01 274.12 , 145.01 277.94 , 143.94 281.77 , 142.80 285.59 , 141.60 289.42 , 140.33 293.25 , 139.00 297.07 , 137.60 300.90 , 136.14 304.72 , 134.63 308.55 , 133.06 312.37 , 131.44 316.20 , 129.76 320.03 , 128.03 323.85 , 126.26 327.68 , 124.43 331.50 , 122.56 335.33 , 120.65 339.15 , 118.69 342.98 , 116.70 346.81 , 114.66 350.63 , 112.59 354.46 , 110.48 358.28 , 108.35 " style="stroke-width:1;stroke:#0000CD;fill:#000000;stroke-opacity:1.000000;fill-opacity:0.000000"/>
<text transform="translate(21.04,24.88)"  style="font-size:10" >0.5</text>
<text transform="translate(19.77,73.77)"  style="font-size:10" >1.0</text>
<text transform="translate(19.77,122.67)"  style="font-size:10" >1.5</text>
<text transform="translate(19.77,171.57)"  style="font-size:10" >2.0</text>
<polyline points="36.67 , 21.28 40.94 , 21.28 " style="stroke-width:1;stroke:#7F7F7F;fill:#000000;stroke-opacity:1.000000;fill-opacity:0.000000"/>
<polyline points="36.67 , 70.17 40.94 , 70.17 " style="stroke-width:1;stroke:#7F7F7F;fill:#000000;stroke-opacity:1.000000;fill-opacity:0.000000"/>
<polyline points="36.67 , 119.07 40.94 , 119.07 " style="stroke-width:1;stroke:#7F7F7F;fill:#000000;stroke-opacity:1.000000;fill-opacity:0.000000"/>
<polyline points="36.67 , 167.97 40.94 , 167.97 " style="stroke-width:1;stroke:#7F7F7F;fill:#000000;stroke-opacity:1.000000;fill-opacity:0.000000"/>
<polyline points="96.89 , 209.81 96.89 , 205.54 " style="stroke-width:1;stroke:#7F7F7F;fill:#000000;stroke-opacity:1.000000;fill-opacity:0.000000"/>
<polyline points="178.58 , 209.81 178.58 , 205.54 " style="stroke-width:1;stroke:#7F7F7F;fill:#000000;stroke-opacity:1.000000;fill-opacity:0.000000"/>
<polyline points="260.26 , 209.81 260.26 , 205.54 " style="stroke-width:1;stroke:#7F7F7F;fill:#000000;stroke-opacity:1.000000;fill-opacity:0.000000"/>
<polyline points="341.95 , 209.81 341.95 , 205.54 " style="stroke-width:1;stroke:#7F7F7F;fill:#000000;stroke-opacity:1.000000;fill-opacity:0.000000"/>
<text transform="translate(88.64,219.85)"  style="font-size:10" >100</text>
<text transform="translate(170.33,219.85)"  style="font-size:10" >200</text>
<text transform="translate(252.01,219.85)"  style="font-size:10" >300</text>
<text transform="translate(333.70,219.85)"  style="font-size:10" >400</text>
<text transform="translate(162.63,231.87)"  style="font-size:12" >Duration (msec)</text>
<text transform="translate(18.03,131.12) rotate(-90)"  style="font-size:12" >time mu</text>
</svg>
