<?xml version="1.0" encoding="UTF-8"?>
<svg xmlns="http://www.w3.org/2000/svg" width="385.44" height="240.90" viewBox="0,0,385.44,240.90">
<desc>R SVG Plot!</desc>
<rect width="100%" height="100%" style="fill:#FFFFFF"/>
<line x1="30.46" y1="219.23" x2="363.32" y2="219.23" style="stroke-width:1;stroke:#000000;fill:#000000;stroke-opacity:1.000000;fill-opacity:0.000000"/>
<line x1="30.46" y1="219.23" x2="30.46" y2="223.27" style="stroke-width:1;stroke:#000000;fill:#000000;stroke-opacity:1.000000;fill-opacity:0.000000"/>
<line x1="97.03" y1="219.23" x2="97.03" y2="223.27" style="stroke-width:1;stroke:#000000;fill:#000000;stroke-opacity:1.000000;fill-opacity:0.000000"/>
<line x1="163.60" y1="219.23" x2="163.60" y2="223.27" style="stroke-width:1;stroke:#000000;fill:#000000;stroke-opacity:1.000000;fill-opacity:0.000000"/>
<line x1="230.17" y1="219.23" x2="230.17" y2="223.27" style="stroke-width:1;stroke:#000000;fill:#000000;stroke-opacity:1.000000;fill-opacity:0.000000"/>
<line x1="296.75" y1="219.23" x2="296.75" y2="223.27" style="stroke-width:1;stroke:#000000;fill:#000000;stroke-opacity:1.000000;fill-opacity:0.000000"/>
<line x1="363.32" y1="219.23" x2="363.32" y2="223.27" style="stroke-width:1;stroke:#000000;fill:#000000;stroke-opacity:1.000000;fill-opacity:0.000000"/>
<text transform="translate(27.46,231.73)"  style="font-size:12" >0</text>
<text transform="translate(87.13,231.73)"  style="font-size:12" >200</text>
<text transform="translate(153.70,231.73)"  style="font-size:12" >400</text>
<text transform="translate(220.27,231.73)"  style="font-size:12" >600</text>
<text transform="translate(286.85,231.73)"  style="font-size:12" >800</text>
<text transform="translate(350.12,231.73)"  style="font-size:12" >1000</text>
<line x1="17.50" y1="212.84" x2="17.50" y2="39.54" style="stroke-width:1;stroke:#000000;fill:#000000;stroke-opacity:1.000000;fill-opacity:0.000000"/>
<line x1="17.50" y1="212.84" x2="13.47" y2="212.84" style="stroke-width:1;stroke:#000000;fill:#000000;stroke-opacity:1.000000;fill-opacity:0.000000"/>
<line x1="17.50" y1="183.96" x2="13.47" y2="183.96" style="stroke-width:1;stroke:#000000;fill:#000000;stroke-opacity:1.000000;fill-opacity:0.000000"/>
<line x1="17.50" y1="155.07" x2="13.47" y2="155.07" style="stroke-width:1;stroke:#000000;fill:#000000;stroke-opacity:1.000000;fill-opacity:0.000000"/>
<line x1="17.50" y1="126.19" x2="13.47" y2="126.19" style="stroke-width:1;stroke:#000000;fill:#000000;stroke-opacity:1.000000;fill-opacity:0.000000"/>
<line x1="17.50" y1="97.31" x2="13.47" y2="97.31" style="stroke-width:1;stroke:#000000;fill:#000000;stroke-opacity:1.000000;fill-opacity:0.000000"/>
<line x1="17.50" y1="68.43" x2="13.47" y2="68.43" style="stroke-width:1;stroke:#000000;fill:#000000;stroke-opacity:1.000000;fill-opacity:0.000000"/>
<line x1="17.50" y1="39.54" x2="13.47" y2="39.54" style="stroke-width:1;stroke:#000000;fill:#000000;stroke-opacity:1.000000;fill-opacity:0.000000"/>
<text transform="translate(13.33,216.14) rotate(-90)"  style="font-size:12" >0</text>
<text transform="translate(13.33,190.56) rotate(-90)"  style="font-size:12" >10</text>
<text transform="translate(13.33,161.67) rotate(-90)"  style="font-size:12" >20</text>
<text transform="translate(13.33,132.79) rotate(-90)"  style="font-size:12" >30</text>
<text transform="translate(13.33,103.91) rotate(-90)"  style="font-size:12" >40</text>
<text transform="translate(13.33,75.03) rotate(-90)"  style="font-size:12" >50</text>
<text transform="translate(13.33,46.15) rotate(-90)"  style="font-size:12" >60</text>
<polyline points="17.50 , 17.50 17.50 , 219.23 376.27 , 219.23 " style="stroke-width:1;stroke:#000000;fill:#000000;stroke-opacity:1.000000;fill-opacity:0.000000"/>
<text transform="translate(148.57,14.75)"  style="font-size:14" >Trace of  sigma</text>
<text transform="translate(173.45,240.07)"  style="font-size:12" >Iterations</text>
<polygon points="17.50 , 219.23 17.50 , 17.50 196.89 , 17.50 196.89 , 219.23 " style="stroke-width:1;stroke:#FFFFFF;fill:#969696;stroke-opacity:0.000000;fill-opacity:0.787402" />
<polyline points="30.79 , 194.36 31.12 , 194.36 31.45 , 194.36 31.79 , 194.36 32.12 , 202.45 32.45 , 209.04 32.79 , 207.74 33.12 , 209.67 33.45 , 209.83 33.78 , 210.48 34.12 , 210.96 34.45 , 210.95 34.78 , 211.03 35.12 , 211.75 35.45 , 211.50 35.78 , 211.67 36.11 , 211.62 36.45 , 211.62 36.78 , 211.66 37.11 , 211.65 37.45 , 211.64 37.78 , 211.64 38.11 , 211.67 38.44 , 211.64 38.78 , 211.58 39.11 , 211.67 39.44 , 211.63 39.78 , 211.67 40.11 , 211.68 40.44 , 211.61 40.77 , 211.67 41.11 , 211.56 41.44 , 211.56 41.77 , 211.56 42.11 , 211.62 42.44 , 211.66 42.77 , 211.66 43.10 , 211.64 43.44 , 211.61 43.77 , 211.63 44.10 , 211.63 44.44 , 211.56 44.77 , 211.66 45.10 , 211.67 45.43 , 211.66 45.77 , 211.70 46.10 , 211.72 46.43 , 211.56 46.77 , 211.54 47.10 , 211.61 47.43 , 211.58 47.76 , 211.64 48.10 , 211.59 48.43 , 211.53 48.76 , 211.61 49.10 , 211.62 49.43 , 211.63 49.76 , 211.60 50.09 , 211.66 50.43 , 211.60 50.76 , 211.58 51.09 , 211.59 51.43 , 211.62 51.76 , 211.68 52.09 , 211.61 52.42 , 211.60 52.76 , 211.62 53.09 , 211.63 53.42 , 211.64 53.76 , 211.56 54.09 , 211.59 54.42 , 211.59 54.75 , 211.57 55.09 , 211.54 55.42 , 211.63 55.75 , 211.63 56.09 , 211.67 56.42 , 211.63 56.75 , 211.70 57.08 , 211.59 57.42 , 211.60 57.75 , 211.64 58.08 , 211.65 58.42 , 211.60 58.75 , 211.60 59.08 , 211.66 59.41 , 211.63 59.75 , 211.64 60.08 , 211.65 60.41 , 211.64 60.75 , 211.65 61.08 , 211.65 61.41 , 211.60 61.74 , 211.59 62.08 , 211.59 62.41 , 211.61 62.74 , 211.68 63.08 , 211.58 63.41 , 211.61 63.74 , 211.61 64.07 , 211.61 64.41 , 211.61 64.74 , 211.68 65.07 , 211.64 65.41 , 211.64 65.74 , 211.66 66.07 , 211.60 66.40 , 211.61 66.74 , 211.61 67.07 , 211.57 67.40 , 211.60 67.74 , 211.68 68.07 , 211.66 68.40 , 211.59 68.73 , 211.59 69.07 , 211.61 69.40 , 211.65 69.73 , 211.59 70.07 , 211.67 70.40 , 211.65 70.73 , 211.62 71.06 , 211.61 71.40 , 211.63 71.73 , 211.59 72.06 , 211.59 72.40 , 211.62 72.73 , 211.58 73.06 , 211.59 73.39 , 211.60 73.73 , 211.67 74.06 , 211.59 74.39 , 211.61 74.73 , 211.65 75.06 , 211.57 75.39 , 211.59 75.72 , 211.67 76.06 , 211.61 76.39 , 211.58 76.72 , 211.68 77.06 , 211.71 77.39 , 211.67 77.72 , 211.64 78.05 , 211.67 78.39 , 211.67 78.72 , 211.71 79.05 , 211.71 79.39 , 211.70 79.72 , 211.69 80.05 , 211.68 80.38 , 211.61 80.72 , 211.61 81.05 , 211.61 81.38 , 211.55 81.72 , 211.57 82.05 , 211.58 82.38 , 211.59 82.71 , 211.49 83.05 , 211.62 83.38 , 211.62 83.71 , 211.62 84.05 , 211.66 84.38 , 211.65 84.71 , 211.69 85.04 , 211.59 85.38 , 211.63 85.71 , 211.65 86.04 , 211.65 86.38 , 211.59 86.71 , 211.68 87.04 , 211.68 87.37 , 211.56 87.71 , 211.62 88.04 , 211.62 88.37 , 211.59 88.71 , 211.64 89.04 , 211.63 89.37 , 211.68 89.70 , 211.68 90.04 , 211.68 90.37 , 211.66 90.70 , 211.61 91.04 , 211.59 91.37 , 211.65 91.70 , 211.60 92.03 , 211.60 92.37 , 211.63 92.70 , 211.64 93.03 , 211.64 93.37 , 211.68 93.70 , 211.57 94.03 , 211.57 94.36 , 211.58 94.70 , 211.57 95.03 , 211.51 95.36 , 211.57 95.70 , 211.65 96.03 , 211.62 96.36 , 211.63 96.69 , 211.65 97.03 , 211.65 97.36 , 211.63 97.69 , 211.58 98.03 , 211.58 98.36 , 211.61 98.69 , 211.74 99.02 , 211.63 99.36 , 211.65 99.69 , 211.65 100.02 , 211.68 100.36 , 211.66 100.69 , 211.65 101.02 , 211.60 101.35 , 211.59 101.69 , 211.57 102.02 , 211.62 102.35 , 211.67 102.69 , 211.55 103.02 , 211.61 103.35 , 211.63 103.68 , 211.68 104.02 , 211.68 104.35 , 211.68 104.68 , 211.64 105.02 , 211.59 105.35 , 211.66 105.68 , 211.62 106.01 , 211.63 106.35 , 211.65 106.68 , 211.56 107.01 , 211.59 107.35 , 211.62 107.68 , 211.63 108.01 , 211.66 108.35 , 211.66 108.68 , 211.64 109.01 , 211.67 109.34 , 211.60 109.68 , 211.56 110.01 , 211.59 110.34 , 211.64 110.68 , 211.64 111.01 , 211.65 111.34 , 211.65 111.67 , 211.66 112.01 , 211.63 112.34 , 211.64 112.67 , 211.62 113.01 , 211.60 113.34 , 211.66 113.67 , 211.66 114.00 , 211.66 114.34 , 211.66 114.67 , 211.65 115.00 , 211.65 115.34 , 211.65 115.67 , 211.52 116.00 , 211.73 116.33 , 211.73 116.67 , 211.65 117.00 , 211.65 117.33 , 211.65 117.67 , 211.67 118.00 , 211.66 118.33 , 211.60 118.66 , 211.61 119.00 , 211.59 119.33 , 211.65 119.66 , 211.66 120.00 , 211.67 120.33 , 211.66 120.66 , 211.56 120.99 , 211.59 121.33 , 211.56 121.66 , 211.58 121.99 , 211.63 122.33 , 211.61 122.66 , 211.56 122.99 , 211.58 123.32 , 211.63 123.66 , 211.66 123.99 , 211.58 124.32 , 211.56 124.66 , 211.57 124.99 , 211.51 125.32 , 211.51 125.65 , 211.69 125.99 , 211.70 126.32 , 211.71 126.65 , 211.59 126.99 , 211.66 127.32 , 211.71 127.65 , 211.55 127.98 , 211.63 128.32 , 211.63 128.65 , 211.62 128.98 , 211.66 129.32 , 211.61 129.65 , 211.66 129.98 , 211.58 130.31 , 211.63 130.65 , 211.61 130.98 , 211.69 131.31 , 211.60 131.65 , 211.65 131.98 , 211.65 132.31 , 211.62 132.64 , 211.65 132.98 , 211.59 133.31 , 211.66 133.64 , 211.62 133.98 , 211.62 134.31 , 211.55 134.64 , 211.59 134.97 , 211.63 135.31 , 211.69 135.64 , 211.64 135.97 , 211.64 136.31 , 211.62 136.64 , 211.64 136.97 , 211.67 137.30 , 211.60 137.64 , 211.61 137.97 , 211.64 138.30 , 211.64 138.64 , 211.61 138.97 , 211.60 139.30 , 211.64 139.63 , 211.67 139.97 , 211.59 140.30 , 211.55 140.63 , 211.68 140.97 , 211.56 141.30 , 211.71 141.63 , 211.61 141.96 , 211.61 142.30 , 211.68 142.63 , 211.57 142.96 , 211.65 143.30 , 211.69 143.63 , 211.59 143.96 , 211.70 144.29 , 211.70 144.63 , 211.54 144.96 , 211.63 145.29 , 211.62 145.63 , 211.65 145.96 , 211.59 146.29 , 211.60 146.62 , 211.64 146.96 , 211.64 147.29 , 211.62 147.62 , 211.61 147.96 , 211.57 148.29 , 211.60 148.62 , 211.58 148.95 , 211.67 149.29 , 211.60 149.62 , 211.67 149.95 , 211.69 150.29 , 211.70 150.62 , 211.53 150.95 , 211.58 151.28 , 211.70 151.62 , 211.55 151.95 , 211.64 152.28 , 211.63 152.62 , 211.66 152.95 , 211.55 153.28 , 211.66 153.61 , 211.57 153.95 , 211.61 154.28 , 211.65 154.61 , 211.63 154.95 , 211.63 155.28 , 211.64 155.61 , 211.57 155.94 , 211.70 156.28 , 211.63 156.61 , 211.63 156.94 , 211.61 157.28 , 211.65 157.61 , 211.61 157.94 , 211.61 158.27 , 211.64 158.61 , 211.58 158.94 , 211.61 159.27 , 211.63 159.61 , 211.66 159.94 , 211.60 160.27 , 211.68 160.60 , 211.61 160.94 , 211.65 161.27 , 211.68 161.60 , 211.67 161.94 , 211.60 162.27 , 211.69 162.60 , 211.59 162.93 , 211.67 163.27 , 211.66 163.60 , 211.71 163.93 , 211.64 164.27 , 211.58 164.60 , 211.63 164.93 , 211.65 165.26 , 211.55 165.60 , 211.55 165.93 , 211.72 166.26 , 211.69 166.60 , 211.64 166.93 , 211.64 167.26 , 211.66 167.59 , 211.63 167.93 , 211.62 168.26 , 211.62 168.59 , 211.61 168.93 , 211.60 169.26 , 211.60 169.59 , 211.56 169.92 , 211.69 170.26 , 211.71 170.59 , 211.75 170.92 , 211.48 171.26 , 211.62 171.59 , 211.65 171.92 , 211.63 172.25 , 211.65 172.59 , 211.57 172.92 , 211.58 173.25 , 211.62 173.59 , 211.60 173.92 , 211.60 174.25 , 211.66 174.58 , 211.66 174.92 , 211.59 175.25 , 211.62 175.58 , 211.70 175.92 , 211.60 176.25 , 211.60 176.58 , 211.57 176.91 , 211.63 177.25 , 211.63 177.58 , 211.59 177.91 , 211.58 178.25 , 211.63 178.58 , 211.64 178.91 , 211.65 179.24 , 211.66 179.58 , 211.66 179.91 , 211.60 180.24 , 211.63 180.58 , 211.64 180.91 , 211.64 181.24 , 211.67 181.57 , 211.67 181.91 , 211.64 182.24 , 211.60 182.57 , 211.66 182.91 , 211.66 183.24 , 211.60 183.57 , 211.58 183.90 , 211.61 184.24 , 211.59 184.57 , 211.63 184.90 , 211.58 185.24 , 211.58 185.57 , 211.58 185.90 , 211.58 186.24 , 211.67 186.57 , 211.74 186.90 , 211.73 187.23 , 211.73 187.57 , 211.67 187.90 , 211.66 188.23 , 211.65 188.57 , 211.64 188.90 , 211.64 189.23 , 211.68 189.56 , 211.68 189.90 , 211.63 190.23 , 211.62 190.56 , 211.63 190.90 , 211.64 191.23 , 211.64 191.56 , 211.60 191.89 , 211.63 192.23 , 211.63 192.56 , 211.55 192.89 , 211.58 193.23 , 211.66 193.56 , 211.73 193.89 , 211.59 194.22 , 211.57 194.56 , 211.62 194.89 , 211.69 195.22 , 211.62 195.56 , 211.65 195.89 , 211.57 196.22 , 211.64 196.55 , 211.61 196.89 , 211.58 197.22 , 211.66 197.55 , 211.60 197.89 , 211.61 198.22 , 211.55 198.55 , 211.71 198.88 , 211.57 199.22 , 211.58 199.55 , 211.66 199.88 , 211.67 200.22 , 211.68 200.55 , 211.64 200.88 , 211.64 201.21 , 211.62 201.55 , 211.58 201.88 , 211.59 202.21 , 211.66 202.55 , 211.63 202.88 , 211.59 203.21 , 211.60 203.54 , 211.60 203.88 , 211.67 204.21 , 211.63 204.54 , 211.63 204.88 , 211.65 205.21 , 211.66 205.54 , 211.67 205.87 , 211.68 206.21 , 211.64 206.54 , 211.62 206.87 , 211.61 207.21 , 211.58 207.54 , 211.67 207.87 , 211.64 208.20 , 211.62 208.54 , 211.59 208.87 , 211.58 209.20 , 211.62 209.54 , 211.57 209.87 , 211.62 210.20 , 211.61 210.53 , 211.65 210.87 , 211.61 211.20 , 211.62 211.53 , 211.65 211.87 , 211.57 212.20 , 211.70 212.53 , 211.64 212.86 , 211.64 213.20 , 211.62 213.53 , 211.57 213.86 , 211.57 214.20 , 211.63 214.53 , 211.61 214.86 , 211.63 215.19 , 211.62 215.53 , 211.63 215.86 , 211.63 216.19 , 211.61 216.53 , 211.65 216.86 , 211.59 217.19 , 211.60 217.52 , 211.60 217.86 , 211.61 218.19 , 211.64 218.52 , 211.63 218.86 , 211.59 219.19 , 211.66 219.52 , 211.56 219.85 , 211.62 220.19 , 211.62 220.52 , 211.58 220.85 , 211.59 221.19 , 211.59 221.52 , 211.69 221.85 , 211.55 222.18 , 211.52 222.52 , 211.67 222.85 , 211.59 223.18 , 211.65 223.52 , 211.64 223.85 , 211.66 224.18 , 211.68 224.51 , 211.67 224.85 , 211.66 225.18 , 211.63 225.51 , 211.66 225.85 , 211.58 226.18 , 211.61 226.51 , 211.64 226.84 , 211.57 227.18 , 211.61 227.51 , 211.69 227.84 , 211.65 228.18 , 211.65 228.51 , 211.65 228.84 , 211.58 229.17 , 211.60 229.51 , 211.68 229.84 , 211.57 230.17 , 211.65 230.51 , 211.62 230.84 , 211.63 231.17 , 211.62 231.50 , 211.63 231.84 , 211.67 232.17 , 211.61 232.50 , 211.60 232.84 , 211.58 233.17 , 211.67 233.50 , 211.67 233.83 , 211.68 234.17 , 211.67 234.50 , 211.56 234.83 , 211.54 235.17 , 211.61 235.50 , 211.66 235.83 , 211.67 236.16 , 211.56 236.50 , 211.67 236.83 , 211.60 237.16 , 211.66 237.50 , 211.66 237.83 , 211.65 238.16 , 211.66 238.49 , 211.62 238.83 , 211.56 239.16 , 211.55 239.49 , 211.71 239.83 , 211.68 240.16 , 211.69 240.49 , 211.56 240.82 , 211.64 241.16 , 211.61 241.49 , 211.66 241.82 , 211.64 242.16 , 211.57 242.49 , 211.66 242.82 , 211.61 243.15 , 211.64 243.49 , 211.71 243.82 , 211.55 244.15 , 211.67 244.49 , 211.64 244.82 , 211.65 245.15 , 211.60 245.48 , 211.65 245.82 , 211.59 246.15 , 211.59 246.48 , 211.64 246.82 , 211.61 247.15 , 211.61 247.48 , 211.64 247.81 , 211.64 248.15 , 211.62 248.48 , 211.59 248.81 , 211.63 249.15 , 211.63 249.48 , 211.63 249.81 , 211.65 250.14 , 211.65 250.48 , 211.65 250.81 , 211.65 251.14 , 211.62 251.48 , 211.65 251.81 , 211.67 252.14 , 211.58 252.47 , 211.56 252.81 , 211.55 253.14 , 211.71 253.47 , 211.50 253.81 , 211.67 254.14 , 211.65 254.47 , 211.62 254.80 , 211.56 255.14 , 211.67 255.47 , 211.67 255.80 , 211.59 256.14 , 211.66 256.47 , 211.63 256.80 , 211.63 257.13 , 211.63 257.47 , 211.66 257.80 , 211.66 258.13 , 211.54 258.47 , 211.58 258.80 , 211.59 259.13 , 211.67 259.46 , 211.61 259.80 , 211.56 260.13 , 211.56 260.46 , 211.54 260.80 , 211.69 261.13 , 211.62 261.46 , 211.64 261.80 , 211.57 262.13 , 211.56 262.46 , 211.62 262.79 , 211.65 263.13 , 211.63 263.46 , 211.65 263.79 , 211.61 264.13 , 211.60 264.46 , 211.73 264.79 , 211.72 265.12 , 211.63 265.46 , 211.63 265.79 , 211.61 266.12 , 211.64 266.46 , 211.65 266.79 , 211.62 267.12 , 211.60 267.45 , 211.65 267.79 , 211.71 268.12 , 211.51 268.45 , 211.51 268.79 , 211.72 269.12 , 211.72 269.45 , 211.57 269.78 , 211.55 270.12 , 211.63 270.45 , 211.67 270.78 , 211.46 271.12 , 211.76 271.45 , 211.70 271.78 , 211.52 272.11 , 211.63 272.45 , 211.69 272.78 , 211.60 273.11 , 211.65 273.45 , 211.57 273.78 , 211.61 274.11 , 211.61 274.44 , 211.63 274.78 , 211.58 275.11 , 211.68 275.44 , 211.58 275.78 , 211.58 276.11 , 211.57 276.44 , 211.58 276.77 , 211.61 277.11 , 211.65 277.44 , 211.63 277.77 , 211.61 278.11 , 211.62 278.44 , 211.60 278.77 , 211.58 279.10 , 211.61 279.44 , 211.66 279.77 , 211.66 280.10 , 211.66 280.44 , 211.55 280.77 , 211.69 281.10 , 211.70 281.43 , 211.55 281.77 , 211.70 282.10 , 211.60 282.43 , 211.59 282.77 , 211.60 283.10 , 211.60 283.43 , 211.66 283.76 , 211.62 284.10 , 211.68 284.43 , 211.62 284.76 , 211.64 285.10 , 211.57 285.43 , 211.59 285.76 , 211.65 286.09 , 211.64 286.43 , 211.63 286.76 , 211.64 287.09 , 211.61 287.43 , 211.61 287.76 , 211.60 288.09 , 211.64 288.42 , 211.61 288.76 , 211.64 289.09 , 211.63 289.42 , 211.64 289.76 , 211.63 290.09 , 211.65 290.42 , 211.58 290.75 , 211.58 291.09 , 211.63 291.42 , 211.62 291.75 , 211.62 292.09 , 211.72 292.42 , 211.51 292.75 , 211.53 293.08 , 211.73 293.42 , 211.64 293.75 , 211.64 294.08 , 211.65 294.42 , 211.65 294.75 , 211.60 295.08 , 211.64 295.41 , 211.63 295.75 , 211.59 296.08 , 211.60 296.41 , 211.60 296.75 , 211.65 297.08 , 211.63 297.41 , 211.58 297.74 , 211.58 298.08 , 211.62 298.41 , 211.68 298.74 , 211.57 299.08 , 211.66 299.41 , 211.58 299.74 , 211.63 300.07 , 211.64 300.41 , 211.56 300.74 , 211.67 301.07 , 211.65 301.41 , 211.64 301.74 , 211.66 302.07 , 211.60 302.40 , 211.65 302.74 , 211.59 303.07 , 211.60 303.40 , 211.60 303.74 , 211.65 304.07 , 211.60 304.40 , 211.65 304.73 , 211.59 305.07 , 211.65 305.40 , 211.64 305.73 , 211.64 306.07 , 211.59 306.40 , 211.59 306.73 , 211.64 307.06 , 211.65 307.40 , 211.63 307.73 , 211.66 308.06 , 211.65 308.40 , 211.60 308.73 , 211.67 309.06 , 211.67 309.39 , 211.62 309.73 , 211.63 310.06 , 211.60 310.39 , 211.62 310.73 , 211.62 311.06 , 211.62 311.39 , 211.62 311.72 , 211.63 312.06 , 211.61 312.39 , 211.57 312.72 , 211.56 313.06 , 211.57 313.39 , 211.60 313.72 , 211.57 314.05 , 211.56 314.39 , 211.66 314.72 , 211.64 315.05 , 211.64 315.39 , 211.58 315.72 , 211.66 316.05 , 211.74 316.38 , 211.56 316.72 , 211.58 317.05 , 211.68 317.38 , 211.63 317.72 , 211.66 318.05 , 211.66 318.38 , 211.70 318.71 , 211.71 319.05 , 211.67 319.38 , 211.68 319.71 , 211.68 320.05 , 211.64 320.38 , 211.58 320.71 , 211.64 321.04 , 211.60 321.38 , 211.62 321.71 , 211.68 322.04 , 211.57 322.38 , 211.68 322.71 , 211.68 323.04 , 211.58 323.37 , 211.66 323.71 , 211.62 324.04 , 211.64 324.37 , 211.68 324.71 , 211.61 325.04 , 211.64 325.37 , 211.61 325.70 , 211.64 326.04 , 211.64 326.37 , 211.57 326.70 , 211.68 327.04 , 211.56 327.37 , 211.67 327.70 , 211.69 328.03 , 211.57 328.37 , 211.70 328.70 , 211.70 329.03 , 211.57 329.37 , 211.56 329.70 , 211.65 330.03 , 211.60 330.36 , 211.65 330.70 , 211.66 331.03 , 211.61 331.36 , 211.54 331.70 , 211.67 332.03 , 211.60 332.36 , 211.56 332.69 , 211.55 333.03 , 211.58 333.36 , 211.53 333.69 , 211.60 334.03 , 211.61 334.36 , 211.63 334.69 , 211.56 335.02 , 211.63 335.36 , 211.58 335.69 , 211.69 336.02 , 211.59 336.36 , 211.63 336.69 , 211.61 337.02 , 211.64 337.35 , 211.58 337.69 , 211.72 338.02 , 211.62 338.35 , 211.64 338.69 , 211.56 339.02 , 211.67 339.35 , 211.68 339.69 , 211.68 340.02 , 211.64 340.35 , 211.59 340.68 , 211.58 341.02 , 211.64 341.35 , 211.58 341.68 , 211.70 342.02 , 211.57 342.35 , 211.64 342.68 , 211.63 343.01 , 211.62 343.35 , 211.65 343.68 , 211.65 344.01 , 211.62 344.35 , 211.66 344.68 , 211.59 345.01 , 211.61 345.34 , 211.55 345.68 , 211.70 346.01 , 211.70 346.34 , 211.69 346.68 , 211.54 347.01 , 211.68 347.34 , 211.62 347.67 , 211.58 348.01 , 211.67 348.34 , 211.61 348.67 , 211.61 349.01 , 211.62 349.34 , 211.61 349.67 , 211.62 350.00 , 211.69 350.34 , 211.57 350.67 , 211.65 351.00 , 211.62 351.34 , 211.63 351.67 , 211.61 352.00 , 211.70 352.33 , 211.65 352.67 , 211.64 353.00 , 211.65 353.33 , 211.65 353.67 , 211.64 354.00 , 211.65 354.33 , 211.58 354.66 , 211.54 355.00 , 211.68 355.33 , 211.69 355.66 , 211.57 356.00 , 211.61 356.33 , 211.61 356.66 , 211.61 356.99 , 211.60 357.33 , 211.59 357.66 , 211.60 357.99 , 211.58 358.33 , 211.66 358.66 , 211.64 358.99 , 211.63 359.32 , 211.62 359.66 , 211.65 359.99 , 211.69 360.32 , 211.67 360.66 , 211.59 360.99 , 211.67 361.32 , 211.58 361.65 , 211.64 361.99 , 211.61 362.32 , 211.66 362.65 , 211.62 362.99 , 211.54 " style="stroke-width:1;stroke:#E66101;fill:#000000;stroke-opacity:1.000000;fill-opacity:0.000000"/>
<polyline points="30.79 , 24.97 31.12 , 24.97 31.45 , 24.97 31.79 , 30.54 32.12 , 59.48 32.45 , 86.34 32.79 , 118.40 33.12 , 155.76 33.45 , 181.22 33.78 , 202.01 34.12 , 208.16 34.45 , 209.75 34.78 , 209.75 35.12 , 210.89 35.45 , 210.96 35.78 , 211.40 36.11 , 211.44 36.45 , 211.41 36.78 , 211.54 37.11 , 211.64 37.45 , 211.66 37.78 , 211.66 38.11 , 211.65 38.44 , 211.59 38.78 , 211.65 39.11 , 211.64 39.44 , 211.62 39.78 , 211.63 40.11 , 211.67 40.44 , 211.63 40.77 , 211.63 41.11 , 211.61 41.44 , 211.63 41.77 , 211.69 42.11 , 211.60 42.44 , 211.71 42.77 , 211.55 43.10 , 211.59 43.44 , 211.56 43.77 , 211.57 44.10 , 211.57 44.44 , 211.54 44.77 , 211.56 45.10 , 211.62 45.43 , 211.65 45.77 , 211.61 46.10 , 211.62 46.43 , 211.61 46.77 , 211.61 47.10 , 211.65 47.43 , 211.65 47.76 , 211.61 48.10 , 211.59 48.43 , 211.63 48.76 , 211.62 49.10 , 211.67 49.43 , 211.70 49.76 , 211.60 50.09 , 211.66 50.43 , 211.59 50.76 , 211.63 51.09 , 211.61 51.43 , 211.58 51.76 , 211.64 52.09 , 211.63 52.42 , 211.66 52.76 , 211.67 53.09 , 211.62 53.42 , 211.60 53.76 , 211.67 54.09 , 211.68 54.42 , 211.67 54.75 , 211.61 55.09 , 211.57 55.42 , 211.58 55.75 , 211.59 56.09 , 211.58 56.42 , 211.59 56.75 , 211.64 57.08 , 211.62 57.42 , 211.62 57.75 , 211.66 58.08 , 211.66 58.42 , 211.65 58.75 , 211.66 59.08 , 211.60 59.41 , 211.64 59.75 , 211.64 60.08 , 211.66 60.41 , 211.63 60.75 , 211.61 61.08 , 211.64 61.41 , 211.63 61.74 , 211.62 62.08 , 211.62 62.41 , 211.65 62.74 , 211.68 63.08 , 211.67 63.41 , 211.64 63.74 , 211.66 64.07 , 211.66 64.41 , 211.66 64.74 , 211.62 65.07 , 211.68 65.41 , 211.64 65.74 , 211.63 66.07 , 211.66 66.40 , 211.66 66.74 , 211.64 67.07 , 211.64 67.40 , 211.64 67.74 , 211.62 68.07 , 211.62 68.40 , 211.62 68.73 , 211.58 69.07 , 211.66 69.40 , 211.62 69.73 , 211.62 70.07 , 211.61 70.40 , 211.66 70.73 , 211.59 71.06 , 211.59 71.40 , 211.64 71.73 , 211.59 72.06 , 211.59 72.40 , 211.60 72.73 , 211.61 73.06 , 211.58 73.39 , 211.58 73.73 , 211.59 74.06 , 211.59 74.39 , 211.62 74.73 , 211.58 75.06 , 211.64 75.39 , 211.62 75.72 , 211.64 76.06 , 211.63 76.39 , 211.57 76.72 , 211.58 77.06 , 211.58 77.39 , 211.55 77.72 , 211.69 78.05 , 211.61 78.39 , 211.61 78.72 , 211.61 79.05 , 211.62 79.39 , 211.61 79.72 , 211.62 80.05 , 211.65 80.38 , 211.65 80.72 , 211.65 81.05 , 211.65 81.38 , 211.66 81.72 , 211.64 82.05 , 211.64 82.38 , 211.68 82.71 , 211.67 83.05 , 211.70 83.38 , 211.58 83.71 , 211.65 84.05 , 211.65 84.38 , 211.65 84.71 , 211.63 85.04 , 211.63 85.38 , 211.63 85.71 , 211.62 86.04 , 211.62 86.38 , 211.63 86.71 , 211.66 87.04 , 211.61 87.37 , 211.58 87.71 , 211.67 88.04 , 211.62 88.37 , 211.61 88.71 , 211.58 89.04 , 211.59 89.37 , 211.67 89.70 , 211.66 90.04 , 211.59 90.37 , 211.63 90.70 , 211.57 91.04 , 211.65 91.37 , 211.66 91.70 , 211.62 92.03 , 211.65 92.37 , 211.65 92.70 , 211.62 93.03 , 211.60 93.37 , 211.61 93.70 , 211.60 94.03 , 211.62 94.36 , 211.59 94.70 , 211.64 95.03 , 211.60 95.36 , 211.63 95.70 , 211.59 96.03 , 211.70 96.36 , 211.66 96.69 , 211.66 97.03 , 211.66 97.36 , 211.66 97.69 , 211.66 98.03 , 211.61 98.36 , 211.61 98.69 , 211.65 99.02 , 211.59 99.36 , 211.63 99.69 , 211.61 100.02 , 211.66 100.36 , 211.60 100.69 , 211.61 101.02 , 211.60 101.35 , 211.60 101.69 , 211.61 102.02 , 211.69 102.35 , 211.70 102.69 , 211.57 103.02 , 211.59 103.35 , 211.61 103.68 , 211.66 104.02 , 211.68 104.35 , 211.56 104.68 , 211.59 105.02 , 211.63 105.35 , 211.61 105.68 , 211.56 106.01 , 211.56 106.35 , 211.62 106.68 , 211.61 107.01 , 211.60 107.35 , 211.61 107.68 , 211.52 108.01 , 211.57 108.35 , 211.61 108.68 , 211.65 109.01 , 211.61 109.34 , 211.60 109.68 , 211.64 110.01 , 211.65 110.34 , 211.65 110.68 , 211.64 111.01 , 211.67 111.34 , 211.62 111.67 , 211.62 112.01 , 211.65 112.34 , 211.66 112.67 , 211.63 113.01 , 211.68 113.34 , 211.63 113.67 , 211.61 114.00 , 211.61 114.34 , 211.61 114.67 , 211.68 115.00 , 211.58 115.34 , 211.64 115.67 , 211.61 116.00 , 211.63 116.33 , 211.62 116.67 , 211.67 117.00 , 211.64 117.33 , 211.58 117.67 , 211.60 118.00 , 211.57 118.33 , 211.61 118.66 , 211.58 119.00 , 211.57 119.33 , 211.74 119.66 , 211.73 120.00 , 211.73 120.33 , 211.58 120.66 , 211.64 120.99 , 211.65 121.33 , 211.64 121.66 , 211.64 121.99 , 211.65 122.33 , 211.68 122.66 , 211.62 122.99 , 211.67 123.32 , 211.60 123.66 , 211.60 123.99 , 211.61 124.32 , 211.62 124.66 , 211.67 124.99 , 211.67 125.32 , 211.67 125.65 , 211.57 125.99 , 211.61 126.32 , 211.70 126.65 , 211.70 126.99 , 211.61 127.32 , 211.62 127.65 , 211.59 127.98 , 211.66 128.32 , 211.63 128.65 , 211.65 128.98 , 211.64 129.32 , 211.60 129.65 , 211.60 129.98 , 211.61 130.31 , 211.65 130.65 , 211.65 130.98 , 211.66 131.31 , 211.62 131.65 , 211.62 131.98 , 211.64 132.31 , 211.63 132.64 , 211.65 132.98 , 211.62 133.31 , 211.68 133.64 , 211.61 133.98 , 211.67 134.31 , 211.65 134.64 , 211.59 134.97 , 211.62 135.31 , 211.56 135.64 , 211.59 135.97 , 211.60 136.31 , 211.65 136.64 , 211.65 136.97 , 211.63 137.30 , 211.62 137.64 , 211.61 137.97 , 211.65 138.30 , 211.60 138.64 , 211.58 138.97 , 211.69 139.30 , 211.70 139.63 , 211.56 139.97 , 211.63 140.30 , 211.61 140.63 , 211.60 140.97 , 211.64 141.30 , 211.64 141.63 , 211.70 141.96 , 211.61 142.30 , 211.58 142.63 , 211.47 142.96 , 211.47 143.30 , 211.68 143.63 , 211.63 143.96 , 211.65 144.29 , 211.63 144.63 , 211.65 144.96 , 211.61 145.29 , 211.66 145.63 , 211.65 145.96 , 211.64 146.29 , 211.60 146.62 , 211.68 146.96 , 211.61 147.29 , 211.61 147.62 , 211.59 147.96 , 211.60 148.29 , 211.64 148.62 , 211.59 148.95 , 211.68 149.29 , 211.66 149.62 , 211.55 149.95 , 211.67 150.29 , 211.67 150.62 , 211.52 150.95 , 211.58 151.28 , 211.59 151.62 , 211.66 151.95 , 211.68 152.28 , 211.59 152.62 , 211.55 152.95 , 211.69 153.28 , 211.61 153.61 , 211.62 153.95 , 211.65 154.28 , 211.63 154.61 , 211.60 154.95 , 211.64 155.28 , 211.57 155.61 , 211.48 155.94 , 211.59 156.28 , 211.62 156.61 , 211.61 156.94 , 211.61 157.28 , 211.58 157.61 , 211.55 157.94 , 211.69 158.27 , 211.69 158.61 , 211.68 158.94 , 211.64 159.27 , 211.64 159.61 , 211.62 159.94 , 211.66 160.27 , 211.66 160.60 , 211.61 160.94 , 211.58 161.27 , 211.67 161.60 , 211.63 161.94 , 211.66 162.27 , 211.61 162.60 , 211.61 162.93 , 211.61 163.27 , 211.68 163.60 , 211.70 163.93 , 211.54 164.27 , 211.61 164.60 , 211.66 164.93 , 211.56 165.26 , 211.65 165.60 , 211.64 165.93 , 211.67 166.26 , 211.66 166.60 , 211.57 166.93 , 211.66 167.26 , 211.66 167.59 , 211.62 167.93 , 211.66 168.26 , 211.58 168.59 , 211.67 168.93 , 211.60 169.26 , 211.66 169.59 , 211.68 169.92 , 211.68 170.26 , 211.65 170.59 , 211.63 170.92 , 211.69 171.26 , 211.54 171.59 , 211.57 171.92 , 211.57 172.25 , 211.61 172.59 , 211.54 172.92 , 211.55 173.25 , 211.67 173.59 , 211.67 173.92 , 211.66 174.25 , 211.67 174.58 , 211.58 174.92 , 211.65 175.25 , 211.65 175.58 , 211.63 175.92 , 211.59 176.25 , 211.67 176.58 , 211.67 176.91 , 211.61 177.25 , 211.60 177.58 , 211.63 177.91 , 211.65 178.25 , 211.68 178.58 , 211.68 178.91 , 211.71 179.24 , 211.66 179.58 , 211.66 179.91 , 211.60 180.24 , 211.66 180.58 , 211.60 180.91 , 211.60 181.24 , 211.60 181.57 , 211.65 181.91 , 211.69 182.24 , 211.68 182.57 , 211.63 182.91 , 211.62 183.24 , 211.70 183.57 , 211.68 183.90 , 211.67 184.24 , 211.67 184.57 , 211.64 184.90 , 211.66 185.24 , 211.64 185.57 , 211.61 185.90 , 211.63 186.24 , 211.64 186.57 , 211.64 186.90 , 211.66 187.23 , 211.61 187.57 , 211.60 187.90 , 211.59 188.23 , 211.60 188.57 , 211.61 188.90 , 211.67 189.23 , 211.63 189.56 , 211.64 189.90 , 211.64 190.23 , 211.59 190.56 , 211.67 190.90 , 211.60 191.23 , 211.63 191.56 , 211.63 191.89 , 211.61 192.23 , 211.62 192.56 , 211.62 192.89 , 211.62 193.23 , 211.64 193.56 , 211.65 193.89 , 211.56 194.22 , 211.56 194.56 , 211.58 194.89 , 211.60 195.22 , 211.60 195.56 , 211.60 195.89 , 211.64 196.22 , 211.62 196.55 , 211.60 196.89 , 211.59 197.22 , 211.64 197.55 , 211.65 197.89 , 211.66 198.22 , 211.61 198.55 , 211.59 198.88 , 211.59 199.22 , 211.57 199.55 , 211.63 199.88 , 211.65 200.22 , 211.65 200.55 , 211.66 200.88 , 211.60 201.21 , 211.59 201.55 , 211.70 201.88 , 211.61 202.21 , 211.55 202.55 , 211.65 202.88 , 211.60 203.21 , 211.64 203.54 , 211.66 203.88 , 211.65 204.21 , 211.62 204.54 , 211.58 204.88 , 211.55 205.21 , 211.67 205.54 , 211.57 205.87 , 211.56 206.21 , 211.67 206.54 , 211.66 206.87 , 211.67 207.21 , 211.67 207.54 , 211.51 207.87 , 211.65 208.20 , 211.66 208.54 , 211.58 208.87 , 211.64 209.20 , 211.60 209.54 , 211.59 209.87 , 211.65 210.20 , 211.59 210.53 , 211.62 210.87 , 211.62 211.20 , 211.66 211.53 , 211.62 211.87 , 211.64 212.20 , 211.62 212.53 , 211.55 212.86 , 211.63 213.20 , 211.65 213.53 , 211.62 213.86 , 211.58 214.20 , 211.62 214.53 , 211.66 214.86 , 211.66 215.19 , 211.62 215.53 , 211.69 215.86 , 211.56 216.19 , 211.67 216.53 , 211.64 216.86 , 211.67 217.19 , 211.59 217.52 , 211.66 217.86 , 211.60 218.19 , 211.65 218.52 , 211.65 218.86 , 211.64 219.19 , 211.53 219.52 , 211.61 219.85 , 211.64 220.19 , 211.62 220.52 , 211.65 220.85 , 211.66 221.19 , 211.59 221.52 , 211.62 221.85 , 211.61 222.18 , 211.67 222.52 , 211.62 222.85 , 211.63 223.18 , 211.65 223.52 , 211.66 223.85 , 211.60 224.18 , 211.64 224.51 , 211.60 224.85 , 211.60 225.18 , 211.60 225.51 , 211.59 225.85 , 211.67 226.18 , 211.60 226.51 , 211.66 226.84 , 211.63 227.18 , 211.63 227.51 , 211.60 227.84 , 211.70 228.18 , 211.67 228.51 , 211.62 228.84 , 211.65 229.17 , 211.66 229.51 , 211.61 229.84 , 211.62 230.17 , 211.64 230.51 , 211.70 230.84 , 211.56 231.17 , 211.66 231.50 , 211.61 231.84 , 211.65 232.17 , 211.64 232.50 , 211.58 232.84 , 211.60 233.17 , 211.62 233.50 , 211.65 233.83 , 211.59 234.17 , 211.67 234.50 , 211.56 234.83 , 211.60 235.17 , 211.66 235.50 , 211.61 235.83 , 211.59 236.16 , 211.62 236.50 , 211.68 236.83 , 211.58 237.16 , 211.70 237.50 , 211.55 237.83 , 211.66 238.16 , 211.56 238.49 , 211.57 238.83 , 211.63 239.16 , 211.58 239.49 , 211.65 239.83 , 211.61 240.16 , 211.62 240.49 , 211.67 240.82 , 211.59 241.16 , 211.64 241.49 , 211.62 241.82 , 211.61 242.16 , 211.57 242.49 , 211.65 242.82 , 211.67 243.15 , 211.63 243.49 , 211.64 243.82 , 211.62 244.15 , 211.62 244.49 , 211.68 244.82 , 211.58 245.15 , 211.63 245.48 , 211.67 245.82 , 211.60 246.15 , 211.59 246.48 , 211.64 246.82 , 211.58 247.15 , 211.64 247.48 , 211.65 247.81 , 211.62 248.15 , 211.62 248.48 , 211.67 248.81 , 211.59 249.15 , 211.63 249.48 , 211.64 249.81 , 211.59 250.14 , 211.62 250.48 , 211.61 250.81 , 211.70 251.14 , 211.54 251.48 , 211.62 251.81 , 211.61 252.14 , 211.62 252.47 , 211.59 252.81 , 211.64 253.14 , 211.59 253.47 , 211.66 253.81 , 211.59 254.14 , 211.68 254.47 , 211.59 254.80 , 211.60 255.14 , 211.62 255.47 , 211.59 255.80 , 211.60 256.14 , 211.71 256.47 , 211.64 256.80 , 211.60 257.13 , 211.69 257.47 , 211.58 257.80 , 211.57 258.13 , 211.69 258.47 , 211.63 258.80 , 211.62 259.13 , 211.61 259.46 , 211.65 259.80 , 211.61 260.13 , 211.64 260.46 , 211.71 260.80 , 211.66 261.13 , 211.62 261.46 , 211.63 261.80 , 211.56 262.13 , 211.67 262.46 , 211.60 262.79 , 211.61 263.13 , 211.57 263.46 , 211.67 263.79 , 211.58 264.13 , 211.63 264.46 , 211.67 264.79 , 211.62 265.12 , 211.65 265.46 , 211.65 265.79 , 211.61 266.12 , 211.60 266.46 , 211.63 266.79 , 211.59 267.12 , 211.63 267.45 , 211.61 267.79 , 211.62 268.12 , 211.66 268.45 , 211.61 268.79 , 211.66 269.12 , 211.62 269.45 , 211.65 269.78 , 211.66 270.12 , 211.61 270.45 , 211.50 270.78 , 211.74 271.12 , 211.64 271.45 , 211.60 271.78 , 211.60 272.11 , 211.66 272.45 , 211.59 272.78 , 211.58 273.11 , 211.62 273.45 , 211.63 273.78 , 211.62 274.11 , 211.65 274.44 , 211.70 274.78 , 211.55 275.11 , 211.71 275.44 , 211.58 275.78 , 211.65 276.11 , 211.63 276.44 , 211.65 276.77 , 211.63 277.11 , 211.54 277.44 , 211.59 277.77 , 211.67 278.11 , 211.66 278.44 , 211.63 278.77 , 211.64 279.10 , 211.59 279.44 , 211.66 279.77 , 211.66 280.10 , 211.65 280.44 , 211.67 280.77 , 211.62 281.10 , 211.63 281.43 , 211.65 281.77 , 211.65 282.10 , 211.61 282.43 , 211.65 282.77 , 211.61 283.10 , 211.56 283.43 , 211.58 283.76 , 211.73 284.10 , 211.65 284.43 , 211.59 284.76 , 211.67 285.10 , 211.61 285.43 , 211.56 285.76 , 211.68 286.09 , 211.66 286.43 , 211.52 286.76 , 211.69 287.09 , 211.55 287.43 , 211.60 287.76 , 211.57 288.09 , 211.59 288.42 , 211.63 288.76 , 211.61 289.09 , 211.65 289.42 , 211.64 289.76 , 211.61 290.09 , 211.64 290.42 , 211.63 290.75 , 211.56 291.09 , 211.70 291.42 , 211.54 291.75 , 211.70 292.09 , 211.59 292.42 , 211.64 292.75 , 211.64 293.08 , 211.61 293.42 , 211.60 293.75 , 211.57 294.08 , 211.65 294.42 , 211.66 294.75 , 211.56 295.08 , 211.56 295.41 , 211.67 295.75 , 211.68 296.08 , 211.57 296.41 , 211.58 296.75 , 211.57 297.08 , 211.68 297.41 , 211.60 297.74 , 211.63 298.08 , 211.68 298.41 , 211.63 298.74 , 211.63 299.08 , 211.59 299.41 , 211.66 299.74 , 211.61 300.07 , 211.56 300.41 , 211.57 300.74 , 211.59 301.07 , 211.63 301.41 , 211.63 301.74 , 211.60 302.07 , 211.64 302.40 , 211.68 302.74 , 211.66 303.07 , 211.59 303.40 , 211.67 303.74 , 211.58 304.07 , 211.66 304.40 , 211.65 304.73 , 211.61 305.07 , 211.67 305.40 , 211.66 305.73 , 211.56 306.07 , 211.59 306.40 , 211.64 306.73 , 211.60 307.06 , 211.71 307.40 , 211.50 307.73 , 211.74 308.06 , 211.55 308.40 , 211.71 308.73 , 211.70 309.06 , 211.58 309.39 , 211.61 309.73 , 211.66 310.06 , 211.57 310.39 , 211.57 310.73 , 211.58 311.06 , 211.58 311.39 , 211.68 311.72 , 211.62 312.06 , 211.61 312.39 , 211.61 312.72 , 211.61 313.06 , 211.61 313.39 , 211.66 313.72 , 211.64 314.05 , 211.61 314.39 , 211.61 314.72 , 211.64 315.05 , 211.63 315.39 , 211.63 315.72 , 211.63 316.05 , 211.60 316.38 , 211.66 316.72 , 211.61 317.05 , 211.63 317.38 , 211.60 317.72 , 211.68 318.05 , 211.63 318.38 , 211.62 318.71 , 211.62 319.05 , 211.65 319.38 , 211.71 319.71 , 211.72 320.05 , 211.62 320.38 , 211.61 320.71 , 211.62 321.04 , 211.59 321.38 , 211.59 321.71 , 211.63 322.04 , 211.59 322.38 , 211.58 322.71 , 211.61 323.04 , 211.59 323.37 , 211.62 323.71 , 211.62 324.04 , 211.63 324.37 , 211.61 324.71 , 211.63 325.04 , 211.63 325.37 , 211.63 325.70 , 211.68 326.04 , 211.60 326.37 , 211.62 326.70 , 211.66 327.04 , 211.65 327.37 , 211.65 327.70 , 211.56 328.03 , 211.68 328.37 , 211.52 328.70 , 211.66 329.03 , 211.62 329.37 , 211.62 329.70 , 211.62 330.03 , 211.62 330.36 , 211.65 330.70 , 211.60 331.03 , 211.65 331.36 , 211.64 331.70 , 211.63 332.03 , 211.62 332.36 , 211.63 332.69 , 211.66 333.03 , 211.70 333.36 , 211.66 333.69 , 211.65 334.03 , 211.62 334.36 , 211.60 334.69 , 211.60 335.02 , 211.66 335.36 , 211.51 335.69 , 211.72 336.02 , 211.55 336.36 , 211.63 336.69 , 211.64 337.02 , 211.65 337.35 , 211.60 337.69 , 211.67 338.02 , 211.60 338.35 , 211.68 338.69 , 211.57 339.02 , 211.66 339.35 , 211.60 339.69 , 211.57 340.02 , 211.66 340.35 , 211.60 340.68 , 211.69 341.02 , 211.58 341.35 , 211.60 341.68 , 211.66 342.02 , 211.62 342.35 , 211.56 342.68 , 211.60 343.01 , 211.63 343.35 , 211.66 343.68 , 211.61 344.01 , 211.61 344.35 , 211.59 344.68 , 211.60 345.01 , 211.62 345.34 , 211.62 345.68 , 211.63 346.01 , 211.56 346.34 , 211.68 346.68 , 211.68 347.01 , 211.59 347.34 , 211.64 347.67 , 211.64 348.01 , 211.65 348.34 , 211.64 348.67 , 211.63 349.01 , 211.64 349.34 , 211.61 349.67 , 211.63 350.00 , 211.61 350.34 , 211.60 350.67 , 211.66 351.00 , 211.73 351.34 , 211.71 351.67 , 211.55 352.00 , 211.61 352.33 , 211.62 352.67 , 211.57 353.00 , 211.73 353.33 , 211.54 353.67 , 211.60 354.00 , 211.61 354.33 , 211.58 354.66 , 211.58 355.00 , 211.62 355.33 , 211.58 355.66 , 211.57 356.00 , 211.63 356.33 , 211.62 356.66 , 211.65 356.99 , 211.62 357.33 , 211.66 357.66 , 211.58 357.99 , 211.71 358.33 , 211.56 358.66 , 211.56 358.99 , 211.69 359.32 , 211.60 359.66 , 211.63 359.99 , 211.62 360.32 , 211.56 360.66 , 211.57 360.99 , 211.69 361.32 , 211.58 361.65 , 211.68 361.99 , 211.61 362.32 , 211.57 362.65 , 211.69 362.99 , 211.60 " style="stroke-width:1;stroke:#998EC3;fill:#000000;stroke-opacity:1.000000;fill-opacity:0.000000"/>
<polyline points="30.79 , 201.90 31.12 , 201.90 31.45 , 201.90 31.79 , 201.90 32.12 , 201.15 32.45 , 209.55 32.79 , 208.68 33.12 , 208.48 33.45 , 209.10 33.78 , 210.26 34.12 , 210.07 34.45 , 211.16 34.78 , 211.23 35.12 , 211.43 35.45 , 211.60 35.78 , 211.63 36.11 , 211.58 36.45 , 211.59 36.78 , 211.65 37.11 , 211.66 37.45 , 211.62 37.78 , 211.63 38.11 , 211.63 38.44 , 211.64 38.78 , 211.58 39.11 , 211.64 39.44 , 211.65 39.78 , 211.65 40.11 , 211.62 40.44 , 211.61 40.77 , 211.64 41.11 , 211.62 41.44 , 211.62 41.77 , 211.65 42.11 , 211.63 42.44 , 211.63 42.77 , 211.61 43.10 , 211.59 43.44 , 211.63 43.77 , 211.61 44.10 , 211.63 44.44 , 211.61 44.77 , 211.65 45.10 , 211.67 45.43 , 211.60 45.77 , 211.63 46.10 , 211.68 46.43 , 211.69 46.77 , 211.70 47.10 , 211.62 47.43 , 211.64 47.76 , 211.68 48.10 , 211.70 48.43 , 211.54 48.76 , 211.65 49.10 , 211.62 49.43 , 211.69 49.76 , 211.69 50.09 , 211.57 50.43 , 211.58 50.76 , 211.55 51.09 , 211.58 51.43 , 211.63 51.76 , 211.63 52.09 , 211.63 52.42 , 211.64 52.76 , 211.69 53.09 , 211.60 53.42 , 211.67 53.76 , 211.64 54.09 , 211.61 54.42 , 211.66 54.75 , 211.65 55.09 , 211.66 55.42 , 211.68 55.75 , 211.66 56.09 , 211.60 56.42 , 211.68 56.75 , 211.59 57.08 , 211.63 57.42 , 211.62 57.75 , 211.66 58.08 , 211.60 58.42 , 211.61 58.75 , 211.59 59.08 , 211.61 59.41 , 211.61 59.75 , 211.57 60.08 , 211.64 60.41 , 211.64 60.75 , 211.66 61.08 , 211.58 61.41 , 211.58 61.74 , 211.67 62.08 , 211.66 62.41 , 211.55 62.74 , 211.55 63.08 , 211.57 63.41 , 211.68 63.74 , 211.63 64.07 , 211.63 64.41 , 211.58 64.74 , 211.63 65.07 , 211.61 65.41 , 211.62 65.74 , 211.60 66.07 , 211.60 66.40 , 211.67 66.74 , 211.65 67.07 , 211.63 67.40 , 211.65 67.74 , 211.66 68.07 , 211.66 68.40 , 211.61 68.73 , 211.64 69.07 , 211.66 69.40 , 211.63 69.73 , 211.63 70.07 , 211.63 70.40 , 211.64 70.73 , 211.61 71.06 , 211.61 71.40 , 211.58 71.73 , 211.58 72.06 , 211.58 72.40 , 211.65 72.73 , 211.57 73.06 , 211.65 73.39 , 211.68 73.73 , 211.61 74.06 , 211.64 74.39 , 211.64 74.73 , 211.63 75.06 , 211.65 75.39 , 211.68 75.72 , 211.58 76.06 , 211.67 76.39 , 211.68 76.72 , 211.67 77.06 , 211.63 77.39 , 211.61 77.72 , 211.60 78.05 , 211.60 78.39 , 211.67 78.72 , 211.60 79.05 , 211.65 79.39 , 211.69 79.72 , 211.59 80.05 , 211.56 80.38 , 211.59 80.72 , 211.63 81.05 , 211.63 81.38 , 211.71 81.72 , 211.63 82.05 , 211.59 82.38 , 211.65 82.71 , 211.63 83.05 , 211.57 83.38 , 211.57 83.71 , 211.58 84.05 , 211.57 84.38 , 211.63 84.71 , 211.63 85.04 , 211.64 85.38 , 211.64 85.71 , 211.65 86.04 , 211.66 86.38 , 211.68 86.71 , 211.67 87.04 , 211.67 87.37 , 211.56 87.71 , 211.57 88.04 , 211.57 88.37 , 211.64 88.71 , 211.59 89.04 , 211.65 89.37 , 211.66 89.70 , 211.56 90.04 , 211.62 90.37 , 211.63 90.70 , 211.61 91.04 , 211.63 91.37 , 211.64 91.70 , 211.62 92.03 , 211.62 92.37 , 211.61 92.70 , 211.61 93.03 , 211.70 93.37 , 211.67 93.70 , 211.69 94.03 , 211.70 94.36 , 211.57 94.70 , 211.63 95.03 , 211.68 95.36 , 211.68 95.70 , 211.67 96.03 , 211.62 96.36 , 211.60 96.69 , 211.61 97.03 , 211.58 97.36 , 211.70 97.69 , 211.61 98.03 , 211.65 98.36 , 211.64 98.69 , 211.67 99.02 , 211.67 99.36 , 211.68 99.69 , 211.65 100.02 , 211.66 100.36 , 211.60 100.69 , 211.66 101.02 , 211.65 101.35 , 211.65 101.69 , 211.64 102.02 , 211.60 102.35 , 211.64 102.69 , 211.64 103.02 , 211.60 103.35 , 211.66 103.68 , 211.58 104.02 , 211.66 104.35 , 211.59 104.68 , 211.61 105.02 , 211.62 105.35 , 211.58 105.68 , 211.63 106.01 , 211.64 106.35 , 211.66 106.68 , 211.59 107.01 , 211.62 107.35 , 211.63 107.68 , 211.63 108.01 , 211.62 108.35 , 211.62 108.68 , 211.60 109.01 , 211.58 109.34 , 211.61 109.68 , 211.64 110.01 , 211.65 110.34 , 211.65 110.68 , 211.62 111.01 , 211.63 111.34 , 211.62 111.67 , 211.62 112.01 , 211.59 112.34 , 211.62 112.67 , 211.63 113.01 , 211.61 113.34 , 211.61 113.67 , 211.66 114.00 , 211.61 114.34 , 211.61 114.67 , 211.61 115.00 , 211.71 115.34 , 211.68 115.67 , 211.58 116.00 , 211.58 116.33 , 211.60 116.67 , 211.67 117.00 , 211.60 117.33 , 211.69 117.67 , 211.63 118.00 , 211.63 118.33 , 211.62 118.66 , 211.60 119.00 , 211.58 119.33 , 211.68 119.66 , 211.62 120.00 , 211.60 120.33 , 211.62 120.66 , 211.63 120.99 , 211.63 121.33 , 211.69 121.66 , 211.69 121.99 , 211.66 122.33 , 211.63 122.66 , 211.60 122.99 , 211.60 123.32 , 211.64 123.66 , 211.66 123.99 , 211.67 124.32 , 211.65 124.66 , 211.60 124.99 , 211.60 125.32 , 211.63 125.65 , 211.64 125.99 , 211.63 126.32 , 211.63 126.65 , 211.59 126.99 , 211.69 127.32 , 211.60 127.65 , 211.67 127.98 , 211.64 128.32 , 211.65 128.65 , 211.64 128.98 , 211.65 129.32 , 211.65 129.65 , 211.62 129.98 , 211.63 130.31 , 211.64 130.65 , 211.62 130.98 , 211.65 131.31 , 211.58 131.65 , 211.58 131.98 , 211.58 132.31 , 211.62 132.64 , 211.62 132.98 , 211.58 133.31 , 211.66 133.64 , 211.65 133.98 , 211.66 134.31 , 211.63 134.64 , 211.64 134.97 , 211.71 135.31 , 211.69 135.64 , 211.54 135.97 , 211.62 136.31 , 211.62 136.64 , 211.61 136.97 , 211.57 137.30 , 211.70 137.64 , 211.55 137.97 , 211.70 138.30 , 211.66 138.64 , 211.64 138.97 , 211.54 139.30 , 211.53 139.63 , 211.53 139.97 , 211.57 140.30 , 211.54 140.63 , 211.56 140.97 , 211.66 141.30 , 211.66 141.63 , 211.63 141.96 , 211.62 142.30 , 211.59 142.63 , 211.62 142.96 , 211.68 143.30 , 211.65 143.63 , 211.58 143.96 , 211.58 144.29 , 211.67 144.63 , 211.67 144.96 , 211.63 145.29 , 211.60 145.63 , 211.66 145.96 , 211.58 146.29 , 211.60 146.62 , 211.53 146.96 , 211.69 147.29 , 211.68 147.62 , 211.59 147.96 , 211.63 148.29 , 211.58 148.62 , 211.61 148.95 , 211.61 149.29 , 211.62 149.62 , 211.57 149.95 , 211.58 150.29 , 211.55 150.62 , 211.60 150.95 , 211.65 151.28 , 211.63 151.62 , 211.63 151.95 , 211.64 152.28 , 211.62 152.62 , 211.68 152.95 , 211.72 153.28 , 211.68 153.61 , 211.68 153.95 , 211.64 154.28 , 211.57 154.61 , 211.62 154.95 , 211.58 155.28 , 211.58 155.61 , 211.58 155.94 , 211.67 156.28 , 211.68 156.61 , 211.57 156.94 , 211.54 157.28 , 211.70 157.61 , 211.70 157.94 , 211.52 158.27 , 211.53 158.61 , 211.56 158.94 , 211.63 159.27 , 211.65 159.61 , 211.58 159.94 , 211.65 160.27 , 211.60 160.60 , 211.66 160.94 , 211.54 161.27 , 211.55 161.60 , 211.70 161.94 , 211.71 162.27 , 211.69 162.60 , 211.62 162.93 , 211.60 163.27 , 211.68 163.60 , 211.57 163.93 , 211.66 164.27 , 211.66 164.60 , 211.62 164.93 , 211.66 165.26 , 211.60 165.60 , 211.61 165.93 , 211.63 166.26 , 211.60 166.60 , 211.62 166.93 , 211.62 167.26 , 211.65 167.59 , 211.62 167.93 , 211.56 168.26 , 211.67 168.59 , 211.58 168.93 , 211.63 169.26 , 211.63 169.59 , 211.68 169.92 , 211.65 170.26 , 211.61 170.59 , 211.63 170.92 , 211.62 171.26 , 211.66 171.59 , 211.63 171.92 , 211.67 172.25 , 211.67 172.59 , 211.58 172.92 , 211.66 173.25 , 211.63 173.59 , 211.61 173.92 , 211.66 174.25 , 211.64 174.58 , 211.65 174.92 , 211.62 175.25 , 211.63 175.58 , 211.50 175.92 , 211.64 176.25 , 211.64 176.58 , 211.64 176.91 , 211.64 177.25 , 211.61 177.58 , 211.64 177.91 , 211.57 178.25 , 211.63 178.58 , 211.64 178.91 , 211.61 179.24 , 211.60 179.58 , 211.60 179.91 , 211.66 180.24 , 211.60 180.58 , 211.59 180.91 , 211.59 181.24 , 211.63 181.57 , 211.58 181.91 , 211.58 182.24 , 211.60 182.57 , 211.71 182.91 , 211.68 183.24 , 211.65 183.57 , 211.65 183.90 , 211.53 184.24 , 211.57 184.57 , 211.56 184.90 , 211.65 185.24 , 211.62 185.57 , 211.66 185.90 , 211.60 186.24 , 211.60 186.57 , 211.62 186.90 , 211.59 187.23 , 211.61 187.57 , 211.60 187.90 , 211.62 188.23 , 211.65 188.57 , 211.61 188.90 , 211.59 189.23 , 211.61 189.56 , 211.63 189.90 , 211.62 190.23 , 211.67 190.56 , 211.62 190.90 , 211.56 191.23 , 211.63 191.56 , 211.66 191.89 , 211.61 192.23 , 211.66 192.56 , 211.63 192.89 , 211.69 193.23 , 211.57 193.56 , 211.60 193.89 , 211.59 194.22 , 211.61 194.56 , 211.61 194.89 , 211.75 195.22 , 211.73 195.56 , 211.74 195.89 , 211.67 196.22 , 211.68 196.55 , 211.64 196.89 , 211.63 197.22 , 211.68 197.55 , 211.64 197.89 , 211.67 198.22 , 211.57 198.55 , 211.68 198.88 , 211.69 199.22 , 211.57 199.55 , 211.68 199.88 , 211.57 200.22 , 211.68 200.55 , 211.61 200.88 , 211.57 201.21 , 211.64 201.55 , 211.55 201.88 , 211.52 202.21 , 211.72 202.55 , 211.56 202.88 , 211.69 203.21 , 211.59 203.54 , 211.61 203.88 , 211.59 204.21 , 211.61 204.54 , 211.61 204.88 , 211.65 205.21 , 211.59 205.54 , 211.69 205.87 , 211.63 206.21 , 211.63 206.54 , 211.64 206.87 , 211.64 207.21 , 211.60 207.54 , 211.67 207.87 , 211.67 208.20 , 211.59 208.54 , 211.63 208.87 , 211.65 209.20 , 211.63 209.54 , 211.63 209.87 , 211.69 210.20 , 211.56 210.53 , 211.74 210.87 , 211.63 211.20 , 211.64 211.53 , 211.63 211.87 , 211.64 212.20 , 211.67 212.53 , 211.60 212.86 , 211.63 213.20 , 211.64 213.53 , 211.64 213.86 , 211.61 214.20 , 211.62 214.53 , 211.60 214.86 , 211.56 215.19 , 211.71 215.53 , 211.62 215.86 , 211.60 216.19 , 211.66 216.53 , 211.69 216.86 , 211.62 217.19 , 211.64 217.52 , 211.65 217.86 , 211.59 218.19 , 211.61 218.52 , 211.66 218.86 , 211.64 219.19 , 211.68 219.52 , 211.58 219.85 , 211.63 220.19 , 211.67 220.52 , 211.61 220.85 , 211.68 221.19 , 211.71 221.52 , 211.54 221.85 , 211.70 222.18 , 211.57 222.52 , 211.66 222.85 , 211.62 223.18 , 211.64 223.52 , 211.68 223.85 , 211.61 224.18 , 211.53 224.51 , 211.64 224.85 , 211.62 225.18 , 211.67 225.51 , 211.63 225.85 , 211.64 226.18 , 211.61 226.51 , 211.63 226.84 , 211.65 227.18 , 211.60 227.51 , 211.63 227.84 , 211.70 228.18 , 211.70 228.51 , 211.71 228.84 , 211.70 229.17 , 211.68 229.51 , 211.60 229.84 , 211.53 230.17 , 211.73 230.51 , 211.51 230.84 , 211.62 231.17 , 211.64 231.50 , 211.64 231.84 , 211.71 232.17 , 211.54 232.50 , 211.63 232.84 , 211.57 233.17 , 211.69 233.50 , 211.55 233.83 , 211.53 234.17 , 211.70 234.50 , 211.61 234.83 , 211.66 235.17 , 211.63 235.50 , 211.67 235.83 , 211.64 236.16 , 211.54 236.50 , 211.60 236.83 , 211.58 237.16 , 211.66 237.50 , 211.61 237.83 , 211.61 238.16 , 211.64 238.49 , 211.60 238.83 , 211.60 239.16 , 211.64 239.49 , 211.60 239.83 , 211.63 240.16 , 211.62 240.49 , 211.59 240.82 , 211.63 241.16 , 211.63 241.49 , 211.61 241.82 , 211.66 242.16 , 211.61 242.49 , 211.64 242.82 , 211.61 243.15 , 211.62 243.49 , 211.65 243.82 , 211.59 244.15 , 211.65 244.49 , 211.66 244.82 , 211.65 245.15 , 211.59 245.48 , 211.66 245.82 , 211.61 246.15 , 211.64 246.48 , 211.58 246.82 , 211.67 247.15 , 211.72 247.48 , 211.53 247.81 , 211.59 248.15 , 211.66 248.48 , 211.64 248.81 , 211.61 249.15 , 211.60 249.48 , 211.60 249.81 , 211.65 250.14 , 211.66 250.48 , 211.62 250.81 , 211.62 251.14 , 211.67 251.48 , 211.65 251.81 , 211.58 252.14 , 211.62 252.47 , 211.68 252.81 , 211.67 253.14 , 211.55 253.47 , 211.58 253.81 , 211.66 254.14 , 211.58 254.47 , 211.63 254.80 , 211.62 255.14 , 211.64 255.47 , 211.56 255.80 , 211.60 256.14 , 211.59 256.47 , 211.62 256.80 , 211.60 257.13 , 211.65 257.47 , 211.63 257.80 , 211.62 258.13 , 211.63 258.47 , 211.62 258.80 , 211.69 259.13 , 211.53 259.46 , 211.53 259.80 , 211.55 260.13 , 211.64 260.46 , 211.62 260.80 , 211.59 261.13 , 211.69 261.46 , 211.66 261.80 , 211.58 262.13 , 211.65 262.46 , 211.63 262.79 , 211.65 263.13 , 211.62 263.46 , 211.64 263.79 , 211.68 264.13 , 211.68 264.46 , 211.57 264.79 , 211.64 265.12 , 211.63 265.46 , 211.66 265.79 , 211.67 266.12 , 211.61 266.46 , 211.61 266.79 , 211.64 267.12 , 211.58 267.45 , 211.64 267.79 , 211.64 268.12 , 211.63 268.45 , 211.63 268.79 , 211.65 269.12 , 211.65 269.45 , 211.58 269.78 , 211.60 270.12 , 211.65 270.45 , 211.73 270.78 , 211.71 271.12 , 211.73 271.45 , 211.71 271.78 , 211.69 272.11 , 211.68 272.45 , 211.70 272.78 , 211.69 273.11 , 211.63 273.45 , 211.63 273.78 , 211.63 274.11 , 211.70 274.44 , 211.57 274.78 , 211.61 275.11 , 211.71 275.44 , 211.72 275.78 , 211.67 276.11 , 211.72 276.44 , 211.65 276.77 , 211.67 277.11 , 211.56 277.44 , 211.61 277.77 , 211.66 278.11 , 211.62 278.44 , 211.62 278.77 , 211.66 279.10 , 211.64 279.44 , 211.61 279.77 , 211.65 280.10 , 211.65 280.44 , 211.64 280.77 , 211.66 281.10 , 211.70 281.43 , 211.72 281.77 , 211.72 282.10 , 211.71 282.43 , 211.71 282.77 , 211.71 283.10 , 211.74 283.43 , 211.56 283.76 , 211.68 284.10 , 211.56 284.43 , 211.61 284.76 , 211.61 285.10 , 211.62 285.43 , 211.64 285.76 , 211.62 286.09 , 211.60 286.43 , 211.59 286.76 , 211.58 287.09 , 211.62 287.43 , 211.62 287.76 , 211.61 288.09 , 211.65 288.42 , 211.60 288.76 , 211.61 289.09 , 211.61 289.42 , 211.57 289.76 , 211.58 290.09 , 211.71 290.42 , 211.57 290.75 , 211.66 291.09 , 211.62 291.42 , 211.64 291.75 , 211.65 292.09 , 211.60 292.42 , 211.52 292.75 , 211.70 293.08 , 211.64 293.42 , 211.67 293.75 , 211.57 294.08 , 211.62 294.42 , 211.64 294.75 , 211.72 295.08 , 211.69 295.41 , 211.60 295.75 , 211.63 296.08 , 211.62 296.41 , 211.64 296.75 , 211.63 297.08 , 211.61 297.41 , 211.58 297.74 , 211.64 298.08 , 211.63 298.41 , 211.62 298.74 , 211.64 299.08 , 211.60 299.41 , 211.67 299.74 , 211.66 300.07 , 211.61 300.41 , 211.58 300.74 , 211.68 301.07 , 211.54 301.41 , 211.70 301.74 , 211.62 302.07 , 211.65 302.40 , 211.62 302.74 , 211.61 303.07 , 211.53 303.40 , 211.49 303.74 , 211.69 304.07 , 211.68 304.40 , 211.62 304.73 , 211.53 305.07 , 211.69 305.40 , 211.51 305.73 , 211.51 306.07 , 211.66 306.40 , 211.55 306.73 , 211.50 307.06 , 211.68 307.40 , 211.58 307.73 , 211.68 308.06 , 211.66 308.40 , 211.59 308.73 , 211.66 309.06 , 211.54 309.39 , 211.71 309.73 , 211.68 310.06 , 211.57 310.39 , 211.68 310.73 , 211.58 311.06 , 211.69 311.39 , 211.59 311.72 , 211.61 312.06 , 211.67 312.39 , 211.65 312.72 , 211.63 313.06 , 211.54 313.39 , 211.69 313.72 , 211.55 314.05 , 211.56 314.39 , 211.67 314.72 , 211.56 315.05 , 211.58 315.39 , 211.64 315.72 , 211.60 316.05 , 211.61 316.38 , 211.59 316.72 , 211.58 317.05 , 211.64 317.38 , 211.64 317.72 , 211.62 318.05 , 211.64 318.38 , 211.63 318.71 , 211.63 319.05 , 211.63 319.38 , 211.61 319.71 , 211.59 320.05 , 211.66 320.38 , 211.66 320.71 , 211.68 321.04 , 211.69 321.38 , 211.56 321.71 , 211.68 322.04 , 211.58 322.38 , 211.68 322.71 , 211.60 323.04 , 211.67 323.37 , 211.63 323.71 , 211.63 324.04 , 211.61 324.37 , 211.62 324.71 , 211.69 325.04 , 211.57 325.37 , 211.68 325.70 , 211.63 326.04 , 211.64 326.37 , 211.59 326.70 , 211.62 327.04 , 211.59 327.37 , 211.67 327.70 , 211.62 328.03 , 211.58 328.37 , 211.55 328.70 , 211.63 329.03 , 211.67 329.37 , 211.61 329.70 , 211.64 330.03 , 211.64 330.36 , 211.69 330.70 , 211.70 331.03 , 211.71 331.36 , 211.56 331.70 , 211.56 332.03 , 211.59 332.36 , 211.65 332.69 , 211.64 333.03 , 211.61 333.36 , 211.62 333.69 , 211.60 334.03 , 211.59 334.36 , 211.65 334.69 , 211.65 335.02 , 211.68 335.36 , 211.68 335.69 , 211.59 336.02 , 211.67 336.36 , 211.68 336.69 , 211.64 337.02 , 211.66 337.35 , 211.55 337.69 , 211.69 338.02 , 211.57 338.35 , 211.71 338.69 , 211.53 339.02 , 211.75 339.35 , 211.65 339.69 , 211.62 340.02 , 211.64 340.35 , 211.63 340.68 , 211.57 341.02 , 211.67 341.35 , 211.60 341.68 , 211.58 342.02 , 211.68 342.35 , 211.66 342.68 , 211.66 343.01 , 211.63 343.35 , 211.64 343.68 , 211.61 344.01 , 211.65 344.35 , 211.62 344.68 , 211.67 345.01 , 211.67 345.34 , 211.66 345.68 , 211.57 346.01 , 211.58 346.34 , 211.65 346.68 , 211.62 347.01 , 211.60 347.34 , 211.66 347.67 , 211.59 348.01 , 211.64 348.34 , 211.68 348.67 , 211.64 349.01 , 211.63 349.34 , 211.61 349.67 , 211.63 350.00 , 211.63 350.34 , 211.64 350.67 , 211.63 351.00 , 211.61 351.34 , 211.64 351.67 , 211.71 352.00 , 211.63 352.33 , 211.60 352.67 , 211.60 353.00 , 211.61 353.33 , 211.56 353.67 , 211.64 354.00 , 211.60 354.33 , 211.61 354.66 , 211.61 355.00 , 211.58 355.33 , 211.59 355.66 , 211.66 356.00 , 211.57 356.33 , 211.58 356.66 , 211.60 356.99 , 211.65 357.33 , 211.62 357.66 , 211.60 357.99 , 211.64 358.33 , 211.59 358.66 , 211.63 358.99 , 211.61 359.32 , 211.66 359.66 , 211.63 359.99 , 211.59 360.32 , 211.66 360.66 , 211.59 360.99 , 211.67 361.32 , 211.59 361.65 , 211.67 361.99 , 211.64 362.32 , 211.58 362.65 , 211.70 362.99 , 211.72 " style="stroke-width:1;stroke:#542788;fill:#000000;stroke-opacity:1.000000;fill-opacity:0.000000"/>
</svg>
