<?xml version="1.0" encoding="UTF-8"?>
<svg xmlns="http://www.w3.org/2000/svg" width="385.44" height="240.90" viewBox="0,0,385.44,240.90">
<desc>R SVG Plot!</desc>
<rect width="100%" height="100%" style="fill:#FFFFFF"/>
<polygon points="0.00 , 0.00 385.44 , 0.00 385.44 , 240.90 0.00 , 240.90 " style="stroke-width:1;stroke:#FFFFFF;fill:#FFFFFF;stroke-opacity:1.000000;fill-opacity:1.000000" />
<polygon points="44.27 , 205.54 44.27 , 12.05 373.39 , 12.05 373.39 , 205.54 " style="stroke-width:1;stroke:#FFFFFF;fill:#E5E5E5;stroke-opacity:0.000000;fill-opacity:1.000000" />
<polyline points="44.27 , 17.44 373.39 , 17.44 " style="stroke-width:0;stroke:#F2F2F2;fill:#000000;stroke-opacity:1.000000;fill-opacity:0.000000"/>
<polyline points="44.27 , 70.29 373.39 , 70.29 " style="stroke-width:0;stroke:#F2F2F2;fill:#000000;stroke-opacity:1.000000;fill-opacity:0.000000"/>
<polyline points="44.27 , 123.14 373.39 , 123.14 " style="stroke-width:0;stroke:#F2F2F2;fill:#000000;stroke-opacity:1.000000;fill-opacity:0.000000"/>
<polyline points="44.27 , 175.99 373.39 , 175.99 " style="stroke-width:0;stroke:#F2F2F2;fill:#000000;stroke-opacity:1.000000;fill-opacity:0.000000"/>
<polyline points="50.92 , 205.54 50.92 , 12.05 " style="stroke-width:0;stroke:#F2F2F2;fill:#000000;stroke-opacity:1.000000;fill-opacity:0.000000"/>
<polyline points="134.03 , 205.54 134.03 , 12.05 " style="stroke-width:0;stroke:#F2F2F2;fill:#000000;stroke-opacity:1.000000;fill-opacity:0.000000"/>
<polyline points="217.14 , 205.54 217.14 , 12.05 " style="stroke-width:0;stroke:#F2F2F2;fill:#000000;stroke-opacity:1.000000;fill-opacity:0.000000"/>
<polyline points="300.26 , 205.54 300.26 , 12.05 " style="stroke-width:0;stroke:#F2F2F2;fill:#000000;stroke-opacity:1.000000;fill-opacity:0.000000"/>
<polyline points="44.27 , 43.86 373.39 , 43.86 " style="stroke-width:1;stroke:#FFFFFF;fill:#000000;stroke-opacity:1.000000;fill-opacity:0.000000"/>
<polyline points="44.27 , 96.71 373.39 , 96.71 " style="stroke-width:1;stroke:#FFFFFF;fill:#000000;stroke-opacity:1.000000;fill-opacity:0.000000"/>
<polyline points="44.27 , 149.57 373.39 , 149.57 " style="stroke-width:1;stroke:#FFFFFF;fill:#000000;stroke-opacity:1.000000;fill-opacity:0.000000"/>
<polyline points="44.27 , 202.42 373.39 , 202.42 " style="stroke-width:1;stroke:#FFFFFF;fill:#000000;stroke-opacity:1.000000;fill-opacity:0.000000"/>
<polyline points="92.47 , 205.54 92.47 , 12.05 " style="stroke-width:1;stroke:#FFFFFF;fill:#000000;stroke-opacity:1.000000;fill-opacity:0.000000"/>
<polyline points="175.59 , 205.54 175.59 , 12.05 " style="stroke-width:1;stroke:#FFFFFF;fill:#000000;stroke-opacity:1.000000;fill-opacity:0.000000"/>
<polyline points="258.70 , 205.54 258.70 , 12.05 " style="stroke-width:1;stroke:#FFFFFF;fill:#000000;stroke-opacity:1.000000;fill-opacity:0.000000"/>
<polyline points="341.81 , 205.54 341.81 , 12.05 " style="stroke-width:1;stroke:#FFFFFF;fill:#000000;stroke-opacity:1.000000;fill-opacity:0.000000"/>
<line x1="44.27" y1="96.71" x2="373.39" y2="96.71" style="stroke-width:1;stroke:#7F7F7F;fill:#000000;stroke-opacity:1.000000;fill-opacity:0.000000"/>
<polyline points="59.23 , 152.26 67.54 , 150.25 75.85 , 149.22 84.16 , 144.96 92.47 , 137.89 100.79 , 133.31 109.10 , 130.72 117.41 , 128.07 125.72 , 130.18 134.03 , 130.08 142.34 , 126.77 150.65 , 123.75 158.96 , 121.41 167.28 , 118.95 175.59 , 115.18 183.90 , 111.25 192.21 , 106.46 200.52 , 99.98 208.83 , 91.70 217.14 , 86.24 225.45 , 83.58 233.77 , 83.51 242.08 , 84.31 250.39 , 87.11 258.70 , 89.43 267.01 , 91.97 275.32 , 94.20 283.63 , 96.67 291.94 , 96.73 300.26 , 96.32 308.57 , 95.56 316.88 , 93.11 325.19 , 90.76 333.50 , 88.61 341.81 , 86.45 350.12 , 85.83 358.43 , 85.81 " style="stroke-width:1;stroke:#000000;fill:#000000;stroke-opacity:1.000000;fill-opacity:0.000000"/>
<polygon points="59.23 , 196.75 67.54 , 185.02 75.85 , 180.80 84.16 , 171.70 92.47 , 157.94 100.79 , 153.86 109.10 , 151.58 117.41 , 147.79 125.72 , 151.94 134.03 , 153.74 142.34 , 149.57 150.65 , 147.17 158.96 , 147.04 167.28 , 143.80 175.59 , 142.62 183.90 , 140.54 192.21 , 134.37 200.52 , 125.90 208.83 , 119.25 217.14 , 113.71 225.45 , 113.08 233.77 , 112.45 242.08 , 114.45 250.39 , 118.69 258.70 , 124.22 267.01 , 131.06 275.32 , 137.31 283.63 , 142.77 291.94 , 141.32 300.26 , 140.76 308.57 , 147.03 316.88 , 140.64 325.19 , 138.08 333.50 , 139.18 341.81 , 137.48 350.12 , 139.75 358.43 , 142.26 358.43 , 20.84 350.12 , 24.56 341.81 , 30.65 333.50 , 41.55 325.19 , 43.04 316.88 , 48.24 308.57 , 57.49 300.26 , 60.06 291.94 , 62.23 283.63 , 62.19 275.32 , 61.58 267.01 , 59.69 258.70 , 56.78 250.39 , 51.84 242.08 , 46.67 233.77 , 44.65 225.45 , 39.69 217.14 , 47.58 208.83 , 58.77 200.52 , 72.03 192.21 , 80.39 183.90 , 85.44 175.59 , 92.51 167.28 , 95.73 158.96 , 98.27 150.65 , 100.54 142.34 , 105.30 134.03 , 108.49 125.72 , 108.09 117.41 , 102.54 109.10 , 108.28 100.79 , 110.68 92.47 , 115.83 84.16 , 122.51 75.85 , 122.90 67.54 , 118.18 59.23 , 111.05 " style="stroke-width:1;stroke:#FFFFFF;fill:#333333;stroke-opacity:0.000000;fill-opacity:0.606299" />
<text transform="translate(21.05,47.46)"  style="font-size:10" >-0.1</text>
<text transform="translate(23.10,100.31)"  style="font-size:10" >0.0</text>
<text transform="translate(23.10,153.17)"  style="font-size:10" >0.1</text>
<text transform="translate(23.10,206.02)"  style="font-size:10" >0.2</text>
<polyline points="40.00 , 43.86 44.27 , 43.86 " style="stroke-width:1;stroke:#7F7F7F;fill:#000000;stroke-opacity:1.000000;fill-opacity:0.000000"/>
<polyline points="40.00 , 96.71 44.27 , 96.71 " style="stroke-width:1;stroke:#7F7F7F;fill:#000000;stroke-opacity:1.000000;fill-opacity:0.000000"/>
<polyline points="40.00 , 149.57 44.27 , 149.57 " style="stroke-width:1;stroke:#7F7F7F;fill:#000000;stroke-opacity:1.000000;fill-opacity:0.000000"/>
<polyline points="40.00 , 202.42 44.27 , 202.42 " style="stroke-width:1;stroke:#7F7F7F;fill:#000000;stroke-opacity:1.000000;fill-opacity:0.000000"/>
<polyline points="92.47 , 209.81 92.47 , 205.54 " style="stroke-width:1;stroke:#7F7F7F;fill:#000000;stroke-opacity:1.000000;fill-opacity:0.000000"/>
<polyline points="175.59 , 209.81 175.59 , 205.54 " style="stroke-width:1;stroke:#7F7F7F;fill:#000000;stroke-opacity:1.000000;fill-opacity:0.000000"/>
<polyline points="258.70 , 209.81 258.70 , 205.54 " style="stroke-width:1;stroke:#7F7F7F;fill:#000000;stroke-opacity:1.000000;fill-opacity:0.000000"/>
<polyline points="341.81 , 209.81 341.81 , 205.54 " style="stroke-width:1;stroke:#7F7F7F;fill:#000000;stroke-opacity:1.000000;fill-opacity:0.000000"/>
<text transform="translate(84.22,219.85)"  style="font-size:10" >100</text>
<text transform="translate(167.34,219.85)"  style="font-size:10" >200</text>
<text transform="translate(250.45,219.85)"  style="font-size:10" >300</text>
<text transform="translate(333.56,219.85)"  style="font-size:10" >400</text>
<text transform="translate(164.29,231.87)"  style="font-size:12" >Duration (msec)</text>
<text transform="translate(18.03,136.09) rotate(-90)"  style="font-size:12" >time delta</text>
</svg>
