<?xml version="1.0" encoding="UTF-8"?>
<svg xmlns="http://www.w3.org/2000/svg" width="385.44" height="240.90" viewBox="0,0,385.44,240.90">
<desc>R SVG Plot!</desc>
<rect width="100%" height="100%" style="fill:#FFFFFF"/>
<line x1="30.12" y1="219.23" x2="363.65" y2="219.23" style="stroke-width:1;stroke:#000000;fill:#000000;stroke-opacity:1.000000;fill-opacity:0.000000"/>
<line x1="30.12" y1="219.23" x2="30.12" y2="223.27" style="stroke-width:1;stroke:#000000;fill:#000000;stroke-opacity:1.000000;fill-opacity:0.000000"/>
<line x1="96.83" y1="219.23" x2="96.83" y2="223.27" style="stroke-width:1;stroke:#000000;fill:#000000;stroke-opacity:1.000000;fill-opacity:0.000000"/>
<line x1="163.53" y1="219.23" x2="163.53" y2="223.27" style="stroke-width:1;stroke:#000000;fill:#000000;stroke-opacity:1.000000;fill-opacity:0.000000"/>
<line x1="230.24" y1="219.23" x2="230.24" y2="223.27" style="stroke-width:1;stroke:#000000;fill:#000000;stroke-opacity:1.000000;fill-opacity:0.000000"/>
<line x1="296.95" y1="219.23" x2="296.95" y2="223.27" style="stroke-width:1;stroke:#000000;fill:#000000;stroke-opacity:1.000000;fill-opacity:0.000000"/>
<line x1="363.65" y1="219.23" x2="363.65" y2="223.27" style="stroke-width:1;stroke:#000000;fill:#000000;stroke-opacity:1.000000;fill-opacity:0.000000"/>
<text transform="translate(21.12,231.73)"  style="font-size:12" >500</text>
<text transform="translate(86.93,231.73)"  style="font-size:12" >600</text>
<text transform="translate(153.63,231.73)"  style="font-size:12" >700</text>
<text transform="translate(220.34,231.73)"  style="font-size:12" >800</text>
<text transform="translate(287.05,231.73)"  style="font-size:12" >900</text>
<text transform="translate(350.45,231.73)"  style="font-size:12" >1000</text>
<line x1="17.50" y1="210.83" x2="17.50" y2="44.72" style="stroke-width:1;stroke:#000000;fill:#000000;stroke-opacity:1.000000;fill-opacity:0.000000"/>
<line x1="17.50" y1="210.83" x2="13.47" y2="210.83" style="stroke-width:1;stroke:#000000;fill:#000000;stroke-opacity:1.000000;fill-opacity:0.000000"/>
<line x1="17.50" y1="169.30" x2="13.47" y2="169.30" style="stroke-width:1;stroke:#000000;fill:#000000;stroke-opacity:1.000000;fill-opacity:0.000000"/>
<line x1="17.50" y1="127.77" x2="13.47" y2="127.77" style="stroke-width:1;stroke:#000000;fill:#000000;stroke-opacity:1.000000;fill-opacity:0.000000"/>
<line x1="17.50" y1="86.25" x2="13.47" y2="86.25" style="stroke-width:1;stroke:#000000;fill:#000000;stroke-opacity:1.000000;fill-opacity:0.000000"/>
<line x1="17.50" y1="44.72" x2="13.47" y2="44.72" style="stroke-width:1;stroke:#000000;fill:#000000;stroke-opacity:1.000000;fill-opacity:0.000000"/>
<text transform="translate(13.33,222.56) rotate(-90)"  style="font-size:12" >0.38</text>
<text transform="translate(13.33,181.04) rotate(-90)"  style="font-size:12" >0.40</text>
<text transform="translate(13.33,139.51) rotate(-90)"  style="font-size:12" >0.42</text>
<text transform="translate(13.33,97.98) rotate(-90)"  style="font-size:12" >0.44</text>
<text transform="translate(13.33,56.45) rotate(-90)"  style="font-size:12" >0.46</text>
<polyline points="17.50 , 17.50 17.50 , 219.23 376.27 , 219.23 " style="stroke-width:1;stroke:#000000;fill:#000000;stroke-opacity:1.000000;fill-opacity:0.000000"/>
<text transform="translate(148.57,14.75)"  style="font-size:14" >Trace of  sigma</text>
<text transform="translate(126.85,240.07)"  style="font-size:12" >Iterations (without warmup)</text>
<polyline points="30.79 , 110.55 31.45 , 102.44 32.12 , 106.44 32.79 , 118.18 33.46 , 121.01 34.12 , 125.83 34.79 , 126.59 35.46 , 150.53 36.12 , 146.42 36.79 , 101.01 37.46 , 99.57 38.13 , 87.82 38.79 , 177.20 39.46 , 155.22 40.13 , 100.98 40.79 , 56.74 41.46 , 52.35 42.13 , 167.74 42.80 , 195.12 43.46 , 69.44 44.13 , 161.43 44.80 , 135.93 45.46 , 86.76 46.13 , 115.02 46.80 , 107.42 47.46 , 107.39 48.13 , 112.43 48.80 , 173.44 49.47 , 136.98 50.13 , 99.20 50.80 , 105.67 51.47 , 106.22 52.13 , 133.05 52.80 , 155.74 53.47 , 162.20 54.14 , 94.52 54.80 , 156.82 55.47 , 141.70 56.14 , 134.36 56.80 , 135.34 57.47 , 165.57 58.14 , 125.37 58.80 , 162.35 59.47 , 133.13 60.14 , 120.02 60.81 , 116.35 61.47 , 98.18 62.14 , 171.47 62.81 , 111.07 63.47 , 116.73 64.14 , 158.12 64.81 , 144.14 65.48 , 133.33 66.14 , 131.46 66.81 , 74.18 67.48 , 142.07 68.14 , 108.18 68.81 , 98.87 69.48 , 142.56 70.14 , 128.67 70.81 , 135.39 71.48 , 125.56 72.15 , 128.77 72.81 , 131.50 73.48 , 114.95 74.15 , 125.02 74.81 , 133.56 75.48 , 138.98 76.15 , 73.14 76.82 , 58.77 77.48 , 99.79 78.15 , 100.48 78.82 , 168.68 79.48 , 126.67 80.15 , 144.27 80.82 , 104.17 81.48 , 133.60 82.15 , 119.86 82.82 , 136.55 83.49 , 141.95 84.15 , 140.18 84.82 , 141.91 85.49 , 150.21 86.15 , 178.15 86.82 , 115.01 87.49 , 162.81 88.16 , 75.45 88.82 , 68.44 89.49 , 109.99 90.16 , 170.24 90.82 , 138.20 91.49 , 158.91 92.16 , 157.64 92.82 , 77.31 93.49 , 161.34 94.16 , 119.15 94.83 , 142.18 95.49 , 135.44 96.16 , 90.36 96.83 , 141.45 97.49 , 128.70 98.16 , 123.21 98.83 , 168.88 99.50 , 157.87 100.16 , 114.87 100.83 , 160.75 101.50 , 123.79 102.16 , 106.00 102.83 , 101.73 103.50 , 178.43 104.16 , 179.54 104.83 , 90.78 105.50 , 111.26 106.17 , 133.99 106.83 , 131.73 107.50 , 146.85 108.17 , 110.60 108.83 , 120.42 109.50 , 149.40 110.17 , 133.90 110.84 , 152.64 111.50 , 107.19 112.17 , 98.05 112.84 , 98.05 113.50 , 95.55 114.17 , 160.39 114.84 , 103.32 115.50 , 139.78 116.17 , 93.68 116.84 , 172.67 117.51 , 75.17 118.17 , 184.27 118.84 , 177.96 119.51 , 137.89 120.17 , 145.66 120.84 , 128.21 121.51 , 130.24 122.18 , 157.47 122.84 , 92.21 123.51 , 123.42 124.18 , 90.98 124.84 , 100.66 125.51 , 105.76 126.18 , 125.06 126.85 , 95.30 127.51 , 172.77 128.18 , 106.61 128.85 , 164.68 129.51 , 79.08 130.18 , 63.05 130.85 , 134.18 131.51 , 125.49 132.18 , 123.62 132.85 , 87.83 133.52 , 132.70 134.18 , 148.80 134.85 , 140.10 135.52 , 129.41 136.18 , 137.30 136.85 , 142.36 137.52 , 154.23 138.19 , 125.02 138.85 , 165.93 139.52 , 122.32 140.19 , 128.15 140.85 , 135.58 141.52 , 140.06 142.19 , 100.98 142.85 , 128.78 143.52 , 133.25 144.19 , 128.51 144.86 , 89.49 145.52 , 103.28 146.19 , 110.16 146.86 , 91.07 147.52 , 158.04 148.19 , 107.85 148.86 , 157.98 149.53 , 151.30 150.19 , 126.57 150.86 , 126.36 151.53 , 164.08 152.19 , 111.52 152.86 , 127.57 153.53 , 136.41 154.19 , 182.64 154.86 , 189.67 155.53 , 198.52 156.20 , 184.53 156.86 , 123.14 157.53 , 130.64 158.20 , 127.06 158.86 , 125.73 159.53 , 121.64 160.20 , 165.82 160.87 , 110.79 161.53 , 109.78 162.20 , 64.39 162.87 , 185.32 163.53 , 147.29 164.20 , 110.69 164.87 , 107.42 165.53 , 145.38 166.20 , 157.52 166.87 , 106.67 167.54 , 92.84 168.20 , 86.59 168.87 , 161.90 169.54 , 158.83 170.20 , 133.46 170.87 , 149.03 171.54 , 160.33 172.21 , 67.84 172.87 , 71.46 173.54 , 76.93 174.21 , 58.96 174.87 , 161.68 175.54 , 174.83 176.21 , 139.03 176.87 , 157.48 177.54 , 139.51 178.21 , 153.96 178.88 , 135.50 179.54 , 142.35 180.21 , 70.01 180.88 , 70.01 181.54 , 111.40 182.21 , 111.40 182.88 , 159.67 183.55 , 79.51 184.21 , 70.62 184.88 , 78.43 185.55 , 99.12 186.21 , 160.46 186.88 , 113.16 187.55 , 120.58 188.21 , 128.31 188.88 , 99.48 189.55 , 135.22 190.22 , 203.97 190.88 , 162.75 191.55 , 89.09 192.22 , 74.66 192.88 , 83.14 193.55 , 149.49 194.22 , 156.84 194.89 , 153.94 195.55 , 150.65 196.22 , 97.26 196.89 , 126.99 197.55 , 118.13 198.22 , 114.14 198.89 , 136.38 199.55 , 139.33 200.22 , 168.33 200.89 , 181.23 201.56 , 150.16 202.22 , 143.71 202.89 , 126.70 203.56 , 97.71 204.22 , 98.15 204.89 , 186.00 205.56 , 141.40 206.23 , 148.19 206.89 , 106.75 207.56 , 155.02 208.23 , 142.58 208.89 , 140.47 209.56 , 89.30 210.23 , 95.99 210.89 , 164.24 211.56 , 121.17 212.23 , 172.82 212.90 , 162.19 213.56 , 139.65 214.23 , 116.46 214.90 , 148.89 215.56 , 134.11 216.23 , 137.13 216.90 , 134.47 217.57 , 116.71 218.23 , 90.85 218.90 , 140.61 219.57 , 140.09 220.23 , 135.62 220.90 , 135.00 221.57 , 133.55 222.24 , 134.92 222.90 , 109.93 223.57 , 161.03 224.24 , 159.90 224.90 , 151.15 225.57 , 177.12 226.24 , 169.91 226.90 , 77.11 227.57 , 180.33 228.24 , 179.66 228.91 , 114.51 229.57 , 160.98 230.24 , 135.50 230.91 , 100.86 231.57 , 154.00 232.24 , 165.28 232.91 , 89.12 233.58 , 129.30 234.24 , 125.88 234.91 , 135.38 235.58 , 133.32 236.24 , 89.86 236.91 , 96.45 237.58 , 157.35 238.24 , 83.07 238.91 , 106.56 239.58 , 180.39 240.25 , 125.05 240.91 , 133.97 241.58 , 112.92 242.25 , 91.66 242.91 , 151.97 243.58 , 87.09 244.25 , 86.17 244.92 , 78.78 245.58 , 146.28 246.25 , 159.60 246.92 , 48.99 247.58 , 58.60 248.25 , 165.03 248.92 , 135.45 249.58 , 158.93 250.25 , 106.34 250.92 , 152.47 251.59 , 142.76 252.25 , 131.97 252.92 , 106.23 253.59 , 155.09 254.25 , 118.16 254.92 , 98.97 255.59 , 133.64 256.26 , 153.72 256.92 , 141.06 257.59 , 135.98 258.26 , 122.73 258.92 , 103.35 259.59 , 135.75 260.26 , 129.55 260.92 , 138.07 261.59 , 151.42 262.26 , 153.88 262.93 , 102.74 263.59 , 157.15 264.26 , 119.91 264.93 , 102.81 265.59 , 118.31 266.26 , 133.50 266.93 , 106.67 267.60 , 150.53 268.26 , 151.78 268.93 , 115.58 269.60 , 138.67 270.26 , 173.05 270.93 , 167.71 271.60 , 186.69 272.26 , 116.56 272.93 , 145.01 273.60 , 85.42 274.27 , 128.97 274.93 , 127.06 275.60 , 105.74 276.27 , 168.08 276.93 , 124.89 277.60 , 151.21 278.27 , 97.47 278.94 , 161.25 279.60 , 84.48 280.27 , 147.18 280.94 , 98.08 281.60 , 120.75 282.27 , 83.58 282.94 , 116.11 283.60 , 125.40 284.27 , 115.43 284.94 , 149.97 285.61 , 103.33 286.27 , 121.21 286.94 , 153.09 287.61 , 98.12 288.27 , 141.79 288.94 , 105.92 289.61 , 112.07 290.28 , 160.60 290.94 , 123.99 291.61 , 112.50 292.28 , 121.85 292.94 , 141.77 293.61 , 100.07 294.28 , 133.61 294.94 , 116.17 295.61 , 109.16 296.28 , 138.05 296.95 , 146.59 297.61 , 87.85 298.28 , 89.19 298.95 , 99.18 299.61 , 101.46 300.28 , 79.17 300.95 , 157.41 301.62 , 157.16 302.28 , 89.46 302.95 , 93.19 303.62 , 126.86 304.28 , 92.80 304.95 , 91.11 305.62 , 71.94 306.29 , 106.49 306.95 , 92.55 307.62 , 100.04 308.29 , 118.31 308.95 , 123.85 309.62 , 127.11 310.29 , 144.60 310.95 , 123.17 311.62 , 93.68 312.29 , 165.10 312.96 , 113.82 313.62 , 152.77 314.29 , 115.98 314.96 , 159.58 315.62 , 93.20 316.29 , 129.99 316.96 , 118.83 317.63 , 122.84 318.29 , 112.54 318.96 , 142.68 319.63 , 147.41 320.29 , 100.63 320.96 , 148.00 321.63 , 122.82 322.29 , 126.85 322.96 , 84.79 323.63 , 183.90 324.30 , 56.78 324.96 , 145.77 325.63 , 84.90 326.30 , 182.41 326.96 , 166.35 327.63 , 72.60 328.30 , 130.80 328.97 , 183.50 329.63 , 130.57 330.30 , 149.81 330.97 , 164.60 331.63 , 123.10 332.30 , 112.48 332.97 , 128.02 333.63 , 125.98 334.30 , 111.86 334.97 , 122.94 335.64 , 142.44 336.30 , 185.70 336.97 , 152.51 337.64 , 110.31 338.30 , 98.66 338.97 , 98.77 339.64 , 85.70 340.31 , 143.89 340.97 , 139.17 341.64 , 125.46 342.31 , 132.05 342.97 , 118.71 343.64 , 109.14 344.31 , 134.44 344.97 , 129.97 345.64 , 133.31 346.31 , 105.22 346.98 , 145.84 347.64 , 84.89 348.31 , 129.63 348.98 , 153.36 349.64 , 101.07 350.31 , 165.71 350.98 , 95.69 351.65 , 114.36 352.31 , 141.34 352.98 , 123.90 353.65 , 177.14 354.31 , 144.83 354.98 , 120.55 355.65 , 93.20 356.31 , 141.83 356.98 , 96.41 357.65 , 79.07 358.32 , 80.34 358.98 , 89.03 359.65 , 122.24 360.32 , 140.47 360.98 , 155.53 361.65 , 134.30 362.32 , 126.51 362.99 , 71.31 " style="stroke-width:1;stroke:#E66101;fill:#000000;stroke-opacity:1.000000;fill-opacity:0.000000"/>
<polyline points="30.79 , 119.30 31.45 , 142.95 32.12 , 93.70 32.79 , 130.67 33.46 , 110.13 34.12 , 86.87 34.79 , 79.19 35.46 , 144.84 36.12 , 131.11 36.79 , 93.03 37.46 , 91.23 38.13 , 116.64 38.79 , 106.45 39.46 , 111.35 40.13 , 108.88 40.79 , 105.03 41.46 , 101.90 42.13 , 95.27 42.80 , 95.27 43.46 , 97.73 44.13 , 131.70 44.80 , 110.85 45.46 , 147.74 46.13 , 76.83 46.80 , 163.90 47.46 , 125.21 48.13 , 177.25 48.80 , 91.74 49.47 , 117.21 50.13 , 75.36 50.80 , 78.97 51.47 , 143.23 52.13 , 121.01 52.80 , 134.93 53.47 , 144.97 54.14 , 172.02 54.80 , 190.02 55.47 , 124.46 56.14 , 123.84 56.80 , 58.54 57.47 , 119.31 58.14 , 120.10 58.80 , 134.76 59.47 , 167.96 60.14 , 175.60 60.81 , 129.17 61.47 , 119.92 62.14 , 146.15 62.81 , 99.35 63.47 , 140.06 64.14 , 148.97 64.81 , 147.13 65.48 , 198.26 66.14 , 182.06 66.81 , 185.34 67.48 , 143.85 68.14 , 73.93 68.81 , 196.14 69.48 , 151.60 70.14 , 158.11 70.81 , 132.54 71.48 , 126.55 72.15 , 114.31 72.81 , 156.56 73.48 , 95.36 74.15 , 160.78 74.81 , 113.81 75.48 , 113.81 76.15 , 123.48 76.82 , 165.57 77.48 , 149.85 78.15 , 146.42 78.82 , 126.27 79.48 , 100.23 80.15 , 97.98 80.82 , 153.80 81.48 , 152.41 82.15 , 124.63 82.82 , 119.01 83.49 , 80.25 84.15 , 98.87 84.82 , 152.75 85.49 , 111.21 86.15 , 94.50 86.82 , 123.87 87.49 , 103.24 88.16 , 70.88 88.82 , 187.36 89.49 , 150.16 90.16 , 70.72 90.82 , 152.48 91.49 , 123.99 92.16 , 188.16 92.82 , 187.16 93.49 , 101.10 94.16 , 118.76 94.83 , 151.33 95.49 , 150.93 96.16 , 123.30 96.83 , 138.27 97.49 , 134.13 98.16 , 113.00 98.83 , 120.41 99.50 , 129.48 100.16 , 133.46 100.83 , 139.77 101.50 , 124.73 102.16 , 139.18 102.83 , 129.14 103.50 , 118.55 104.16 , 144.35 104.83 , 122.46 105.50 , 127.23 106.17 , 150.47 106.83 , 152.68 107.50 , 126.23 108.17 , 136.62 108.83 , 159.39 109.50 , 174.46 110.17 , 129.27 110.84 , 203.59 111.50 , 160.66 112.17 , 121.24 112.84 , 146.38 113.50 , 110.42 114.17 , 104.92 114.84 , 124.64 115.50 , 128.44 116.17 , 131.70 116.84 , 157.88 117.51 , 117.11 118.17 , 149.05 118.84 , 125.34 119.51 , 149.74 120.17 , 196.67 120.84 , 93.65 121.51 , 79.65 122.18 , 142.16 122.84 , 107.04 123.51 , 123.69 124.18 , 131.89 124.84 , 132.63 125.51 , 154.75 126.18 , 139.33 126.85 , 131.16 127.51 , 126.90 128.18 , 133.58 128.85 , 58.37 129.51 , 61.41 130.18 , 105.88 130.85 , 104.03 131.51 , 176.70 132.18 , 131.92 132.85 , 123.31 133.52 , 119.35 134.18 , 168.08 134.85 , 122.42 135.52 , 166.19 136.18 , 63.63 136.85 , 61.26 137.52 , 77.38 138.19 , 177.95 138.85 , 104.65 139.52 , 121.25 140.19 , 138.42 140.85 , 89.28 141.52 , 139.00 142.19 , 118.98 142.85 , 147.24 143.52 , 156.46 144.19 , 145.47 144.86 , 84.01 145.52 , 179.75 146.19 , 125.19 146.86 , 146.78 147.52 , 151.27 148.19 , 189.06 148.86 , 184.13 149.53 , 191.04 150.19 , 76.66 150.86 , 113.58 151.53 , 130.56 152.19 , 109.18 152.86 , 103.52 153.53 , 113.27 154.19 , 148.56 154.86 , 75.44 155.53 , 169.05 156.20 , 145.56 156.86 , 91.57 157.53 , 90.77 158.20 , 161.46 158.86 , 150.94 159.53 , 141.63 160.20 , 164.57 160.87 , 99.23 161.53 , 165.69 162.20 , 113.44 162.87 , 127.57 163.53 , 65.51 164.20 , 114.38 164.87 , 141.26 165.53 , 142.13 166.20 , 146.23 166.87 , 168.71 167.54 , 138.72 168.20 , 133.69 168.87 , 122.10 169.54 , 129.25 170.20 , 129.82 170.87 , 194.40 171.54 , 163.59 172.21 , 93.67 172.87 , 165.97 173.54 , 119.33 174.21 , 43.58 174.87 , 67.33 175.54 , 72.65 176.21 , 187.71 176.87 , 52.83 177.54 , 84.95 178.21 , 176.57 178.88 , 135.42 179.54 , 129.58 180.21 , 117.41 180.88 , 103.99 181.54 , 142.62 182.21 , 135.89 182.88 , 159.99 183.55 , 131.61 184.21 , 128.73 184.88 , 139.50 185.55 , 122.03 186.21 , 109.12 186.88 , 107.49 187.55 , 129.42 188.21 , 160.88 188.88 , 156.44 189.55 , 114.54 190.22 , 155.30 190.88 , 89.51 191.55 , 144.51 192.22 , 147.38 192.88 , 110.68 193.55 , 113.56 194.22 , 194.95 194.89 , 192.22 195.55 , 167.30 196.22 , 134.25 196.89 , 115.09 197.55 , 112.14 198.22 , 146.34 198.89 , 141.36 199.55 , 210.45 200.22 , 142.97 200.89 , 152.79 201.56 , 143.97 202.22 , 107.41 202.89 , 102.15 203.56 , 128.94 204.22 , 119.33 204.89 , 110.36 205.56 , 150.31 206.23 , 136.45 206.89 , 151.38 207.56 , 150.15 208.23 , 150.86 208.89 , 177.79 209.56 , 176.40 210.23 , 62.04 210.89 , 189.81 211.56 , 55.50 212.23 , 192.60 212.90 , 81.41 213.56 , 97.39 214.23 , 98.69 214.90 , 162.95 215.56 , 119.20 216.23 , 135.44 216.90 , 66.75 217.57 , 110.05 218.23 , 121.49 218.90 , 155.45 219.57 , 144.33 220.23 , 116.07 220.90 , 142.56 221.57 , 93.46 222.24 , 117.17 222.90 , 109.04 223.57 , 139.56 224.24 , 118.44 224.90 , 112.31 225.57 , 137.61 226.24 , 133.02 226.90 , 99.25 227.57 , 158.82 228.24 , 142.38 228.91 , 119.50 229.57 , 113.40 230.24 , 129.19 230.91 , 112.95 231.57 , 112.31 232.24 , 76.93 232.91 , 162.71 233.58 , 144.69 234.24 , 145.25 234.91 , 109.65 235.58 , 143.28 236.24 , 124.58 236.91 , 113.80 237.58 , 127.30 238.24 , 167.19 238.91 , 172.76 239.58 , 141.00 240.25 , 104.80 240.91 , 143.58 241.58 , 123.62 242.25 , 118.27 242.91 , 142.77 243.58 , 140.08 244.25 , 144.82 244.92 , 81.86 245.58 , 139.03 246.25 , 109.12 246.92 , 131.71 247.58 , 112.03 248.25 , 112.03 248.92 , 147.37 249.58 , 126.48 250.25 , 135.74 250.92 , 123.77 251.59 , 121.90 252.25 , 106.87 252.92 , 76.61 253.59 , 120.96 254.25 , 162.59 254.92 , 120.76 255.59 , 129.10 256.26 , 144.38 256.92 , 141.96 257.59 , 128.81 258.26 , 123.10 258.92 , 120.04 259.59 , 93.11 260.26 , 93.48 260.92 , 167.53 261.59 , 106.05 262.26 , 101.27 262.93 , 147.82 263.59 , 152.55 264.26 , 143.29 264.93 , 124.94 265.59 , 144.58 266.26 , 145.66 266.93 , 138.40 267.60 , 167.55 268.26 , 98.57 268.93 , 171.98 269.60 , 114.99 270.26 , 138.21 270.93 , 105.79 271.60 , 106.31 272.26 , 170.59 272.93 , 115.79 273.60 , 91.82 274.27 , 87.26 274.93 , 86.03 275.60 , 148.91 276.27 , 110.73 276.93 , 104.11 277.60 , 111.70 278.27 , 88.00 278.94 , 122.48 279.60 , 160.11 280.27 , 82.39 280.94 , 109.27 281.60 , 124.82 282.27 , 125.16 282.94 , 82.58 283.60 , 97.52 284.27 , 172.04 284.94 , 77.49 285.61 , 77.34 286.27 , 96.10 286.94 , 134.54 287.61 , 154.97 288.27 , 78.44 288.94 , 125.31 289.61 , 138.47 290.28 , 111.58 290.94 , 117.43 291.61 , 109.67 292.28 , 110.07 292.94 , 92.32 293.61 , 167.90 294.28 , 164.28 294.94 , 140.43 295.61 , 108.50 296.28 , 106.71 296.95 , 178.23 297.61 , 61.50 298.28 , 151.53 298.95 , 107.44 299.61 , 144.19 300.28 , 131.59 300.95 , 148.42 301.62 , 147.56 302.28 , 163.72 302.95 , 169.97 303.62 , 103.24 304.28 , 99.56 304.95 , 124.83 305.62 , 119.88 306.29 , 128.62 306.95 , 109.04 307.62 , 189.32 308.29 , 162.82 308.95 , 100.26 309.62 , 122.36 310.29 , 109.98 310.95 , 192.68 311.62 , 151.18 312.29 , 137.62 312.96 , 120.13 313.62 , 134.05 314.29 , 97.19 314.96 , 170.38 315.62 , 85.35 316.29 , 93.64 316.96 , 136.78 317.63 , 111.56 318.29 , 141.31 318.96 , 198.01 319.63 , 75.55 320.29 , 102.51 320.96 , 112.56 321.63 , 121.18 322.29 , 153.34 322.96 , 108.95 323.63 , 146.10 324.30 , 110.54 324.96 , 96.09 325.63 , 87.97 326.30 , 157.04 326.96 , 159.14 327.63 , 96.60 328.30 , 97.31 328.97 , 105.24 329.63 , 137.88 330.30 , 139.98 330.97 , 149.21 331.63 , 104.94 332.30 , 147.52 332.97 , 99.14 333.63 , 147.74 334.30 , 94.69 334.97 , 179.00 335.64 , 126.99 336.30 , 147.18 336.97 , 119.62 337.64 , 135.48 338.30 , 121.34 338.97 , 119.12 339.64 , 128.93 340.31 , 146.48 340.97 , 110.42 341.64 , 126.59 342.31 , 137.66 342.97 , 127.22 343.64 , 123.68 344.31 , 150.72 344.97 , 112.66 345.64 , 42.06 346.31 , 200.09 346.98 , 135.69 347.64 , 124.14 348.31 , 101.99 348.98 , 129.40 349.64 , 145.15 350.31 , 105.94 350.98 , 112.92 351.65 , 132.79 352.31 , 180.24 352.98 , 158.64 353.65 , 106.38 354.31 , 205.36 354.98 , 55.26 355.65 , 125.74 356.31 , 153.96 356.98 , 111.13 357.65 , 162.09 358.32 , 163.94 358.98 , 184.44 359.65 , 111.80 360.32 , 146.32 360.98 , 109.96 361.65 , 130.51 362.32 , 144.31 362.99 , 189.09 " style="stroke-width:1;stroke:#998EC3;fill:#000000;stroke-opacity:1.000000;fill-opacity:0.000000"/>
<polyline points="30.79 , 139.51 31.45 , 149.24 32.12 , 130.33 32.79 , 51.87 33.46 , 173.92 34.12 , 102.60 34.79 , 122.05 35.46 , 144.46 36.12 , 83.16 36.79 , 153.88 37.46 , 140.87 38.13 , 97.08 38.79 , 127.23 39.46 , 113.54 40.13 , 138.55 40.79 , 83.68 41.46 , 147.68 42.13 , 80.34 42.80 , 169.53 43.46 , 109.25 44.13 , 94.30 44.80 , 126.02 45.46 , 72.84 46.13 , 125.40 46.80 , 143.97 47.46 , 121.62 48.13 , 142.63 48.80 , 183.42 49.47 , 87.66 50.13 , 95.58 50.80 , 152.44 51.47 , 112.56 52.13 , 153.08 52.80 , 135.80 53.47 , 100.40 54.14 , 130.96 54.80 , 92.55 55.47 , 166.79 56.14 , 106.13 56.80 , 100.08 57.47 , 160.37 58.14 , 75.57 58.80 , 165.46 59.47 , 99.50 60.14 , 88.92 60.81 , 140.37 61.47 , 155.19 62.14 , 162.01 62.81 , 155.36 63.47 , 164.02 64.14 , 63.88 64.81 , 117.92 65.48 , 126.77 66.14 , 151.45 66.81 , 168.30 67.48 , 168.30 68.14 , 164.77 68.81 , 150.01 69.48 , 153.65 70.14 , 154.66 70.81 , 184.62 71.48 , 114.05 72.15 , 151.86 72.81 , 147.24 73.48 , 111.92 74.15 , 97.13 74.81 , 118.04 75.48 , 139.84 76.15 , 143.19 76.82 , 118.36 77.48 , 146.30 78.15 , 143.41 78.82 , 148.54 79.48 , 146.85 80.15 , 172.44 80.82 , 166.82 81.48 , 123.22 82.15 , 108.91 82.82 , 137.67 83.49 , 186.78 84.15 , 184.41 84.82 , 182.00 85.49 , 126.49 86.15 , 114.39 86.82 , 156.70 87.49 , 131.68 88.16 , 148.56 88.82 , 96.44 89.49 , 150.39 90.16 , 156.73 90.82 , 84.62 91.49 , 74.99 92.16 , 58.90 92.82 , 195.70 93.49 , 174.12 94.16 , 120.50 94.83 , 84.08 95.49 , 81.57 96.16 , 140.75 96.83 , 89.08 97.49 , 145.25 98.16 , 80.15 98.83 , 147.16 99.50 , 145.93 100.16 , 95.60 100.83 , 141.31 101.50 , 125.07 102.16 , 100.18 102.83 , 141.24 103.50 , 167.37 104.16 , 83.57 104.83 , 127.61 105.50 , 127.21 106.17 , 197.04 106.83 , 103.21 107.50 , 119.41 108.17 , 114.28 108.83 , 146.63 109.50 , 136.30 110.17 , 149.25 110.84 , 162.86 111.50 , 94.00 112.17 , 161.77 112.84 , 125.07 113.50 , 125.07 114.17 , 153.23 114.84 , 158.85 115.50 , 207.62 116.17 , 38.15 116.84 , 197.83 117.51 , 25.44 118.17 , 102.45 118.84 , 87.81 119.51 , 144.70 120.17 , 113.79 120.84 , 111.43 121.51 , 111.43 122.18 , 174.01 122.84 , 174.46 123.51 , 117.56 124.18 , 103.42 124.84 , 94.71 125.51 , 133.40 126.18 , 121.83 126.85 , 139.77 127.51 , 147.69 128.18 , 160.92 128.85 , 151.21 129.51 , 90.82 130.18 , 120.85 130.85 , 145.66 131.51 , 165.00 132.18 , 84.15 132.85 , 96.57 133.52 , 83.02 134.18 , 163.15 134.85 , 101.58 135.52 , 162.40 136.18 , 96.90 136.85 , 127.39 137.52 , 120.95 138.19 , 161.24 138.85 , 124.25 139.52 , 106.53 140.19 , 168.11 140.85 , 160.79 141.52 , 101.53 142.19 , 154.70 142.85 , 113.68 143.52 , 154.69 144.19 , 117.26 144.86 , 95.98 145.52 , 160.93 146.19 , 167.69 146.86 , 163.17 147.52 , 129.58 148.19 , 120.82 148.86 , 78.13 149.53 , 127.52 150.19 , 115.66 150.86 , 141.20 151.53 , 125.99 152.19 , 164.79 152.86 , 98.91 153.53 , 138.69 154.19 , 144.93 154.86 , 124.59 155.53 , 130.19 156.20 , 125.43 156.86 , 159.24 157.53 , 118.18 158.20 , 88.73 158.86 , 109.30 159.53 , 171.36 160.20 , 137.21 160.87 , 119.16 161.53 , 111.04 162.20 , 129.58 162.87 , 187.01 163.53 , 60.38 164.20 , 184.17 164.87 , 75.53 165.53 , 200.58 166.20 , 175.40 166.87 , 116.56 167.54 , 130.38 168.20 , 133.28 168.87 , 130.75 169.54 , 179.45 170.20 , 116.02 170.87 , 113.63 171.54 , 147.96 172.21 , 113.11 172.87 , 127.98 173.54 , 136.51 174.21 , 134.64 174.87 , 127.16 175.54 , 129.78 176.21 , 78.02 176.87 , 105.34 177.54 , 131.01 178.21 , 127.49 178.88 , 131.20 179.54 , 124.95 180.21 , 147.54 180.88 , 137.94 181.54 , 123.06 182.21 , 129.21 182.88 , 89.22 183.55 , 158.02 184.21 , 152.80 184.88 , 73.17 185.55 , 97.59 186.21 , 135.48 186.88 , 124.24 187.55 , 110.21 188.21 , 155.29 188.88 , 82.67 189.55 , 82.67 190.22 , 145.84 190.88 , 104.94 191.55 , 108.01 192.22 , 127.29 192.88 , 107.41 193.55 , 176.21 194.22 , 84.47 194.89 , 167.19 195.55 , 166.32 196.22 , 90.65 196.89 , 65.03 197.55 , 182.05 198.22 , 165.88 198.89 , 102.64 199.55 , 83.40 200.22 , 164.36 200.89 , 169.97 201.56 , 60.84 202.22 , 135.09 202.89 , 139.91 203.56 , 146.25 204.22 , 103.87 204.89 , 148.69 205.56 , 136.87 206.23 , 148.05 206.89 , 154.20 207.56 , 115.85 208.23 , 140.97 208.89 , 132.32 209.56 , 133.20 210.23 , 156.90 210.89 , 163.91 211.56 , 137.23 212.23 , 162.89 212.90 , 184.64 213.56 , 193.93 214.23 , 72.13 214.90 , 72.13 215.56 , 160.73 216.23 , 107.96 216.90 , 125.23 217.57 , 120.19 218.23 , 120.75 218.90 , 159.00 219.57 , 137.43 220.23 , 112.49 220.90 , 122.06 221.57 , 153.91 222.24 , 115.49 222.90 , 119.97 223.57 , 166.74 224.24 , 170.16 224.90 , 135.93 225.57 , 131.70 226.24 , 178.28 226.90 , 80.22 227.57 , 160.73 228.24 , 102.62 228.91 , 24.97 229.57 , 48.67 230.24 , 199.64 230.91 , 159.61 231.57 , 166.70 232.24 , 128.70 232.91 , 110.50 233.58 , 157.91 234.24 , 110.48 234.91 , 122.86 235.58 , 148.04 236.24 , 105.49 236.91 , 156.17 237.58 , 150.72 238.24 , 119.88 238.91 , 101.08 239.58 , 136.93 240.25 , 141.22 240.91 , 118.22 241.58 , 164.16 242.25 , 125.25 242.91 , 57.75 243.58 , 179.86 244.25 , 68.97 244.92 , 138.16 245.58 , 106.35 246.25 , 110.42 246.92 , 97.26 247.58 , 89.34 248.25 , 166.71 248.92 , 145.83 249.58 , 122.10 250.25 , 120.76 250.92 , 84.81 251.59 , 90.40 252.25 , 144.53 252.92 , 112.39 253.59 , 147.74 254.25 , 149.09 254.92 , 127.93 255.59 , 126.55 256.26 , 124.95 256.92 , 172.70 257.59 , 109.02 258.26 , 131.47 258.92 , 153.57 259.59 , 104.30 260.26 , 110.58 260.92 , 144.86 261.59 , 115.23 262.26 , 145.09 262.93 , 54.71 263.59 , 66.97 264.26 , 165.41 264.93 , 86.11 265.59 , 170.47 266.26 , 115.44 266.93 , 122.74 267.60 , 125.96 268.26 , 127.45 268.93 , 168.16 269.60 , 104.76 270.26 , 140.41 270.93 , 107.46 271.60 , 159.56 272.26 , 120.35 272.93 , 128.46 273.60 , 151.54 274.27 , 160.46 274.93 , 106.12 275.60 , 108.19 276.27 , 136.57 276.93 , 102.92 277.60 , 101.75 278.27 , 119.02 278.94 , 148.58 279.60 , 174.72 280.27 , 126.09 280.94 , 157.49 281.60 , 96.57 282.27 , 148.86 282.94 , 103.46 283.60 , 154.95 284.27 , 114.00 284.94 , 142.43 285.61 , 108.73 286.27 , 122.13 286.94 , 113.84 287.61 , 115.22 288.27 , 119.59 288.94 , 132.09 289.61 , 137.37 290.28 , 124.91 290.94 , 119.24 291.61 , 126.39 292.28 , 144.25 292.94 , 116.01 293.61 , 147.11 294.28 , 113.89 294.94 , 138.40 295.61 , 148.55 296.28 , 143.55 296.95 , 121.52 297.61 , 108.64 298.28 , 112.28 298.95 , 126.66 299.61 , 125.56 300.28 , 166.84 300.95 , 147.45 301.62 , 145.02 302.28 , 109.37 302.95 , 119.85 303.62 , 153.66 304.28 , 105.73 304.95 , 102.21 305.62 , 103.02 306.29 , 158.44 306.95 , 109.26 307.62 , 88.29 308.29 , 92.14 308.95 , 105.20 309.62 , 114.55 310.29 , 173.82 310.95 , 127.36 311.62 , 125.63 312.29 , 63.96 312.96 , 192.01 313.62 , 55.63 314.29 , 132.71 314.96 , 94.65 315.62 , 122.81 316.29 , 143.55 316.96 , 135.54 317.63 , 133.95 318.29 , 67.37 318.96 , 83.04 319.63 , 101.38 320.29 , 177.09 320.96 , 120.14 321.63 , 117.99 322.29 , 116.57 322.96 , 106.47 323.63 , 124.72 324.30 , 139.20 324.96 , 115.34 325.63 , 116.22 326.30 , 149.72 326.96 , 142.23 327.63 , 178.73 328.30 , 174.54 328.97 , 80.38 329.63 , 106.03 330.30 , 126.94 330.97 , 141.80 331.63 , 142.51 332.30 , 111.72 332.97 , 113.59 333.63 , 132.66 334.30 , 121.60 334.97 , 132.23 335.64 , 157.54 336.30 , 115.04 336.97 , 160.58 337.64 , 96.56 338.30 , 88.93 338.97 , 52.46 339.64 , 211.76 340.31 , 87.12 340.97 , 165.22 341.64 , 111.68 342.31 , 147.65 342.97 , 150.23 343.64 , 119.67 344.31 , 151.50 344.97 , 113.68 345.64 , 152.69 346.31 , 153.84 346.98 , 141.75 347.64 , 175.41 348.31 , 117.73 348.98 , 147.41 349.64 , 120.72 350.31 , 113.42 350.98 , 158.40 351.65 , 97.67 352.31 , 91.42 352.98 , 144.11 353.65 , 153.96 354.31 , 97.23 354.98 , 130.60 355.65 , 129.74 356.31 , 126.73 356.98 , 140.20 357.65 , 159.54 358.32 , 124.39 358.98 , 145.75 359.65 , 105.10 360.32 , 87.48 360.98 , 166.10 361.65 , 83.84 362.32 , 205.20 362.99 , 211.74 " style="stroke-width:1;stroke:#542788;fill:#000000;stroke-opacity:1.000000;fill-opacity:0.000000"/>
</svg>
