<?xml version="1.0" encoding="UTF-8"?>
<svg xmlns="http://www.w3.org/2000/svg" width="385.44" height="240.90" viewBox="0,0,385.44,240.90">
<desc>R SVG Plot!</desc>
<rect width="100%" height="100%" style="fill:#FFFFFF"/>
<polygon points="0.00 , 0.00 385.44 , 0.00 385.44 , 240.90 0.00 , 240.90 " style="stroke-width:1;stroke:#FFFFFF;fill:#FFFFFF;stroke-opacity:1.000000;fill-opacity:1.000000" />
<polygon points="44.27 , 205.54 44.27 , 12.05 373.39 , 12.05 373.39 , 205.54 " style="stroke-width:1;stroke:#FFFFFF;fill:#E5E5E5;stroke-opacity:0.000000;fill-opacity:1.000000" />
<polyline points="44.27 , 17.39 373.39 , 17.39 " style="stroke-width:0;stroke:#F2F2F2;fill:#000000;stroke-opacity:1.000000;fill-opacity:0.000000"/>
<polyline points="44.27 , 71.39 373.39 , 71.39 " style="stroke-width:0;stroke:#F2F2F2;fill:#000000;stroke-opacity:1.000000;fill-opacity:0.000000"/>
<polyline points="44.27 , 125.40 373.39 , 125.40 " style="stroke-width:0;stroke:#F2F2F2;fill:#000000;stroke-opacity:1.000000;fill-opacity:0.000000"/>
<polyline points="50.92 , 205.54 50.92 , 12.05 " style="stroke-width:0;stroke:#F2F2F2;fill:#000000;stroke-opacity:1.000000;fill-opacity:0.000000"/>
<polyline points="134.03 , 205.54 134.03 , 12.05 " style="stroke-width:0;stroke:#F2F2F2;fill:#000000;stroke-opacity:1.000000;fill-opacity:0.000000"/>
<polyline points="217.14 , 205.54 217.14 , 12.05 " style="stroke-width:0;stroke:#F2F2F2;fill:#000000;stroke-opacity:1.000000;fill-opacity:0.000000"/>
<polyline points="300.26 , 205.54 300.26 , 12.05 " style="stroke-width:0;stroke:#F2F2F2;fill:#000000;stroke-opacity:1.000000;fill-opacity:0.000000"/>
<polyline points="44.27 , 44.39 373.39 , 44.39 " style="stroke-width:1;stroke:#FFFFFF;fill:#000000;stroke-opacity:1.000000;fill-opacity:0.000000"/>
<polyline points="44.27 , 98.39 373.39 , 98.39 " style="stroke-width:1;stroke:#FFFFFF;fill:#000000;stroke-opacity:1.000000;fill-opacity:0.000000"/>
<polyline points="44.27 , 152.40 373.39 , 152.40 " style="stroke-width:1;stroke:#FFFFFF;fill:#000000;stroke-opacity:1.000000;fill-opacity:0.000000"/>
<polyline points="92.47 , 205.54 92.47 , 12.05 " style="stroke-width:1;stroke:#FFFFFF;fill:#000000;stroke-opacity:1.000000;fill-opacity:0.000000"/>
<polyline points="175.59 , 205.54 175.59 , 12.05 " style="stroke-width:1;stroke:#FFFFFF;fill:#000000;stroke-opacity:1.000000;fill-opacity:0.000000"/>
<polyline points="258.70 , 205.54 258.70 , 12.05 " style="stroke-width:1;stroke:#FFFFFF;fill:#000000;stroke-opacity:1.000000;fill-opacity:0.000000"/>
<polyline points="341.81 , 205.54 341.81 , 12.05 " style="stroke-width:1;stroke:#FFFFFF;fill:#000000;stroke-opacity:1.000000;fill-opacity:0.000000"/>
<line x1="44.27" y1="98.39" x2="373.39" y2="98.39" style="stroke-width:1;stroke:#7F7F7F;fill:#000000;stroke-opacity:1.000000;fill-opacity:0.000000"/>
<polyline points="59.23 , 153.30 67.54 , 151.97 75.85 , 150.21 84.16 , 146.37 92.47 , 140.83 100.79 , 136.15 109.10 , 133.97 117.41 , 131.50 125.72 , 132.55 134.03 , 131.71 142.34 , 128.72 150.65 , 125.77 158.96 , 122.74 167.28 , 119.66 175.59 , 115.87 183.90 , 112.37 192.21 , 107.78 200.52 , 102.28 208.83 , 95.45 217.14 , 90.84 225.45 , 88.06 233.77 , 86.75 242.08 , 86.92 250.39 , 88.87 258.70 , 90.77 267.01 , 92.83 275.32 , 94.80 283.63 , 96.50 291.94 , 97.20 300.26 , 96.62 308.57 , 96.14 316.88 , 94.85 325.19 , 92.56 333.50 , 90.78 341.81 , 90.05 350.12 , 89.83 358.43 , 89.24 " style="stroke-width:1;stroke:#000000;fill:#000000;stroke-opacity:1.000000;fill-opacity:0.000000"/>
<polygon points="59.23 , 196.75 67.54 , 190.37 75.85 , 181.02 84.16 , 171.89 92.47 , 162.16 100.79 , 156.06 109.10 , 152.80 117.41 , 150.27 125.72 , 152.31 134.03 , 154.80 142.34 , 150.11 150.65 , 146.05 158.96 , 146.50 167.28 , 143.84 175.59 , 142.51 183.90 , 139.70 192.21 , 132.21 200.52 , 128.58 208.83 , 118.25 217.14 , 115.83 225.45 , 112.95 233.77 , 113.38 242.08 , 114.95 250.39 , 116.03 258.70 , 119.53 267.01 , 127.59 275.32 , 129.00 283.63 , 133.15 291.94 , 137.93 300.26 , 136.72 308.57 , 140.64 316.88 , 141.40 325.19 , 139.98 333.50 , 140.31 341.81 , 140.33 350.12 , 145.01 358.43 , 152.32 358.43 , 20.84 350.12 , 33.14 341.81 , 36.25 333.50 , 34.84 325.19 , 44.36 316.88 , 54.88 308.57 , 58.81 300.26 , 61.84 291.94 , 62.43 283.63 , 66.10 275.32 , 63.55 267.01 , 62.37 258.70 , 58.79 250.39 , 55.51 242.08 , 52.67 233.77 , 50.63 225.45 , 51.10 217.14 , 57.17 208.83 , 67.25 200.52 , 76.58 192.21 , 84.55 183.90 , 88.39 175.59 , 94.13 167.28 , 96.91 158.96 , 100.19 150.65 , 105.70 142.34 , 108.09 134.03 , 111.22 125.72 , 113.75 117.41 , 109.93 109.10 , 113.04 100.79 , 112.83 92.47 , 117.58 84.16 , 123.75 75.85 , 125.78 67.54 , 123.45 59.23 , 118.05 " style="stroke-width:1;stroke:#FFFFFF;fill:#333333;stroke-opacity:0.000000;fill-opacity:0.606299" />
<text transform="translate(21.05,47.99)"  style="font-size:10" >-0.1</text>
<text transform="translate(23.10,101.99)"  style="font-size:10" >0.0</text>
<text transform="translate(23.10,156.00)"  style="font-size:10" >0.1</text>
<polyline points="40.00 , 44.39 44.27 , 44.39 " style="stroke-width:1;stroke:#7F7F7F;fill:#000000;stroke-opacity:1.000000;fill-opacity:0.000000"/>
<polyline points="40.00 , 98.39 44.27 , 98.39 " style="stroke-width:1;stroke:#7F7F7F;fill:#000000;stroke-opacity:1.000000;fill-opacity:0.000000"/>
<polyline points="40.00 , 152.40 44.27 , 152.40 " style="stroke-width:1;stroke:#7F7F7F;fill:#000000;stroke-opacity:1.000000;fill-opacity:0.000000"/>
<polyline points="92.47 , 209.81 92.47 , 205.54 " style="stroke-width:1;stroke:#7F7F7F;fill:#000000;stroke-opacity:1.000000;fill-opacity:0.000000"/>
<polyline points="175.59 , 209.81 175.59 , 205.54 " style="stroke-width:1;stroke:#7F7F7F;fill:#000000;stroke-opacity:1.000000;fill-opacity:0.000000"/>
<polyline points="258.70 , 209.81 258.70 , 205.54 " style="stroke-width:1;stroke:#7F7F7F;fill:#000000;stroke-opacity:1.000000;fill-opacity:0.000000"/>
<polyline points="341.81 , 209.81 341.81 , 205.54 " style="stroke-width:1;stroke:#7F7F7F;fill:#000000;stroke-opacity:1.000000;fill-opacity:0.000000"/>
<text transform="translate(84.22,219.85)"  style="font-size:10" >100</text>
<text transform="translate(167.34,219.85)"  style="font-size:10" >200</text>
<text transform="translate(250.45,219.85)"  style="font-size:10" >300</text>
<text transform="translate(333.56,219.85)"  style="font-size:10" >400</text>
<text transform="translate(164.29,231.87)"  style="font-size:12" >Duration (msec)</text>
<text transform="translate(18.03,136.09) rotate(-90)"  style="font-size:12" >time delta</text>
</svg>
