<?xml version="1.0" encoding="UTF-8"?>
<svg xmlns="http://www.w3.org/2000/svg" width="385.44" height="240.90" viewBox="0,0,385.44,240.90">
<desc>R SVG Plot!</desc>
<rect width="100%" height="100%" style="fill:#FFFFFF"/>
<line x1="30.12" y1="219.23" x2="363.65" y2="219.23" style="stroke-width:1;stroke:#000000;fill:#000000;stroke-opacity:1.000000;fill-opacity:0.000000"/>
<line x1="30.12" y1="219.23" x2="30.12" y2="223.27" style="stroke-width:1;stroke:#000000;fill:#000000;stroke-opacity:1.000000;fill-opacity:0.000000"/>
<line x1="96.83" y1="219.23" x2="96.83" y2="223.27" style="stroke-width:1;stroke:#000000;fill:#000000;stroke-opacity:1.000000;fill-opacity:0.000000"/>
<line x1="163.53" y1="219.23" x2="163.53" y2="223.27" style="stroke-width:1;stroke:#000000;fill:#000000;stroke-opacity:1.000000;fill-opacity:0.000000"/>
<line x1="230.24" y1="219.23" x2="230.24" y2="223.27" style="stroke-width:1;stroke:#000000;fill:#000000;stroke-opacity:1.000000;fill-opacity:0.000000"/>
<line x1="296.95" y1="219.23" x2="296.95" y2="223.27" style="stroke-width:1;stroke:#000000;fill:#000000;stroke-opacity:1.000000;fill-opacity:0.000000"/>
<line x1="363.65" y1="219.23" x2="363.65" y2="223.27" style="stroke-width:1;stroke:#000000;fill:#000000;stroke-opacity:1.000000;fill-opacity:0.000000"/>
<text transform="translate(21.12,231.73)"  style="font-size:12" >500</text>
<text transform="translate(86.93,231.73)"  style="font-size:12" >600</text>
<text transform="translate(153.63,231.73)"  style="font-size:12" >700</text>
<text transform="translate(220.34,231.73)"  style="font-size:12" >800</text>
<text transform="translate(287.05,231.73)"  style="font-size:12" >900</text>
<text transform="translate(350.45,231.73)"  style="font-size:12" >1000</text>
<line x1="17.50" y1="216.46" x2="17.50" y2="33.48" style="stroke-width:1;stroke:#000000;fill:#000000;stroke-opacity:1.000000;fill-opacity:0.000000"/>
<line x1="17.50" y1="216.46" x2="13.47" y2="216.46" style="stroke-width:1;stroke:#000000;fill:#000000;stroke-opacity:1.000000;fill-opacity:0.000000"/>
<line x1="17.50" y1="179.86" x2="13.47" y2="179.86" style="stroke-width:1;stroke:#000000;fill:#000000;stroke-opacity:1.000000;fill-opacity:0.000000"/>
<line x1="17.50" y1="143.27" x2="13.47" y2="143.27" style="stroke-width:1;stroke:#000000;fill:#000000;stroke-opacity:1.000000;fill-opacity:0.000000"/>
<line x1="17.50" y1="106.67" x2="13.47" y2="106.67" style="stroke-width:1;stroke:#000000;fill:#000000;stroke-opacity:1.000000;fill-opacity:0.000000"/>
<line x1="17.50" y1="70.08" x2="13.47" y2="70.08" style="stroke-width:1;stroke:#000000;fill:#000000;stroke-opacity:1.000000;fill-opacity:0.000000"/>
<line x1="17.50" y1="33.48" x2="13.47" y2="33.48" style="stroke-width:1;stroke:#000000;fill:#000000;stroke-opacity:1.000000;fill-opacity:0.000000"/>
<text transform="translate(13.33,228.19) rotate(-90)"  style="font-size:12" >0.38</text>
<text transform="translate(13.33,191.59) rotate(-90)"  style="font-size:12" >0.40</text>
<text transform="translate(13.33,155.00) rotate(-90)"  style="font-size:12" >0.42</text>
<text transform="translate(13.33,118.41) rotate(-90)"  style="font-size:12" >0.44</text>
<text transform="translate(13.33,81.81) rotate(-90)"  style="font-size:12" >0.46</text>
<text transform="translate(13.33,45.22) rotate(-90)"  style="font-size:12" >0.48</text>
<polyline points="17.50 , 17.50 17.50 , 219.23 376.27 , 219.23 " style="stroke-width:1;stroke:#000000;fill:#000000;stroke-opacity:1.000000;fill-opacity:0.000000"/>
<text transform="translate(148.57,14.75)"  style="font-size:14" >Trace of  sigma</text>
<text transform="translate(126.85,240.07)"  style="font-size:12" >Iterations (without warmup)</text>
<polyline points="30.79 , 118.40 31.45 , 91.27 32.12 , 193.11 32.79 , 142.20 33.46 , 147.48 34.12 , 142.00 34.79 , 161.02 35.46 , 120.77 36.12 , 141.54 36.79 , 156.60 37.46 , 159.88 38.13 , 123.14 38.79 , 119.41 39.46 , 137.13 40.13 , 134.09 40.79 , 145.72 41.46 , 131.63 42.13 , 153.50 42.80 , 171.57 43.46 , 153.48 44.13 , 154.24 44.80 , 152.45 45.46 , 192.07 46.13 , 75.17 46.80 , 199.88 47.46 , 93.54 48.13 , 118.45 48.80 , 124.98 49.47 , 128.14 50.13 , 122.85 50.80 , 161.96 51.47 , 115.93 52.13 , 170.36 52.80 , 118.68 53.47 , 148.10 54.14 , 144.39 54.80 , 145.24 55.47 , 157.19 56.14 , 181.95 56.80 , 175.42 57.47 , 146.46 58.14 , 152.29 58.80 , 168.88 59.47 , 138.34 60.14 , 143.04 60.81 , 149.05 61.47 , 175.31 62.14 , 173.78 62.81 , 165.51 63.47 , 165.51 64.14 , 158.58 64.81 , 75.07 65.48 , 81.69 66.14 , 97.74 66.81 , 109.35 67.48 , 107.17 68.14 , 102.13 68.81 , 108.43 69.48 , 91.78 70.14 , 112.46 70.81 , 109.01 71.48 , 116.41 72.15 , 122.52 72.81 , 89.45 73.48 , 108.42 74.15 , 111.92 74.81 , 184.20 75.48 , 180.26 76.15 , 122.74 76.82 , 123.80 77.48 , 118.64 78.15 , 132.03 78.82 , 162.82 79.48 , 138.79 80.15 , 119.41 80.82 , 117.13 81.48 , 156.10 82.15 , 156.10 82.82 , 119.69 83.49 , 172.88 84.15 , 190.12 84.82 , 95.57 85.49 , 82.35 86.15 , 126.96 86.82 , 129.81 87.49 , 150.63 88.16 , 155.07 88.82 , 181.10 89.49 , 172.09 90.16 , 177.42 90.82 , 166.78 91.49 , 149.54 92.16 , 152.22 92.82 , 109.06 93.49 , 166.41 94.16 , 168.20 94.83 , 186.91 95.49 , 121.21 96.16 , 93.39 96.83 , 110.01 97.49 , 87.18 98.16 , 85.16 98.83 , 109.80 99.50 , 130.16 100.16 , 165.80 100.83 , 123.78 101.50 , 130.51 102.16 , 155.58 102.83 , 155.58 103.50 , 147.95 104.16 , 163.77 104.83 , 126.50 105.50 , 161.62 106.17 , 148.87 106.83 , 133.37 107.50 , 134.00 108.17 , 134.00 108.83 , 133.05 109.50 , 103.00 110.17 , 133.81 110.84 , 152.34 111.50 , 81.67 112.17 , 122.75 112.84 , 121.28 113.50 , 159.42 114.17 , 135.15 114.84 , 165.62 115.50 , 131.86 116.17 , 153.36 116.84 , 137.34 117.51 , 122.83 118.17 , 128.99 118.84 , 140.50 119.51 , 135.19 120.17 , 128.95 120.84 , 85.18 121.51 , 155.08 122.18 , 194.72 122.84 , 82.01 123.51 , 71.86 124.18 , 78.81 124.84 , 73.09 125.51 , 93.89 126.18 , 129.04 126.85 , 135.17 127.51 , 156.80 128.18 , 120.74 128.85 , 132.80 129.51 , 145.00 130.18 , 124.07 130.85 , 145.86 131.51 , 146.58 132.18 , 171.79 132.85 , 117.75 133.52 , 135.20 134.18 , 103.01 134.85 , 134.09 135.52 , 137.71 136.18 , 141.41 136.85 , 148.13 137.52 , 149.37 138.19 , 157.65 138.85 , 163.28 139.52 , 163.28 140.19 , 163.28 140.85 , 173.56 141.52 , 180.97 142.19 , 117.38 142.85 , 118.33 143.52 , 109.34 144.19 , 161.12 144.86 , 164.90 145.52 , 199.71 146.19 , 197.15 146.86 , 178.22 147.52 , 147.53 148.19 , 150.13 148.86 , 172.30 149.53 , 154.18 150.19 , 97.87 150.86 , 100.98 151.53 , 157.70 152.19 , 138.20 152.86 , 143.01 153.53 , 145.90 154.19 , 131.01 154.86 , 165.13 155.53 , 107.09 156.20 , 150.61 156.86 , 139.84 157.53 , 127.33 158.20 , 137.10 158.86 , 109.50 159.53 , 103.38 160.20 , 169.18 160.87 , 195.91 161.53 , 167.43 162.20 , 142.53 162.87 , 128.52 163.53 , 149.60 164.20 , 147.47 164.87 , 152.28 165.53 , 157.76 166.20 , 155.96 166.87 , 147.24 167.54 , 198.24 168.20 , 113.92 168.87 , 189.67 169.54 , 122.50 170.20 , 147.98 170.87 , 146.12 171.54 , 126.80 172.21 , 153.54 172.87 , 159.35 173.54 , 117.81 174.21 , 139.78 174.87 , 133.31 175.54 , 148.93 176.21 , 159.13 176.87 , 96.74 177.54 , 72.87 178.21 , 110.24 178.88 , 113.35 179.54 , 166.35 180.21 , 131.42 180.88 , 188.25 181.54 , 98.48 182.21 , 78.70 182.88 , 207.53 183.55 , 197.85 184.21 , 160.51 184.88 , 169.25 185.55 , 141.91 186.21 , 133.58 186.88 , 139.92 187.55 , 110.89 188.21 , 132.85 188.88 , 132.09 189.55 , 131.67 190.22 , 132.78 190.88 , 123.35 191.55 , 127.64 192.22 , 131.56 192.88 , 135.96 193.55 , 138.16 194.22 , 155.22 194.89 , 137.75 195.55 , 141.19 196.22 , 159.33 196.89 , 135.39 197.55 , 156.52 198.22 , 112.53 198.89 , 114.47 199.55 , 121.65 200.22 , 147.36 200.89 , 146.45 201.56 , 143.33 202.22 , 143.05 202.89 , 173.74 203.56 , 195.26 204.22 , 117.68 204.89 , 119.78 205.56 , 145.26 206.23 , 125.43 206.89 , 175.36 207.56 , 175.73 208.23 , 206.55 208.89 , 180.51 209.56 , 187.91 210.23 , 173.42 210.89 , 156.51 211.56 , 89.13 212.23 , 156.05 212.90 , 115.31 213.56 , 182.05 214.23 , 128.31 214.90 , 126.32 215.56 , 136.82 216.23 , 144.14 216.90 , 129.27 217.57 , 125.51 218.23 , 136.81 218.90 , 158.22 219.57 , 141.47 220.23 , 150.21 220.90 , 149.27 221.57 , 149.27 222.24 , 158.51 222.90 , 162.78 223.57 , 123.48 224.24 , 131.92 224.90 , 107.12 225.57 , 108.75 226.24 , 125.79 226.90 , 137.17 227.57 , 124.50 228.24 , 185.18 228.91 , 156.84 229.57 , 110.13 230.24 , 198.32 230.91 , 210.94 231.57 , 145.88 232.24 , 137.68 232.91 , 138.92 233.58 , 128.63 234.24 , 160.94 234.91 , 155.38 235.58 , 167.08 236.24 , 153.22 236.91 , 128.09 237.58 , 155.90 238.24 , 129.92 238.91 , 113.53 239.58 , 140.08 240.25 , 140.16 240.91 , 153.40 241.58 , 139.58 242.25 , 180.88 242.91 , 134.11 243.58 , 152.69 244.25 , 144.20 244.92 , 146.69 245.58 , 123.06 246.25 , 153.85 246.92 , 142.48 247.58 , 142.08 248.25 , 135.94 248.92 , 115.06 249.58 , 184.91 250.25 , 188.37 250.92 , 183.57 251.59 , 204.13 252.25 , 101.40 252.92 , 172.13 253.59 , 161.16 254.25 , 177.66 254.92 , 123.42 255.59 , 171.48 256.26 , 154.40 256.92 , 109.64 257.59 , 169.87 258.26 , 130.98 258.92 , 168.79 259.59 , 211.27 260.26 , 82.51 260.92 , 113.57 261.59 , 122.38 262.26 , 123.30 262.93 , 159.01 263.59 , 157.09 264.26 , 139.40 264.93 , 115.16 265.59 , 147.32 266.26 , 147.26 266.93 , 149.54 267.60 , 144.63 268.26 , 150.11 268.93 , 167.86 269.60 , 137.72 270.26 , 112.42 270.93 , 137.95 271.60 , 165.50 272.26 , 129.34 272.93 , 113.08 273.60 , 158.21 274.27 , 155.90 274.93 , 134.55 275.60 , 132.44 276.27 , 143.34 276.93 , 137.04 277.60 , 144.35 278.27 , 138.04 278.94 , 146.90 279.60 , 145.69 280.27 , 128.54 280.94 , 132.42 281.60 , 134.10 282.27 , 119.31 282.94 , 112.86 283.60 , 115.65 284.27 , 132.97 284.94 , 163.98 285.61 , 161.09 286.27 , 156.05 286.94 , 161.18 287.61 , 161.18 288.27 , 161.18 288.94 , 158.68 289.61 , 166.15 290.28 , 166.53 290.94 , 166.53 291.61 , 196.89 292.28 , 210.83 292.94 , 203.73 293.61 , 190.15 294.28 , 126.74 294.94 , 105.59 295.61 , 149.46 296.28 , 124.06 296.95 , 197.11 297.61 , 113.48 298.28 , 96.32 298.95 , 140.69 299.61 , 145.73 300.28 , 144.93 300.95 , 142.73 301.62 , 122.86 302.28 , 127.93 302.95 , 121.81 303.62 , 120.77 304.28 , 161.34 304.95 , 184.84 305.62 , 173.35 306.29 , 185.72 306.95 , 135.40 307.62 , 105.85 308.29 , 105.59 308.95 , 130.63 309.62 , 142.82 310.29 , 151.07 310.95 , 131.99 311.62 , 160.11 312.29 , 144.70 312.96 , 149.65 313.62 , 136.53 314.29 , 139.14 314.96 , 150.72 315.62 , 152.03 316.29 , 183.76 316.96 , 162.79 317.63 , 171.09 318.29 , 176.91 318.96 , 160.32 319.63 , 87.21 320.29 , 147.30 320.96 , 161.38 321.63 , 190.20 322.29 , 189.29 322.96 , 135.82 323.63 , 105.94 324.30 , 155.10 324.96 , 184.06 325.63 , 176.98 326.30 , 175.71 326.96 , 132.69 327.63 , 147.15 328.30 , 140.77 328.97 , 148.10 329.63 , 110.60 330.30 , 134.79 330.97 , 121.73 331.63 , 158.45 332.30 , 133.02 332.97 , 138.54 333.63 , 143.52 334.30 , 166.94 334.97 , 142.47 335.64 , 134.53 336.30 , 156.86 336.97 , 143.15 337.64 , 141.21 338.30 , 144.90 338.97 , 139.87 339.64 , 138.12 340.31 , 148.98 340.97 , 147.50 341.64 , 169.21 342.31 , 141.60 342.97 , 147.82 343.64 , 147.82 344.31 , 160.58 344.97 , 153.84 345.64 , 201.36 346.31 , 195.90 346.98 , 196.06 347.64 , 206.87 348.31 , 191.65 348.98 , 191.65 349.64 , 191.65 350.31 , 188.24 350.98 , 188.24 351.65 , 192.02 352.31 , 183.56 352.98 , 183.56 353.65 , 179.64 354.31 , 179.64 354.98 , 160.58 355.65 , 160.58 356.31 , 160.58 356.98 , 120.93 357.65 , 113.99 358.32 , 111.68 358.98 , 99.12 359.65 , 96.72 360.32 , 113.24 360.98 , 152.63 361.65 , 146.88 362.32 , 122.80 362.99 , 67.17 " style="stroke-width:1;stroke:#E66101;fill:#000000;stroke-opacity:1.000000;fill-opacity:0.000000"/>
<polyline points="30.79 , 128.06 31.45 , 150.84 32.12 , 99.03 32.79 , 193.89 33.46 , 93.15 34.12 , 88.07 34.79 , 197.73 35.46 , 197.11 36.12 , 138.05 36.79 , 168.97 37.46 , 116.46 38.13 , 48.15 38.79 , 145.37 39.46 , 117.45 40.13 , 164.17 40.79 , 137.46 41.46 , 178.99 42.13 , 197.52 42.80 , 89.79 43.46 , 210.96 44.13 , 110.90 44.80 , 70.22 45.46 , 74.67 46.13 , 209.23 46.80 , 124.81 47.46 , 166.39 48.13 , 93.63 48.80 , 139.05 49.47 , 106.25 50.13 , 156.80 50.80 , 132.69 51.47 , 126.24 52.13 , 73.13 52.80 , 162.75 53.47 , 144.98 54.14 , 150.00 54.80 , 127.90 55.47 , 149.95 56.14 , 149.05 56.80 , 117.07 57.47 , 113.68 58.14 , 129.03 58.80 , 122.17 59.47 , 121.43 60.14 , 99.19 60.81 , 184.26 61.47 , 108.51 62.14 , 159.45 62.81 , 166.94 63.47 , 175.43 64.14 , 152.02 64.81 , 166.26 65.48 , 127.02 66.14 , 136.33 66.81 , 107.89 67.48 , 145.58 68.14 , 159.44 68.81 , 120.80 69.48 , 106.15 70.14 , 106.15 70.81 , 167.42 71.48 , 192.42 72.15 , 110.72 72.81 , 106.42 73.48 , 88.61 74.15 , 187.45 74.81 , 105.12 75.48 , 145.57 76.15 , 142.11 76.82 , 174.63 77.48 , 180.19 78.15 , 121.80 78.82 , 127.24 79.48 , 150.35 80.15 , 172.18 80.82 , 161.42 81.48 , 129.79 82.15 , 140.90 82.82 , 157.14 83.49 , 149.70 84.15 , 156.59 84.82 , 130.88 85.49 , 137.74 86.15 , 122.27 86.82 , 177.28 87.49 , 91.59 88.16 , 113.69 88.82 , 171.34 89.49 , 200.93 90.16 , 118.13 90.82 , 162.55 91.49 , 146.84 92.16 , 146.24 92.82 , 136.04 93.49 , 157.61 94.16 , 130.96 94.83 , 120.06 95.49 , 200.86 96.16 , 190.04 96.83 , 105.55 97.49 , 151.50 98.16 , 185.33 98.83 , 180.75 99.50 , 116.13 100.16 , 198.82 100.83 , 82.41 101.50 , 205.88 102.16 , 121.10 102.83 , 151.32 103.50 , 143.76 104.16 , 157.04 104.83 , 131.26 105.50 , 111.07 106.17 , 127.59 106.83 , 156.54 107.50 , 137.49 108.17 , 142.08 108.83 , 110.23 109.50 , 147.77 110.17 , 155.93 110.84 , 133.66 111.50 , 183.76 112.17 , 135.90 112.84 , 87.95 113.50 , 192.65 114.17 , 84.06 114.84 , 96.48 115.50 , 186.84 116.17 , 102.35 116.84 , 137.21 117.51 , 124.46 118.17 , 157.63 118.84 , 130.19 119.51 , 130.16 120.17 , 122.98 120.84 , 125.71 121.51 , 173.13 122.18 , 182.29 122.84 , 186.55 123.51 , 161.34 124.18 , 142.99 124.84 , 171.27 125.51 , 102.99 126.18 , 107.90 126.85 , 146.71 127.51 , 134.53 128.18 , 126.27 128.85 , 155.39 129.51 , 187.84 130.18 , 145.51 130.85 , 174.37 131.51 , 110.73 132.18 , 137.44 132.85 , 176.20 133.52 , 171.53 134.18 , 160.21 134.85 , 160.48 135.52 , 140.88 136.18 , 94.40 136.85 , 92.70 137.52 , 73.47 138.19 , 87.36 138.85 , 182.71 139.52 , 175.94 140.19 , 161.70 140.85 , 124.56 141.52 , 144.61 142.19 , 122.68 142.85 , 117.77 143.52 , 172.90 144.19 , 124.62 144.86 , 145.92 145.52 , 163.56 146.19 , 158.11 146.86 , 159.22 147.52 , 164.00 148.19 , 126.30 148.86 , 151.26 149.53 , 123.59 150.19 , 134.82 150.86 , 133.79 151.53 , 133.79 152.19 , 134.37 152.86 , 136.00 153.53 , 121.71 154.19 , 148.20 154.86 , 134.68 155.53 , 159.86 156.20 , 138.99 156.86 , 211.58 157.53 , 148.66 158.20 , 148.64 158.86 , 141.57 159.53 , 133.58 160.20 , 119.76 160.87 , 143.48 161.53 , 141.71 162.20 , 144.90 162.87 , 143.46 163.53 , 141.46 164.20 , 140.39 164.87 , 125.61 165.53 , 138.06 166.20 , 142.10 166.87 , 146.54 167.54 , 156.05 168.20 , 143.43 168.87 , 164.45 169.54 , 134.35 170.20 , 150.28 170.87 , 127.44 171.54 , 139.88 172.21 , 142.43 172.87 , 171.31 173.54 , 92.17 174.21 , 182.88 174.87 , 168.61 175.54 , 127.05 176.21 , 163.27 176.87 , 156.85 177.54 , 136.24 178.21 , 172.31 178.88 , 92.70 179.54 , 147.79 180.21 , 135.20 180.88 , 164.92 181.54 , 111.56 182.21 , 179.82 182.88 , 166.65 183.55 , 133.90 184.21 , 135.64 184.88 , 137.79 185.55 , 191.98 186.21 , 99.79 186.88 , 197.75 187.55 , 176.57 188.21 , 128.97 188.88 , 189.44 189.55 , 136.54 190.22 , 136.58 190.88 , 156.84 191.55 , 164.11 192.22 , 137.89 192.88 , 190.23 193.55 , 137.09 194.22 , 179.04 194.89 , 141.85 195.55 , 138.20 196.22 , 157.96 196.89 , 128.39 197.55 , 190.02 198.22 , 160.45 198.89 , 155.43 199.55 , 153.74 200.22 , 125.87 200.89 , 120.40 201.56 , 159.24 202.22 , 115.98 202.89 , 117.36 203.56 , 121.16 204.22 , 148.71 204.89 , 152.92 205.56 , 143.83 206.23 , 158.23 206.89 , 115.42 207.56 , 138.22 208.23 , 111.79 208.89 , 100.03 209.56 , 168.78 210.23 , 143.37 210.89 , 156.83 211.56 , 140.65 212.23 , 117.09 212.90 , 105.21 213.56 , 105.21 214.23 , 105.21 214.90 , 105.21 215.56 , 105.21 216.23 , 105.21 216.90 , 105.21 217.57 , 105.21 218.23 , 105.21 218.90 , 105.21 219.57 , 105.21 220.23 , 105.21 220.90 , 105.21 221.57 , 105.90 222.24 , 105.90 222.90 , 105.90 223.57 , 107.00 224.24 , 111.62 224.90 , 126.32 225.57 , 162.25 226.24 , 181.11 226.90 , 124.50 227.57 , 140.50 228.24 , 138.33 228.91 , 137.99 229.57 , 156.59 230.24 , 133.76 230.91 , 178.74 231.57 , 178.74 232.24 , 115.14 232.91 , 153.70 233.58 , 139.10 234.24 , 132.26 234.91 , 137.34 235.58 , 153.63 236.24 , 109.87 236.91 , 125.35 237.58 , 137.82 238.24 , 156.69 238.91 , 171.30 239.58 , 147.82 240.25 , 154.45 240.91 , 186.49 241.58 , 180.53 242.25 , 141.57 242.91 , 96.47 243.58 , 184.34 244.25 , 143.86 244.92 , 139.11 245.58 , 133.72 246.25 , 162.62 246.92 , 116.49 247.58 , 138.88 248.25 , 148.60 248.92 , 126.89 249.58 , 128.98 250.25 , 131.83 250.92 , 161.29 251.59 , 118.63 252.25 , 155.23 252.92 , 121.99 253.59 , 130.23 254.25 , 155.40 254.92 , 129.04 255.59 , 157.72 256.26 , 180.76 256.92 , 128.20 257.59 , 175.82 258.26 , 127.60 258.92 , 145.07 259.59 , 173.44 260.26 , 182.74 260.92 , 147.74 261.59 , 172.34 262.26 , 124.84 262.93 , 138.74 263.59 , 204.13 264.26 , 85.96 264.93 , 206.60 265.59 , 89.89 266.26 , 126.08 266.93 , 121.99 267.60 , 146.66 268.26 , 128.46 268.93 , 154.47 269.60 , 111.90 270.26 , 190.33 270.93 , 136.72 271.60 , 154.39 272.26 , 139.95 272.93 , 158.94 273.60 , 127.15 274.27 , 123.34 274.93 , 203.63 275.60 , 62.83 276.27 , 202.04 276.93 , 140.99 277.60 , 174.76 278.27 , 87.02 278.94 , 153.96 279.60 , 115.50 280.27 , 180.35 280.94 , 149.19 281.60 , 147.44 282.27 , 166.35 282.94 , 116.91 283.60 , 164.52 284.27 , 145.47 284.94 , 172.55 285.61 , 178.70 286.27 , 98.31 286.94 , 171.47 287.61 , 143.80 288.27 , 171.51 288.94 , 146.49 289.61 , 182.75 290.28 , 119.17 290.94 , 124.91 291.61 , 138.23 292.28 , 148.35 292.94 , 143.81 293.61 , 111.54 294.28 , 128.17 294.94 , 102.22 295.61 , 122.96 296.28 , 158.51 296.95 , 140.03 297.61 , 122.79 298.28 , 134.29 298.95 , 162.67 299.61 , 161.78 300.28 , 159.89 300.95 , 124.21 301.62 , 90.28 302.28 , 144.39 302.95 , 150.13 303.62 , 145.14 304.28 , 124.98 304.95 , 151.72 305.62 , 133.72 306.29 , 123.13 306.95 , 139.67 307.62 , 133.65 308.29 , 123.91 308.95 , 118.24 309.62 , 113.56 310.29 , 113.56 310.95 , 141.60 311.62 , 143.58 312.29 , 147.89 312.96 , 157.04 313.62 , 151.86 314.29 , 126.40 314.96 , 119.82 315.62 , 127.43 316.29 , 165.23 316.96 , 117.80 317.63 , 113.09 318.29 , 161.16 318.96 , 160.02 319.63 , 133.04 320.29 , 167.34 320.96 , 153.57 321.63 , 140.67 322.29 , 125.44 322.96 , 170.22 323.63 , 132.08 324.30 , 165.60 324.96 , 146.06 325.63 , 136.88 326.30 , 125.93 326.96 , 152.69 327.63 , 130.65 328.30 , 190.03 328.97 , 194.40 329.63 , 186.62 330.30 , 101.36 330.97 , 126.51 331.63 , 86.79 332.30 , 107.64 332.97 , 168.17 333.63 , 109.67 334.30 , 114.43 334.97 , 158.70 335.64 , 152.23 336.30 , 135.10 336.97 , 191.61 337.64 , 191.61 338.30 , 199.38 338.97 , 188.11 339.64 , 191.14 340.31 , 140.92 340.97 , 147.88 341.64 , 179.90 342.31 , 141.27 342.97 , 139.56 343.64 , 138.30 344.31 , 78.93 344.97 , 165.40 345.64 , 165.97 346.31 , 171.65 346.98 , 145.63 347.64 , 115.95 348.31 , 130.70 348.98 , 180.70 349.64 , 121.04 350.31 , 139.31 350.98 , 139.95 351.65 , 147.33 352.31 , 152.26 352.98 , 146.03 353.65 , 133.60 354.31 , 179.77 354.98 , 146.84 355.65 , 137.59 356.31 , 105.06 356.98 , 144.20 357.65 , 130.94 358.32 , 170.45 358.98 , 151.06 359.65 , 138.83 360.32 , 142.79 360.98 , 146.64 361.65 , 141.58 362.32 , 144.07 362.99 , 145.11 " style="stroke-width:1;stroke:#998EC3;fill:#000000;stroke-opacity:1.000000;fill-opacity:0.000000"/>
<polyline points="30.79 , 162.89 31.45 , 171.94 32.12 , 159.27 32.79 , 135.87 33.46 , 158.98 34.12 , 140.53 34.79 , 146.86 35.46 , 168.37 36.12 , 90.54 36.79 , 131.61 37.46 , 186.08 38.13 , 111.06 38.79 , 134.54 39.46 , 99.74 40.13 , 121.97 40.79 , 142.81 41.46 , 78.10 42.13 , 157.60 42.80 , 134.44 43.46 , 126.16 44.13 , 179.09 44.80 , 149.07 45.46 , 178.05 46.13 , 175.19 46.80 , 155.51 47.46 , 176.21 48.13 , 129.63 48.80 , 125.70 49.47 , 185.42 50.13 , 108.10 50.80 , 170.31 51.47 , 109.06 52.13 , 101.76 52.80 , 89.58 53.47 , 114.87 54.14 , 114.30 54.80 , 189.95 55.47 , 152.24 56.14 , 137.90 56.80 , 147.93 57.47 , 148.82 58.14 , 156.08 58.80 , 173.83 59.47 , 140.62 60.14 , 128.31 60.81 , 130.12 61.47 , 175.40 62.14 , 193.50 62.81 , 84.21 63.47 , 174.86 64.14 , 163.88 64.81 , 172.56 65.48 , 67.06 66.14 , 72.45 66.81 , 141.83 67.48 , 112.38 68.14 , 122.24 68.81 , 161.74 69.48 , 144.98 70.14 , 147.28 70.81 , 144.50 71.48 , 145.19 72.15 , 150.56 72.81 , 145.80 73.48 , 168.60 74.15 , 152.41 74.81 , 137.06 75.48 , 154.99 76.15 , 210.46 76.82 , 70.20 77.48 , 141.72 78.15 , 149.49 78.82 , 138.86 79.48 , 154.60 80.15 , 144.59 80.82 , 151.09 81.48 , 155.19 82.15 , 166.63 82.82 , 136.83 83.49 , 173.31 84.15 , 149.13 84.82 , 128.47 85.49 , 173.37 86.15 , 186.69 86.82 , 181.08 87.49 , 107.74 88.16 , 125.71 88.82 , 159.20 89.49 , 117.48 90.16 , 122.32 90.82 , 106.51 91.49 , 140.89 92.16 , 91.99 92.82 , 115.18 93.49 , 105.58 94.16 , 169.01 94.83 , 186.29 95.49 , 114.46 96.16 , 134.91 96.83 , 176.57 97.49 , 110.67 98.16 , 200.71 98.83 , 94.78 99.50 , 106.02 100.16 , 134.38 100.83 , 161.82 101.50 , 152.37 102.16 , 187.34 102.83 , 126.18 103.50 , 161.11 104.16 , 135.21 104.83 , 154.58 105.50 , 151.93 106.17 , 176.50 106.83 , 161.23 107.50 , 116.40 108.17 , 193.62 108.83 , 140.24 109.50 , 169.20 110.17 , 173.72 110.84 , 128.13 111.50 , 128.26 112.17 , 140.43 112.84 , 157.98 113.50 , 128.32 114.17 , 127.13 114.84 , 118.51 115.50 , 183.84 116.17 , 107.71 116.84 , 168.33 117.51 , 119.19 118.17 , 141.47 118.84 , 91.56 119.51 , 160.44 120.17 , 158.20 120.84 , 172.15 121.51 , 177.57 122.18 , 173.08 122.84 , 138.38 123.51 , 134.58 124.18 , 158.50 124.84 , 135.68 125.51 , 154.23 126.18 , 146.79 126.85 , 155.64 127.51 , 82.17 128.18 , 172.75 128.85 , 87.60 129.51 , 117.38 130.18 , 138.62 130.85 , 136.17 131.51 , 146.70 132.18 , 169.96 132.85 , 146.77 133.52 , 152.08 134.18 , 141.53 134.85 , 130.29 135.52 , 151.77 136.18 , 127.16 136.85 , 111.50 137.52 , 121.40 138.19 , 172.54 138.85 , 183.10 139.52 , 106.11 140.19 , 119.25 140.85 , 156.14 141.52 , 135.18 142.19 , 142.90 142.85 , 180.62 143.52 , 24.97 144.19 , 27.91 144.86 , 199.75 145.52 , 129.66 146.19 , 124.78 146.86 , 132.78 147.52 , 122.00 148.19 , 127.09 148.86 , 169.37 149.53 , 105.19 150.19 , 205.27 150.86 , 188.27 151.53 , 152.34 152.19 , 130.16 152.86 , 136.34 153.53 , 124.12 154.19 , 173.80 154.86 , 154.31 155.53 , 144.96 156.20 , 163.04 156.86 , 137.71 157.53 , 141.58 158.20 , 128.29 158.86 , 184.09 159.53 , 116.48 160.20 , 97.56 160.87 , 103.87 161.53 , 133.41 162.20 , 150.94 162.87 , 188.83 163.53 , 197.61 164.20 , 167.01 164.87 , 132.31 165.53 , 160.32 166.20 , 107.11 166.87 , 99.46 167.54 , 104.62 168.20 , 156.10 168.87 , 118.19 169.54 , 151.54 170.20 , 115.84 170.87 , 175.50 171.54 , 119.56 172.21 , 192.56 172.87 , 123.39 173.54 , 93.62 174.21 , 194.37 174.87 , 134.99 175.54 , 152.86 176.21 , 118.62 176.87 , 159.89 177.54 , 147.81 178.21 , 191.88 178.88 , 154.19 179.54 , 164.97 180.21 , 146.78 180.88 , 138.45 181.54 , 169.84 182.21 , 178.66 182.88 , 175.32 183.55 , 161.71 184.21 , 156.26 184.88 , 161.94 185.55 , 138.00 186.21 , 107.17 186.88 , 170.16 187.55 , 158.99 188.21 , 179.11 188.88 , 112.01 189.55 , 108.51 190.22 , 167.61 190.88 , 186.95 191.55 , 141.10 192.22 , 128.58 192.88 , 122.92 193.55 , 147.55 194.22 , 172.36 194.89 , 183.05 195.55 , 125.39 196.22 , 151.89 196.89 , 115.25 197.55 , 166.58 198.22 , 135.80 198.89 , 129.40 199.55 , 116.01 200.22 , 162.08 200.89 , 93.97 201.56 , 184.96 202.22 , 142.15 202.89 , 140.22 203.56 , 124.93 204.22 , 166.20 204.89 , 180.92 205.56 , 110.52 206.23 , 123.95 206.89 , 163.04 207.56 , 162.57 208.23 , 156.84 208.89 , 99.34 209.56 , 142.65 210.23 , 144.11 210.89 , 137.87 211.56 , 122.51 212.23 , 151.75 212.90 , 131.87 213.56 , 162.44 214.23 , 140.01 214.90 , 194.37 215.56 , 168.62 216.23 , 143.32 216.90 , 127.51 217.57 , 164.04 218.23 , 161.06 218.90 , 118.83 219.57 , 167.96 220.23 , 120.96 220.90 , 145.54 221.57 , 137.61 222.24 , 111.24 222.90 , 159.89 223.57 , 142.51 224.24 , 172.84 224.90 , 131.90 225.57 , 198.62 226.24 , 106.69 226.90 , 164.71 227.57 , 128.26 228.24 , 126.87 228.91 , 155.23 229.57 , 153.58 230.24 , 149.69 230.91 , 147.33 231.57 , 133.47 232.24 , 149.60 232.91 , 150.42 233.58 , 150.42 234.24 , 150.42 234.91 , 150.42 235.58 , 146.89 236.24 , 146.89 236.91 , 146.89 237.58 , 135.62 238.24 , 137.82 238.91 , 163.09 239.58 , 142.18 240.25 , 132.72 240.91 , 142.87 241.58 , 150.96 242.25 , 112.69 242.91 , 143.80 243.58 , 78.28 244.25 , 173.99 244.92 , 137.18 245.58 , 189.99 246.25 , 149.58 246.92 , 156.30 247.58 , 156.53 248.25 , 133.39 248.92 , 131.69 249.58 , 152.02 250.25 , 139.34 250.92 , 135.81 251.59 , 132.38 252.25 , 149.56 252.92 , 79.77 253.59 , 191.78 254.25 , 141.68 254.92 , 151.01 255.59 , 146.09 256.26 , 151.49 256.92 , 132.37 257.59 , 140.99 258.26 , 146.21 258.92 , 127.24 259.59 , 147.25 260.26 , 139.36 260.92 , 129.24 261.59 , 125.66 262.26 , 126.45 262.93 , 113.15 263.59 , 162.66 264.26 , 109.27 264.93 , 186.87 265.59 , 211.76 266.26 , 91.41 266.93 , 171.00 267.60 , 141.45 268.26 , 140.41 268.93 , 106.18 269.60 , 177.37 270.26 , 119.09 270.93 , 117.30 271.60 , 128.02 272.26 , 164.30 272.93 , 168.71 273.60 , 156.97 274.27 , 94.98 274.93 , 89.14 275.60 , 122.32 276.27 , 123.71 276.93 , 173.55 277.60 , 82.82 278.27 , 184.06 278.94 , 95.59 279.60 , 100.27 280.27 , 109.41 280.94 , 98.08 281.60 , 98.08 282.27 , 98.08 282.94 , 161.66 283.60 , 163.40 284.27 , 164.06 284.94 , 164.06 285.61 , 164.06 286.27 , 164.06 286.94 , 160.28 287.61 , 160.28 288.27 , 160.28 288.94 , 171.60 289.61 , 103.64 290.28 , 122.33 290.94 , 124.48 291.61 , 181.22 292.28 , 163.17 292.94 , 137.97 293.61 , 152.66 294.28 , 137.59 294.94 , 166.64 295.61 , 105.82 296.28 , 122.76 296.95 , 154.61 297.61 , 197.02 298.28 , 99.88 298.95 , 171.92 299.61 , 124.66 300.28 , 145.63 300.95 , 122.32 301.62 , 135.46 302.28 , 165.88 302.95 , 150.05 303.62 , 118.32 304.28 , 143.33 304.95 , 159.59 305.62 , 116.89 306.29 , 147.00 306.95 , 131.62 307.62 , 152.89 308.29 , 124.14 308.95 , 159.64 309.62 , 131.43 310.29 , 147.04 310.95 , 182.67 311.62 , 173.91 312.29 , 104.63 312.96 , 141.30 313.62 , 161.54 314.29 , 129.21 314.96 , 142.21 315.62 , 111.12 316.29 , 173.42 316.96 , 94.99 317.63 , 150.20 318.29 , 120.64 318.96 , 142.29 319.63 , 162.13 320.29 , 124.99 320.96 , 128.74 321.63 , 194.35 322.29 , 107.16 322.96 , 132.57 323.63 , 144.62 324.30 , 143.61 324.96 , 173.21 325.63 , 140.66 326.30 , 125.09 326.96 , 124.48 327.63 , 190.59 328.30 , 190.90 328.97 , 145.02 329.63 , 155.02 330.30 , 117.31 330.97 , 146.81 331.63 , 141.95 332.30 , 125.97 332.97 , 157.27 333.63 , 136.26 334.30 , 112.62 334.97 , 119.36 335.64 , 123.67 336.30 , 148.95 336.97 , 161.48 337.64 , 149.64 338.30 , 101.29 338.97 , 101.29 339.64 , 101.29 340.31 , 75.78 340.97 , 151.10 341.64 , 164.82 342.31 , 199.34 342.97 , 181.74 343.64 , 158.07 344.31 , 165.69 344.97 , 153.15 345.64 , 166.20 346.31 , 147.91 346.98 , 129.34 347.64 , 147.44 348.31 , 135.64 348.98 , 148.64 349.64 , 171.18 350.31 , 182.42 350.98 , 117.50 351.65 , 204.19 352.31 , 204.19 352.98 , 175.63 353.65 , 190.56 354.31 , 96.82 354.98 , 154.52 355.65 , 134.87 356.31 , 100.95 356.98 , 176.50 357.65 , 124.75 358.32 , 164.20 358.98 , 154.25 359.65 , 141.47 360.32 , 138.68 360.98 , 141.81 361.65 , 104.40 362.32 , 83.43 362.99 , 174.86 " style="stroke-width:1;stroke:#542788;fill:#000000;stroke-opacity:1.000000;fill-opacity:0.000000"/>
</svg>
