<?xml version="1.0" encoding="UTF-8"?>
<svg xmlns="http://www.w3.org/2000/svg" width="385.44" height="240.90" viewBox="0,0,385.44,240.90">
<desc>R SVG Plot!</desc>
<rect width="100%" height="100%" style="fill:#FFFFFF"/>
<line x1="30.12" y1="219.23" x2="363.65" y2="219.23" style="stroke-width:1;stroke:#000000;fill:#000000;stroke-opacity:1.000000;fill-opacity:0.000000"/>
<line x1="30.12" y1="219.23" x2="30.12" y2="223.27" style="stroke-width:1;stroke:#000000;fill:#000000;stroke-opacity:1.000000;fill-opacity:0.000000"/>
<line x1="96.83" y1="219.23" x2="96.83" y2="223.27" style="stroke-width:1;stroke:#000000;fill:#000000;stroke-opacity:1.000000;fill-opacity:0.000000"/>
<line x1="163.53" y1="219.23" x2="163.53" y2="223.27" style="stroke-width:1;stroke:#000000;fill:#000000;stroke-opacity:1.000000;fill-opacity:0.000000"/>
<line x1="230.24" y1="219.23" x2="230.24" y2="223.27" style="stroke-width:1;stroke:#000000;fill:#000000;stroke-opacity:1.000000;fill-opacity:0.000000"/>
<line x1="296.95" y1="219.23" x2="296.95" y2="223.27" style="stroke-width:1;stroke:#000000;fill:#000000;stroke-opacity:1.000000;fill-opacity:0.000000"/>
<line x1="363.65" y1="219.23" x2="363.65" y2="223.27" style="stroke-width:1;stroke:#000000;fill:#000000;stroke-opacity:1.000000;fill-opacity:0.000000"/>
<text transform="translate(21.12,231.73)"  style="font-size:12" >500</text>
<text transform="translate(86.93,231.73)"  style="font-size:12" >600</text>
<text transform="translate(153.63,231.73)"  style="font-size:12" >700</text>
<text transform="translate(220.34,231.73)"  style="font-size:12" >800</text>
<text transform="translate(287.05,231.73)"  style="font-size:12" >900</text>
<text transform="translate(350.45,231.73)"  style="font-size:12" >1000</text>
<line x1="17.50" y1="204.84" x2="17.50" y2="20.26" style="stroke-width:1;stroke:#000000;fill:#000000;stroke-opacity:1.000000;fill-opacity:0.000000"/>
<line x1="17.50" y1="204.84" x2="13.47" y2="204.84" style="stroke-width:1;stroke:#000000;fill:#000000;stroke-opacity:1.000000;fill-opacity:0.000000"/>
<line x1="17.50" y1="167.92" x2="13.47" y2="167.92" style="stroke-width:1;stroke:#000000;fill:#000000;stroke-opacity:1.000000;fill-opacity:0.000000"/>
<line x1="17.50" y1="131.01" x2="13.47" y2="131.01" style="stroke-width:1;stroke:#000000;fill:#000000;stroke-opacity:1.000000;fill-opacity:0.000000"/>
<line x1="17.50" y1="94.09" x2="13.47" y2="94.09" style="stroke-width:1;stroke:#000000;fill:#000000;stroke-opacity:1.000000;fill-opacity:0.000000"/>
<line x1="17.50" y1="57.17" x2="13.47" y2="57.17" style="stroke-width:1;stroke:#000000;fill:#000000;stroke-opacity:1.000000;fill-opacity:0.000000"/>
<line x1="17.50" y1="20.26" x2="13.47" y2="20.26" style="stroke-width:1;stroke:#000000;fill:#000000;stroke-opacity:1.000000;fill-opacity:0.000000"/>
<text transform="translate(13.33,216.58) rotate(-90)"  style="font-size:12" >0.38</text>
<text transform="translate(13.33,179.66) rotate(-90)"  style="font-size:12" >0.40</text>
<text transform="translate(13.33,142.74) rotate(-90)"  style="font-size:12" >0.42</text>
<text transform="translate(13.33,105.82) rotate(-90)"  style="font-size:12" >0.44</text>
<text transform="translate(13.33,68.91) rotate(-90)"  style="font-size:12" >0.46</text>
<text transform="translate(13.33,31.99) rotate(-90)"  style="font-size:12" >0.48</text>
<polyline points="17.50 , 17.50 17.50 , 219.23 376.27 , 219.23 " style="stroke-width:1;stroke:#000000;fill:#000000;stroke-opacity:1.000000;fill-opacity:0.000000"/>
<text transform="translate(148.57,14.75)"  style="font-size:14" >Trace of  sigma</text>
<text transform="translate(126.85,240.07)"  style="font-size:12" >Iterations (without warmup)</text>
<polyline points="30.79 , 109.75 31.45 , 133.71 32.12 , 98.82 32.79 , 133.45 33.46 , 159.01 34.12 , 111.43 34.79 , 123.55 35.46 , 119.91 36.12 , 144.95 36.79 , 153.16 37.46 , 139.00 38.13 , 97.86 38.79 , 147.78 39.46 , 127.21 40.13 , 144.35 40.79 , 131.03 41.46 , 137.98 42.13 , 123.35 42.80 , 126.54 43.46 , 135.61 44.13 , 152.34 44.80 , 117.22 45.46 , 149.95 46.13 , 122.89 46.80 , 137.95 47.46 , 121.56 48.13 , 134.62 48.80 , 107.49 49.47 , 138.99 50.13 , 136.67 50.80 , 148.24 51.47 , 128.67 52.13 , 123.46 52.80 , 155.09 53.47 , 104.12 54.14 , 149.87 54.80 , 165.88 55.47 , 145.65 56.14 , 148.67 56.80 , 155.46 57.47 , 158.94 58.14 , 103.00 58.80 , 102.33 59.47 , 161.68 60.14 , 110.09 60.81 , 152.85 61.47 , 110.83 62.14 , 124.69 62.81 , 117.57 63.47 , 100.89 64.14 , 145.58 64.81 , 110.42 65.48 , 150.62 66.14 , 118.91 66.81 , 161.03 67.48 , 146.26 68.14 , 122.07 68.81 , 136.75 69.48 , 123.97 70.14 , 148.00 70.81 , 119.69 71.48 , 124.62 72.15 , 132.21 72.81 , 118.87 73.48 , 138.35 74.15 , 132.26 74.81 , 132.57 75.48 , 131.46 76.15 , 160.53 76.82 , 91.36 77.48 , 84.25 78.15 , 160.46 78.82 , 68.18 79.48 , 192.49 80.15 , 111.91 80.82 , 106.77 81.48 , 116.43 82.15 , 127.81 82.82 , 124.81 83.49 , 117.21 84.15 , 174.80 84.82 , 156.29 85.49 , 75.36 86.15 , 158.14 86.82 , 98.54 87.49 , 89.11 88.16 , 103.30 88.82 , 112.47 89.49 , 123.14 90.16 , 141.32 90.82 , 124.58 91.49 , 136.68 92.16 , 145.97 92.82 , 125.75 93.49 , 122.90 94.16 , 136.68 94.83 , 135.94 95.49 , 144.69 96.16 , 142.37 96.83 , 153.00 97.49 , 151.99 98.16 , 163.38 98.83 , 73.81 99.50 , 162.08 100.16 , 90.32 100.83 , 119.33 101.50 , 99.18 102.16 , 165.65 102.83 , 158.77 103.50 , 116.39 104.16 , 136.36 104.83 , 162.33 105.50 , 148.15 106.17 , 148.31 106.83 , 179.04 107.50 , 148.69 108.17 , 140.75 108.83 , 140.75 109.50 , 171.85 110.17 , 145.92 110.84 , 78.04 111.50 , 71.66 112.17 , 71.66 112.84 , 71.66 113.50 , 71.66 114.17 , 71.66 114.84 , 71.08 115.50 , 71.08 116.17 , 94.54 116.84 , 141.67 117.51 , 168.42 118.17 , 124.58 118.84 , 73.63 119.51 , 76.37 120.17 , 145.28 120.84 , 149.68 121.51 , 67.79 122.18 , 161.12 122.84 , 121.84 123.51 , 138.81 124.18 , 137.38 124.84 , 140.31 125.51 , 110.64 126.18 , 144.35 126.85 , 123.70 127.51 , 132.12 128.18 , 153.72 128.85 , 95.68 129.51 , 159.06 130.18 , 181.16 130.85 , 168.91 131.51 , 165.84 132.18 , 142.33 132.85 , 130.98 133.52 , 146.24 134.18 , 125.02 134.85 , 81.99 135.52 , 151.36 136.18 , 127.93 136.85 , 116.56 137.52 , 145.17 138.19 , 138.64 138.85 , 130.52 139.52 , 106.00 140.19 , 153.38 140.85 , 158.89 141.52 , 122.41 142.19 , 140.38 142.85 , 184.59 143.52 , 136.36 144.19 , 120.09 144.86 , 80.40 145.52 , 138.90 146.19 , 137.08 146.86 , 115.72 147.52 , 154.38 148.19 , 150.09 148.86 , 157.38 149.53 , 165.26 150.19 , 109.97 150.86 , 158.66 151.53 , 129.69 152.19 , 114.05 152.86 , 136.41 153.53 , 139.99 154.19 , 141.93 154.86 , 105.20 155.53 , 161.18 156.20 , 122.85 156.86 , 125.09 157.53 , 144.78 158.20 , 122.46 158.86 , 134.78 159.53 , 147.49 160.20 , 124.52 160.87 , 125.46 161.53 , 45.56 162.20 , 70.96 162.87 , 41.46 163.53 , 105.25 164.20 , 116.30 164.87 , 158.09 165.53 , 171.47 166.20 , 97.63 166.87 , 113.08 167.54 , 92.80 168.20 , 49.22 168.87 , 49.04 169.54 , 192.74 170.20 , 164.06 170.87 , 159.24 171.54 , 115.68 172.21 , 132.14 172.87 , 143.56 173.54 , 148.62 174.21 , 155.81 174.87 , 161.15 175.54 , 111.96 176.21 , 153.38 176.87 , 137.71 177.54 , 95.11 178.21 , 165.58 178.88 , 175.70 179.54 , 85.35 180.21 , 150.87 180.88 , 137.86 181.54 , 137.86 182.21 , 142.59 182.88 , 133.60 183.55 , 135.13 184.21 , 137.57 184.88 , 128.49 185.55 , 128.49 186.21 , 118.10 186.88 , 120.39 187.55 , 113.86 188.21 , 149.82 188.88 , 134.52 189.55 , 141.86 190.22 , 139.19 190.88 , 137.00 191.55 , 139.66 192.22 , 106.12 192.88 , 110.87 193.55 , 85.40 194.22 , 155.56 194.89 , 158.58 195.55 , 83.02 196.22 , 107.55 196.89 , 160.20 197.55 , 127.29 198.22 , 128.37 198.89 , 95.01 199.55 , 166.33 200.22 , 104.87 200.89 , 145.66 201.56 , 93.18 202.22 , 75.94 202.89 , 100.39 203.56 , 84.59 204.22 , 171.18 204.89 , 156.40 205.56 , 67.73 206.23 , 186.69 206.89 , 65.71 207.56 , 71.18 208.23 , 201.10 208.89 , 211.76 209.56 , 185.99 210.23 , 167.42 210.89 , 113.84 211.56 , 148.89 212.23 , 118.71 212.90 , 88.34 213.56 , 50.97 214.23 , 200.63 214.90 , 56.73 215.56 , 167.71 216.23 , 80.89 216.90 , 179.60 217.57 , 97.78 218.23 , 101.44 218.90 , 208.80 219.57 , 107.29 220.23 , 139.57 220.90 , 144.89 221.57 , 123.42 222.24 , 124.90 222.90 , 124.92 223.57 , 131.68 224.24 , 103.63 224.90 , 102.13 225.57 , 141.62 226.24 , 118.77 226.90 , 144.53 227.57 , 129.03 228.24 , 170.71 228.91 , 173.77 229.57 , 142.21 230.24 , 124.42 230.91 , 137.48 231.57 , 115.21 232.24 , 125.37 232.91 , 167.53 233.58 , 139.45 234.24 , 126.69 234.91 , 145.62 235.58 , 126.78 236.24 , 158.12 236.91 , 106.09 237.58 , 145.78 238.24 , 131.31 238.91 , 153.13 239.58 , 149.64 240.25 , 105.17 240.91 , 122.24 241.58 , 136.64 242.25 , 122.46 242.91 , 132.28 243.58 , 118.24 244.25 , 118.57 244.92 , 106.01 245.58 , 186.00 246.25 , 154.88 246.92 , 128.51 247.58 , 104.86 248.25 , 137.01 248.92 , 103.80 249.58 , 149.29 250.25 , 137.82 250.92 , 138.63 251.59 , 122.56 252.25 , 142.11 252.92 , 105.88 253.59 , 113.18 254.25 , 160.22 254.92 , 98.34 255.59 , 94.60 256.26 , 170.84 256.92 , 68.25 257.59 , 72.79 258.26 , 77.26 258.92 , 83.34 259.59 , 90.00 260.26 , 106.65 260.92 , 106.65 261.59 , 106.65 262.26 , 105.17 262.93 , 105.17 263.59 , 105.17 264.26 , 142.34 264.93 , 142.34 265.59 , 142.34 266.26 , 117.01 266.93 , 143.41 267.60 , 136.66 268.26 , 136.94 268.93 , 136.94 269.60 , 135.06 270.26 , 143.88 270.93 , 140.23 271.60 , 139.73 272.26 , 144.05 272.93 , 152.41 273.60 , 142.88 274.27 , 104.35 274.93 , 138.76 275.60 , 153.61 276.27 , 125.98 276.93 , 163.22 277.60 , 91.99 278.27 , 129.68 278.94 , 156.10 279.60 , 98.29 280.27 , 147.04 280.94 , 153.67 281.60 , 138.80 282.27 , 123.22 282.94 , 150.92 283.60 , 151.09 284.27 , 177.87 284.94 , 75.17 285.61 , 192.98 286.27 , 71.25 286.94 , 164.92 287.61 , 98.79 288.27 , 144.06 288.94 , 112.57 289.61 , 105.51 290.28 , 127.40 290.94 , 141.20 291.61 , 147.24 292.28 , 146.71 292.94 , 129.09 293.61 , 142.38 294.28 , 136.01 294.94 , 142.06 295.61 , 102.13 296.28 , 149.51 296.95 , 135.71 297.61 , 123.30 298.28 , 155.70 298.95 , 112.12 299.61 , 144.97 300.28 , 133.25 300.95 , 101.22 301.62 , 78.90 302.28 , 122.37 302.95 , 135.35 303.62 , 149.78 304.28 , 137.51 304.95 , 113.42 305.62 , 112.21 306.29 , 98.76 306.95 , 170.96 307.62 , 172.48 308.29 , 100.88 308.95 , 174.13 309.62 , 98.58 310.29 , 175.05 310.95 , 171.73 311.62 , 176.81 312.29 , 95.93 312.96 , 77.40 313.62 , 178.96 314.29 , 166.55 314.96 , 101.61 315.62 , 115.89 316.29 , 136.82 316.96 , 122.17 317.63 , 133.21 318.29 , 121.95 318.96 , 121.79 319.63 , 167.06 320.29 , 148.87 320.96 , 155.81 321.63 , 98.43 322.29 , 108.70 322.96 , 120.33 323.63 , 132.49 324.30 , 132.99 324.96 , 103.81 325.63 , 103.81 326.30 , 121.94 326.96 , 113.22 327.63 , 109.96 328.30 , 167.80 328.97 , 148.02 329.63 , 115.12 330.30 , 162.74 330.97 , 115.65 331.63 , 138.06 332.30 , 91.16 332.97 , 71.24 333.63 , 181.62 334.30 , 77.23 334.97 , 147.68 335.64 , 65.34 336.30 , 59.83 336.97 , 194.91 337.64 , 57.76 338.30 , 171.53 338.97 , 93.71 339.64 , 166.51 340.31 , 92.09 340.97 , 105.59 341.64 , 154.85 342.31 , 117.62 342.97 , 148.68 343.64 , 134.44 344.31 , 134.22 344.97 , 119.76 345.64 , 137.76 346.31 , 126.00 346.98 , 143.95 347.64 , 172.37 348.31 , 171.63 348.98 , 89.66 349.64 , 148.73 350.31 , 125.98 350.98 , 120.12 351.65 , 129.93 352.31 , 129.26 352.98 , 101.21 353.65 , 102.71 354.31 , 100.12 354.98 , 112.10 355.65 , 147.51 356.31 , 132.28 356.98 , 167.47 357.65 , 142.07 358.32 , 121.56 358.98 , 129.56 359.65 , 131.31 360.32 , 133.92 360.98 , 134.96 361.65 , 138.84 362.32 , 151.29 362.99 , 105.54 " style="stroke-width:1;stroke:#E66101;fill:#000000;stroke-opacity:1.000000;fill-opacity:0.000000"/>
<polyline points="30.79 , 147.02 31.45 , 152.02 32.12 , 111.78 32.79 , 101.00 33.46 , 133.18 34.12 , 140.42 34.79 , 107.25 35.46 , 117.61 36.12 , 115.09 36.79 , 115.09 37.46 , 128.12 38.13 , 136.10 38.79 , 129.59 39.46 , 123.35 40.13 , 149.49 40.79 , 151.67 41.46 , 128.99 42.13 , 113.84 42.80 , 116.39 43.46 , 115.34 44.13 , 147.07 44.80 , 180.30 45.46 , 125.04 46.13 , 149.56 46.80 , 155.32 47.46 , 158.95 48.13 , 146.83 48.80 , 144.89 49.47 , 179.16 50.13 , 86.98 50.80 , 181.82 51.47 , 174.15 52.13 , 155.22 52.80 , 160.62 53.47 , 73.50 54.14 , 152.94 54.80 , 146.97 55.47 , 147.28 56.14 , 144.03 56.80 , 115.20 57.47 , 150.15 58.14 , 97.33 58.80 , 137.94 59.47 , 159.41 60.14 , 103.60 60.81 , 128.31 61.47 , 123.82 62.14 , 163.29 62.81 , 88.42 63.47 , 119.43 64.14 , 160.34 64.81 , 102.79 65.48 , 152.67 66.14 , 143.61 66.81 , 112.04 67.48 , 105.00 68.14 , 153.61 68.81 , 137.10 69.48 , 125.32 70.14 , 146.41 70.81 , 117.22 71.48 , 119.81 72.15 , 148.33 72.81 , 128.05 73.48 , 101.39 74.15 , 100.39 74.81 , 100.39 75.48 , 100.39 76.15 , 100.39 76.82 , 103.20 77.48 , 168.65 78.15 , 161.09 78.82 , 168.71 79.48 , 139.42 80.15 , 122.27 80.82 , 137.10 81.48 , 159.11 82.15 , 89.34 82.82 , 87.05 83.49 , 152.20 84.15 , 106.58 84.82 , 153.24 85.49 , 114.29 86.15 , 150.68 86.82 , 145.44 87.49 , 161.16 88.16 , 106.51 88.82 , 165.99 89.49 , 106.75 90.16 , 101.73 90.82 , 159.48 91.49 , 157.37 92.16 , 79.68 92.82 , 181.69 93.49 , 81.35 94.16 , 183.70 94.83 , 192.46 95.49 , 124.24 96.16 , 112.85 96.83 , 162.24 97.49 , 107.79 98.16 , 87.94 98.83 , 94.66 99.50 , 120.12 100.16 , 141.83 100.83 , 115.90 101.50 , 156.74 102.16 , 111.28 102.83 , 154.89 103.50 , 138.44 104.16 , 149.35 104.83 , 163.35 105.50 , 102.18 106.17 , 150.93 106.83 , 119.57 107.50 , 115.95 108.17 , 96.56 108.83 , 121.61 109.50 , 144.77 110.17 , 128.06 110.84 , 130.22 111.50 , 120.79 112.17 , 143.83 112.84 , 144.24 113.50 , 147.66 114.17 , 133.17 114.84 , 146.50 115.50 , 145.18 116.17 , 111.39 116.84 , 188.48 117.51 , 75.21 118.17 , 153.62 118.84 , 112.41 119.51 , 135.26 120.17 , 126.93 120.84 , 90.08 121.51 , 168.57 122.18 , 76.97 122.84 , 171.55 123.51 , 94.23 124.18 , 162.24 124.84 , 140.95 125.51 , 142.92 126.18 , 162.72 126.85 , 103.95 127.51 , 120.45 128.18 , 153.08 128.85 , 120.86 129.51 , 110.39 130.18 , 84.91 130.85 , 79.26 131.51 , 175.20 132.18 , 163.48 132.85 , 159.35 133.52 , 88.05 134.18 , 129.94 134.85 , 143.06 135.52 , 153.30 136.18 , 159.91 136.85 , 164.43 137.52 , 138.05 138.19 , 131.02 138.85 , 133.42 139.52 , 135.32 140.19 , 106.85 140.85 , 118.93 141.52 , 118.93 142.19 , 156.69 142.85 , 125.19 143.52 , 179.51 144.19 , 138.57 144.86 , 110.58 145.52 , 131.75 146.19 , 121.38 146.86 , 111.46 147.52 , 124.78 148.19 , 131.00 148.86 , 92.48 149.53 , 155.56 150.19 , 108.57 150.86 , 158.22 151.53 , 146.11 152.19 , 114.85 152.86 , 141.68 153.53 , 157.12 154.19 , 111.58 154.86 , 165.08 155.53 , 159.94 156.20 , 170.28 156.86 , 153.86 157.53 , 159.32 158.20 , 116.76 158.86 , 111.52 159.53 , 172.10 160.20 , 133.55 160.87 , 78.27 161.53 , 140.35 162.20 , 166.64 162.87 , 82.57 163.53 , 121.68 164.20 , 147.05 164.87 , 128.19 165.53 , 136.82 166.20 , 125.54 166.87 , 109.01 167.54 , 143.75 168.20 , 112.63 168.87 , 142.19 169.54 , 81.39 170.20 , 174.45 170.87 , 138.38 171.54 , 139.85 172.21 , 133.90 172.87 , 135.27 173.54 , 118.65 174.21 , 153.51 174.87 , 84.37 175.54 , 177.63 176.21 , 114.76 176.87 , 162.79 177.54 , 129.56 178.21 , 138.62 178.88 , 177.98 179.54 , 76.15 180.21 , 169.59 180.88 , 163.11 181.54 , 115.71 182.21 , 128.84 182.88 , 126.43 183.55 , 130.06 184.21 , 98.45 184.88 , 122.86 185.55 , 114.79 186.21 , 149.11 186.88 , 172.98 187.55 , 182.46 188.21 , 172.38 188.88 , 71.89 189.55 , 178.38 190.22 , 173.19 190.88 , 173.19 191.55 , 133.40 192.22 , 117.95 192.88 , 172.95 193.55 , 97.57 194.22 , 163.42 194.89 , 90.03 195.55 , 171.50 196.22 , 85.28 196.89 , 166.77 197.55 , 117.78 198.22 , 131.35 198.89 , 138.49 199.55 , 131.98 200.22 , 150.15 200.89 , 120.92 201.56 , 81.63 202.22 , 77.88 202.89 , 58.05 203.56 , 73.36 204.22 , 174.91 204.89 , 160.49 205.56 , 109.33 206.23 , 112.30 206.89 , 135.12 207.56 , 87.00 208.23 , 99.50 208.89 , 168.70 209.56 , 90.25 210.23 , 125.47 210.89 , 120.22 211.56 , 130.04 212.23 , 90.52 212.90 , 96.57 213.56 , 179.10 214.23 , 100.49 214.90 , 171.76 215.56 , 107.01 216.23 , 39.54 216.90 , 185.05 217.57 , 131.10 218.23 , 132.61 218.90 , 142.15 219.57 , 145.50 220.23 , 142.95 220.90 , 144.62 221.57 , 187.09 222.24 , 132.93 222.90 , 110.22 223.57 , 107.75 224.24 , 151.40 224.90 , 137.72 225.57 , 104.85 226.24 , 96.33 226.90 , 81.76 227.57 , 175.48 228.24 , 106.03 228.91 , 153.97 229.57 , 122.24 230.24 , 109.21 230.91 , 157.22 231.57 , 123.24 232.24 , 129.60 232.91 , 123.86 233.58 , 119.11 234.24 , 137.79 234.91 , 127.92 235.58 , 132.87 236.24 , 128.67 236.91 , 112.17 237.58 , 123.92 238.24 , 139.19 238.91 , 129.40 239.58 , 140.26 240.25 , 113.62 240.91 , 171.54 241.58 , 103.02 242.25 , 158.81 242.91 , 118.34 243.58 , 131.15 244.25 , 145.86 244.92 , 105.23 245.58 , 134.61 246.25 , 80.53 246.92 , 155.70 247.58 , 99.00 248.25 , 148.10 248.92 , 132.67 249.58 , 140.30 250.25 , 126.90 250.92 , 137.53 251.59 , 123.60 252.25 , 138.46 252.92 , 103.89 253.59 , 163.42 254.25 , 107.87 254.92 , 146.81 255.59 , 145.49 256.26 , 113.06 256.92 , 158.75 257.59 , 118.07 258.26 , 150.30 258.92 , 153.95 259.59 , 131.59 260.26 , 147.50 260.92 , 100.71 261.59 , 154.95 262.26 , 144.07 262.93 , 131.32 263.59 , 105.37 264.26 , 129.47 264.93 , 134.35 265.59 , 141.67 266.26 , 142.26 266.93 , 129.59 267.60 , 123.39 268.26 , 80.01 268.93 , 83.60 269.60 , 123.37 270.26 , 133.87 270.93 , 132.91 271.60 , 130.36 272.26 , 156.70 272.93 , 88.11 273.60 , 168.01 274.27 , 94.44 274.93 , 175.77 275.60 , 183.95 276.27 , 110.44 276.93 , 125.91 277.60 , 126.16 278.27 , 125.10 278.94 , 145.39 279.60 , 98.06 280.27 , 173.46 280.94 , 99.29 281.60 , 101.23 282.27 , 138.80 282.94 , 139.09 283.60 , 155.77 284.27 , 158.12 284.94 , 136.46 285.61 , 132.84 286.27 , 118.15 286.94 , 146.68 287.61 , 116.61 288.27 , 109.78 288.94 , 109.78 289.61 , 111.12 290.28 , 147.95 290.94 , 155.02 291.61 , 125.98 292.28 , 105.73 292.94 , 161.40 293.61 , 162.41 294.28 , 176.18 294.94 , 139.32 295.61 , 117.01 296.28 , 150.11 296.95 , 139.99 297.61 , 118.11 298.28 , 145.57 298.95 , 138.40 299.61 , 176.41 300.28 , 160.21 300.95 , 112.14 301.62 , 152.35 302.28 , 132.39 302.95 , 127.59 303.62 , 125.21 304.28 , 104.68 304.95 , 109.43 305.62 , 148.39 306.29 , 115.55 306.95 , 118.79 307.62 , 120.79 308.29 , 124.99 308.95 , 149.37 309.62 , 162.05 310.29 , 126.89 310.95 , 159.28 311.62 , 131.52 312.29 , 110.16 312.96 , 125.99 313.62 , 119.93 314.29 , 186.86 314.96 , 86.50 315.62 , 101.84 316.29 , 105.18 316.96 , 184.17 317.63 , 133.38 318.29 , 132.68 318.96 , 139.09 319.63 , 87.52 320.29 , 156.25 320.96 , 95.33 321.63 , 104.90 322.29 , 139.42 322.96 , 97.47 323.63 , 118.48 324.30 , 134.72 324.96 , 130.35 325.63 , 144.31 326.30 , 143.17 326.96 , 144.00 327.63 , 133.40 328.30 , 117.62 328.97 , 122.53 329.63 , 131.90 330.30 , 68.81 330.97 , 61.81 331.63 , 120.84 332.30 , 140.03 332.97 , 171.88 333.63 , 175.31 334.30 , 77.32 334.97 , 124.58 335.64 , 128.33 336.30 , 82.30 336.97 , 192.17 337.64 , 172.56 338.30 , 163.50 338.97 , 111.04 339.64 , 125.79 340.31 , 158.85 340.97 , 119.94 341.64 , 114.45 342.31 , 147.80 342.97 , 117.77 343.64 , 135.88 344.31 , 157.67 344.97 , 140.25 345.64 , 121.12 346.31 , 145.21 346.98 , 116.11 347.64 , 120.14 348.31 , 90.57 348.98 , 86.68 349.64 , 107.85 350.31 , 156.58 350.98 , 159.56 351.65 , 165.61 352.31 , 75.96 352.98 , 167.02 353.65 , 98.18 354.31 , 134.73 354.98 , 171.72 355.65 , 94.30 356.31 , 99.15 356.98 , 109.68 357.65 , 154.78 358.32 , 105.93 358.98 , 180.71 359.65 , 180.33 360.32 , 162.79 360.98 , 101.37 361.65 , 130.50 362.32 , 142.66 362.99 , 122.43 " style="stroke-width:1;stroke:#998EC3;fill:#000000;stroke-opacity:1.000000;fill-opacity:0.000000"/>
<polyline points="30.79 , 116.70 31.45 , 169.90 32.12 , 130.45 32.79 , 141.63 33.46 , 164.89 34.12 , 83.02 34.79 , 50.24 35.46 , 187.62 36.12 , 75.67 36.79 , 178.71 37.46 , 54.92 38.13 , 187.48 38.79 , 147.96 39.46 , 135.10 40.13 , 146.16 40.79 , 125.98 41.46 , 150.78 42.13 , 126.53 42.80 , 169.89 43.46 , 112.83 44.13 , 174.40 44.80 , 102.46 45.46 , 180.47 46.13 , 74.38 46.80 , 168.61 47.46 , 104.13 48.13 , 132.07 48.80 , 134.93 49.47 , 175.64 50.13 , 154.35 50.80 , 117.91 51.47 , 168.41 52.13 , 87.42 52.80 , 123.52 53.47 , 115.88 54.14 , 99.30 54.80 , 115.93 55.47 , 118.29 56.14 , 136.39 56.80 , 115.86 57.47 , 130.20 58.14 , 69.83 58.80 , 90.88 59.47 , 129.72 60.14 , 113.04 60.81 , 93.05 61.47 , 162.59 62.14 , 151.20 62.81 , 64.63 63.47 , 101.27 64.14 , 133.78 64.81 , 125.88 65.48 , 129.57 66.14 , 150.36 66.81 , 161.23 67.48 , 99.81 68.14 , 139.90 68.81 , 126.18 69.48 , 114.51 70.14 , 163.29 70.81 , 170.76 71.48 , 132.30 72.15 , 161.77 72.81 , 123.52 73.48 , 173.40 74.15 , 127.49 74.81 , 125.02 75.48 , 141.62 76.15 , 158.38 76.82 , 100.58 77.48 , 75.05 78.15 , 183.64 78.82 , 81.64 79.48 , 184.57 80.15 , 86.83 80.82 , 162.18 81.48 , 108.04 82.15 , 115.09 82.82 , 144.71 83.49 , 88.97 84.15 , 83.44 84.82 , 173.07 85.49 , 89.39 86.15 , 131.49 86.82 , 159.13 87.49 , 131.79 88.16 , 164.08 88.82 , 138.57 89.49 , 106.61 90.16 , 98.87 90.82 , 85.68 91.49 , 110.51 92.16 , 136.90 92.82 , 121.69 93.49 , 123.76 94.16 , 124.80 94.83 , 138.21 95.49 , 126.26 96.16 , 101.55 96.83 , 154.36 97.49 , 117.73 98.16 , 126.73 98.83 , 123.04 99.50 , 99.65 100.16 , 119.38 100.83 , 138.62 101.50 , 147.66 102.16 , 135.07 102.83 , 93.73 103.50 , 147.89 104.16 , 119.77 104.83 , 150.26 105.50 , 118.19 106.17 , 161.86 106.83 , 114.84 107.50 , 160.31 108.17 , 154.97 108.83 , 152.86 109.50 , 158.62 110.17 , 169.24 110.84 , 86.04 111.50 , 170.46 112.17 , 107.87 112.84 , 74.68 113.50 , 182.29 114.17 , 84.14 114.84 , 71.18 115.50 , 130.40 116.17 , 131.67 116.84 , 142.47 117.51 , 111.16 118.17 , 156.37 118.84 , 151.81 119.51 , 155.51 120.17 , 132.27 120.84 , 187.59 121.51 , 146.68 122.18 , 136.17 122.84 , 72.62 123.51 , 129.78 124.18 , 95.06 124.84 , 160.70 125.51 , 108.16 126.18 , 168.43 126.85 , 101.07 127.51 , 172.60 128.18 , 63.36 128.85 , 115.14 129.51 , 102.90 130.18 , 58.39 130.85 , 161.41 131.51 , 161.41 132.18 , 68.91 132.85 , 148.56 133.52 , 149.09 134.18 , 158.35 134.85 , 111.78 135.52 , 123.30 136.18 , 125.13 136.85 , 144.09 137.52 , 122.06 138.19 , 122.06 138.85 , 122.06 139.52 , 131.06 140.19 , 150.99 140.85 , 111.45 141.52 , 123.83 142.19 , 136.03 142.85 , 150.66 143.52 , 143.33 144.19 , 127.63 144.86 , 156.56 145.52 , 121.80 146.19 , 125.64 146.86 , 99.40 147.52 , 160.94 148.19 , 126.29 148.86 , 127.93 149.53 , 111.84 150.19 , 133.51 150.86 , 95.73 151.53 , 171.61 152.19 , 183.65 152.86 , 70.86 153.53 , 140.51 154.19 , 127.32 154.86 , 113.05 155.53 , 113.05 156.20 , 182.14 156.86 , 174.15 157.53 , 120.74 158.20 , 106.09 158.86 , 129.59 159.53 , 128.46 160.20 , 162.67 160.87 , 105.96 161.53 , 153.90 162.20 , 158.22 162.87 , 194.68 163.53 , 206.32 164.20 , 186.68 164.87 , 77.73 165.53 , 157.22 166.20 , 142.47 166.87 , 130.70 167.54 , 124.00 168.20 , 156.36 168.87 , 138.54 169.54 , 181.54 170.20 , 69.36 170.87 , 183.34 171.54 , 47.21 172.21 , 160.85 172.87 , 99.06 173.54 , 130.07 174.21 , 144.94 174.87 , 167.74 175.54 , 102.99 176.21 , 171.59 176.87 , 129.29 177.54 , 132.96 178.21 , 148.34 178.88 , 167.39 179.54 , 91.34 180.21 , 157.42 180.88 , 166.69 181.54 , 101.52 182.21 , 136.14 182.88 , 126.00 183.55 , 66.11 184.21 , 64.73 184.88 , 38.49 185.55 , 24.97 186.21 , 180.13 186.88 , 105.92 187.55 , 171.37 188.21 , 100.23 188.88 , 157.16 189.55 , 147.58 190.22 , 118.83 190.88 , 172.17 191.55 , 118.02 192.22 , 162.17 192.88 , 107.50 193.55 , 170.04 194.22 , 89.94 194.89 , 173.60 195.55 , 134.73 196.22 , 152.38 196.89 , 122.80 197.55 , 129.02 198.22 , 120.66 198.89 , 118.02 199.55 , 158.77 200.22 , 165.18 200.89 , 150.29 201.56 , 169.94 202.22 , 134.76 202.89 , 141.32 203.56 , 136.04 204.22 , 113.22 204.89 , 117.72 205.56 , 163.71 206.23 , 137.15 206.89 , 129.38 207.56 , 127.30 208.23 , 116.40 208.89 , 99.08 209.56 , 145.03 210.23 , 144.49 210.89 , 157.72 211.56 , 91.01 212.23 , 167.97 212.90 , 152.14 213.56 , 120.67 214.23 , 141.35 214.90 , 128.96 215.56 , 132.94 216.23 , 110.85 216.90 , 157.41 217.57 , 100.82 218.23 , 125.90 218.90 , 140.58 219.57 , 87.67 220.23 , 171.79 220.90 , 96.83 221.57 , 82.08 222.24 , 172.15 222.90 , 125.97 223.57 , 92.44 224.24 , 143.53 224.90 , 144.06 225.57 , 125.59 226.24 , 136.66 226.90 , 136.49 227.57 , 157.81 228.24 , 170.01 228.91 , 78.81 229.57 , 131.40 230.24 , 129.04 230.91 , 139.40 231.57 , 119.87 232.24 , 159.49 232.91 , 94.67 233.58 , 110.99 234.24 , 152.13 234.91 , 59.27 235.58 , 186.11 236.24 , 68.21 236.91 , 184.26 237.58 , 152.71 238.24 , 120.93 238.91 , 141.74 239.58 , 160.74 240.25 , 105.30 240.91 , 164.10 241.58 , 142.20 242.25 , 119.03 242.91 , 162.82 243.58 , 157.62 244.25 , 116.94 244.92 , 161.60 245.58 , 70.98 246.25 , 92.35 246.92 , 159.88 247.58 , 103.72 248.25 , 115.67 248.92 , 152.82 249.58 , 138.97 250.25 , 160.57 250.92 , 106.76 251.59 , 146.69 252.25 , 139.25 252.92 , 87.79 253.59 , 114.91 254.25 , 112.53 254.92 , 126.16 255.59 , 89.69 256.26 , 60.78 256.92 , 67.53 257.59 , 127.31 258.26 , 146.20 258.92 , 137.27 259.59 , 127.21 260.26 , 141.04 260.92 , 100.08 261.59 , 148.12 262.26 , 97.89 262.93 , 154.21 263.59 , 108.55 264.26 , 152.73 264.93 , 155.09 265.59 , 159.58 266.26 , 103.90 266.93 , 102.26 267.60 , 157.97 268.26 , 110.76 268.93 , 164.07 269.60 , 95.33 270.26 , 186.15 270.93 , 155.98 271.60 , 159.76 272.26 , 121.17 272.93 , 133.01 273.60 , 132.52 274.27 , 127.42 274.93 , 108.27 275.60 , 157.79 276.27 , 137.18 276.93 , 91.72 277.60 , 173.37 278.27 , 123.91 278.94 , 124.69 279.60 , 93.51 280.27 , 159.66 280.94 , 111.24 281.60 , 148.73 282.27 , 105.59 282.94 , 132.93 283.60 , 131.00 284.27 , 127.53 284.94 , 87.77 285.61 , 89.35 286.27 , 154.41 286.94 , 81.22 287.61 , 70.70 288.27 , 84.62 288.94 , 181.20 289.61 , 160.21 290.28 , 112.48 290.94 , 149.84 291.61 , 88.62 292.28 , 136.48 292.94 , 138.65 293.61 , 127.24 294.28 , 120.28 294.94 , 145.17 295.61 , 141.20 296.28 , 125.80 296.95 , 140.20 297.61 , 126.30 298.28 , 139.94 298.95 , 143.71 299.61 , 142.53 300.28 , 129.43 300.95 , 130.14 301.62 , 148.52 302.28 , 130.74 302.95 , 90.47 303.62 , 196.01 304.28 , 55.55 304.95 , 158.19 305.62 , 93.25 306.29 , 137.82 306.95 , 130.32 307.62 , 148.83 308.29 , 164.01 308.95 , 152.68 309.62 , 152.60 310.29 , 117.59 310.95 , 174.14 311.62 , 93.55 312.29 , 166.26 312.96 , 148.21 313.62 , 134.76 314.29 , 81.28 314.96 , 144.37 315.62 , 117.82 316.29 , 103.12 316.96 , 172.03 317.63 , 100.48 318.29 , 99.37 318.96 , 107.26 319.63 , 92.42 320.29 , 85.70 320.96 , 167.80 321.63 , 113.29 322.29 , 155.53 322.96 , 106.81 323.63 , 172.55 324.30 , 201.40 324.96 , 98.73 325.63 , 130.83 326.30 , 125.03 326.96 , 142.54 327.63 , 142.30 328.30 , 141.82 328.97 , 138.74 329.63 , 141.07 330.30 , 130.08 330.97 , 130.08 331.63 , 119.88 332.30 , 154.90 332.97 , 164.31 333.63 , 183.89 334.30 , 140.72 334.97 , 141.41 335.64 , 126.44 336.30 , 139.35 336.97 , 128.17 337.64 , 136.96 338.30 , 129.03 338.97 , 187.33 339.64 , 78.77 340.31 , 149.94 340.97 , 120.21 341.64 , 114.15 342.31 , 137.81 342.97 , 129.51 343.64 , 160.41 344.31 , 100.99 344.97 , 148.81 345.64 , 85.05 346.31 , 131.14 346.98 , 146.51 347.64 , 154.49 348.31 , 104.68 348.98 , 102.75 349.64 , 155.26 350.31 , 109.12 350.98 , 117.66 351.65 , 137.60 352.31 , 140.85 352.98 , 69.26 353.65 , 89.35 354.31 , 150.02 354.98 , 115.02 355.65 , 116.95 356.31 , 150.84 356.98 , 132.38 357.65 , 145.05 358.32 , 132.20 358.98 , 141.30 359.65 , 155.75 360.32 , 129.18 360.98 , 146.70 361.65 , 124.52 362.32 , 137.07 362.99 , 129.64 " style="stroke-width:1;stroke:#542788;fill:#000000;stroke-opacity:1.000000;fill-opacity:0.000000"/>
</svg>
