<?xml version="1.0" encoding="UTF-8"?>
<svg xmlns="http://www.w3.org/2000/svg" width="385.44" height="240.90" viewBox="0,0,385.44,240.90">
<desc>R SVG Plot!</desc>
<rect width="100%" height="100%" style="fill:#FFFFFF"/>
<polygon points="0.00 , 0.00 385.44 , 0.00 385.44 , 240.90 0.00 , 240.90 " style="stroke-width:1;stroke:#FFFFFF;fill:#FFFFFF;stroke-opacity:1.000000;fill-opacity:1.000000" />
<polygon points="40.94 , 205.54 40.94 , 12.05 373.39 , 12.05 373.39 , 205.54 " style="stroke-width:1;stroke:#FFFFFF;fill:#E5E5E5;stroke-opacity:0.000000;fill-opacity:1.000000" />
<polyline points="40.94 , 46.38 373.39 , 46.38 " style="stroke-width:0;stroke:#F2F2F2;fill:#000000;stroke-opacity:1.000000;fill-opacity:0.000000"/>
<polyline points="40.94 , 96.56 373.39 , 96.56 " style="stroke-width:0;stroke:#F2F2F2;fill:#000000;stroke-opacity:1.000000;fill-opacity:0.000000"/>
<polyline points="40.94 , 146.73 373.39 , 146.73 " style="stroke-width:0;stroke:#F2F2F2;fill:#000000;stroke-opacity:1.000000;fill-opacity:0.000000"/>
<polyline points="56.05 , 205.54 56.05 , 12.05 " style="stroke-width:0;stroke:#F2F2F2;fill:#000000;stroke-opacity:1.000000;fill-opacity:0.000000"/>
<polyline points="137.73 , 205.54 137.73 , 12.05 " style="stroke-width:0;stroke:#F2F2F2;fill:#000000;stroke-opacity:1.000000;fill-opacity:0.000000"/>
<polyline points="219.42 , 205.54 219.42 , 12.05 " style="stroke-width:0;stroke:#F2F2F2;fill:#000000;stroke-opacity:1.000000;fill-opacity:0.000000"/>
<polyline points="301.10 , 205.54 301.10 , 12.05 " style="stroke-width:0;stroke:#F2F2F2;fill:#000000;stroke-opacity:1.000000;fill-opacity:0.000000"/>
<polyline points="40.94 , 21.29 373.39 , 21.29 " style="stroke-width:1;stroke:#FFFFFF;fill:#000000;stroke-opacity:1.000000;fill-opacity:0.000000"/>
<polyline points="40.94 , 71.47 373.39 , 71.47 " style="stroke-width:1;stroke:#FFFFFF;fill:#000000;stroke-opacity:1.000000;fill-opacity:0.000000"/>
<polyline points="40.94 , 121.65 373.39 , 121.65 " style="stroke-width:1;stroke:#FFFFFF;fill:#000000;stroke-opacity:1.000000;fill-opacity:0.000000"/>
<polyline points="40.94 , 171.82 373.39 , 171.82 " style="stroke-width:1;stroke:#FFFFFF;fill:#000000;stroke-opacity:1.000000;fill-opacity:0.000000"/>
<polyline points="96.89 , 205.54 96.89 , 12.05 " style="stroke-width:1;stroke:#FFFFFF;fill:#000000;stroke-opacity:1.000000;fill-opacity:0.000000"/>
<polyline points="178.58 , 205.54 178.58 , 12.05 " style="stroke-width:1;stroke:#FFFFFF;fill:#000000;stroke-opacity:1.000000;fill-opacity:0.000000"/>
<polyline points="260.26 , 205.54 260.26 , 12.05 " style="stroke-width:1;stroke:#FFFFFF;fill:#000000;stroke-opacity:1.000000;fill-opacity:0.000000"/>
<polyline points="341.95 , 205.54 341.95 , 12.05 " style="stroke-width:1;stroke:#FFFFFF;fill:#000000;stroke-opacity:1.000000;fill-opacity:0.000000"/>
<polyline points="56.05 , 48.25 64.22 , 58.79 72.38 , 68.91 80.55 , 78.77 88.72 , 87.74 96.89 , 95.64 105.06 , 102.58 113.23 , 109.22 121.40 , 115.24 129.56 , 121.68 137.73 , 128.00 145.90 , 133.68 154.07 , 138.79 162.24 , 143.49 170.41 , 147.58 178.58 , 150.97 186.74 , 153.72 194.91 , 155.62 203.08 , 156.35 211.25 , 155.65 219.42 , 153.97 227.59 , 151.80 235.76 , 149.40 243.92 , 147.05 252.09 , 145.06 260.26 , 143.43 268.43 , 142.24 276.60 , 141.65 284.77 , 141.41 292.94 , 141.12 301.10 , 140.67 309.27 , 140.00 317.44 , 139.13 325.61 , 137.79 333.78 , 136.26 341.95 , 134.45 350.11 , 132.54 358.28 , 130.45 " style="stroke-width:1;stroke:#CD0000;fill:#000000;stroke-opacity:1.000000;fill-opacity:0.000000"/>
<polygon points="56.05 , 72.91 64.22 , 79.61 72.38 , 88.77 80.55 , 97.42 88.72 , 105.89 96.89 , 114.37 105.06 , 121.36 113.23 , 128.51 121.40 , 134.58 129.56 , 141.09 137.73 , 146.89 145.90 , 152.82 154.07 , 158.63 162.24 , 164.12 170.41 , 168.71 178.58 , 172.88 186.74 , 174.40 194.91 , 176.15 203.08 , 177.05 211.25 , 177.31 219.42 , 176.97 227.59 , 175.93 235.76 , 174.95 243.92 , 174.06 252.09 , 173.93 260.26 , 173.82 268.43 , 173.85 276.60 , 173.81 284.77 , 175.19 292.94 , 176.70 301.10 , 178.31 309.27 , 179.55 317.44 , 180.70 325.61 , 183.75 333.78 , 184.98 341.95 , 187.38 350.11 , 191.28 358.28 , 196.75 358.28 , 64.04 350.11 , 75.62 341.95 , 82.88 333.78 , 89.47 325.61 , 95.07 317.44 , 98.13 309.27 , 101.10 301.10 , 104.41 292.94 , 107.20 284.77 , 108.59 276.60 , 108.74 268.43 , 108.68 260.26 , 110.90 252.09 , 113.03 243.92 , 116.05 235.76 , 122.25 227.59 , 126.51 219.42 , 131.07 211.25 , 134.36 203.08 , 136.29 194.91 , 135.62 186.74 , 134.31 178.58 , 130.96 170.41 , 126.68 162.24 , 122.46 154.07 , 118.04 145.90 , 112.72 137.73 , 107.95 129.56 , 101.94 121.40 , 95.80 113.23 , 90.54 105.06 , 84.38 96.89 , 77.91 88.72 , 69.05 80.55 , 60.22 72.38 , 49.19 64.22 , 37.22 56.05 , 22.42 " style="stroke-width:1;stroke:#FFFFFF;fill:#CD0000;stroke-opacity:0.000000;fill-opacity:0.606299" />
<polygon points="56.05 , 20.84 59.87 , 30.13 63.70 , 38.74 67.53 , 46.64 71.35 , 53.79 75.18 , 60.16 79.00 , 65.77 82.83 , 70.69 86.65 , 75.05 90.48 , 79.01 94.31 , 82.59 98.13 , 85.95 101.96 , 88.66 105.78 , 91.23 109.61 , 93.09 113.43 , 94.68 117.26 , 97.80 121.09 , 101.25 124.91 , 104.36 128.74 , 107.23 132.56 , 110.35 136.39 , 113.63 140.21 , 116.60 144.04 , 119.22 147.87 , 121.70 151.69 , 124.25 155.52 , 126.80 159.34 , 129.26 163.17 , 131.55 166.99 , 133.64 170.82 , 135.51 174.65 , 137.14 178.47 , 138.52 182.30 , 139.68 186.12 , 140.67 189.95 , 141.49 193.78 , 142.17 197.60 , 142.72 201.43 , 143.15 205.25 , 143.46 209.08 , 143.67 212.90 , 143.77 216.73 , 143.76 220.56 , 143.66 224.38 , 143.44 228.21 , 143.12 232.03 , 142.69 235.86 , 142.14 239.68 , 141.48 243.51 , 140.69 247.34 , 139.77 251.16 , 138.72 254.99 , 137.54 258.81 , 136.21 262.64 , 134.74 266.46 , 133.11 270.29 , 131.34 274.12 , 129.41 277.94 , 127.33 281.77 , 125.10 285.59 , 122.71 289.42 , 120.16 293.25 , 117.46 297.07 , 114.60 300.90 , 111.60 304.72 , 108.44 308.55 , 105.14 312.37 , 101.68 316.20 , 98.09 320.03 , 94.34 323.85 , 90.46 327.68 , 86.43 331.50 , 82.26 335.33 , 77.96 339.15 , 73.51 342.98 , 68.93 346.81 , 64.22 350.63 , 59.38 354.46 , 54.40 358.28 , 49.29 358.28 , 171.99 354.46 , 171.27 350.63 , 170.62 346.81 , 170.02 342.98 , 169.48 339.15 , 169.00 335.33 , 168.57 331.50 , 168.19 327.68 , 167.87 323.85 , 167.58 320.03 , 167.34 316.20 , 167.15 312.37 , 166.99 308.55 , 166.87 304.72 , 166.79 300.90 , 166.74 297.07 , 166.72 293.25 , 166.73 289.42 , 166.76 285.59 , 166.83 281.77 , 166.91 277.94 , 167.01 274.12 , 167.12 270.29 , 167.24 266.46 , 167.37 262.64 , 167.50 258.81 , 167.62 254.99 , 167.73 251.16 , 167.81 247.34 , 167.87 243.51 , 167.88 239.68 , 167.85 235.86 , 167.77 232.03 , 167.62 228.21 , 167.41 224.38 , 167.11 220.56 , 166.73 216.73 , 166.26 212.90 , 165.69 209.08 , 165.03 205.25 , 164.26 201.43 , 163.39 197.60 , 162.42 193.78 , 161.35 189.95 , 160.19 186.12 , 158.95 182.30 , 157.64 178.47 , 156.28 174.65 , 154.69 170.82 , 152.77 166.99 , 150.60 163.17 , 148.27 159.34 , 145.83 155.52 , 143.33 151.69 , 140.80 147.87 , 138.24 144.04 , 135.55 140.21 , 132.40 136.39 , 129.21 132.56 , 126.24 128.74 , 123.33 124.91 , 119.95 121.09 , 116.60 117.26 , 113.69 113.43 , 110.94 109.61 , 108.45 105.78 , 106.11 101.96 , 102.90 98.13 , 99.68 94.31 , 96.20 90.48 , 92.58 86.65 , 88.68 82.83 , 84.72 79.00 , 80.74 75.18 , 76.86 71.35 , 73.19 67.53 , 69.75 63.70 , 66.52 59.87 , 63.50 56.05 , 60.64 " style="stroke-width:1;stroke:#FFFFFF;fill:#0000CD;stroke-opacity:0.000000;fill-opacity:0.803150" />
<polyline points="56.05 , 40.74 59.87 , 46.81 63.70 , 52.63 67.53 , 58.19 71.35 , 63.49 75.18 , 68.51 79.00 , 73.26 82.83 , 77.71 86.65 , 81.87 90.48 , 85.80 94.31 , 89.40 98.13 , 92.81 101.96 , 95.78 105.78 , 98.67 109.61 , 100.77 113.43 , 102.81 117.26 , 105.75 121.09 , 108.92 124.91 , 112.15 128.74 , 115.28 132.56 , 118.29 136.39 , 121.42 140.21 , 124.50 144.04 , 127.38 147.87 , 129.97 151.69 , 132.53 155.52 , 135.07 159.34 , 137.54 163.17 , 139.91 166.99 , 142.12 170.82 , 144.14 174.65 , 145.91 178.47 , 147.40 182.30 , 148.66 186.12 , 149.81 189.95 , 150.84 193.78 , 151.76 197.60 , 152.57 201.43 , 153.27 205.25 , 153.86 209.08 , 154.35 212.90 , 154.73 216.73 , 155.01 220.56 , 155.19 224.38 , 155.28 228.21 , 155.26 232.03 , 155.16 235.86 , 154.96 239.68 , 154.67 243.51 , 154.29 247.34 , 153.82 251.16 , 153.27 254.99 , 152.63 258.81 , 151.92 262.64 , 151.12 266.46 , 150.24 270.29 , 149.29 274.12 , 148.27 277.94 , 147.17 281.77 , 146.00 285.59 , 144.77 289.42 , 143.46 293.25 , 142.09 297.07 , 140.66 300.90 , 139.17 304.72 , 137.61 308.55 , 136.00 312.37 , 134.34 316.20 , 132.62 320.03 , 130.84 323.85 , 129.02 327.68 , 127.15 331.50 , 125.23 335.33 , 123.26 339.15 , 121.26 342.98 , 119.21 346.81 , 117.12 350.63 , 115.00 354.46 , 112.83 358.28 , 110.64 " style="stroke-width:1;stroke:#0000CD;fill:#000000;stroke-opacity:1.000000;fill-opacity:0.000000"/>
<text transform="translate(21.04,24.89)"  style="font-size:10" >0.5</text>
<text transform="translate(19.77,75.07)"  style="font-size:10" >1.0</text>
<text transform="translate(19.77,125.25)"  style="font-size:10" >1.5</text>
<text transform="translate(19.77,175.42)"  style="font-size:10" >2.0</text>
<polyline points="36.67 , 21.29 40.94 , 21.29 " style="stroke-width:1;stroke:#7F7F7F;fill:#000000;stroke-opacity:1.000000;fill-opacity:0.000000"/>
<polyline points="36.67 , 71.47 40.94 , 71.47 " style="stroke-width:1;stroke:#7F7F7F;fill:#000000;stroke-opacity:1.000000;fill-opacity:0.000000"/>
<polyline points="36.67 , 121.65 40.94 , 121.65 " style="stroke-width:1;stroke:#7F7F7F;fill:#000000;stroke-opacity:1.000000;fill-opacity:0.000000"/>
<polyline points="36.67 , 171.82 40.94 , 171.82 " style="stroke-width:1;stroke:#7F7F7F;fill:#000000;stroke-opacity:1.000000;fill-opacity:0.000000"/>
<polyline points="96.89 , 209.81 96.89 , 205.54 " style="stroke-width:1;stroke:#7F7F7F;fill:#000000;stroke-opacity:1.000000;fill-opacity:0.000000"/>
<polyline points="178.58 , 209.81 178.58 , 205.54 " style="stroke-width:1;stroke:#7F7F7F;fill:#000000;stroke-opacity:1.000000;fill-opacity:0.000000"/>
<polyline points="260.26 , 209.81 260.26 , 205.54 " style="stroke-width:1;stroke:#7F7F7F;fill:#000000;stroke-opacity:1.000000;fill-opacity:0.000000"/>
<polyline points="341.95 , 209.81 341.95 , 205.54 " style="stroke-width:1;stroke:#7F7F7F;fill:#000000;stroke-opacity:1.000000;fill-opacity:0.000000"/>
<text transform="translate(88.64,219.85)"  style="font-size:10" >100</text>
<text transform="translate(170.33,219.85)"  style="font-size:10" >200</text>
<text transform="translate(252.01,219.85)"  style="font-size:10" >300</text>
<text transform="translate(333.70,219.85)"  style="font-size:10" >400</text>
<text transform="translate(162.63,231.87)"  style="font-size:12" >Duration (msec)</text>
<text transform="translate(18.03,131.12) rotate(-90)"  style="font-size:12" >time mu</text>
</svg>
