<?xml version="1.0" encoding="UTF-8"?>
<svg xmlns="http://www.w3.org/2000/svg" width="385.44" height="240.90" viewBox="0,0,385.44,240.90">
<desc>R SVG Plot!</desc>
<rect width="100%" height="100%" style="fill:#FFFFFF"/>
<line x1="30.46" y1="219.23" x2="363.32" y2="219.23" style="stroke-width:1;stroke:#000000;fill:#000000;stroke-opacity:1.000000;fill-opacity:0.000000"/>
<line x1="30.46" y1="219.23" x2="30.46" y2="223.27" style="stroke-width:1;stroke:#000000;fill:#000000;stroke-opacity:1.000000;fill-opacity:0.000000"/>
<line x1="97.03" y1="219.23" x2="97.03" y2="223.27" style="stroke-width:1;stroke:#000000;fill:#000000;stroke-opacity:1.000000;fill-opacity:0.000000"/>
<line x1="163.60" y1="219.23" x2="163.60" y2="223.27" style="stroke-width:1;stroke:#000000;fill:#000000;stroke-opacity:1.000000;fill-opacity:0.000000"/>
<line x1="230.17" y1="219.23" x2="230.17" y2="223.27" style="stroke-width:1;stroke:#000000;fill:#000000;stroke-opacity:1.000000;fill-opacity:0.000000"/>
<line x1="296.75" y1="219.23" x2="296.75" y2="223.27" style="stroke-width:1;stroke:#000000;fill:#000000;stroke-opacity:1.000000;fill-opacity:0.000000"/>
<line x1="363.32" y1="219.23" x2="363.32" y2="223.27" style="stroke-width:1;stroke:#000000;fill:#000000;stroke-opacity:1.000000;fill-opacity:0.000000"/>
<text transform="translate(27.46,231.73)"  style="font-size:12" >0</text>
<text transform="translate(87.13,231.73)"  style="font-size:12" >200</text>
<text transform="translate(153.70,231.73)"  style="font-size:12" >400</text>
<text transform="translate(220.27,231.73)"  style="font-size:12" >600</text>
<text transform="translate(286.85,231.73)"  style="font-size:12" >800</text>
<text transform="translate(350.12,231.73)"  style="font-size:12" >1000</text>
<line x1="17.50" y1="218.63" x2="17.50" y2="34.43" style="stroke-width:1;stroke:#000000;fill:#000000;stroke-opacity:1.000000;fill-opacity:0.000000"/>
<line x1="17.50" y1="218.63" x2="13.47" y2="218.63" style="stroke-width:1;stroke:#000000;fill:#000000;stroke-opacity:1.000000;fill-opacity:0.000000"/>
<line x1="17.50" y1="181.79" x2="13.47" y2="181.79" style="stroke-width:1;stroke:#000000;fill:#000000;stroke-opacity:1.000000;fill-opacity:0.000000"/>
<line x1="17.50" y1="144.95" x2="13.47" y2="144.95" style="stroke-width:1;stroke:#000000;fill:#000000;stroke-opacity:1.000000;fill-opacity:0.000000"/>
<line x1="17.50" y1="108.11" x2="13.47" y2="108.11" style="stroke-width:1;stroke:#000000;fill:#000000;stroke-opacity:1.000000;fill-opacity:0.000000"/>
<line x1="17.50" y1="71.27" x2="13.47" y2="71.27" style="stroke-width:1;stroke:#000000;fill:#000000;stroke-opacity:1.000000;fill-opacity:0.000000"/>
<line x1="17.50" y1="34.43" x2="13.47" y2="34.43" style="stroke-width:1;stroke:#000000;fill:#000000;stroke-opacity:1.000000;fill-opacity:0.000000"/>
<text transform="translate(13.33,221.93) rotate(-90)"  style="font-size:12" >0</text>
<text transform="translate(13.33,185.09) rotate(-90)"  style="font-size:12" >2</text>
<text transform="translate(13.33,148.25) rotate(-90)"  style="font-size:12" >4</text>
<text transform="translate(13.33,111.41) rotate(-90)"  style="font-size:12" >6</text>
<text transform="translate(13.33,74.57) rotate(-90)"  style="font-size:12" >8</text>
<text transform="translate(13.33,41.03) rotate(-90)"  style="font-size:12" >10</text>
<polyline points="17.50 , 17.50 17.50 , 219.23 376.27 , 219.23 " style="stroke-width:1;stroke:#000000;fill:#000000;stroke-opacity:1.000000;fill-opacity:0.000000"/>
<text transform="translate(148.57,14.75)"  style="font-size:14" >Trace of  sigma</text>
<text transform="translate(173.45,240.07)"  style="font-size:12" >Iterations</text>
<polygon points="17.50 , 219.23 17.50 , 17.50 196.89 , 17.50 196.89 , 219.23 " style="stroke-width:1;stroke:#FFFFFF;fill:#969696;stroke-opacity:0.000000;fill-opacity:0.787402" />
<polyline points="30.79 , 24.97 31.12 , 24.97 31.45 , 24.97 31.79 , 68.02 32.12 , 87.67 32.45 , 102.43 32.79 , 123.63 33.12 , 141.02 33.45 , 147.99 33.78 , 164.01 34.12 , 198.95 34.45 , 198.15 34.78 , 203.12 35.12 , 204.58 35.45 , 207.45 35.78 , 209.55 36.11 , 210.11 36.45 , 210.83 36.78 , 211.05 37.11 , 210.85 37.45 , 210.69 37.78 , 210.89 38.11 , 210.50 38.44 , 210.93 38.78 , 211.09 39.11 , 210.36 39.44 , 211.18 39.78 , 210.59 40.11 , 211.10 40.44 , 210.68 40.77 , 210.99 41.11 , 210.81 41.44 , 211.15 41.77 , 211.15 42.11 , 210.70 42.44 , 211.10 42.77 , 211.17 43.10 , 210.64 43.44 , 210.99 43.77 , 210.97 44.10 , 210.83 44.44 , 210.83 44.77 , 211.07 45.10 , 210.88 45.43 , 210.89 45.77 , 210.78 46.10 , 211.29 46.43 , 211.17 46.77 , 210.56 47.10 , 211.06 47.43 , 210.68 47.76 , 211.24 48.10 , 210.98 48.43 , 211.11 48.76 , 210.61 49.10 , 210.58 49.43 , 211.14 49.76 , 210.86 50.09 , 210.77 50.43 , 211.06 50.76 , 210.88 51.09 , 210.95 51.43 , 210.75 51.76 , 210.74 52.09 , 210.70 52.42 , 210.70 52.76 , 210.87 53.09 , 210.56 53.42 , 210.97 53.76 , 211.24 54.09 , 210.99 54.42 , 210.46 54.75 , 210.73 55.09 , 211.36 55.42 , 211.36 55.75 , 211.43 56.09 , 210.63 56.42 , 210.89 56.75 , 211.20 57.08 , 211.11 57.42 , 210.68 57.75 , 210.72 58.08 , 210.82 58.42 , 210.77 58.75 , 210.52 59.08 , 210.41 59.41 , 210.60 59.75 , 211.40 60.08 , 210.82 60.41 , 210.99 60.75 , 210.69 61.08 , 210.74 61.41 , 211.15 61.74 , 210.98 62.08 , 210.96 62.41 , 210.88 62.74 , 210.33 63.08 , 210.78 63.41 , 210.78 63.74 , 211.12 64.07 , 211.12 64.41 , 211.12 64.74 , 210.64 65.07 , 211.03 65.41 , 210.91 65.74 , 211.02 66.07 , 210.79 66.40 , 210.87 66.74 , 210.85 67.07 , 211.00 67.40 , 210.55 67.74 , 211.45 68.07 , 210.37 68.40 , 210.28 68.73 , 211.38 69.07 , 210.81 69.40 , 210.89 69.73 , 210.89 70.07 , 211.05 70.40 , 211.06 70.73 , 210.76 71.06 , 210.86 71.40 , 210.80 71.73 , 210.67 72.06 , 210.48 72.40 , 211.46 72.73 , 210.50 73.06 , 210.83 73.39 , 211.44 73.73 , 211.04 74.06 , 210.89 74.39 , 210.70 74.73 , 211.07 75.06 , 211.07 75.39 , 210.76 75.72 , 211.08 76.06 , 211.02 76.39 , 210.76 76.72 , 211.35 77.06 , 210.63 77.39 , 211.13 77.72 , 211.13 78.05 , 211.25 78.39 , 210.54 78.72 , 210.82 79.05 , 210.81 79.39 , 210.70 79.72 , 211.21 80.05 , 210.73 80.38 , 211.18 80.72 , 211.16 81.05 , 211.16 81.38 , 210.88 81.72 , 210.57 82.05 , 210.45 82.38 , 210.96 82.71 , 210.67 83.05 , 210.34 83.38 , 211.40 83.71 , 210.65 84.05 , 211.43 84.38 , 211.29 84.71 , 211.06 85.04 , 211.06 85.38 , 211.07 85.71 , 210.83 86.04 , 210.73 86.38 , 210.75 86.71 , 210.77 87.04 , 211.16 87.37 , 210.58 87.71 , 210.46 88.04 , 211.33 88.37 , 210.99 88.71 , 210.85 89.04 , 211.25 89.37 , 210.56 89.70 , 211.26 90.04 , 210.64 90.37 , 210.92 90.70 , 210.75 91.04 , 211.02 91.37 , 211.15 91.70 , 210.98 92.03 , 210.77 92.37 , 211.05 92.70 , 211.05 93.03 , 211.00 93.37 , 210.41 93.70 , 211.04 94.03 , 211.04 94.36 , 210.95 94.70 , 210.95 95.03 , 211.16 95.36 , 210.67 95.70 , 211.26 96.03 , 211.32 96.36 , 210.99 96.69 , 210.99 97.03 , 211.00 97.36 , 210.73 97.69 , 210.77 98.03 , 211.02 98.36 , 210.85 98.69 , 211.10 99.02 , 211.76 99.36 , 210.97 99.69 , 210.79 100.02 , 210.66 100.36 , 210.76 100.69 , 210.37 101.02 , 211.32 101.35 , 211.32 101.69 , 210.77 102.02 , 210.99 102.35 , 210.82 102.69 , 210.82 103.02 , 210.60 103.35 , 210.86 103.68 , 210.78 104.02 , 211.08 104.35 , 210.90 104.68 , 211.03 105.02 , 210.61 105.35 , 210.90 105.68 , 211.29 106.01 , 210.50 106.35 , 210.73 106.68 , 211.18 107.01 , 211.02 107.35 , 211.38 107.68 , 210.51 108.01 , 210.55 108.35 , 210.57 108.68 , 210.17 109.01 , 211.56 109.34 , 211.04 109.68 , 211.04 110.01 , 210.85 110.34 , 211.15 110.68 , 210.96 111.01 , 210.92 111.34 , 211.10 111.67 , 211.09 112.01 , 210.73 112.34 , 211.11 112.67 , 211.22 113.01 , 210.63 113.34 , 210.11 113.67 , 210.37 114.00 , 210.37 114.34 , 210.37 114.67 , 211.46 115.00 , 210.39 115.34 , 211.16 115.67 , 210.71 116.00 , 210.69 116.33 , 210.71 116.67 , 211.04 117.00 , 211.13 117.33 , 211.12 117.67 , 210.99 118.00 , 210.92 118.33 , 210.92 118.66 , 211.03 119.00 , 210.85 119.33 , 211.18 119.66 , 210.72 120.00 , 210.64 120.33 , 210.79 120.66 , 210.70 120.99 , 211.04 121.33 , 211.04 121.66 , 211.02 121.99 , 210.68 122.33 , 210.65 122.66 , 210.65 122.99 , 210.49 123.32 , 211.15 123.66 , 210.63 123.99 , 210.93 124.32 , 210.71 124.66 , 210.79 124.99 , 210.79 125.32 , 211.04 125.65 , 210.96 125.99 , 210.65 126.32 , 210.59 126.65 , 210.89 126.99 , 211.09 127.32 , 210.69 127.65 , 210.69 127.98 , 211.15 128.32 , 210.67 128.65 , 211.18 128.98 , 210.98 129.32 , 210.72 129.65 , 210.71 129.98 , 210.65 130.31 , 211.01 130.65 , 210.87 130.98 , 210.87 131.31 , 210.82 131.65 , 210.95 131.98 , 211.00 132.31 , 210.95 132.64 , 210.95 132.98 , 210.78 133.31 , 211.07 133.64 , 211.11 133.98 , 210.77 134.31 , 210.77 134.64 , 210.65 134.97 , 210.79 135.31 , 210.99 135.64 , 211.01 135.97 , 211.00 136.31 , 211.00 136.64 , 210.87 136.97 , 210.84 137.30 , 210.84 137.64 , 211.02 137.97 , 211.10 138.30 , 211.21 138.64 , 210.84 138.97 , 210.95 139.30 , 210.82 139.63 , 210.68 139.97 , 211.21 140.30 , 210.84 140.63 , 211.04 140.97 , 210.73 141.30 , 211.24 141.63 , 210.79 141.96 , 210.94 142.30 , 211.02 142.63 , 211.09 142.96 , 211.01 143.30 , 210.77 143.63 , 210.96 143.96 , 210.96 144.29 , 211.31 144.63 , 211.18 144.96 , 211.17 145.29 , 211.30 145.63 , 211.18 145.96 , 210.70 146.29 , 210.70 146.62 , 211.11 146.96 , 210.55 147.29 , 210.93 147.62 , 210.96 147.96 , 210.96 148.29 , 211.24 148.62 , 210.60 148.95 , 210.51 149.29 , 210.14 149.62 , 210.65 149.95 , 211.06 150.29 , 211.09 150.62 , 211.09 150.95 , 210.91 151.28 , 210.57 151.62 , 210.90 151.95 , 211.12 152.28 , 210.77 152.62 , 211.11 152.95 , 210.68 153.28 , 210.71 153.61 , 210.79 153.95 , 210.59 154.28 , 210.59 154.61 , 211.13 154.95 , 211.06 155.28 , 210.87 155.61 , 210.87 155.94 , 211.00 156.28 , 210.89 156.61 , 211.11 156.94 , 210.68 157.28 , 210.81 157.61 , 210.83 157.94 , 210.90 158.27 , 211.02 158.61 , 210.64 158.94 , 210.79 159.27 , 210.69 159.61 , 210.86 159.94 , 211.10 160.27 , 211.04 160.60 , 210.74 160.94 , 211.24 161.27 , 211.24 161.60 , 210.39 161.94 , 211.56 162.27 , 210.28 162.60 , 210.51 162.93 , 210.48 163.27 , 210.45 163.60 , 211.46 163.93 , 210.74 164.27 , 211.16 164.60 , 210.54 164.93 , 211.06 165.26 , 210.89 165.60 , 211.16 165.93 , 210.34 166.26 , 211.47 166.60 , 211.47 166.93 , 210.87 167.26 , 210.99 167.59 , 211.01 167.93 , 210.79 168.26 , 211.02 168.59 , 210.74 168.93 , 210.89 169.26 , 210.71 169.59 , 211.15 169.92 , 210.63 170.26 , 210.91 170.59 , 210.87 170.92 , 210.83 171.26 , 211.09 171.59 , 211.37 171.92 , 210.88 172.25 , 211.09 172.59 , 210.95 172.92 , 211.08 173.25 , 211.20 173.59 , 211.01 173.92 , 210.83 174.25 , 210.73 174.58 , 211.13 174.92 , 211.33 175.25 , 211.33 175.58 , 210.97 175.92 , 210.84 176.25 , 210.64 176.58 , 210.68 176.91 , 210.82 177.25 , 210.72 177.58 , 210.98 177.91 , 210.74 178.25 , 210.79 178.58 , 210.86 178.91 , 211.16 179.24 , 211.16 179.58 , 211.18 179.91 , 210.61 180.24 , 211.04 180.58 , 210.38 180.91 , 210.38 181.24 , 210.37 181.57 , 211.34 181.91 , 210.93 182.24 , 211.21 182.57 , 210.88 182.91 , 210.86 183.24 , 210.98 183.57 , 211.14 183.90 , 211.19 184.24 , 210.62 184.57 , 210.55 184.90 , 210.85 185.24 , 210.85 185.57 , 210.85 185.90 , 211.17 186.24 , 211.24 186.57 , 211.09 186.90 , 211.09 187.23 , 210.52 187.57 , 210.96 187.90 , 210.47 188.23 , 211.38 188.57 , 211.22 188.90 , 211.22 189.23 , 210.60 189.56 , 210.66 189.90 , 210.88 190.23 , 211.23 190.56 , 211.24 190.90 , 211.25 191.23 , 211.29 191.56 , 211.29 191.89 , 210.70 192.23 , 211.22 192.56 , 211.29 192.89 , 211.24 193.23 , 211.24 193.56 , 211.00 193.89 , 211.19 194.22 , 210.77 194.56 , 211.03 194.89 , 211.35 195.22 , 210.94 195.56 , 210.52 195.89 , 211.24 196.22 , 210.70 196.55 , 211.09 196.89 , 211.09 197.22 , 210.65 197.55 , 210.37 197.89 , 211.40 198.22 , 210.89 198.55 , 210.94 198.88 , 210.88 199.22 , 211.07 199.55 , 210.67 199.88 , 210.88 200.22 , 211.03 200.55 , 211.06 200.88 , 210.69 201.21 , 210.66 201.55 , 210.83 201.88 , 210.80 202.21 , 210.92 202.55 , 210.78 202.88 , 211.00 203.21 , 211.18 203.54 , 211.00 203.88 , 211.01 204.21 , 210.99 204.54 , 211.39 204.88 , 210.21 205.21 , 211.47 205.54 , 210.40 205.87 , 210.65 206.21 , 210.71 206.54 , 210.74 206.87 , 210.69 207.21 , 211.08 207.54 , 210.62 207.87 , 211.17 208.20 , 210.65 208.54 , 210.94 208.87 , 210.91 209.20 , 210.92 209.54 , 211.04 209.87 , 211.29 210.20 , 211.22 210.53 , 210.93 210.87 , 210.99 211.20 , 211.15 211.53 , 210.85 211.87 , 210.89 212.20 , 210.95 212.53 , 211.22 212.86 , 211.20 213.20 , 211.12 213.53 , 211.12 213.86 , 211.05 214.20 , 210.21 214.53 , 210.28 214.86 , 210.44 215.19 , 210.55 215.53 , 210.53 215.86 , 210.48 216.19 , 210.55 216.53 , 210.38 216.86 , 210.59 217.19 , 210.55 217.52 , 210.63 217.86 , 210.69 218.19 , 210.35 218.52 , 210.55 218.86 , 210.58 219.19 , 211.31 219.52 , 211.27 219.85 , 210.69 220.19 , 210.70 220.52 , 210.65 220.85 , 210.78 221.19 , 211.09 221.52 , 210.85 221.85 , 210.66 222.18 , 210.63 222.52 , 211.03 222.85 , 211.03 223.18 , 210.66 223.52 , 211.19 223.85 , 211.37 224.18 , 210.42 224.51 , 210.28 224.85 , 210.73 225.18 , 210.76 225.51 , 210.97 225.85 , 211.01 226.18 , 211.28 226.51 , 211.19 226.84 , 211.24 227.18 , 211.13 227.51 , 210.96 227.84 , 210.99 228.18 , 210.55 228.51 , 211.13 228.84 , 211.15 229.17 , 211.34 229.51 , 210.67 229.84 , 210.39 230.17 , 210.56 230.51 , 210.33 230.84 , 210.31 231.17 , 210.56 231.50 , 210.76 231.84 , 211.12 232.17 , 210.70 232.50 , 210.77 232.84 , 211.02 233.17 , 211.02 233.50 , 210.94 233.83 , 211.10 234.17 , 210.73 234.50 , 211.08 234.83 , 210.95 235.17 , 210.80 235.50 , 210.80 235.83 , 210.80 236.16 , 210.79 236.50 , 210.49 236.83 , 210.80 237.16 , 210.99 237.50 , 210.28 237.83 , 210.69 238.16 , 210.67 238.49 , 211.06 238.83 , 210.81 239.16 , 211.12 239.49 , 210.78 239.83 , 211.00 240.16 , 210.84 240.49 , 210.69 240.82 , 210.75 241.16 , 210.87 241.49 , 210.81 241.82 , 210.75 242.16 , 210.31 242.49 , 211.01 242.82 , 211.41 243.15 , 210.28 243.49 , 210.18 243.82 , 210.25 244.15 , 210.19 244.49 , 210.40 244.82 , 210.75 245.15 , 210.81 245.48 , 211.03 245.82 , 210.67 246.15 , 210.79 246.48 , 210.91 246.82 , 210.70 247.15 , 210.92 247.48 , 210.93 247.81 , 211.18 248.15 , 210.64 248.48 , 210.81 248.81 , 210.49 249.15 , 210.80 249.48 , 210.84 249.81 , 210.88 250.14 , 210.94 250.48 , 210.96 250.81 , 211.04 251.14 , 211.10 251.48 , 211.10 251.81 , 211.10 252.14 , 211.20 252.47 , 211.28 252.81 , 210.64 253.14 , 210.65 253.47 , 210.55 253.81 , 211.08 254.14 , 211.11 254.47 , 211.46 254.80 , 211.44 255.14 , 211.25 255.47 , 210.94 255.80 , 210.97 256.14 , 211.19 256.47 , 211.01 256.80 , 210.44 257.13 , 210.47 257.47 , 211.04 257.80 , 210.84 258.13 , 210.89 258.47 , 210.92 258.80 , 210.77 259.13 , 211.12 259.46 , 210.53 259.80 , 210.97 260.13 , 210.86 260.46 , 210.74 260.80 , 210.83 261.13 , 210.56 261.46 , 210.49 261.80 , 211.16 262.13 , 211.43 262.46 , 211.14 262.79 , 210.89 263.13 , 210.75 263.46 , 210.96 263.79 , 210.94 264.13 , 210.99 264.46 , 211.04 264.79 , 211.02 265.12 , 210.94 265.46 , 211.45 265.79 , 210.60 266.12 , 211.36 266.46 , 210.69 266.79 , 210.94 267.12 , 210.92 267.45 , 210.73 267.79 , 211.00 268.12 , 211.06 268.45 , 210.64 268.79 , 210.86 269.12 , 210.80 269.45 , 210.95 269.78 , 211.06 270.12 , 210.43 270.45 , 210.19 270.78 , 210.56 271.12 , 210.59 271.45 , 211.13 271.78 , 210.78 272.11 , 211.35 272.45 , 210.45 272.78 , 210.25 273.11 , 211.54 273.45 , 211.45 273.78 , 211.07 274.11 , 211.16 274.44 , 210.88 274.78 , 210.80 275.11 , 210.86 275.44 , 210.57 275.78 , 210.79 276.11 , 210.78 276.44 , 210.78 276.77 , 210.79 277.11 , 210.70 277.44 , 210.74 277.77 , 210.78 278.11 , 210.82 278.44 , 210.84 278.77 , 211.02 279.10 , 210.84 279.44 , 210.88 279.77 , 211.06 280.10 , 210.82 280.44 , 211.03 280.77 , 210.59 281.10 , 210.61 281.43 , 210.68 281.77 , 210.94 282.10 , 210.93 282.43 , 210.90 282.77 , 210.89 283.10 , 211.20 283.43 , 211.42 283.76 , 210.64 284.10 , 210.66 284.43 , 210.92 284.76 , 210.72 285.10 , 211.22 285.43 , 211.22 285.76 , 211.53 286.09 , 211.27 286.43 , 211.35 286.76 , 211.20 287.09 , 211.03 287.43 , 210.35 287.76 , 211.02 288.09 , 210.61 288.42 , 211.29 288.76 , 210.75 289.09 , 210.73 289.42 , 210.83 289.76 , 210.90 290.09 , 210.76 290.42 , 210.72 290.75 , 210.83 291.09 , 211.05 291.42 , 210.88 291.75 , 210.97 292.09 , 210.96 292.42 , 210.96 292.75 , 211.05 293.08 , 211.09 293.42 , 210.70 293.75 , 210.78 294.08 , 210.53 294.42 , 210.55 294.75 , 210.72 295.08 , 210.83 295.41 , 210.71 295.75 , 211.32 296.08 , 211.03 296.41 , 210.56 296.75 , 211.45 297.08 , 211.58 297.41 , 210.92 297.74 , 210.84 298.08 , 210.85 298.41 , 210.75 298.74 , 211.07 299.08 , 211.02 299.41 , 211.14 299.74 , 211.00 300.07 , 210.74 300.41 , 211.02 300.74 , 210.76 301.07 , 210.60 301.41 , 210.86 301.74 , 210.86 302.07 , 211.00 302.40 , 210.86 302.74 , 211.27 303.07 , 210.80 303.40 , 210.99 303.74 , 210.91 304.07 , 210.93 304.40 , 210.69 304.73 , 211.00 305.07 , 210.89 305.40 , 210.88 305.73 , 210.82 306.07 , 210.61 306.40 , 211.32 306.73 , 211.35 307.06 , 211.30 307.40 , 211.51 307.73 , 210.47 308.06 , 211.19 308.40 , 211.08 308.73 , 211.24 309.06 , 210.70 309.39 , 211.18 309.73 , 211.01 310.06 , 210.56 310.39 , 211.16 310.73 , 210.77 311.06 , 211.15 311.39 , 211.58 311.72 , 210.28 312.06 , 210.60 312.39 , 210.69 312.72 , 210.70 313.06 , 211.05 313.39 , 211.04 313.72 , 210.86 314.05 , 210.61 314.39 , 210.94 314.72 , 210.94 315.05 , 210.96 315.39 , 210.91 315.72 , 210.96 316.05 , 211.14 316.38 , 210.84 316.72 , 210.59 317.05 , 210.84 317.38 , 211.12 317.72 , 210.76 318.05 , 210.59 318.38 , 211.05 318.71 , 211.02 319.05 , 210.81 319.38 , 210.79 319.71 , 210.90 320.05 , 210.83 320.38 , 210.91 320.71 , 210.84 321.04 , 210.93 321.38 , 210.92 321.71 , 210.75 322.04 , 210.79 322.38 , 210.80 322.71 , 210.65 323.04 , 210.59 323.37 , 210.62 323.71 , 210.79 324.04 , 211.10 324.37 , 211.08 324.71 , 211.02 325.04 , 211.08 325.37 , 211.08 325.70 , 211.08 326.04 , 211.05 326.37 , 211.13 326.70 , 211.13 327.04 , 211.13 327.37 , 211.44 327.70 , 211.58 328.03 , 211.50 328.37 , 211.37 328.70 , 210.73 329.03 , 210.52 329.37 , 210.96 329.70 , 210.70 330.03 , 211.44 330.36 , 210.60 330.70 , 210.42 331.03 , 210.87 331.36 , 210.92 331.70 , 210.91 332.03 , 210.89 332.36 , 210.69 332.69 , 210.74 333.03 , 210.68 333.36 , 210.67 333.69 , 211.08 334.03 , 211.31 334.36 , 211.20 334.69 , 211.32 335.02 , 210.82 335.36 , 210.52 335.69 , 210.52 336.02 , 210.77 336.36 , 210.89 336.69 , 210.97 337.02 , 210.78 337.35 , 211.07 337.69 , 210.91 338.02 , 210.96 338.35 , 210.83 338.69 , 210.85 339.02 , 210.97 339.35 , 210.98 339.69 , 211.30 340.02 , 211.09 340.35 , 211.18 340.68 , 211.23 341.02 , 211.07 341.35 , 210.33 341.68 , 210.94 342.02 , 211.08 342.35 , 211.37 342.68 , 211.36 343.01 , 210.82 343.35 , 210.52 343.68 , 211.02 344.01 , 211.31 344.35 , 211.24 344.68 , 211.22 345.01 , 210.79 345.34 , 210.94 345.68 , 210.87 346.01 , 210.94 346.34 , 210.57 346.68 , 210.81 347.01 , 210.68 347.34 , 211.05 347.67 , 210.79 348.01 , 210.85 348.34 , 210.90 348.67 , 211.13 349.01 , 210.89 349.34 , 210.81 349.67 , 211.03 350.00 , 210.89 350.34 , 210.88 350.67 , 210.91 351.00 , 210.86 351.34 , 210.84 351.67 , 210.95 352.00 , 210.94 352.33 , 211.16 352.67 , 210.88 353.00 , 210.94 353.33 , 210.94 353.67 , 211.07 354.00 , 211.00 354.33 , 211.48 354.66 , 211.43 355.00 , 211.43 355.33 , 211.54 355.66 , 211.38 356.00 , 211.38 356.33 , 211.38 356.66 , 211.35 356.99 , 211.35 357.33 , 211.39 357.66 , 211.30 357.99 , 211.30 358.33 , 211.26 358.66 , 211.26 358.99 , 211.07 359.32 , 211.07 359.66 , 211.07 359.99 , 210.67 360.32 , 210.60 360.66 , 210.58 360.99 , 210.45 361.32 , 210.43 361.65 , 210.59 361.99 , 210.99 362.32 , 210.93 362.65 , 210.69 362.99 , 210.13 " style="stroke-width:1;stroke:#E66101;fill:#000000;stroke-opacity:1.000000;fill-opacity:0.000000"/>
<polyline points="30.79 , 178.96 31.12 , 178.96 31.45 , 178.96 31.79 , 178.96 32.12 , 202.39 32.45 , 206.33 32.79 , 208.77 33.12 , 208.78 33.45 , 208.76 33.78 , 209.89 34.12 , 210.49 34.45 , 211.08 34.78 , 211.08 35.12 , 210.36 35.45 , 210.19 35.78 , 210.53 36.11 , 210.89 36.45 , 211.01 36.78 , 211.01 37.11 , 210.91 37.45 , 210.91 37.78 , 211.26 38.11 , 211.04 38.44 , 210.94 38.78 , 210.91 39.11 , 210.95 39.44 , 210.89 39.78 , 210.84 40.11 , 210.88 40.44 , 210.88 40.77 , 211.04 41.11 , 210.62 41.44 , 210.93 41.77 , 211.07 42.11 , 211.07 42.44 , 211.15 42.77 , 210.73 43.10 , 210.62 43.44 , 211.13 43.77 , 211.03 44.10 , 211.03 44.44 , 210.92 44.77 , 211.02 45.10 , 211.57 45.43 , 210.54 45.77 , 210.68 46.10 , 210.64 46.43 , 211.26 46.77 , 211.27 47.10 , 211.13 47.43 , 211.05 47.76 , 210.69 48.10 , 211.26 48.43 , 210.18 48.76 , 211.72 49.10 , 211.72 49.43 , 211.01 49.76 , 211.35 50.09 , 211.36 50.43 , 210.19 50.76 , 210.90 51.09 , 211.17 51.43 , 209.96 51.76 , 210.88 52.09 , 210.40 52.42 , 211.06 52.76 , 210.82 53.09 , 210.90 53.42 , 210.89 53.76 , 210.71 54.09 , 211.10 54.42 , 211.10 54.75 , 210.91 55.09 , 210.86 55.42 , 211.20 55.75 , 210.61 56.09 , 211.22 56.42 , 210.71 56.75 , 211.12 57.08 , 211.21 57.42 , 210.96 57.75 , 211.14 58.08 , 210.85 58.42 , 211.30 58.75 , 211.11 59.08 , 211.11 59.41 , 210.74 59.75 , 210.78 60.08 , 210.76 60.41 , 210.83 60.75 , 210.71 61.08 , 211.24 61.41 , 211.19 61.74 , 211.57 62.08 , 211.49 62.41 , 211.27 62.74 , 211.01 63.08 , 211.39 63.41 , 210.46 63.74 , 210.46 64.07 , 210.46 64.41 , 210.46 64.74 , 211.26 65.07 , 211.00 65.41 , 211.00 65.74 , 211.03 66.07 , 210.75 66.40 , 211.03 66.74 , 211.13 67.07 , 211.10 67.40 , 211.10 67.74 , 211.03 68.07 , 210.83 68.40 , 210.92 68.73 , 210.96 69.07 , 211.00 69.40 , 210.85 69.73 , 210.42 70.07 , 211.61 70.40 , 211.61 70.73 , 210.19 71.06 , 210.83 71.40 , 210.84 71.73 , 210.89 72.06 , 211.09 72.40 , 210.69 72.73 , 211.20 73.06 , 211.20 73.39 , 210.78 73.73 , 211.14 74.06 , 211.12 74.39 , 210.98 74.73 , 211.11 75.06 , 211.11 75.39 , 211.26 75.72 , 211.08 76.06 , 210.97 76.39 , 210.93 76.72 , 210.86 77.06 , 210.98 77.39 , 210.75 77.72 , 211.03 78.05 , 210.84 78.39 , 210.84 78.72 , 210.79 79.05 , 210.45 79.39 , 211.31 79.72 , 211.41 80.05 , 211.34 80.38 , 210.47 80.72 , 210.67 81.05 , 210.67 81.38 , 210.67 81.72 , 211.21 82.05 , 211.22 82.38 , 210.49 82.71 , 210.76 83.05 , 211.05 83.38 , 211.05 83.71 , 210.93 84.05 , 210.34 84.38 , 210.88 84.71 , 210.72 85.04 , 211.07 85.38 , 210.95 85.71 , 210.88 86.04 , 210.66 86.38 , 210.92 86.71 , 210.92 87.04 , 210.89 87.37 , 210.70 87.71 , 211.19 88.04 , 211.10 88.37 , 210.87 88.71 , 210.87 89.04 , 210.49 89.37 , 210.89 89.70 , 211.15 90.04 , 210.87 90.37 , 211.05 90.70 , 211.02 91.04 , 211.02 91.37 , 210.88 91.70 , 210.61 92.03 , 211.13 92.37 , 210.42 92.70 , 210.53 93.03 , 210.65 93.37 , 210.65 93.70 , 211.04 94.03 , 210.78 94.36 , 210.85 94.70 , 211.25 95.03 , 211.39 95.36 , 211.06 95.70 , 210.81 96.03 , 210.51 96.36 , 210.81 96.69 , 210.91 97.03 , 211.03 97.36 , 210.81 97.69 , 211.01 98.03 , 210.61 98.36 , 210.96 98.69 , 210.74 99.02 , 210.50 99.36 , 210.45 99.69 , 210.68 100.02 , 211.20 100.36 , 210.76 100.69 , 210.76 101.02 , 211.22 101.35 , 211.04 101.69 , 211.20 102.02 , 210.95 102.35 , 211.19 102.69 , 210.80 103.02 , 210.85 103.35 , 210.82 103.68 , 211.34 104.02 , 211.32 104.35 , 210.55 104.68 , 211.18 105.02 , 211.61 105.35 , 210.35 105.68 , 210.39 106.01 , 210.94 106.35 , 211.11 106.68 , 211.23 107.01 , 211.21 107.35 , 210.74 107.68 , 211.07 108.01 , 211.02 108.35 , 210.77 108.68 , 211.37 109.01 , 210.41 109.34 , 211.14 109.68 , 210.52 110.01 , 210.38 110.34 , 210.14 110.68 , 210.59 111.01 , 211.20 111.34 , 211.04 111.67 , 211.01 112.01 , 210.48 112.34 , 210.48 112.67 , 211.24 113.01 , 210.88 113.34 , 210.78 113.67 , 211.24 114.00 , 211.24 114.34 , 211.24 114.67 , 211.05 115.00 , 210.91 115.34 , 210.82 115.67 , 211.22 116.00 , 211.32 116.33 , 210.98 116.67 , 210.64 117.00 , 210.55 117.33 , 211.52 117.67 , 211.35 118.00 , 210.64 118.33 , 210.65 118.66 , 210.70 119.00 , 211.03 119.33 , 210.72 119.66 , 210.92 120.00 , 211.10 120.33 , 211.44 120.66 , 210.61 120.99 , 210.75 121.33 , 210.75 121.66 , 211.13 121.99 , 211.01 122.33 , 210.88 122.66 , 210.96 122.99 , 210.96 123.32 , 210.55 123.66 , 211.23 123.99 , 211.23 124.32 , 210.80 124.66 , 210.80 124.99 , 210.90 125.32 , 210.87 125.65 , 210.75 125.99 , 210.86 126.32 , 210.57 126.65 , 211.23 126.99 , 211.23 127.32 , 211.01 127.65 , 211.07 127.98 , 210.68 128.32 , 211.31 128.65 , 210.30 128.98 , 211.09 129.32 , 210.95 129.65 , 211.52 129.98 , 211.49 130.31 , 211.34 130.65 , 210.72 130.98 , 211.07 131.31 , 210.83 131.65 , 210.83 131.98 , 210.84 132.31 , 210.51 132.64 , 210.86 132.98 , 211.39 133.31 , 210.57 133.64 , 210.69 133.98 , 210.69 134.31 , 210.99 134.64 , 211.21 134.97 , 211.14 135.31 , 210.63 135.64 , 211.00 135.97 , 210.97 136.31 , 211.18 136.64 , 211.27 136.97 , 211.28 137.30 , 211.28 137.64 , 210.59 137.97 , 210.84 138.30 , 211.02 138.64 , 210.99 138.97 , 211.15 139.30 , 211.11 139.63 , 210.98 139.97 , 210.71 140.30 , 210.59 140.63 , 210.59 140.97 , 210.57 141.30 , 210.93 141.63 , 210.87 141.96 , 210.50 142.30 , 210.70 142.63 , 210.87 142.96 , 210.87 143.30 , 210.74 143.63 , 211.03 143.96 , 211.14 144.29 , 210.89 144.63 , 210.96 144.96 , 210.50 145.29 , 211.25 145.63 , 211.32 145.96 , 211.04 146.29 , 211.04 146.62 , 210.92 146.96 , 210.99 147.29 , 210.67 147.62 , 211.61 147.96 , 210.06 148.29 , 210.69 148.62 , 211.03 148.95 , 211.03 149.29 , 210.93 149.62 , 210.69 149.95 , 211.08 150.29 , 211.14 150.62 , 211.69 150.95 , 210.51 151.28 , 211.38 151.62 , 210.41 151.95 , 210.89 152.28 , 210.87 152.62 , 210.93 152.95 , 210.90 153.28 , 210.95 153.61 , 210.95 153.95 , 210.86 154.28 , 211.03 154.61 , 210.74 154.95 , 211.12 155.28 , 210.59 155.61 , 210.94 155.94 , 210.51 156.28 , 210.92 156.61 , 211.22 156.94 , 210.87 157.28 , 211.16 157.61 , 210.93 157.94 , 211.43 158.27 , 210.97 158.61 , 210.99 158.94 , 211.14 159.27 , 211.03 159.61 , 210.94 159.94 , 210.95 160.27 , 211.10 160.60 , 211.09 160.94 , 210.71 161.27 , 210.73 161.60 , 211.15 161.94 , 211.22 162.27 , 211.22 162.60 , 210.71 162.93 , 210.87 163.27 , 210.98 163.60 , 210.66 163.93 , 211.16 164.27 , 210.58 164.60 , 210.19 164.93 , 211.07 165.26 , 210.71 165.60 , 210.99 165.93 , 211.11 166.26 , 210.54 166.60 , 210.80 166.93 , 211.01 167.26 , 210.90 167.59 , 210.84 167.93 , 210.75 168.26 , 210.89 168.59 , 211.16 168.93 , 211.06 169.26 , 210.88 169.59 , 210.91 169.92 , 211.14 170.26 , 211.21 170.59 , 211.07 170.92 , 210.45 171.26 , 210.64 171.59 , 210.75 171.92 , 211.55 172.25 , 210.87 172.59 , 211.15 172.92 , 210.97 173.25 , 210.50 173.59 , 211.01 173.92 , 211.01 174.25 , 210.99 174.58 , 210.89 174.92 , 211.01 175.25 , 211.01 175.58 , 210.62 175.92 , 210.79 176.25 , 210.75 176.58 , 210.67 176.91 , 211.16 177.25 , 210.55 177.58 , 211.73 177.91 , 209.97 178.25 , 211.50 178.58 , 210.94 178.91 , 211.03 179.24 , 210.59 179.58 , 211.09 179.91 , 210.92 180.24 , 211.08 180.58 , 211.08 180.91 , 211.08 181.24 , 211.47 181.57 , 210.78 181.91 , 210.84 182.24 , 210.56 182.57 , 211.05 182.91 , 211.00 183.24 , 211.15 183.57 , 210.86 183.90 , 211.05 184.24 , 210.96 184.57 , 211.27 184.90 , 211.03 185.24 , 210.87 185.57 , 210.98 185.90 , 211.16 186.24 , 210.64 186.57 , 211.18 186.90 , 211.18 187.23 , 210.51 187.57 , 210.56 187.90 , 211.39 188.23 , 211.39 188.57 , 211.39 188.90 , 211.49 189.23 , 210.41 189.56 , 210.32 189.90 , 210.62 190.23 , 211.36 190.56 , 210.59 190.90 , 211.00 191.23 , 211.00 191.56 , 210.80 191.89 , 211.17 192.23 , 211.35 192.56 , 210.78 192.89 , 210.78 193.23 , 210.98 193.56 , 210.88 193.89 , 211.10 194.22 , 211.21 194.56 , 210.70 194.89 , 211.14 195.22 , 210.92 195.56 , 210.92 195.89 , 210.90 196.22 , 211.18 196.55 , 211.27 196.89 , 210.53 197.22 , 210.74 197.55 , 210.97 197.89 , 210.45 198.22 , 211.41 198.55 , 210.39 198.88 , 210.34 199.22 , 211.44 199.55 , 211.44 199.88 , 210.84 200.22 , 211.15 200.55 , 210.63 200.88 , 209.94 201.21 , 210.92 201.55 , 210.64 201.88 , 211.11 202.21 , 210.84 202.55 , 211.26 202.88 , 211.44 203.21 , 210.36 203.54 , 211.58 203.88 , 210.57 204.21 , 210.16 204.54 , 210.21 204.88 , 211.56 205.21 , 210.71 205.54 , 211.13 205.87 , 210.40 206.21 , 210.85 206.54 , 210.52 206.87 , 211.03 207.21 , 210.79 207.54 , 210.72 207.87 , 210.19 208.20 , 211.09 208.54 , 210.91 208.87 , 210.96 209.20 , 210.74 209.54 , 210.96 209.87 , 210.95 210.20 , 210.63 210.53 , 210.60 210.87 , 210.75 211.20 , 210.68 211.53 , 210.68 211.87 , 210.45 212.20 , 211.31 212.53 , 210.55 212.86 , 211.06 213.20 , 211.13 213.53 , 211.22 213.86 , 210.98 214.20 , 211.13 214.53 , 210.73 214.86 , 210.83 215.19 , 210.54 215.53 , 210.92 215.86 , 211.06 216.19 , 210.67 216.53 , 210.52 216.86 , 210.52 217.19 , 211.14 217.52 , 211.39 217.86 , 210.57 218.19 , 210.53 218.52 , 210.35 218.86 , 211.34 219.19 , 210.51 219.52 , 210.92 219.85 , 210.88 220.19 , 211.21 220.52 , 211.27 220.85 , 210.68 221.19 , 210.73 221.52 , 210.97 221.85 , 211.19 222.18 , 211.08 222.52 , 210.76 222.85 , 210.87 223.18 , 211.04 223.52 , 210.96 223.85 , 211.03 224.18 , 210.77 224.51 , 210.84 224.85 , 210.68 225.18 , 211.24 225.51 , 210.38 225.85 , 210.60 226.18 , 211.18 226.51 , 211.48 226.84 , 210.64 227.18 , 211.09 227.51 , 210.93 227.84 , 210.93 228.18 , 210.82 228.51 , 211.04 228.84 , 210.77 229.17 , 210.66 229.51 , 211.48 229.84 , 211.37 230.17 , 210.52 230.51 , 210.98 230.84 , 211.32 231.17 , 211.27 231.50 , 210.62 231.84 , 211.46 232.17 , 210.28 232.50 , 211.53 232.84 , 210.67 233.17 , 210.98 233.50 , 210.90 233.83 , 211.03 234.17 , 210.78 234.50 , 210.57 234.83 , 210.74 235.17 , 211.03 235.50 , 210.84 235.83 , 210.88 236.16 , 210.56 236.50 , 210.94 236.83 , 211.02 237.16 , 210.80 237.50 , 211.30 237.83 , 210.82 238.16 , 210.34 238.49 , 211.39 238.83 , 210.30 239.16 , 210.42 239.49 , 211.33 239.83 , 210.48 240.16 , 210.84 240.49 , 210.71 240.82 , 211.04 241.16 , 210.76 241.49 , 210.76 241.82 , 210.69 242.16 , 210.72 242.49 , 211.20 242.82 , 211.29 243.15 , 211.33 243.49 , 211.08 243.82 , 210.89 244.15 , 211.18 244.49 , 210.49 244.82 , 210.54 245.15 , 210.93 245.48 , 210.81 245.82 , 210.72 246.15 , 211.02 246.48 , 211.34 246.82 , 210.92 247.15 , 211.21 247.48 , 210.57 247.81 , 210.84 248.15 , 211.23 248.48 , 211.18 248.81 , 211.07 249.15 , 211.07 249.48 , 210.87 249.81 , 210.40 250.14 , 210.39 250.48 , 210.19 250.81 , 210.33 251.14 , 211.29 251.48 , 211.22 251.81 , 211.08 252.14 , 210.71 252.47 , 210.91 252.81 , 210.69 253.14 , 210.64 253.47 , 211.19 253.81 , 210.71 254.14 , 210.92 254.47 , 211.10 254.80 , 211.05 255.14 , 211.06 255.47 , 211.10 255.80 , 210.73 256.14 , 210.98 256.47 , 210.70 256.80 , 210.81 257.13 , 210.80 257.47 , 210.80 257.80 , 210.81 258.13 , 210.82 258.47 , 210.68 258.80 , 210.95 259.13 , 210.81 259.46 , 211.06 259.80 , 210.85 260.13 , 211.58 260.46 , 210.95 260.80 , 210.95 261.13 , 210.88 261.46 , 210.80 261.80 , 210.66 262.13 , 210.90 262.46 , 210.88 262.79 , 210.91 263.13 , 210.90 263.46 , 210.88 263.79 , 210.87 264.13 , 210.72 264.46 , 210.84 264.79 , 210.88 265.12 , 210.93 265.46 , 211.02 265.79 , 210.90 266.12 , 211.11 266.46 , 210.81 266.79 , 210.97 267.12 , 210.74 267.45 , 210.86 267.79 , 210.89 268.12 , 211.18 268.45 , 210.38 268.79 , 211.29 269.12 , 211.15 269.45 , 210.73 269.78 , 211.10 270.12 , 211.03 270.45 , 210.83 270.78 , 211.19 271.12 , 210.39 271.45 , 210.94 271.78 , 210.81 272.11 , 211.11 272.45 , 210.58 272.78 , 211.26 273.11 , 211.13 273.45 , 210.80 273.78 , 210.82 274.11 , 210.84 274.44 , 211.39 274.78 , 210.46 275.11 , 211.44 275.44 , 211.23 275.78 , 210.75 276.11 , 211.36 276.44 , 210.83 276.77 , 210.83 277.11 , 211.03 277.44 , 211.11 277.77 , 210.84 278.11 , 211.37 278.44 , 210.83 278.77 , 211.26 279.10 , 210.88 279.44 , 210.85 279.77 , 211.04 280.10 , 210.75 280.44 , 211.37 280.77 , 211.07 281.10 , 211.02 281.43 , 211.00 281.77 , 210.72 282.10 , 210.67 282.43 , 211.06 282.77 , 210.62 283.10 , 210.64 283.43 , 210.67 283.76 , 210.95 284.10 , 210.99 284.43 , 210.90 284.76 , 211.05 285.10 , 210.62 285.43 , 210.85 285.76 , 210.58 286.09 , 210.46 286.43 , 211.15 286.76 , 210.90 287.09 , 211.03 287.43 , 210.87 287.76 , 210.63 288.09 , 210.51 288.42 , 210.51 288.76 , 210.51 289.09 , 210.51 289.42 , 210.51 289.76 , 210.51 290.09 , 210.51 290.42 , 210.51 290.75 , 210.51 291.09 , 210.51 291.42 , 210.51 291.75 , 210.51 292.09 , 210.51 292.42 , 210.52 292.75 , 210.52 293.08 , 210.52 293.42 , 210.53 293.75 , 210.58 294.08 , 210.73 294.42 , 211.09 294.75 , 211.28 295.08 , 210.71 295.41 , 210.87 295.75 , 210.85 296.08 , 210.84 296.41 , 211.03 296.75 , 210.80 297.08 , 211.25 297.41 , 211.25 297.74 , 210.61 298.08 , 211.00 298.41 , 210.85 298.74 , 210.79 299.08 , 210.84 299.41 , 211.00 299.74 , 210.56 300.07 , 210.72 300.41 , 210.84 300.74 , 211.03 301.07 , 211.18 301.41 , 210.94 301.74 , 211.01 302.07 , 211.33 302.40 , 211.27 302.74 , 210.88 303.07 , 210.42 303.40 , 211.31 303.74 , 210.90 304.07 , 210.85 304.40 , 210.80 304.73 , 211.09 305.07 , 210.63 305.40 , 210.85 305.73 , 210.95 306.07 , 210.73 306.40 , 210.75 306.73 , 210.78 307.06 , 211.08 307.40 , 210.65 307.73 , 211.02 308.06 , 210.68 308.40 , 210.76 308.73 , 211.02 309.06 , 210.75 309.39 , 211.04 309.73 , 211.27 310.06 , 210.74 310.39 , 211.22 310.73 , 210.74 311.06 , 210.91 311.39 , 211.20 311.72 , 211.29 312.06 , 210.94 312.39 , 211.19 312.72 , 210.71 313.06 , 210.85 313.39 , 211.51 313.72 , 210.32 314.05 , 211.53 314.39 , 210.36 314.72 , 210.72 315.05 , 210.68 315.39 , 210.93 315.72 , 210.75 316.05 , 211.01 316.38 , 210.58 316.72 , 211.37 317.05 , 210.83 317.38 , 211.01 317.72 , 210.86 318.05 , 211.05 318.38 , 210.73 318.71 , 210.70 319.05 , 211.50 319.38 , 210.09 319.71 , 211.49 320.05 , 210.87 320.38 , 211.21 320.71 , 210.33 321.04 , 211.00 321.38 , 210.62 321.71 , 211.27 322.04 , 210.96 322.38 , 210.94 322.71 , 211.13 323.04 , 210.63 323.37 , 211.11 323.71 , 210.92 324.04 , 211.19 324.37 , 211.25 324.71 , 210.44 325.04 , 211.18 325.37 , 210.90 325.70 , 211.18 326.04 , 210.93 326.37 , 211.29 326.70 , 210.65 327.04 , 210.71 327.37 , 210.85 327.70 , 210.95 328.03 , 210.90 328.37 , 210.58 328.70 , 210.74 329.03 , 210.48 329.37 , 210.69 329.70 , 211.05 330.03 , 210.86 330.36 , 210.69 330.70 , 210.81 331.03 , 211.09 331.36 , 211.08 331.70 , 211.06 332.03 , 210.70 332.36 , 210.36 332.69 , 210.91 333.03 , 210.97 333.36 , 210.91 333.69 , 210.71 334.03 , 210.98 334.36 , 210.80 334.69 , 210.69 335.02 , 210.86 335.36 , 210.80 335.69 , 210.70 336.02 , 210.64 336.36 , 210.60 336.69 , 210.60 337.02 , 210.88 337.35 , 210.90 337.69 , 210.94 338.02 , 211.03 338.35 , 210.98 338.69 , 210.73 339.02 , 210.66 339.35 , 210.74 339.69 , 211.12 340.02 , 210.64 340.35 , 210.59 340.68 , 211.08 341.02 , 211.06 341.35 , 210.79 341.68 , 211.14 342.02 , 211.00 342.35 , 210.87 342.68 , 210.72 343.01 , 211.17 343.35 , 210.78 343.68 , 211.12 344.01 , 210.92 344.35 , 210.83 344.68 , 210.72 345.01 , 210.99 345.34 , 210.77 345.68 , 211.37 346.01 , 211.41 346.34 , 211.33 346.68 , 210.47 347.01 , 210.73 347.34 , 210.33 347.67 , 210.54 348.01 , 211.15 348.34 , 210.56 348.67 , 210.61 349.01 , 211.05 349.34 , 210.99 349.67 , 210.81 350.00 , 211.38 350.34 , 211.38 350.67 , 211.46 351.00 , 211.35 351.34 , 211.38 351.67 , 210.87 352.00 , 210.94 352.33 , 211.26 352.67 , 210.88 353.00 , 210.86 353.33 , 210.85 353.67 , 210.25 354.00 , 211.12 354.33 , 211.12 354.66 , 211.18 355.00 , 210.92 355.33 , 210.62 355.66 , 210.77 356.00 , 211.27 356.33 , 210.67 356.66 , 210.86 356.99 , 210.86 357.33 , 210.94 357.66 , 210.99 357.99 , 210.92 358.33 , 210.80 358.66 , 211.26 358.99 , 210.93 359.32 , 210.84 359.66 , 210.51 359.99 , 210.91 360.32 , 210.77 360.66 , 211.17 360.99 , 210.97 361.32 , 210.85 361.65 , 210.89 361.99 , 210.93 362.32 , 210.88 362.65 , 210.90 362.99 , 210.91 " style="stroke-width:1;stroke:#998EC3;fill:#000000;stroke-opacity:1.000000;fill-opacity:0.000000"/>
<polyline points="30.79 , 72.31 31.12 , 72.31 31.45 , 72.31 31.79 , 72.31 32.12 , 161.66 32.45 , 175.31 32.79 , 191.49 33.12 , 194.72 33.45 , 195.20 33.78 , 204.77 34.12 , 207.99 34.45 , 209.05 34.78 , 210.09 35.12 , 210.64 35.45 , 210.20 35.78 , 210.13 36.11 , 210.84 36.45 , 210.84 36.78 , 210.92 37.11 , 210.70 37.45 , 210.82 37.78 , 211.11 38.11 , 210.51 38.44 , 211.18 38.78 , 210.57 39.11 , 210.97 39.44 , 210.85 39.78 , 210.57 40.11 , 210.85 40.44 , 210.90 40.77 , 210.68 41.11 , 210.49 41.44 , 211.32 41.77 , 211.05 42.11 , 210.67 42.44 , 210.76 42.77 , 211.27 43.10 , 211.27 43.44 , 210.79 43.77 , 211.04 44.10 , 211.21 44.44 , 211.05 44.77 , 210.97 45.10 , 210.88 45.43 , 211.02 45.77 , 210.83 46.10 , 210.76 46.43 , 211.06 46.77 , 211.10 47.10 , 210.73 47.43 , 211.09 47.76 , 210.89 48.10 , 210.93 48.43 , 211.07 48.76 , 210.87 49.10 , 210.89 49.43 , 211.18 49.76 , 211.08 50.09 , 210.81 50.43 , 210.87 50.76 , 210.67 51.09 , 211.26 51.43 , 210.31 51.76 , 210.31 52.09 , 210.50 52.42 , 211.39 52.76 , 210.73 53.09 , 210.54 53.42 , 211.08 53.76 , 210.48 54.09 , 211.03 54.42 , 211.53 54.75 , 211.31 55.09 , 211.14 55.42 , 210.67 55.75 , 211.67 56.09 , 211.37 56.42 , 210.36 56.75 , 210.73 57.08 , 211.02 57.42 , 211.29 57.75 , 211.31 58.08 , 210.83 58.42 , 210.82 58.75 , 210.84 59.08 , 211.20 59.41 , 211.20 59.75 , 210.95 60.08 , 211.15 60.41 , 211.02 60.75 , 210.98 61.08 , 211.04 61.41 , 210.84 61.74 , 210.82 62.08 , 210.69 62.41 , 211.22 62.74 , 210.57 63.08 , 210.80 63.41 , 210.83 63.74 , 210.77 64.07 , 210.45 64.41 , 210.45 64.74 , 211.33 65.07 , 210.70 65.41 , 211.04 65.74 , 210.79 66.07 , 210.79 66.40 , 211.19 66.74 , 210.97 67.07 , 211.24 67.40 , 210.63 67.74 , 210.98 68.07 , 210.72 68.40 , 210.75 68.73 , 211.16 69.07 , 210.70 69.40 , 211.09 69.73 , 210.54 70.07 , 210.78 70.40 , 211.03 70.73 , 211.18 71.06 , 211.05 71.40 , 210.75 71.73 , 210.75 72.06 , 211.15 72.40 , 210.68 72.73 , 210.93 73.06 , 211.07 73.39 , 210.55 73.73 , 210.82 74.06 , 210.85 74.39 , 211.03 74.73 , 210.68 75.06 , 210.82 75.39 , 210.65 75.72 , 210.51 76.06 , 210.76 76.39 , 211.09 76.72 , 211.47 77.06 , 210.76 77.39 , 210.90 77.72 , 210.95 78.05 , 210.66 78.39 , 210.88 78.72 , 210.88 79.05 , 211.37 79.39 , 210.75 79.72 , 211.15 80.05 , 210.70 80.38 , 211.08 80.72 , 210.96 81.05 , 210.96 81.38 , 210.96 81.72 , 211.02 82.05 , 211.10 82.38 , 211.23 82.71 , 211.48 83.05 , 211.48 83.38 , 210.41 83.71 , 210.50 84.05 , 211.00 84.38 , 210.41 84.71 , 210.60 85.04 , 211.26 85.38 , 210.43 85.71 , 211.27 86.04 , 210.74 86.38 , 210.80 86.71 , 210.74 87.04 , 210.80 87.37 , 211.00 87.71 , 210.79 88.04 , 211.19 88.37 , 211.07 88.71 , 211.28 89.04 , 210.48 89.37 , 211.40 89.70 , 210.23 90.04 , 211.20 90.37 , 211.00 90.70 , 210.73 91.04 , 210.84 91.37 , 210.71 91.70 , 210.68 92.03 , 211.01 92.37 , 210.91 92.70 , 210.54 93.03 , 210.93 93.37 , 210.93 93.70 , 210.88 94.03 , 211.04 94.36 , 210.70 94.70 , 211.06 95.03 , 210.84 95.36 , 210.68 95.70 , 210.87 96.03 , 210.87 96.36 , 210.82 96.69 , 211.34 97.03 , 211.05 97.36 , 211.14 97.69 , 210.44 98.03 , 210.44 98.36 , 210.83 98.69 , 211.18 99.02 , 210.73 99.36 , 210.73 99.69 , 210.63 100.02 , 210.89 100.36 , 211.35 100.69 , 211.35 101.02 , 211.17 101.35 , 211.44 101.69 , 211.08 102.02 , 210.74 102.35 , 210.68 102.69 , 210.70 103.02 , 211.24 103.35 , 211.60 103.68 , 210.35 104.02 , 210.75 104.35 , 210.65 104.68 , 210.44 105.02 , 210.44 105.35 , 211.37 105.68 , 211.07 106.01 , 210.64 106.35 , 210.44 106.68 , 210.62 107.01 , 210.38 107.35 , 211.24 107.68 , 211.16 108.01 , 211.26 108.35 , 210.72 108.68 , 211.29 109.01 , 211.22 109.34 , 210.60 109.68 , 211.10 110.01 , 210.72 110.34 , 210.49 110.68 , 210.87 111.01 , 210.78 111.34 , 210.50 111.67 , 211.08 112.01 , 210.79 112.34 , 210.58 112.67 , 210.67 113.01 , 210.85 113.34 , 210.88 113.67 , 210.70 114.00 , 210.79 114.34 , 210.79 114.67 , 211.01 115.00 , 210.95 115.34 , 210.90 115.67 , 210.98 116.00 , 210.60 116.33 , 211.03 116.67 , 211.03 117.00 , 210.97 117.33 , 210.77 117.67 , 210.52 118.00 , 210.63 118.33 , 210.96 118.66 , 210.88 119.00 , 211.12 119.33 , 211.20 119.66 , 210.25 120.00 , 210.97 120.33 , 211.10 120.66 , 210.87 120.99 , 210.77 121.33 , 211.09 121.66 , 211.09 121.99 , 211.09 122.33 , 211.63 122.66 , 210.98 122.99 , 210.96 123.32 , 210.48 123.66 , 211.24 123.99 , 211.11 124.32 , 211.11 124.66 , 210.69 124.99 , 210.69 125.32 , 210.84 125.65 , 210.47 125.99 , 211.15 126.32 , 211.16 126.65 , 210.94 126.99 , 210.94 127.32 , 210.68 127.65 , 211.13 127.98 , 210.89 128.32 , 211.19 128.65 , 210.21 128.98 , 210.37 129.32 , 210.37 129.65 , 210.38 129.98 , 210.99 130.31 , 210.99 130.65 , 210.89 130.98 , 210.57 131.31 , 210.52 131.65 , 211.08 131.98 , 210.89 132.31 , 211.29 132.64 , 211.26 132.98 , 210.85 133.31 , 210.68 133.64 , 211.06 133.98 , 210.39 134.31 , 210.85 134.64 , 211.10 134.97 , 210.86 135.31 , 210.88 135.64 , 210.94 135.97 , 211.17 136.31 , 211.34 136.64 , 210.42 136.97 , 211.42 137.30 , 210.46 137.64 , 211.17 137.97 , 211.08 138.30 , 210.54 138.64 , 210.47 138.97 , 211.31 139.30 , 211.07 139.63 , 211.05 139.97 , 211.37 140.30 , 211.37 140.63 , 210.67 140.97 , 211.12 141.30 , 210.98 141.63 , 210.79 141.96 , 210.85 142.30 , 210.76 142.63 , 211.18 142.96 , 210.61 143.30 , 210.82 143.63 , 211.01 143.96 , 210.48 144.29 , 210.36 144.63 , 210.55 144.96 , 210.81 145.29 , 210.95 145.63 , 210.62 145.96 , 211.04 146.29 , 210.75 146.62 , 211.37 146.96 , 210.47 147.29 , 211.40 147.62 , 211.51 147.96 , 210.47 148.29 , 211.41 148.62 , 210.25 148.95 , 210.45 149.29 , 211.47 149.62 , 210.40 149.95 , 210.67 150.29 , 211.45 150.62 , 210.48 150.95 , 210.97 151.28 , 211.38 151.62 , 210.27 151.95 , 210.86 152.28 , 211.16 152.62 , 210.62 152.95 , 211.03 153.28 , 211.13 153.61 , 211.14 153.95 , 211.16 154.28 , 211.45 154.61 , 211.02 154.95 , 211.36 155.28 , 211.36 155.61 , 210.79 155.94 , 210.73 156.28 , 211.08 156.61 , 210.86 156.94 , 210.92 157.28 , 210.98 157.61 , 211.14 157.94 , 210.59 158.27 , 210.70 158.61 , 211.25 158.94 , 210.54 159.27 , 210.79 159.61 , 210.74 159.94 , 211.02 160.27 , 210.74 160.60 , 211.02 160.94 , 211.01 161.27 , 210.62 161.60 , 211.11 161.94 , 210.55 162.27 , 211.14 162.60 , 210.67 162.93 , 210.93 163.27 , 210.87 163.60 , 211.42 163.93 , 211.14 164.27 , 211.12 164.60 , 211.04 164.93 , 211.09 165.26 , 211.00 165.60 , 210.58 165.93 , 210.97 166.26 , 211.05 166.60 , 210.62 166.93 , 210.53 167.26 , 210.30 167.59 , 210.09 167.93 , 210.22 168.26 , 210.98 168.59 , 210.98 168.93 , 211.03 169.26 , 211.08 169.59 , 210.89 169.92 , 210.37 170.26 , 210.55 170.59 , 210.61 170.92 , 211.24 171.26 , 210.53 171.59 , 211.37 171.92 , 210.47 172.25 , 211.32 172.59 , 210.64 172.92 , 210.65 173.25 , 210.88 173.59 , 210.59 173.92 , 210.57 174.25 , 210.87 174.58 , 211.31 174.92 , 210.84 175.25 , 211.03 175.58 , 211.07 175.92 , 211.06 176.25 , 210.86 176.58 , 211.03 176.91 , 210.94 177.25 , 211.06 177.58 , 210.86 177.91 , 210.84 178.25 , 210.83 178.58 , 210.92 178.91 , 210.88 179.24 , 211.18 179.58 , 210.71 179.91 , 210.71 180.24 , 211.33 180.58 , 211.21 180.91 , 211.21 181.24 , 211.44 181.57 , 211.11 181.91 , 211.06 182.24 , 210.57 182.57 , 211.15 182.91 , 210.93 183.24 , 211.14 183.57 , 211.08 183.90 , 211.10 184.24 , 211.15 184.57 , 210.98 184.90 , 210.98 185.24 , 210.52 185.57 , 210.66 185.90 , 211.13 186.24 , 211.08 186.57 , 210.80 186.90 , 211.04 187.23 , 211.04 187.57 , 211.12 187.90 , 211.01 188.23 , 210.94 188.57 , 210.55 188.90 , 210.64 189.23 , 211.07 189.56 , 211.50 189.90 , 211.01 190.23 , 210.86 190.56 , 210.83 190.90 , 210.86 191.23 , 210.81 191.56 , 210.81 191.89 , 210.78 192.23 , 210.72 192.56 , 210.80 192.89 , 210.79 193.23 , 210.49 193.56 , 210.53 193.89 , 210.73 194.22 , 210.83 194.56 , 210.96 194.89 , 211.28 195.22 , 210.89 195.56 , 210.88 195.89 , 211.04 196.22 , 211.06 196.55 , 210.64 196.89 , 210.81 197.22 , 211.09 197.55 , 211.18 197.89 , 211.06 198.22 , 210.82 198.55 , 211.05 198.88 , 210.87 199.22 , 210.93 199.55 , 211.15 199.88 , 210.37 200.22 , 210.78 200.55 , 211.33 200.88 , 210.57 201.21 , 210.81 201.55 , 210.46 201.88 , 210.68 202.21 , 210.89 202.55 , 210.24 202.88 , 211.04 203.21 , 210.81 203.54 , 210.72 203.88 , 211.26 204.21 , 210.95 204.54 , 211.25 204.88 , 211.22 205.21 , 211.02 205.54 , 211.23 205.87 , 210.76 206.21 , 210.72 206.54 , 211.32 206.87 , 210.54 207.21 , 211.17 207.54 , 210.55 207.87 , 210.48 208.20 , 210.36 208.54 , 210.61 208.87 , 210.60 209.20 , 211.37 209.54 , 210.99 209.87 , 210.84 210.20 , 210.94 210.53 , 210.95 210.87 , 211.03 211.20 , 211.20 211.53 , 210.87 211.87 , 210.75 212.20 , 210.76 212.53 , 211.22 212.86 , 211.40 213.20 , 210.30 213.53 , 211.21 213.86 , 211.10 214.20 , 211.19 214.53 , 210.13 214.86 , 210.18 215.19 , 210.88 215.53 , 210.59 215.86 , 210.68 216.19 , 211.08 216.53 , 210.91 216.86 , 210.94 217.19 , 210.91 217.52 , 210.92 217.86 , 210.97 218.19 , 210.92 218.52 , 211.15 218.86 , 210.99 219.19 , 210.83 219.52 , 211.01 219.85 , 211.57 220.19 , 210.16 220.52 , 210.88 220.85 , 210.96 221.19 , 210.85 221.52 , 211.01 221.85 , 210.91 222.18 , 210.97 222.52 , 211.02 222.85 , 211.13 223.18 , 210.83 223.52 , 211.20 223.85 , 210.96 224.18 , 210.75 224.51 , 211.20 224.85 , 211.33 225.18 , 211.28 225.51 , 210.54 225.85 , 210.72 226.18 , 211.06 226.51 , 210.64 226.84 , 210.69 227.18 , 210.53 227.51 , 210.87 227.84 , 210.38 228.18 , 210.61 228.51 , 210.52 228.84 , 211.16 229.17 , 211.33 229.51 , 210.61 229.84 , 210.81 230.17 , 211.23 230.51 , 210.57 230.84 , 211.47 231.17 , 210.41 231.50 , 210.52 231.84 , 210.81 232.17 , 211.08 232.50 , 210.99 232.84 , 211.34 233.17 , 210.72 233.50 , 211.08 233.83 , 210.81 234.17 , 211.01 234.50 , 210.98 234.83 , 211.23 235.17 , 211.08 235.50 , 210.63 235.83 , 211.40 236.16 , 210.87 236.50 , 211.16 236.83 , 211.20 237.16 , 210.74 237.50 , 210.75 237.83 , 210.87 238.16 , 211.04 238.49 , 210.75 238.83 , 210.73 239.16 , 210.65 239.49 , 211.30 239.83 , 210.54 240.16 , 211.15 240.49 , 210.65 240.82 , 210.88 241.16 , 210.38 241.49 , 211.07 241.82 , 211.05 242.16 , 211.19 242.49 , 211.24 242.82 , 211.20 243.15 , 210.85 243.49 , 210.81 243.82 , 211.05 244.15 , 210.82 244.49 , 211.01 244.82 , 210.93 245.15 , 211.02 245.48 , 210.28 245.82 , 211.19 246.15 , 210.34 246.48 , 210.64 246.82 , 210.85 247.15 , 210.82 247.48 , 210.93 247.81 , 211.16 248.15 , 210.93 248.48 , 210.98 248.81 , 210.88 249.15 , 210.77 249.48 , 210.98 249.81 , 210.73 250.14 , 210.58 250.48 , 210.68 250.81 , 211.19 251.14 , 211.30 251.48 , 210.52 251.81 , 210.65 252.14 , 211.03 252.47 , 210.81 252.81 , 210.89 253.14 , 211.27 253.47 , 209.71 253.81 , 209.73 254.14 , 211.46 254.47 , 210.76 254.80 , 210.71 255.14 , 210.79 255.47 , 210.68 255.80 , 210.73 256.14 , 211.16 256.47 , 210.51 256.80 , 211.52 257.13 , 211.35 257.47 , 210.99 257.80 , 210.76 258.13 , 210.83 258.47 , 210.70 258.80 , 211.20 259.13 , 211.01 259.46 , 210.91 259.80 , 211.10 260.13 , 210.84 260.46 , 210.88 260.80 , 210.75 261.13 , 211.31 261.46 , 210.63 261.80 , 210.44 262.13 , 210.50 262.46 , 210.80 262.79 , 210.97 263.13 , 211.35 263.46 , 211.44 263.79 , 211.14 264.13 , 210.79 264.46 , 211.07 264.79 , 210.53 265.12 , 210.46 265.46 , 210.51 265.79 , 211.03 266.12 , 210.64 266.46 , 210.98 266.79 , 210.62 267.12 , 211.22 267.45 , 210.66 267.79 , 211.39 268.12 , 210.70 268.45 , 210.40 268.79 , 211.41 269.12 , 210.81 269.45 , 210.99 269.78 , 210.65 270.12 , 211.06 270.45 , 210.94 270.78 , 211.39 271.12 , 211.01 271.45 , 211.11 271.78 , 210.93 272.11 , 210.85 272.45 , 211.16 272.78 , 211.25 273.11 , 211.22 273.45 , 211.08 273.78 , 211.03 274.11 , 211.08 274.44 , 210.84 274.78 , 210.53 275.11 , 211.17 275.44 , 211.05 275.78 , 211.26 276.11 , 210.58 276.44 , 210.55 276.77 , 211.14 277.11 , 211.34 277.44 , 210.87 277.77 , 210.75 278.11 , 210.69 278.44 , 210.94 278.77 , 211.19 279.10 , 211.30 279.44 , 210.72 279.77 , 210.98 280.10 , 210.61 280.44 , 211.13 280.77 , 210.82 281.10 , 210.76 281.43 , 210.62 281.77 , 211.09 282.10 , 210.40 282.43 , 211.32 282.77 , 210.88 283.10 , 210.87 283.43 , 210.71 283.76 , 211.13 284.10 , 211.28 284.43 , 210.57 284.76 , 210.70 285.10 , 211.10 285.43 , 211.09 285.76 , 211.03 286.09 , 210.45 286.43 , 210.89 286.76 , 210.90 287.09 , 210.84 287.43 , 210.69 287.76 , 210.98 288.09 , 210.78 288.42 , 211.09 288.76 , 210.86 289.09 , 211.41 289.42 , 211.15 289.76 , 210.90 290.09 , 210.74 290.42 , 211.11 290.75 , 211.08 291.09 , 210.65 291.42 , 211.14 291.75 , 210.67 292.09 , 210.92 292.42 , 210.84 292.75 , 210.57 293.08 , 211.06 293.42 , 210.89 293.75 , 211.19 294.08 , 210.78 294.42 , 211.45 294.75 , 210.53 295.08 , 211.11 295.41 , 210.74 295.75 , 210.73 296.08 , 211.02 296.41 , 211.00 296.75 , 210.96 297.08 , 210.94 297.41 , 210.80 297.74 , 210.96 298.08 , 210.97 298.41 , 210.97 298.74 , 210.97 299.08 , 210.97 299.41 , 210.93 299.74 , 210.93 300.07 , 210.93 300.41 , 210.82 300.74 , 210.84 301.07 , 211.10 301.41 , 210.89 301.74 , 210.79 302.07 , 210.89 302.40 , 210.97 302.74 , 210.59 303.07 , 210.90 303.40 , 210.24 303.74 , 211.21 304.07 , 210.83 304.40 , 211.37 304.73 , 210.96 305.07 , 211.03 305.40 , 211.03 305.73 , 210.80 306.07 , 210.78 306.40 , 210.98 306.73 , 210.86 307.06 , 210.82 307.40 , 210.79 307.73 , 210.96 308.06 , 210.26 308.40 , 211.38 308.73 , 210.88 309.06 , 210.97 309.39 , 210.92 309.73 , 210.98 310.06 , 210.79 310.39 , 210.87 310.73 , 210.93 311.06 , 210.73 311.39 , 210.94 311.72 , 210.86 312.06 , 210.75 312.39 , 210.72 312.72 , 210.73 313.06 , 210.59 313.39 , 211.09 313.72 , 210.55 314.05 , 211.33 314.39 , 211.59 314.72 , 210.37 315.05 , 211.18 315.39 , 210.88 315.72 , 210.87 316.05 , 210.52 316.38 , 211.24 316.72 , 210.65 317.05 , 210.63 317.38 , 210.74 317.72 , 211.11 318.05 , 211.15 318.38 , 211.03 318.71 , 210.41 319.05 , 210.35 319.38 , 210.69 319.71 , 210.70 320.05 , 211.20 320.38 , 210.29 320.71 , 211.31 321.04 , 210.42 321.38 , 210.46 321.71 , 210.56 322.04 , 210.44 322.38 , 210.44 322.71 , 210.44 323.04 , 211.08 323.37 , 211.10 323.71 , 211.11 324.04 , 211.11 324.37 , 211.11 324.71 , 211.11 325.04 , 211.07 325.37 , 211.07 325.70 , 211.07 326.04 , 211.18 326.37 , 210.50 326.70 , 210.69 327.04 , 210.71 327.37 , 211.28 327.70 , 211.10 328.03 , 210.84 328.37 , 210.99 328.70 , 210.84 329.03 , 211.13 329.37 , 210.52 329.70 , 210.69 330.03 , 211.01 330.36 , 211.44 330.70 , 210.46 331.03 , 211.18 331.36 , 210.71 331.70 , 210.92 332.03 , 210.69 332.36 , 210.82 332.69 , 211.12 333.03 , 210.96 333.36 , 210.64 333.69 , 210.90 334.03 , 211.06 334.36 , 210.63 334.69 , 210.93 335.02 , 210.78 335.36 , 210.99 335.69 , 210.70 336.02 , 211.06 336.36 , 210.78 336.69 , 210.93 337.02 , 211.29 337.35 , 211.20 337.69 , 210.51 338.02 , 210.88 338.35 , 211.08 338.69 , 210.75 339.02 , 210.89 339.35 , 210.57 339.69 , 211.20 340.02 , 210.41 340.35 , 210.97 340.68 , 210.67 341.02 , 210.89 341.35 , 211.09 341.68 , 210.71 342.02 , 210.75 342.35 , 211.41 342.68 , 210.53 343.01 , 210.79 343.35 , 210.91 343.68 , 210.90 344.01 , 211.20 344.35 , 210.87 344.68 , 210.71 345.01 , 210.71 345.34 , 211.37 345.68 , 211.38 346.01 , 210.91 346.34 , 211.01 346.68 , 210.63 347.01 , 210.93 347.34 , 210.88 347.67 , 210.72 348.01 , 211.04 348.34 , 210.83 348.67 , 210.59 349.01 , 210.66 349.34 , 210.70 349.67 , 210.95 350.00 , 211.08 350.34 , 210.96 350.67 , 210.47 351.00 , 210.47 351.34 , 210.47 351.67 , 210.22 352.00 , 210.97 352.33 , 211.11 352.67 , 211.46 353.00 , 211.28 353.33 , 211.05 353.67 , 211.12 354.00 , 211.00 354.33 , 211.13 354.66 , 210.94 355.00 , 210.76 355.33 , 210.94 355.66 , 210.82 356.00 , 210.95 356.33 , 211.18 356.66 , 211.29 356.99 , 210.64 357.33 , 211.51 357.66 , 211.51 357.99 , 211.22 358.33 , 211.37 358.66 , 210.43 358.99 , 211.01 359.32 , 210.81 359.66 , 210.47 359.99 , 211.23 360.32 , 210.71 360.66 , 211.11 360.99 , 211.01 361.32 , 210.88 361.65 , 210.85 361.99 , 210.88 362.32 , 210.50 362.65 , 210.29 362.99 , 211.21 " style="stroke-width:1;stroke:#542788;fill:#000000;stroke-opacity:1.000000;fill-opacity:0.000000"/>
</svg>
