<?xml version="1.0" encoding="UTF-8"?>
<svg xmlns="http://www.w3.org/2000/svg" width="385.44" height="240.90" viewBox="0,0,385.44,240.90">
<desc>R SVG Plot!</desc>
<rect width="100%" height="100%" style="fill:#FFFFFF"/>
<line x1="30.12" y1="219.23" x2="363.65" y2="219.23" style="stroke-width:1;stroke:#000000;fill:#000000;stroke-opacity:1.000000;fill-opacity:0.000000"/>
<line x1="30.12" y1="219.23" x2="30.12" y2="223.27" style="stroke-width:1;stroke:#000000;fill:#000000;stroke-opacity:1.000000;fill-opacity:0.000000"/>
<line x1="96.83" y1="219.23" x2="96.83" y2="223.27" style="stroke-width:1;stroke:#000000;fill:#000000;stroke-opacity:1.000000;fill-opacity:0.000000"/>
<line x1="163.53" y1="219.23" x2="163.53" y2="223.27" style="stroke-width:1;stroke:#000000;fill:#000000;stroke-opacity:1.000000;fill-opacity:0.000000"/>
<line x1="230.24" y1="219.23" x2="230.24" y2="223.27" style="stroke-width:1;stroke:#000000;fill:#000000;stroke-opacity:1.000000;fill-opacity:0.000000"/>
<line x1="296.95" y1="219.23" x2="296.95" y2="223.27" style="stroke-width:1;stroke:#000000;fill:#000000;stroke-opacity:1.000000;fill-opacity:0.000000"/>
<line x1="363.65" y1="219.23" x2="363.65" y2="223.27" style="stroke-width:1;stroke:#000000;fill:#000000;stroke-opacity:1.000000;fill-opacity:0.000000"/>
<text transform="translate(21.12,231.73)"  style="font-size:12" >500</text>
<text transform="translate(86.93,231.73)"  style="font-size:12" >600</text>
<text transform="translate(153.63,231.73)"  style="font-size:12" >700</text>
<text transform="translate(220.34,231.73)"  style="font-size:12" >800</text>
<text transform="translate(287.05,231.73)"  style="font-size:12" >900</text>
<text transform="translate(350.45,231.73)"  style="font-size:12" >1000</text>
<line x1="17.50" y1="201.44" x2="17.50" y2="49.56" style="stroke-width:1;stroke:#000000;fill:#000000;stroke-opacity:1.000000;fill-opacity:0.000000"/>
<line x1="17.50" y1="201.44" x2="13.47" y2="201.44" style="stroke-width:1;stroke:#000000;fill:#000000;stroke-opacity:1.000000;fill-opacity:0.000000"/>
<line x1="17.50" y1="163.47" x2="13.47" y2="163.47" style="stroke-width:1;stroke:#000000;fill:#000000;stroke-opacity:1.000000;fill-opacity:0.000000"/>
<line x1="17.50" y1="125.50" x2="13.47" y2="125.50" style="stroke-width:1;stroke:#000000;fill:#000000;stroke-opacity:1.000000;fill-opacity:0.000000"/>
<line x1="17.50" y1="87.53" x2="13.47" y2="87.53" style="stroke-width:1;stroke:#000000;fill:#000000;stroke-opacity:1.000000;fill-opacity:0.000000"/>
<line x1="17.50" y1="49.56" x2="13.47" y2="49.56" style="stroke-width:1;stroke:#000000;fill:#000000;stroke-opacity:1.000000;fill-opacity:0.000000"/>
<text transform="translate(13.33,213.18) rotate(-90)"  style="font-size:12" >0.38</text>
<text transform="translate(13.33,175.21) rotate(-90)"  style="font-size:12" >0.40</text>
<text transform="translate(13.33,137.24) rotate(-90)"  style="font-size:12" >0.42</text>
<text transform="translate(13.33,99.26) rotate(-90)"  style="font-size:12" >0.44</text>
<text transform="translate(13.33,61.29) rotate(-90)"  style="font-size:12" >0.46</text>
<polyline points="17.50 , 17.50 17.50 , 219.23 376.27 , 219.23 " style="stroke-width:1;stroke:#000000;fill:#000000;stroke-opacity:1.000000;fill-opacity:0.000000"/>
<text transform="translate(148.57,14.75)"  style="font-size:14" >Trace of  sigma</text>
<text transform="translate(126.85,240.07)"  style="font-size:12" >Iterations (without warmup)</text>
<polyline points="30.79 , 127.06 31.45 , 143.46 32.12 , 195.75 32.79 , 160.10 33.46 , 133.60 34.12 , 137.75 34.79 , 137.83 35.46 , 151.18 36.12 , 103.98 36.79 , 117.29 37.46 , 101.02 38.13 , 142.71 38.79 , 123.44 39.46 , 144.16 40.13 , 72.34 40.79 , 46.43 41.46 , 76.83 42.13 , 68.46 42.80 , 65.64 43.46 , 106.23 44.13 , 99.40 44.80 , 105.68 45.46 , 108.46 46.13 , 132.32 46.80 , 96.25 47.46 , 91.95 48.13 , 130.04 48.80 , 124.73 49.47 , 117.30 50.13 , 132.03 50.80 , 130.79 51.47 , 149.51 52.13 , 120.70 52.80 , 125.35 53.47 , 133.96 54.14 , 109.56 54.80 , 132.20 55.47 , 121.22 56.14 , 100.62 56.80 , 123.76 57.47 , 127.80 58.14 , 116.27 58.80 , 112.45 59.47 , 119.08 60.14 , 114.09 60.81 , 178.19 61.47 , 172.36 62.14 , 122.44 62.81 , 121.82 63.47 , 103.00 64.14 , 166.21 64.81 , 93.74 65.48 , 104.96 66.14 , 141.85 66.81 , 136.50 67.48 , 134.60 68.14 , 129.04 68.81 , 138.71 69.48 , 139.39 70.14 , 131.63 70.81 , 140.38 71.48 , 150.05 72.15 , 158.00 72.81 , 82.52 73.48 , 146.60 74.15 , 127.64 74.81 , 136.07 75.48 , 90.93 76.15 , 97.31 76.82 , 86.47 77.48 , 144.30 78.15 , 83.73 78.82 , 157.01 79.48 , 91.33 80.15 , 94.87 80.82 , 157.47 81.48 , 126.48 82.15 , 127.18 82.82 , 148.37 83.49 , 81.52 84.15 , 130.53 84.82 , 160.75 85.49 , 171.38 86.15 , 140.78 86.82 , 144.13 87.49 , 135.28 88.16 , 145.03 88.82 , 174.88 89.49 , 177.00 90.16 , 102.21 90.82 , 93.68 91.49 , 166.13 92.16 , 132.77 92.82 , 144.39 93.49 , 108.25 94.16 , 103.93 94.83 , 144.95 95.49 , 139.49 96.16 , 121.57 96.83 , 132.92 97.49 , 126.71 98.16 , 93.15 98.83 , 111.25 99.50 , 107.99 100.16 , 79.63 100.83 , 66.43 101.50 , 59.97 102.16 , 194.93 102.83 , 116.21 103.50 , 108.73 104.16 , 100.17 104.83 , 76.34 105.50 , 91.41 106.17 , 143.60 106.83 , 85.21 107.50 , 174.05 108.17 , 88.96 108.83 , 86.71 109.50 , 177.84 110.17 , 141.07 110.84 , 122.69 111.50 , 117.31 112.17 , 110.58 112.84 , 132.36 113.50 , 73.91 114.17 , 84.77 114.84 , 157.43 115.50 , 151.28 116.17 , 126.99 116.84 , 100.36 117.51 , 130.37 118.17 , 130.53 118.84 , 127.40 119.51 , 127.15 120.17 , 163.91 120.84 , 126.22 121.51 , 135.03 122.18 , 83.45 122.84 , 130.15 123.51 , 91.75 124.18 , 112.29 124.84 , 133.58 125.51 , 104.47 126.18 , 111.43 126.85 , 94.65 127.51 , 151.83 128.18 , 142.51 128.85 , 178.50 129.51 , 158.42 130.18 , 81.33 130.85 , 178.66 131.51 , 155.52 132.18 , 148.49 132.85 , 110.60 133.52 , 131.39 134.18 , 146.85 134.85 , 135.91 135.52 , 142.69 136.18 , 126.07 136.85 , 160.32 137.52 , 160.43 138.19 , 126.84 138.85 , 102.49 139.52 , 143.43 140.19 , 122.49 140.85 , 126.42 141.52 , 111.17 142.19 , 137.15 142.85 , 111.43 143.52 , 100.74 144.19 , 103.54 144.86 , 109.66 145.52 , 114.78 146.19 , 134.84 146.86 , 91.17 147.52 , 101.44 148.19 , 191.95 148.86 , 188.00 149.53 , 132.39 150.19 , 139.83 150.86 , 128.18 151.53 , 155.92 152.19 , 128.43 152.86 , 112.71 153.53 , 145.90 154.19 , 154.15 154.86 , 161.85 155.53 , 166.55 156.20 , 107.65 156.86 , 144.50 157.53 , 132.64 158.20 , 163.61 158.86 , 87.22 159.53 , 140.13 160.20 , 115.06 160.87 , 124.35 161.53 , 127.78 162.20 , 83.15 162.87 , 85.38 163.53 , 101.57 164.20 , 69.80 164.87 , 71.52 165.53 , 88.62 166.20 , 124.82 166.87 , 111.85 167.54 , 80.28 168.20 , 91.71 168.87 , 96.88 169.54 , 104.78 170.20 , 154.86 170.87 , 136.80 171.54 , 130.52 172.21 , 134.54 172.87 , 110.32 173.54 , 116.45 174.21 , 158.40 174.87 , 131.95 175.54 , 118.24 176.21 , 123.53 176.87 , 108.07 177.54 , 133.96 178.21 , 144.23 178.88 , 155.59 179.54 , 105.02 180.21 , 130.60 180.88 , 120.20 181.54 , 148.61 182.21 , 110.44 182.88 , 114.88 183.55 , 150.46 184.21 , 105.74 184.88 , 160.54 185.55 , 142.11 186.21 , 156.95 186.88 , 78.32 187.55 , 117.24 188.21 , 113.27 188.88 , 150.02 189.55 , 106.05 190.22 , 119.11 190.88 , 127.05 191.55 , 125.24 192.22 , 138.66 192.88 , 118.65 193.55 , 138.16 194.22 , 108.47 194.89 , 135.26 195.55 , 176.98 196.22 , 167.35 196.89 , 158.49 197.55 , 161.15 198.22 , 158.44 198.89 , 145.46 199.55 , 120.27 200.22 , 115.38 200.89 , 94.85 201.56 , 167.90 202.22 , 123.17 202.89 , 154.08 203.56 , 161.14 204.22 , 147.99 204.89 , 134.59 205.56 , 167.90 206.23 , 104.42 206.89 , 127.70 207.56 , 133.53 208.23 , 103.75 208.89 , 158.55 209.56 , 136.39 210.23 , 166.85 210.89 , 102.12 211.56 , 100.01 212.23 , 145.05 212.90 , 145.98 213.56 , 142.83 214.23 , 86.78 214.90 , 61.33 215.56 , 122.43 216.23 , 120.82 216.90 , 131.34 217.57 , 164.26 218.23 , 181.92 218.90 , 68.50 219.57 , 180.61 220.23 , 161.37 220.90 , 165.61 221.57 , 130.62 222.24 , 117.22 222.90 , 137.70 223.57 , 165.12 224.24 , 128.71 224.90 , 107.02 225.57 , 178.29 226.24 , 114.80 226.90 , 128.05 227.57 , 75.00 228.24 , 84.70 228.91 , 98.14 229.57 , 156.92 230.24 , 84.87 230.91 , 159.28 231.57 , 90.00 232.24 , 167.19 232.91 , 160.03 233.58 , 164.55 234.24 , 106.13 234.91 , 99.50 235.58 , 143.07 236.24 , 118.10 236.91 , 99.63 237.58 , 141.60 238.24 , 121.17 238.91 , 132.31 239.58 , 136.33 240.25 , 146.32 240.91 , 100.33 241.58 , 117.37 242.25 , 126.15 242.91 , 139.79 243.58 , 138.17 244.25 , 108.36 244.92 , 144.17 245.58 , 106.36 246.25 , 128.66 246.92 , 120.19 247.58 , 91.64 248.25 , 134.99 248.92 , 125.76 249.58 , 112.20 250.25 , 105.64 250.92 , 131.19 251.59 , 128.34 252.25 , 97.04 252.92 , 165.91 253.59 , 64.30 254.25 , 88.46 254.92 , 191.03 255.59 , 121.51 256.26 , 128.12 256.92 , 83.52 257.59 , 115.97 258.26 , 108.09 258.92 , 117.37 259.59 , 126.28 260.26 , 128.32 260.92 , 120.71 261.59 , 175.96 262.26 , 86.32 262.93 , 153.66 263.59 , 76.38 264.26 , 89.69 264.93 , 151.79 265.59 , 89.48 266.26 , 133.37 266.93 , 135.52 267.60 , 118.19 268.26 , 135.79 268.93 , 99.96 269.60 , 102.67 270.26 , 154.35 270.93 , 112.62 271.60 , 125.58 272.26 , 108.19 272.93 , 111.33 273.60 , 181.04 274.27 , 98.64 274.93 , 132.68 275.60 , 131.85 276.27 , 134.19 276.93 , 127.20 277.60 , 143.46 278.27 , 131.35 278.94 , 116.68 279.60 , 105.57 280.27 , 108.98 280.94 , 153.42 281.60 , 134.14 282.27 , 146.86 282.94 , 82.21 283.60 , 176.24 284.27 , 94.38 284.94 , 134.38 285.61 , 129.69 286.27 , 149.28 286.94 , 187.25 287.61 , 56.22 288.27 , 172.78 288.94 , 121.63 289.61 , 114.93 290.28 , 81.08 290.94 , 89.02 291.61 , 152.62 292.28 , 91.47 292.94 , 168.93 293.61 , 109.73 294.28 , 149.10 294.94 , 120.70 295.61 , 120.36 296.28 , 95.54 296.95 , 169.92 297.61 , 69.72 298.28 , 156.02 298.95 , 89.63 299.61 , 150.97 300.28 , 65.18 300.95 , 167.66 301.62 , 104.25 302.28 , 106.27 302.95 , 199.10 303.62 , 190.68 304.28 , 127.45 304.95 , 121.95 305.62 , 136.42 306.29 , 187.94 306.95 , 99.39 307.62 , 146.82 308.29 , 84.56 308.95 , 86.54 309.62 , 153.12 310.29 , 100.86 310.95 , 114.25 311.62 , 115.24 312.29 , 151.50 312.96 , 129.47 313.62 , 99.49 314.29 , 119.33 314.96 , 121.73 315.62 , 113.12 316.29 , 144.38 316.96 , 142.63 317.63 , 102.61 318.29 , 134.28 318.96 , 129.20 319.63 , 130.90 320.29 , 136.14 320.96 , 145.44 321.63 , 114.41 322.29 , 125.96 322.96 , 76.93 323.63 , 150.78 324.30 , 136.22 324.96 , 124.68 325.63 , 155.30 326.30 , 133.81 326.96 , 92.78 327.63 , 140.86 328.30 , 143.84 328.97 , 185.84 329.63 , 81.94 330.30 , 89.85 330.97 , 157.20 331.63 , 140.98 332.30 , 112.39 332.97 , 137.68 333.63 , 146.33 334.30 , 95.04 334.97 , 90.04 335.64 , 161.45 336.30 , 132.05 336.97 , 115.92 337.64 , 128.30 338.30 , 127.25 338.97 , 112.54 339.64 , 87.76 340.31 , 107.45 340.97 , 119.86 341.64 , 103.27 342.31 , 147.43 342.97 , 110.31 343.64 , 124.53 344.31 , 131.84 344.97 , 128.09 345.64 , 131.07 346.31 , 133.32 346.98 , 117.20 347.64 , 157.97 348.31 , 117.76 348.98 , 144.41 349.64 , 134.07 350.31 , 149.72 350.98 , 151.32 351.65 , 138.04 352.31 , 114.17 352.98 , 108.66 353.65 , 139.78 354.31 , 162.70 354.98 , 137.72 355.65 , 135.22 356.31 , 80.56 356.98 , 134.41 357.65 , 140.54 358.32 , 56.19 358.98 , 205.43 359.65 , 157.11 360.32 , 130.95 360.98 , 121.31 361.65 , 146.68 362.32 , 116.21 362.99 , 134.34 " style="stroke-width:1;stroke:#E66101;fill:#000000;stroke-opacity:1.000000;fill-opacity:0.000000"/>
<polyline points="30.79 , 107.83 31.45 , 115.33 32.12 , 141.48 32.79 , 131.24 33.46 , 137.68 34.12 , 100.93 34.79 , 105.27 35.46 , 101.44 36.12 , 102.02 36.79 , 126.43 37.46 , 134.30 38.13 , 149.42 38.79 , 124.16 39.46 , 131.00 40.13 , 131.00 40.79 , 132.79 41.46 , 134.19 42.13 , 151.41 42.80 , 166.68 43.46 , 54.83 44.13 , 139.32 44.80 , 85.84 45.46 , 145.51 46.13 , 165.20 46.80 , 96.23 47.46 , 162.82 48.13 , 108.76 48.80 , 143.89 49.47 , 126.83 50.13 , 165.02 50.80 , 157.74 51.47 , 125.25 52.13 , 102.90 52.80 , 129.50 53.47 , 63.92 54.14 , 152.52 54.80 , 96.98 55.47 , 164.91 56.14 , 81.82 56.80 , 153.10 57.47 , 115.48 58.14 , 129.69 58.80 , 117.95 59.47 , 108.80 60.14 , 138.65 60.81 , 150.97 61.47 , 126.03 62.14 , 124.52 62.81 , 158.35 63.47 , 164.40 64.14 , 129.04 64.81 , 138.66 65.48 , 94.54 66.14 , 68.64 66.81 , 86.45 67.48 , 124.41 68.14 , 140.35 68.81 , 126.61 69.48 , 139.56 70.14 , 112.22 70.81 , 147.22 71.48 , 126.43 72.15 , 126.55 72.81 , 139.21 73.48 , 149.97 74.15 , 163.47 74.81 , 202.52 75.48 , 122.39 76.15 , 136.02 76.82 , 178.44 77.48 , 102.53 78.15 , 158.05 78.82 , 123.79 79.48 , 130.61 80.15 , 81.36 80.82 , 80.62 81.48 , 71.30 82.15 , 94.46 82.82 , 147.36 83.49 , 113.79 84.15 , 113.59 84.82 , 160.35 85.49 , 107.08 86.15 , 127.34 86.82 , 99.83 87.49 , 96.64 88.16 , 116.88 88.82 , 132.12 89.49 , 104.59 90.16 , 154.70 90.82 , 110.08 91.49 , 108.81 92.16 , 115.09 92.82 , 126.90 93.49 , 91.98 94.16 , 105.29 94.83 , 120.44 95.49 , 124.73 96.16 , 170.87 96.83 , 124.74 97.49 , 158.75 98.16 , 192.92 98.83 , 168.42 99.50 , 134.50 100.16 , 124.28 100.83 , 124.98 101.50 , 94.62 102.16 , 161.09 102.83 , 95.26 103.50 , 171.13 104.16 , 74.18 104.83 , 179.08 105.50 , 133.27 106.17 , 139.30 106.83 , 117.85 107.50 , 137.91 108.17 , 167.89 108.83 , 106.98 109.50 , 131.08 110.17 , 137.08 110.84 , 98.14 111.50 , 148.16 112.17 , 161.71 112.84 , 102.39 113.50 , 130.30 114.17 , 127.09 114.84 , 127.09 115.50 , 104.80 116.17 , 103.77 116.84 , 153.94 117.51 , 163.53 118.17 , 172.93 118.84 , 169.22 119.51 , 154.09 120.17 , 151.51 120.84 , 140.01 121.51 , 138.01 122.18 , 136.33 122.84 , 116.53 123.51 , 138.81 124.18 , 119.22 124.84 , 94.64 125.51 , 126.50 126.18 , 116.66 126.85 , 147.04 127.51 , 135.68 128.18 , 105.74 128.85 , 131.83 129.51 , 136.59 130.18 , 89.83 130.85 , 135.01 131.51 , 53.93 132.18 , 148.55 132.85 , 127.22 133.52 , 101.11 134.18 , 147.43 134.85 , 137.37 135.52 , 99.21 136.18 , 123.67 136.85 , 104.25 137.52 , 105.51 138.19 , 156.84 138.85 , 76.52 139.52 , 132.69 140.19 , 175.31 140.85 , 97.72 141.52 , 141.59 142.19 , 142.14 142.85 , 136.92 143.52 , 107.70 144.19 , 128.66 144.86 , 128.25 145.52 , 132.68 146.19 , 123.28 146.86 , 138.00 147.52 , 60.57 148.19 , 179.81 148.86 , 62.43 149.53 , 119.76 150.19 , 139.89 150.86 , 105.02 151.53 , 100.66 152.19 , 147.58 152.86 , 99.60 153.53 , 93.98 154.19 , 150.33 154.86 , 143.83 155.53 , 111.51 156.20 , 109.03 156.86 , 109.95 157.53 , 145.86 158.20 , 125.70 158.86 , 174.15 159.53 , 101.16 160.20 , 151.62 160.87 , 156.47 161.53 , 128.85 162.20 , 107.12 162.87 , 140.58 163.53 , 129.02 164.20 , 137.53 164.87 , 41.80 165.53 , 149.46 166.20 , 133.22 166.87 , 117.84 167.54 , 119.10 168.20 , 125.45 168.87 , 148.54 169.54 , 123.18 170.20 , 134.81 170.87 , 162.52 171.54 , 99.16 172.21 , 161.94 172.87 , 111.27 173.54 , 124.44 174.21 , 80.71 174.87 , 80.09 175.54 , 74.18 176.21 , 168.41 176.87 , 79.73 177.54 , 123.87 178.21 , 113.15 178.88 , 96.27 179.54 , 108.12 180.21 , 142.53 180.88 , 114.95 181.54 , 134.66 182.21 , 123.96 182.88 , 122.16 183.55 , 158.35 184.21 , 121.01 184.88 , 129.43 185.55 , 132.47 186.21 , 117.23 186.88 , 129.17 187.55 , 103.00 188.21 , 135.90 188.88 , 116.54 189.55 , 129.72 190.22 , 151.74 190.88 , 130.06 191.55 , 114.55 192.22 , 140.95 192.88 , 124.85 193.55 , 152.82 194.22 , 98.27 194.89 , 122.36 195.55 , 164.49 196.22 , 78.47 196.89 , 125.66 197.55 , 140.24 198.22 , 132.13 198.89 , 138.97 199.55 , 121.40 200.22 , 127.69 200.89 , 97.09 201.56 , 192.23 202.22 , 175.68 202.89 , 77.07 203.56 , 140.14 204.22 , 84.84 204.89 , 162.54 205.56 , 77.39 206.23 , 171.38 206.89 , 93.80 207.56 , 153.16 208.23 , 107.08 208.89 , 185.73 209.56 , 65.33 210.23 , 142.67 210.89 , 100.59 211.56 , 130.03 212.23 , 144.81 212.90 , 138.04 213.56 , 120.64 214.23 , 102.04 214.90 , 127.34 215.56 , 122.28 216.23 , 157.66 216.90 , 143.70 217.57 , 144.99 218.23 , 108.85 218.90 , 161.84 219.57 , 90.42 220.23 , 143.00 220.90 , 141.42 221.57 , 99.51 222.24 , 147.36 222.90 , 146.45 223.57 , 146.19 224.24 , 152.87 224.90 , 161.19 225.57 , 94.81 226.24 , 76.14 226.90 , 68.10 227.57 , 173.52 228.24 , 92.63 228.91 , 159.74 229.57 , 139.49 230.24 , 149.83 230.91 , 84.01 231.57 , 96.61 232.24 , 155.19 232.91 , 150.06 233.58 , 106.46 234.24 , 146.26 234.91 , 148.87 235.58 , 96.02 236.24 , 106.57 236.91 , 97.30 237.58 , 156.13 238.24 , 127.36 238.91 , 127.32 239.58 , 111.99 240.25 , 161.55 240.91 , 141.50 241.58 , 122.81 242.25 , 127.75 242.91 , 106.46 243.58 , 139.70 244.25 , 82.07 244.92 , 126.68 245.58 , 109.07 246.25 , 167.12 246.92 , 124.31 247.58 , 81.25 248.25 , 126.71 248.92 , 138.95 249.58 , 139.70 250.25 , 121.90 250.92 , 109.56 251.59 , 132.40 252.25 , 86.42 252.92 , 173.03 253.59 , 156.21 254.25 , 125.00 254.92 , 145.30 255.59 , 115.98 256.26 , 139.20 256.92 , 117.45 257.59 , 177.30 258.26 , 60.94 258.92 , 114.99 259.59 , 111.24 260.26 , 121.50 260.92 , 79.22 261.59 , 101.15 262.26 , 155.42 262.93 , 150.61 263.59 , 110.56 264.26 , 85.17 264.93 , 134.62 265.59 , 132.69 266.26 , 125.57 266.93 , 99.48 267.60 , 137.63 268.26 , 134.63 268.93 , 143.37 269.60 , 141.17 270.26 , 144.71 270.93 , 104.66 271.60 , 141.47 272.26 , 117.93 272.93 , 88.74 273.60 , 153.58 274.27 , 129.42 274.93 , 126.76 275.60 , 121.94 276.27 , 130.37 276.93 , 156.40 277.60 , 119.53 278.27 , 115.57 278.94 , 108.40 279.60 , 183.51 280.27 , 174.03 280.94 , 102.38 281.60 , 146.56 282.27 , 126.22 282.94 , 164.93 283.60 , 109.65 284.27 , 126.12 284.94 , 122.28 285.61 , 116.63 286.27 , 143.94 286.94 , 144.48 287.61 , 105.03 288.27 , 109.77 288.94 , 166.21 289.61 , 105.49 290.28 , 98.08 290.94 , 159.27 291.61 , 163.71 292.28 , 94.29 292.94 , 118.34 293.61 , 142.71 294.28 , 113.46 294.94 , 131.91 295.61 , 134.95 296.28 , 96.70 296.95 , 152.56 297.61 , 162.34 298.28 , 91.11 298.95 , 138.25 299.61 , 106.55 300.28 , 119.15 300.95 , 134.24 301.62 , 85.40 302.28 , 78.73 302.95 , 122.87 303.62 , 108.13 304.28 , 136.19 304.95 , 118.59 305.62 , 129.39 306.29 , 150.59 306.95 , 98.56 307.62 , 167.16 308.29 , 112.74 308.95 , 148.06 309.62 , 110.30 310.29 , 157.64 310.95 , 125.68 311.62 , 148.50 312.29 , 122.58 312.96 , 89.10 313.62 , 129.14 314.29 , 146.79 314.96 , 127.75 315.62 , 162.72 316.29 , 180.11 316.96 , 165.44 317.63 , 145.54 318.29 , 99.41 318.96 , 89.71 319.63 , 146.67 320.29 , 101.64 320.96 , 138.61 321.63 , 166.39 322.29 , 138.29 322.96 , 138.10 323.63 , 84.71 324.30 , 139.49 324.96 , 137.82 325.63 , 138.70 326.30 , 92.13 326.96 , 97.36 327.63 , 81.23 328.30 , 100.81 328.97 , 82.93 329.63 , 96.78 330.30 , 130.59 330.97 , 133.12 331.63 , 103.85 332.30 , 137.98 332.97 , 130.30 333.63 , 102.29 334.30 , 155.86 334.97 , 129.33 335.64 , 129.83 336.30 , 129.69 336.97 , 109.37 337.64 , 139.10 338.30 , 89.82 338.97 , 124.14 339.64 , 135.95 340.31 , 125.68 340.97 , 126.69 341.64 , 138.72 342.31 , 124.56 342.97 , 126.89 343.64 , 135.05 344.31 , 150.27 344.97 , 110.99 345.64 , 124.86 346.31 , 140.74 346.98 , 110.40 347.64 , 122.37 348.31 , 130.62 348.98 , 133.02 349.64 , 156.87 350.31 , 150.83 350.98 , 141.87 351.65 , 128.44 352.31 , 109.98 352.98 , 108.03 353.65 , 138.18 354.31 , 152.09 354.98 , 130.24 355.65 , 102.03 356.31 , 148.52 356.98 , 110.70 357.65 , 81.68 358.32 , 155.06 358.98 , 102.68 359.65 , 147.89 360.32 , 144.11 360.98 , 167.65 361.65 , 102.91 362.32 , 137.57 362.99 , 113.00 " style="stroke-width:1;stroke:#998EC3;fill:#000000;stroke-opacity:1.000000;fill-opacity:0.000000"/>
<polyline points="30.79 , 118.83 31.45 , 147.59 32.12 , 151.05 32.79 , 149.91 33.46 , 158.13 34.12 , 86.59 34.79 , 131.95 35.46 , 102.29 36.12 , 143.86 36.79 , 96.03 37.46 , 105.65 38.13 , 137.57 38.79 , 127.56 39.46 , 119.50 40.13 , 119.43 40.79 , 125.61 41.46 , 116.48 42.13 , 142.01 42.80 , 97.64 43.46 , 120.70 44.13 , 125.47 44.80 , 145.96 45.46 , 120.73 46.13 , 120.73 46.80 , 111.19 47.46 , 100.73 48.13 , 141.81 48.80 , 174.55 49.47 , 134.13 50.13 , 120.99 50.80 , 133.87 51.47 , 123.30 52.13 , 123.61 52.80 , 100.93 53.47 , 107.62 54.14 , 138.40 54.80 , 93.90 55.47 , 159.34 56.14 , 99.37 56.80 , 115.19 57.47 , 151.71 58.14 , 139.09 58.80 , 137.98 59.47 , 75.48 60.14 , 78.78 60.81 , 106.26 61.47 , 95.94 62.14 , 96.83 62.81 , 158.22 63.47 , 50.13 64.14 , 106.66 64.81 , 112.68 65.48 , 112.62 66.14 , 119.44 66.81 , 141.37 67.48 , 140.84 68.14 , 147.04 68.81 , 142.47 69.48 , 136.22 70.14 , 132.29 70.81 , 124.11 71.48 , 119.50 72.15 , 98.83 72.81 , 98.02 73.48 , 126.98 74.15 , 122.92 74.81 , 130.87 75.48 , 161.15 76.15 , 153.57 76.82 , 98.45 77.48 , 114.66 78.15 , 116.22 78.82 , 118.47 79.48 , 133.23 80.15 , 137.07 80.82 , 139.80 81.48 , 109.50 82.15 , 139.89 82.82 , 139.55 83.49 , 140.52 84.15 , 109.54 84.82 , 109.54 85.49 , 150.02 86.15 , 150.02 86.82 , 133.26 87.49 , 166.24 88.16 , 84.12 88.82 , 76.73 89.49 , 175.54 90.16 , 135.79 90.82 , 160.75 91.49 , 148.14 92.16 , 159.56 92.82 , 101.27 93.49 , 107.32 94.16 , 128.70 94.83 , 138.92 95.49 , 149.76 96.16 , 152.80 96.83 , 152.80 97.49 , 152.80 98.16 , 149.28 98.83 , 149.28 99.50 , 149.28 100.16 , 149.28 100.83 , 147.44 101.50 , 147.44 102.16 , 125.69 102.83 , 107.56 103.50 , 130.61 104.16 , 116.77 104.83 , 111.79 105.50 , 134.68 106.17 , 140.19 106.83 , 140.19 107.50 , 140.19 108.17 , 60.37 108.83 , 62.73 109.50 , 136.12 110.17 , 149.62 110.84 , 163.52 111.50 , 98.54 112.17 , 99.07 112.84 , 152.49 113.50 , 135.84 114.17 , 120.06 114.84 , 126.24 115.50 , 136.31 116.17 , 141.00 116.84 , 160.38 117.51 , 132.53 118.17 , 96.63 118.84 , 130.84 119.51 , 110.26 120.17 , 99.08 120.84 , 117.59 121.51 , 161.37 122.18 , 159.94 122.84 , 161.86 123.51 , 151.70 124.18 , 162.47 124.84 , 130.29 125.51 , 158.74 126.18 , 139.15 126.85 , 103.41 127.51 , 110.38 128.18 , 126.32 128.85 , 118.79 129.51 , 135.90 130.18 , 137.09 130.85 , 62.93 131.51 , 74.85 132.18 , 65.58 132.85 , 81.79 133.52 , 87.43 134.18 , 93.28 134.85 , 102.58 135.52 , 97.67 136.18 , 108.34 136.85 , 123.73 137.52 , 117.00 138.19 , 117.00 138.85 , 119.67 139.52 , 135.81 140.19 , 119.81 140.85 , 145.06 141.52 , 165.81 142.19 , 187.14 142.85 , 178.43 143.52 , 129.81 144.19 , 138.39 144.86 , 77.50 145.52 , 186.69 146.19 , 181.64 146.86 , 161.89 147.52 , 162.95 148.19 , 151.61 148.86 , 139.75 149.53 , 139.75 150.19 , 125.15 150.86 , 118.80 151.53 , 130.66 152.19 , 114.85 152.86 , 104.78 153.53 , 102.80 154.19 , 136.82 154.86 , 108.42 155.53 , 101.11 156.20 , 139.02 156.86 , 149.67 157.53 , 113.27 158.20 , 131.09 158.86 , 108.12 159.53 , 105.92 160.20 , 67.71 160.87 , 172.46 161.53 , 114.60 162.20 , 139.69 162.87 , 115.22 163.53 , 113.53 164.20 , 107.72 164.87 , 142.69 165.53 , 126.97 166.20 , 138.77 166.87 , 117.93 167.54 , 145.02 168.20 , 134.58 168.87 , 162.19 169.54 , 87.50 170.20 , 126.08 170.87 , 105.50 171.54 , 83.40 172.21 , 101.83 172.87 , 154.77 173.54 , 148.13 174.21 , 89.67 174.87 , 112.10 175.54 , 103.41 176.21 , 160.15 176.87 , 107.21 177.54 , 124.45 178.21 , 143.85 178.88 , 140.32 179.54 , 165.03 180.21 , 126.68 180.88 , 147.68 181.54 , 128.90 182.21 , 170.20 182.88 , 85.06 183.55 , 99.21 184.21 , 122.27 184.88 , 126.03 185.55 , 140.99 186.21 , 133.19 186.88 , 124.20 187.55 , 145.73 188.21 , 111.93 188.88 , 135.68 189.55 , 127.30 190.22 , 114.47 190.88 , 137.79 191.55 , 112.49 192.22 , 124.11 192.88 , 161.37 193.55 , 175.09 194.22 , 61.73 194.89 , 175.24 195.55 , 152.30 196.22 , 136.95 196.89 , 143.74 197.55 , 164.83 198.22 , 80.32 198.89 , 80.96 199.55 , 152.08 200.22 , 129.01 200.89 , 112.47 201.56 , 113.47 202.22 , 144.28 202.89 , 166.45 203.56 , 145.99 204.22 , 125.40 204.89 , 154.70 205.56 , 111.60 206.23 , 119.92 206.89 , 86.76 207.56 , 150.14 208.23 , 128.65 208.89 , 136.08 209.56 , 138.46 210.23 , 111.46 210.89 , 144.60 211.56 , 154.05 212.23 , 89.70 212.90 , 163.47 213.56 , 84.59 214.23 , 136.49 214.90 , 106.82 215.56 , 128.83 216.23 , 52.23 216.90 , 24.97 217.57 , 181.80 218.23 , 78.34 218.90 , 150.34 219.57 , 179.48 220.23 , 139.90 220.90 , 75.91 221.57 , 150.44 222.24 , 96.68 222.90 , 110.81 223.57 , 117.48 224.24 , 92.83 224.90 , 175.80 225.57 , 107.06 226.24 , 102.19 226.90 , 146.32 227.57 , 119.39 228.24 , 136.63 228.91 , 155.98 229.57 , 143.96 230.24 , 99.96 230.91 , 138.63 231.57 , 128.19 232.24 , 115.40 232.91 , 95.49 233.58 , 147.29 234.24 , 40.27 234.91 , 81.55 235.58 , 81.55 236.24 , 126.58 236.91 , 116.33 237.58 , 100.54 238.24 , 153.99 238.91 , 139.91 239.58 , 126.51 240.25 , 89.92 240.91 , 81.43 241.58 , 108.71 242.25 , 128.43 242.91 , 71.99 243.58 , 106.71 244.25 , 142.00 244.92 , 104.54 245.58 , 138.83 246.25 , 107.88 246.92 , 160.73 247.58 , 93.79 248.25 , 124.77 248.92 , 157.84 249.58 , 86.99 250.25 , 128.96 250.92 , 149.17 251.59 , 162.91 252.25 , 82.26 252.92 , 78.40 253.59 , 90.60 254.25 , 123.85 254.92 , 137.95 255.59 , 113.13 256.26 , 178.87 256.92 , 159.76 257.59 , 96.90 258.26 , 116.19 258.92 , 97.27 259.59 , 111.94 260.26 , 120.57 260.92 , 136.84 261.59 , 115.67 262.26 , 88.01 262.93 , 80.65 263.59 , 82.25 264.26 , 68.27 264.93 , 114.22 265.59 , 97.73 266.26 , 124.79 266.93 , 141.47 267.60 , 140.61 268.26 , 139.83 268.93 , 113.98 269.60 , 156.53 270.26 , 145.69 270.93 , 211.76 271.60 , 47.72 272.26 , 193.88 272.93 , 176.41 273.60 , 166.42 274.27 , 118.96 274.93 , 123.55 275.60 , 135.31 276.27 , 137.76 276.93 , 123.77 277.60 , 101.75 278.27 , 101.75 278.94 , 101.75 279.60 , 123.79 280.27 , 127.42 280.94 , 134.82 281.60 , 124.67 282.27 , 137.85 282.94 , 101.52 283.60 , 146.66 284.27 , 136.37 284.94 , 127.08 285.61 , 134.03 286.27 , 123.65 286.94 , 125.17 287.61 , 152.45 288.27 , 135.07 288.94 , 155.28 289.61 , 172.94 290.28 , 139.85 290.94 , 95.44 291.61 , 102.08 292.28 , 102.08 292.94 , 105.36 293.61 , 107.81 294.28 , 112.26 294.94 , 134.96 295.61 , 142.02 296.28 , 98.71 296.95 , 108.25 297.61 , 126.24 298.28 , 125.37 298.95 , 138.19 299.61 , 146.11 300.28 , 155.91 300.95 , 115.36 301.62 , 108.53 302.28 , 168.65 302.95 , 91.95 303.62 , 76.96 304.28 , 193.37 304.95 , 154.65 305.62 , 107.67 306.29 , 82.45 306.95 , 106.90 307.62 , 88.29 308.29 , 171.88 308.95 , 108.83 309.62 , 182.25 310.29 , 101.65 310.95 , 150.73 311.62 , 106.70 312.29 , 129.73 312.96 , 112.31 313.62 , 126.83 314.29 , 138.55 314.96 , 89.89 315.62 , 150.27 316.29 , 122.37 316.96 , 87.99 317.63 , 180.45 318.29 , 97.68 318.96 , 151.69 319.63 , 131.98 320.29 , 120.64 320.96 , 97.81 321.63 , 83.33 322.29 , 74.44 322.96 , 77.64 323.63 , 84.96 324.30 , 93.30 324.96 , 88.01 325.63 , 94.83 326.30 , 103.29 326.96 , 154.61 327.63 , 161.32 328.30 , 166.39 328.97 , 151.75 329.63 , 167.35 330.30 , 104.65 330.97 , 94.81 331.63 , 145.69 332.30 , 128.49 332.97 , 98.53 333.63 , 86.22 334.30 , 87.00 334.97 , 118.45 335.64 , 166.36 336.30 , 111.06 336.97 , 114.54 337.64 , 106.22 338.30 , 131.85 338.97 , 75.97 339.64 , 101.54 340.31 , 157.97 340.97 , 159.49 341.64 , 150.65 342.31 , 159.05 342.97 , 95.91 343.64 , 168.33 344.31 , 93.53 344.97 , 71.39 345.64 , 75.66 346.31 , 174.05 346.98 , 134.95 347.64 , 129.05 348.31 , 104.82 348.98 , 100.48 349.64 , 99.84 350.31 , 132.76 350.98 , 137.15 351.65 , 174.44 352.31 , 129.42 352.98 , 119.61 353.65 , 114.76 354.31 , 134.86 354.98 , 108.92 355.65 , 122.99 356.31 , 141.45 356.98 , 146.88 357.65 , 143.31 358.32 , 137.35 358.98 , 117.25 359.65 , 146.37 360.32 , 118.86 360.98 , 65.90 361.65 , 159.62 362.32 , 156.96 362.99 , 141.38 " style="stroke-width:1;stroke:#542788;fill:#000000;stroke-opacity:1.000000;fill-opacity:0.000000"/>
</svg>
