<?xml version="1.0" encoding="UTF-8"?>
<svg xmlns="http://www.w3.org/2000/svg" width="385.44" height="240.90" viewBox="0,0,385.44,240.90">
<desc>R SVG Plot!</desc>
<rect width="100%" height="100%" style="fill:#FFFFFF"/>
<line x1="30.46" y1="219.23" x2="363.32" y2="219.23" style="stroke-width:1;stroke:#000000;fill:#000000;stroke-opacity:1.000000;fill-opacity:0.000000"/>
<line x1="30.46" y1="219.23" x2="30.46" y2="223.27" style="stroke-width:1;stroke:#000000;fill:#000000;stroke-opacity:1.000000;fill-opacity:0.000000"/>
<line x1="97.03" y1="219.23" x2="97.03" y2="223.27" style="stroke-width:1;stroke:#000000;fill:#000000;stroke-opacity:1.000000;fill-opacity:0.000000"/>
<line x1="163.60" y1="219.23" x2="163.60" y2="223.27" style="stroke-width:1;stroke:#000000;fill:#000000;stroke-opacity:1.000000;fill-opacity:0.000000"/>
<line x1="230.17" y1="219.23" x2="230.17" y2="223.27" style="stroke-width:1;stroke:#000000;fill:#000000;stroke-opacity:1.000000;fill-opacity:0.000000"/>
<line x1="296.75" y1="219.23" x2="296.75" y2="223.27" style="stroke-width:1;stroke:#000000;fill:#000000;stroke-opacity:1.000000;fill-opacity:0.000000"/>
<line x1="363.32" y1="219.23" x2="363.32" y2="223.27" style="stroke-width:1;stroke:#000000;fill:#000000;stroke-opacity:1.000000;fill-opacity:0.000000"/>
<text transform="translate(27.46,231.73)"  style="font-size:12" >0</text>
<text transform="translate(87.13,231.73)"  style="font-size:12" >200</text>
<text transform="translate(153.70,231.73)"  style="font-size:12" >400</text>
<text transform="translate(220.27,231.73)"  style="font-size:12" >600</text>
<text transform="translate(286.85,231.73)"  style="font-size:12" >800</text>
<text transform="translate(350.12,231.73)"  style="font-size:12" >1000</text>
<line x1="17.50" y1="195.35" x2="17.50" y2="37.92" style="stroke-width:1;stroke:#000000;fill:#000000;stroke-opacity:1.000000;fill-opacity:0.000000"/>
<line x1="17.50" y1="195.35" x2="13.47" y2="195.35" style="stroke-width:1;stroke:#000000;fill:#000000;stroke-opacity:1.000000;fill-opacity:0.000000"/>
<line x1="17.50" y1="169.11" x2="13.47" y2="169.11" style="stroke-width:1;stroke:#000000;fill:#000000;stroke-opacity:1.000000;fill-opacity:0.000000"/>
<line x1="17.50" y1="142.87" x2="13.47" y2="142.87" style="stroke-width:1;stroke:#000000;fill:#000000;stroke-opacity:1.000000;fill-opacity:0.000000"/>
<line x1="17.50" y1="116.63" x2="13.47" y2="116.63" style="stroke-width:1;stroke:#000000;fill:#000000;stroke-opacity:1.000000;fill-opacity:0.000000"/>
<line x1="17.50" y1="90.40" x2="13.47" y2="90.40" style="stroke-width:1;stroke:#000000;fill:#000000;stroke-opacity:1.000000;fill-opacity:0.000000"/>
<line x1="17.50" y1="64.16" x2="13.47" y2="64.16" style="stroke-width:1;stroke:#000000;fill:#000000;stroke-opacity:1.000000;fill-opacity:0.000000"/>
<line x1="17.50" y1="37.92" x2="13.47" y2="37.92" style="stroke-width:1;stroke:#000000;fill:#000000;stroke-opacity:1.000000;fill-opacity:0.000000"/>
<text transform="translate(13.33,198.65) rotate(-90)"  style="font-size:12" >1</text>
<text transform="translate(13.33,172.41) rotate(-90)"  style="font-size:12" >2</text>
<text transform="translate(13.33,146.17) rotate(-90)"  style="font-size:12" >3</text>
<text transform="translate(13.33,119.93) rotate(-90)"  style="font-size:12" >4</text>
<text transform="translate(13.33,93.70) rotate(-90)"  style="font-size:12" >5</text>
<text transform="translate(13.33,67.46) rotate(-90)"  style="font-size:12" >6</text>
<text transform="translate(13.33,41.22) rotate(-90)"  style="font-size:12" >7</text>
<polyline points="17.50 , 17.50 17.50 , 219.23 376.27 , 219.23 " style="stroke-width:1;stroke:#000000;fill:#000000;stroke-opacity:1.000000;fill-opacity:0.000000"/>
<text transform="translate(148.57,14.75)"  style="font-size:14" >Trace of  sigma</text>
<text transform="translate(173.45,240.07)"  style="font-size:12" >Iterations</text>
<polygon points="17.50 , 219.23 17.50 , 17.50 196.89 , 17.50 196.89 , 219.23 " style="stroke-width:1;stroke:#FFFFFF;fill:#969696;stroke-opacity:0.000000;fill-opacity:0.787402" />
<polyline points="30.79 , 24.97 31.12 , 24.97 31.45 , 24.97 31.79 , 24.97 32.12 , 110.48 32.45 , 116.76 32.79 , 174.93 33.12 , 190.13 33.45 , 199.90 33.78 , 199.90 34.12 , 206.25 34.45 , 209.02 34.78 , 211.05 35.12 , 210.53 35.45 , 210.72 35.78 , 210.75 36.11 , 210.47 36.45 , 210.69 36.78 , 210.75 37.11 , 210.22 37.45 , 210.08 37.78 , 210.55 38.11 , 210.49 38.44 , 210.41 38.78 , 210.43 39.11 , 210.34 39.44 , 210.45 39.78 , 210.72 40.11 , 210.84 40.44 , 210.10 40.77 , 210.99 41.11 , 210.34 41.44 , 210.23 41.77 , 209.93 42.11 , 209.93 42.44 , 210.73 42.77 , 210.54 43.10 , 210.28 43.44 , 210.77 43.77 , 210.74 44.10 , 210.48 44.44 , 211.10 44.77 , 209.93 45.10 , 209.93 45.43 , 211.11 45.77 , 210.14 46.10 , 209.84 46.43 , 209.94 46.77 , 210.42 47.10 , 210.58 47.43 , 210.72 47.76 , 211.33 48.10 , 211.03 48.43 , 210.37 48.76 , 210.50 49.10 , 210.63 49.43 , 210.66 49.76 , 210.66 50.09 , 210.66 50.43 , 210.06 50.76 , 209.65 51.09 , 211.05 51.43 , 210.03 51.76 , 210.09 52.09 , 210.21 52.42 , 209.85 52.76 , 210.91 53.09 , 210.88 53.42 , 210.88 53.76 , 210.51 54.09 , 210.92 54.42 , 210.70 54.75 , 210.47 55.09 , 210.44 55.42 , 211.09 55.75 , 211.05 56.09 , 210.58 56.42 , 210.58 56.75 , 210.13 57.08 , 211.17 57.42 , 211.53 57.75 , 210.44 58.08 , 210.41 58.42 , 210.72 58.75 , 210.47 59.08 , 210.47 59.41 , 210.60 59.75 , 210.55 60.08 , 210.06 60.41 , 210.02 60.75 , 210.27 61.08 , 210.97 61.41 , 210.16 61.74 , 211.12 62.08 , 210.25 62.41 , 209.95 62.74 , 210.33 63.08 , 210.36 63.41 , 210.14 63.74 , 211.27 64.07 , 210.69 64.41 , 210.69 64.74 , 210.77 65.07 , 210.66 65.41 , 210.43 65.74 , 210.31 66.07 , 210.30 66.40 , 210.63 66.74 , 210.07 67.07 , 211.00 67.40 , 210.28 67.74 , 211.05 68.07 , 211.05 68.40 , 210.10 68.73 , 211.34 69.07 , 209.57 69.40 , 209.99 69.73 , 210.56 70.07 , 210.97 70.40 , 210.79 70.73 , 211.20 71.06 , 210.43 71.40 , 210.87 71.73 , 210.87 72.06 , 210.34 72.40 , 210.35 72.73 , 211.19 73.06 , 210.53 73.39 , 211.28 73.73 , 210.09 74.06 , 210.42 74.39 , 210.77 74.73 , 210.58 75.06 , 210.56 75.39 , 210.17 75.72 , 211.28 76.06 , 211.28 76.39 , 209.87 76.72 , 210.92 77.06 , 210.55 77.39 , 210.85 77.72 , 210.70 78.05 , 210.55 78.39 , 210.17 78.72 , 210.21 79.05 , 209.85 79.39 , 209.91 79.72 , 211.01 80.05 , 209.97 80.38 , 210.07 80.72 , 210.07 81.05 , 210.07 81.38 , 210.53 81.72 , 210.71 82.05 , 210.99 82.38 , 210.95 82.71 , 210.85 83.05 , 210.00 83.38 , 210.61 83.71 , 210.66 84.05 , 210.66 84.38 , 210.31 84.71 , 210.28 85.04 , 210.66 85.38 , 210.30 85.71 , 210.30 86.04 , 210.51 86.38 , 210.49 86.71 , 210.74 87.04 , 210.16 87.37 , 210.16 87.71 , 210.81 88.04 , 210.53 88.37 , 210.45 88.71 , 210.53 89.04 , 210.38 89.37 , 210.89 89.70 , 211.01 90.04 , 210.40 90.37 , 210.65 90.70 , 210.74 91.04 , 210.59 91.37 , 210.70 91.70 , 210.69 92.03 , 210.46 92.37 , 210.46 92.70 , 210.74 93.03 , 210.27 93.37 , 210.96 93.70 , 210.82 94.03 , 211.30 94.36 , 210.21 94.70 , 210.52 95.03 , 210.98 95.36 , 211.06 95.70 , 210.57 96.03 , 210.88 96.36 , 210.64 96.69 , 210.12 97.03 , 211.19 97.36 , 211.13 97.69 , 211.13 98.03 , 210.80 98.36 , 211.07 98.69 , 209.80 99.02 , 210.04 99.36 , 210.67 99.69 , 211.01 100.02 , 210.36 100.36 , 210.17 100.69 , 210.63 101.02 , 210.82 101.35 , 210.46 101.69 , 209.97 102.02 , 211.05 102.35 , 211.11 102.69 , 210.28 103.02 , 210.05 103.35 , 209.68 103.68 , 210.82 104.02 , 210.73 104.35 , 210.41 104.68 , 210.53 105.02 , 210.47 105.35 , 210.67 105.68 , 210.57 106.01 , 211.07 106.35 , 210.98 106.68 , 209.94 107.01 , 211.17 107.35 , 210.77 107.68 , 210.58 108.01 , 210.57 108.35 , 210.32 108.68 , 210.89 109.01 , 210.54 109.34 , 210.70 109.68 , 210.90 110.01 , 210.54 110.34 , 210.33 110.68 , 210.49 111.01 , 209.99 111.34 , 210.93 111.67 , 210.92 112.01 , 210.73 112.34 , 210.82 112.67 , 210.51 113.01 , 211.10 113.34 , 210.21 113.67 , 211.20 114.00 , 209.91 114.34 , 209.91 114.67 , 209.96 115.00 , 211.16 115.34 , 210.07 115.67 , 210.31 116.00 , 210.36 116.33 , 210.18 116.67 , 210.40 117.00 , 210.27 117.33 , 210.82 117.67 , 210.40 118.00 , 210.24 118.33 , 210.24 118.66 , 210.38 119.00 , 210.66 119.33 , 210.46 119.66 , 210.26 120.00 , 210.26 120.33 , 210.25 120.66 , 210.30 120.99 , 210.98 121.33 , 210.98 121.66 , 209.94 121.99 , 211.07 122.33 , 210.53 122.66 , 210.54 122.99 , 210.69 123.32 , 210.58 123.66 , 210.49 123.99 , 210.55 124.32 , 209.99 124.66 , 211.10 124.99 , 211.03 125.32 , 210.97 125.65 , 210.71 125.99 , 210.43 126.32 , 210.60 126.65 , 210.22 126.99 , 211.28 127.32 , 211.28 127.65 , 211.18 127.98 , 211.03 128.32 , 210.91 128.65 , 210.38 128.98 , 210.37 129.32 , 210.40 129.65 , 210.65 129.98 , 210.65 130.31 , 210.39 130.65 , 210.18 130.98 , 209.90 131.31 , 209.65 131.65 , 210.93 131.98 , 210.99 132.31 , 210.33 132.64 , 210.58 132.98 , 210.39 133.31 , 210.85 133.64 , 210.72 133.98 , 210.41 134.31 , 210.41 134.64 , 210.72 134.97 , 210.81 135.31 , 210.72 135.64 , 210.39 135.97 , 210.71 136.31 , 210.68 136.64 , 210.62 136.97 , 210.59 137.30 , 210.36 137.64 , 210.95 137.97 , 210.92 138.30 , 210.92 138.64 , 210.83 138.97 , 210.84 139.30 , 211.34 139.63 , 211.68 139.97 , 211.73 140.30 , 210.37 140.63 , 210.60 140.97 , 210.37 141.30 , 210.65 141.63 , 210.34 141.96 , 211.17 142.30 , 210.10 142.63 , 210.25 142.96 , 210.77 143.30 , 210.24 143.63 , 210.93 143.96 , 210.93 144.29 , 210.85 144.63 , 209.72 144.96 , 210.36 145.29 , 210.21 145.63 , 211.00 145.96 , 211.21 146.29 , 211.28 146.62 , 211.03 146.96 , 210.46 147.29 , 210.58 147.62 , 210.29 147.96 , 210.42 148.29 , 210.49 148.62 , 210.51 148.95 , 210.65 149.29 , 210.95 149.62 , 210.52 149.95 , 210.69 150.29 , 210.68 150.62 , 210.77 150.95 , 211.17 151.28 , 210.38 151.62 , 210.97 151.95 , 210.19 152.28 , 211.41 152.62 , 210.99 152.95 , 210.99 153.28 , 210.58 153.61 , 210.20 153.95 , 210.49 154.28 , 210.88 154.61 , 210.88 154.95 , 209.97 155.28 , 210.16 155.61 , 210.26 155.94 , 210.55 156.28 , 210.28 156.61 , 210.98 156.94 , 210.34 157.28 , 210.75 157.61 , 210.75 157.94 , 211.24 158.27 , 211.02 158.61 , 210.42 158.94 , 209.97 159.27 , 210.24 159.61 , 211.36 159.94 , 210.91 160.27 , 210.46 160.60 , 210.30 160.94 , 210.66 161.27 , 210.39 161.60 , 210.49 161.94 , 210.72 162.27 , 210.86 162.60 , 210.31 162.93 , 210.72 163.27 , 210.42 163.60 , 210.82 163.93 , 210.47 164.27 , 210.35 164.60 , 210.94 164.93 , 210.31 165.26 , 210.38 165.60 , 210.93 165.93 , 210.46 166.26 , 210.89 166.60 , 210.22 166.93 , 210.56 167.26 , 210.65 167.59 , 211.07 167.93 , 210.42 168.26 , 210.24 168.59 , 210.60 168.93 , 210.61 169.26 , 210.52 169.59 , 210.84 169.92 , 210.84 170.26 , 210.32 170.59 , 210.70 170.92 , 210.94 171.26 , 211.03 171.59 , 210.30 171.92 , 210.73 172.25 , 210.70 172.59 , 210.57 172.92 , 210.26 173.25 , 210.61 173.59 , 210.79 173.92 , 210.84 174.25 , 210.17 174.58 , 210.91 174.92 , 210.77 175.25 , 211.15 175.58 , 211.15 175.92 , 209.69 176.25 , 210.42 176.58 , 210.87 176.91 , 210.85 177.25 , 210.56 177.58 , 210.56 177.91 , 211.40 178.25 , 210.67 178.58 , 209.71 178.91 , 210.10 179.24 , 211.40 179.58 , 211.42 179.91 , 210.68 180.24 , 210.48 180.58 , 210.18 180.91 , 210.18 181.24 , 210.24 181.57 , 209.75 181.91 , 210.86 182.24 , 210.60 182.57 , 211.06 182.91 , 211.06 183.24 , 210.30 183.57 , 210.12 183.90 , 210.77 184.24 , 210.78 184.57 , 210.78 184.90 , 210.99 185.24 , 210.50 185.57 , 210.80 185.90 , 210.69 186.24 , 210.81 186.57 , 210.25 186.90 , 210.17 187.23 , 210.81 187.57 , 210.81 187.90 , 211.00 188.23 , 209.74 188.57 , 210.69 188.90 , 210.61 189.23 , 210.72 189.56 , 210.34 189.90 , 209.73 190.23 , 210.21 190.56 , 210.82 190.90 , 210.74 191.23 , 210.37 191.56 , 210.29 191.89 , 210.12 192.23 , 211.14 192.56 , 210.85 192.89 , 210.85 193.23 , 210.47 193.56 , 210.09 193.89 , 210.42 194.22 , 210.34 194.56 , 210.98 194.89 , 210.18 195.22 , 210.26 195.56 , 210.27 195.89 , 210.40 196.22 , 210.39 196.55 , 210.34 196.89 , 210.48 197.22 , 210.59 197.55 , 210.82 197.89 , 211.54 198.22 , 211.05 198.55 , 210.68 198.88 , 210.74 199.22 , 210.74 199.55 , 210.92 199.88 , 210.27 200.22 , 210.46 200.55 , 210.23 200.88 , 210.81 201.21 , 210.54 201.55 , 210.83 201.88 , 209.83 202.21 , 209.48 202.55 , 209.90 202.88 , 209.78 203.21 , 209.74 203.54 , 210.30 203.88 , 210.21 204.21 , 210.30 204.54 , 210.33 204.88 , 210.66 205.21 , 210.17 205.54 , 210.11 205.87 , 210.63 206.21 , 210.56 206.54 , 210.46 206.87 , 210.66 207.21 , 210.64 207.54 , 210.90 207.87 , 210.50 208.20 , 210.57 208.54 , 210.69 208.87 , 210.35 209.20 , 210.66 209.54 , 210.51 209.87 , 210.23 210.20 , 210.55 210.53 , 210.60 210.87 , 210.44 211.20 , 210.39 211.53 , 210.48 211.87 , 210.41 212.20 , 211.30 212.53 , 211.22 212.86 , 210.53 213.20 , 210.52 213.53 , 210.26 213.86 , 211.13 214.20 , 210.13 214.53 , 210.29 214.86 , 210.80 215.19 , 210.72 215.53 , 210.70 215.86 , 210.62 216.19 , 210.75 216.53 , 210.76 216.86 , 210.65 217.19 , 210.78 217.52 , 210.91 217.86 , 211.02 218.19 , 209.98 218.52 , 210.86 218.86 , 210.60 219.19 , 210.72 219.52 , 210.09 219.85 , 210.18 220.19 , 210.03 220.52 , 210.83 220.85 , 209.99 221.19 , 211.00 221.52 , 210.10 221.85 , 210.15 222.18 , 211.01 222.52 , 210.58 222.85 , 210.59 223.18 , 210.89 223.52 , 209.96 223.85 , 210.64 224.18 , 211.06 224.51 , 211.20 224.85 , 210.78 225.18 , 210.83 225.51 , 210.70 225.85 , 210.84 226.18 , 211.25 226.51 , 211.28 226.84 , 210.25 227.18 , 210.13 227.51 , 211.13 227.84 , 210.67 228.18 , 210.83 228.51 , 210.33 228.84 , 210.27 229.17 , 210.84 229.51 , 210.76 229.84 , 210.52 230.17 , 210.67 230.51 , 210.59 230.84 , 210.12 231.17 , 210.37 231.50 , 210.33 231.84 , 209.94 232.17 , 209.75 232.50 , 209.66 232.84 , 211.53 233.17 , 210.44 233.50 , 210.34 233.83 , 210.22 234.17 , 209.89 234.50 , 210.10 234.83 , 210.82 235.17 , 210.01 235.50 , 211.24 235.83 , 210.06 236.16 , 210.03 236.50 , 211.29 236.83 , 210.78 237.16 , 210.53 237.50 , 210.46 237.83 , 210.36 238.16 , 210.66 238.49 , 209.86 238.83 , 210.01 239.16 , 211.01 239.49 , 210.93 239.83 , 210.59 240.16 , 210.22 240.49 , 210.64 240.82 , 210.64 241.16 , 210.60 241.49 , 210.59 241.82 , 211.10 242.16 , 210.58 242.49 , 210.70 242.82 , 209.99 243.15 , 210.63 243.49 , 210.10 243.82 , 210.39 244.15 , 210.68 244.49 , 210.28 244.82 , 210.38 245.15 , 210.14 245.48 , 210.93 245.82 , 210.80 246.15 , 211.30 246.48 , 211.02 246.82 , 209.96 247.15 , 211.30 247.48 , 210.98 247.81 , 210.89 248.15 , 210.36 248.48 , 210.65 248.81 , 210.86 249.15 , 210.71 249.48 , 210.81 249.81 , 210.58 250.14 , 211.05 250.48 , 211.05 250.81 , 210.59 251.14 , 210.25 251.48 , 210.82 251.81 , 210.53 252.14 , 210.58 252.47 , 210.37 252.81 , 210.73 253.14 , 210.38 253.47 , 210.23 253.81 , 210.27 254.14 , 210.35 254.47 , 210.42 254.80 , 210.70 255.14 , 210.10 255.47 , 210.24 255.80 , 211.49 256.14 , 211.43 256.47 , 210.66 256.80 , 210.77 257.13 , 210.61 257.47 , 210.99 257.80 , 210.61 258.13 , 210.39 258.47 , 210.85 258.80 , 210.97 259.13 , 211.07 259.46 , 211.14 259.80 , 210.32 260.13 , 210.83 260.46 , 210.67 260.80 , 211.10 261.13 , 210.04 261.46 , 210.77 261.80 , 210.43 262.13 , 210.55 262.46 , 210.60 262.79 , 209.98 263.13 , 210.02 263.46 , 210.24 263.79 , 209.80 264.13 , 209.82 264.46 , 210.06 264.79 , 210.56 265.12 , 210.38 265.46 , 209.94 265.79 , 210.10 266.12 , 210.17 266.46 , 210.28 266.79 , 210.98 267.12 , 210.73 267.45 , 210.64 267.79 , 210.69 268.12 , 210.36 268.45 , 210.44 268.79 , 211.02 269.12 , 210.66 269.45 , 210.47 269.78 , 210.54 270.12 , 210.33 270.45 , 210.69 270.78 , 210.83 271.12 , 210.99 271.45 , 210.29 271.78 , 210.64 272.11 , 210.50 272.45 , 210.89 272.78 , 210.36 273.11 , 210.42 273.45 , 210.91 273.78 , 210.30 274.11 , 211.05 274.44 , 210.80 274.78 , 211.00 275.11 , 209.92 275.44 , 210.46 275.78 , 210.40 276.11 , 210.91 276.44 , 210.30 276.77 , 210.48 277.11 , 210.59 277.44 , 210.57 277.77 , 210.75 278.11 , 210.47 278.44 , 210.74 278.77 , 210.33 279.10 , 210.70 279.44 , 211.28 279.77 , 211.15 280.10 , 211.03 280.44 , 211.06 280.77 , 211.02 281.10 , 210.85 281.43 , 210.50 281.77 , 210.43 282.10 , 210.15 282.43 , 211.16 282.77 , 210.54 283.10 , 210.96 283.43 , 211.06 283.76 , 210.88 284.10 , 210.70 284.43 , 211.16 284.76 , 210.28 285.10 , 210.60 285.43 , 210.68 285.76 , 210.27 286.09 , 211.03 286.43 , 210.72 286.76 , 211.14 287.09 , 210.25 287.43 , 210.22 287.76 , 210.84 288.09 , 210.85 288.42 , 210.81 288.76 , 210.03 289.09 , 209.68 289.42 , 210.53 289.76 , 210.50 290.09 , 210.65 290.42 , 211.11 290.75 , 211.35 291.09 , 209.78 291.42 , 211.33 291.75 , 211.07 292.09 , 211.12 292.42 , 210.64 292.75 , 210.46 293.08 , 210.74 293.42 , 211.12 293.75 , 210.61 294.08 , 210.31 294.42 , 211.30 294.75 , 210.42 295.08 , 210.60 295.41 , 209.87 295.75 , 210.01 296.08 , 210.19 296.41 , 211.00 296.75 , 210.01 297.08 , 211.04 297.41 , 210.08 297.74 , 211.15 298.08 , 211.05 298.41 , 211.11 298.74 , 210.30 299.08 , 210.21 299.41 , 210.81 299.74 , 210.47 300.07 , 210.21 300.41 , 210.79 300.74 , 210.51 301.07 , 210.66 301.41 , 210.72 301.74 , 210.86 302.07 , 210.22 302.40 , 210.46 302.74 , 210.58 303.07 , 210.77 303.40 , 210.74 303.74 , 210.33 304.07 , 210.83 304.40 , 210.31 304.73 , 210.61 305.07 , 210.50 305.40 , 210.10 305.73 , 210.70 306.07 , 210.57 306.40 , 210.39 306.73 , 210.30 307.06 , 210.65 307.40 , 210.61 307.73 , 210.18 308.06 , 211.13 308.40 , 209.72 308.73 , 210.06 309.06 , 211.48 309.39 , 210.51 309.73 , 210.61 310.06 , 209.99 310.39 , 210.44 310.73 , 210.33 311.06 , 210.46 311.39 , 210.58 311.72 , 210.61 312.06 , 210.50 312.39 , 211.27 312.72 , 210.03 313.06 , 210.96 313.39 , 209.89 313.72 , 210.07 314.05 , 210.93 314.39 , 210.07 314.72 , 210.68 315.05 , 210.71 315.39 , 210.47 315.72 , 210.71 316.05 , 210.22 316.38 , 210.25 316.72 , 210.97 317.05 , 210.39 317.38 , 210.57 317.72 , 210.33 318.05 , 210.37 318.38 , 211.34 318.71 , 210.20 319.05 , 210.67 319.38 , 210.66 319.71 , 210.69 320.05 , 210.59 320.38 , 210.82 320.71 , 210.65 321.04 , 210.45 321.38 , 210.29 321.71 , 210.34 322.04 , 210.96 322.38 , 210.69 322.71 , 210.86 323.04 , 209.97 323.37 , 211.27 323.71 , 210.14 324.04 , 210.69 324.37 , 210.63 324.71 , 210.90 325.04 , 211.42 325.37 , 209.61 325.70 , 211.22 326.04 , 210.52 326.37 , 210.42 326.70 , 209.96 327.04 , 210.07 327.37 , 210.94 327.70 , 210.10 328.03 , 211.17 328.37 , 210.35 328.70 , 210.90 329.03 , 210.50 329.37 , 210.50 329.70 , 210.16 330.03 , 211.18 330.36 , 209.80 330.70 , 210.99 331.03 , 210.07 331.36 , 210.92 331.70 , 209.74 332.03 , 211.15 332.36 , 210.28 332.69 , 210.30 333.03 , 211.59 333.36 , 211.47 333.69 , 210.60 334.03 , 210.52 334.36 , 210.72 334.69 , 211.43 335.02 , 210.21 335.36 , 210.86 335.69 , 210.00 336.02 , 210.03 336.36 , 210.95 336.69 , 210.23 337.02 , 210.41 337.35 , 210.43 337.69 , 210.93 338.02 , 210.62 338.35 , 210.21 338.69 , 210.48 339.02 , 210.52 339.35 , 210.40 339.69 , 210.83 340.02 , 210.81 340.35 , 210.25 340.68 , 210.69 341.02 , 210.62 341.35 , 210.64 341.68 , 210.72 342.02 , 210.85 342.35 , 210.42 342.68 , 210.58 343.01 , 209.90 343.35 , 210.92 343.68 , 210.72 344.01 , 210.56 344.35 , 210.98 344.68 , 210.68 345.01 , 210.12 345.34 , 210.78 345.68 , 210.82 346.01 , 211.40 346.34 , 209.97 346.68 , 210.08 347.01 , 211.01 347.34 , 210.78 347.67 , 210.39 348.01 , 210.74 348.34 , 210.86 348.67 , 210.15 349.01 , 210.08 349.34 , 211.07 349.67 , 210.66 350.00 , 210.44 350.34 , 210.61 350.67 , 210.59 351.00 , 210.39 351.34 , 210.05 351.67 , 210.32 352.00 , 210.49 352.33 , 210.26 352.67 , 210.87 353.00 , 210.36 353.33 , 210.56 353.67 , 210.66 354.00 , 210.61 354.33 , 210.65 354.66 , 210.68 355.00 , 210.45 355.33 , 211.02 355.66 , 210.46 356.00 , 210.83 356.33 , 210.69 356.66 , 210.90 356.99 , 210.93 357.33 , 210.74 357.66 , 210.41 357.99 , 210.34 358.33 , 210.77 358.66 , 211.08 358.99 , 210.74 359.32 , 210.70 359.66 , 209.95 359.99 , 210.69 360.32 , 210.78 360.66 , 209.61 360.99 , 211.67 361.32 , 211.01 361.65 , 210.64 361.99 , 210.51 362.32 , 210.86 362.65 , 210.44 362.99 , 210.69 " style="stroke-width:1;stroke:#E66101;fill:#000000;stroke-opacity:1.000000;fill-opacity:0.000000"/>
<polyline points="30.79 , 182.15 31.12 , 182.15 31.45 , 182.15 31.79 , 191.20 32.12 , 199.97 32.45 , 207.61 32.79 , 209.69 33.12 , 208.61 33.45 , 209.34 33.78 , 210.43 34.12 , 210.21 34.45 , 210.67 34.78 , 210.04 35.12 , 210.59 35.45 , 210.50 35.78 , 210.50 36.11 , 210.78 36.45 , 210.75 36.78 , 210.27 37.11 , 210.74 37.45 , 210.34 37.78 , 210.29 38.11 , 210.49 38.44 , 210.44 38.78 , 210.70 39.11 , 210.83 39.44 , 210.39 39.78 , 210.39 40.11 , 210.36 40.44 , 210.46 40.77 , 209.59 41.11 , 209.90 41.44 , 210.35 41.77 , 210.90 42.11 , 210.72 42.44 , 210.61 42.77 , 211.40 43.10 , 210.87 43.44 , 210.78 43.77 , 210.61 44.10 , 210.74 44.44 , 210.54 44.77 , 211.06 45.10 , 210.66 45.43 , 210.95 45.77 , 210.94 46.10 , 210.82 46.43 , 210.05 46.77 , 210.29 47.10 , 211.23 47.43 , 211.23 47.76 , 210.58 48.10 , 210.65 48.43 , 211.22 48.76 , 211.19 49.10 , 211.19 49.43 , 209.97 49.76 , 211.31 50.09 , 210.74 50.43 , 210.37 50.76 , 210.37 51.09 , 210.60 51.43 , 210.74 51.76 , 210.28 52.09 , 211.32 52.42 , 210.35 52.76 , 210.54 53.09 , 210.59 53.42 , 210.55 53.76 , 210.82 54.09 , 210.31 54.42 , 210.18 54.75 , 210.23 55.09 , 210.17 55.42 , 210.00 55.75 , 210.65 56.09 , 210.50 56.42 , 209.85 56.75 , 211.01 57.08 , 209.78 57.42 , 210.58 57.75 , 210.44 58.08 , 210.80 58.42 , 210.47 58.75 , 210.71 59.08 , 210.35 59.41 , 210.62 59.75 , 211.01 60.08 , 210.11 60.41 , 210.42 60.75 , 210.51 61.08 , 211.09 61.41 , 211.09 61.74 , 209.91 62.08 , 210.48 62.41 , 210.61 62.74 , 210.26 63.08 , 210.63 63.41 , 210.42 63.74 , 210.35 64.07 , 210.76 64.41 , 210.76 64.74 , 210.84 65.07 , 210.01 65.41 , 210.35 65.74 , 210.29 66.07 , 210.29 66.40 , 210.21 66.74 , 211.00 67.07 , 210.16 67.40 , 210.49 67.74 , 210.91 68.07 , 210.66 68.40 , 210.75 68.73 , 210.06 69.07 , 210.81 69.40 , 210.81 69.73 , 210.67 70.07 , 210.45 70.40 , 210.76 70.73 , 209.72 71.06 , 211.36 71.40 , 211.45 71.73 , 210.92 72.06 , 210.92 72.40 , 210.68 72.73 , 210.32 73.06 , 210.24 73.39 , 210.52 73.73 , 210.34 74.06 , 210.34 74.39 , 210.44 74.73 , 210.82 75.06 , 210.09 75.39 , 210.11 75.72 , 210.17 76.06 , 210.55 76.39 , 210.67 76.72 , 210.59 77.06 , 211.02 77.39 , 211.49 77.72 , 211.10 78.05 , 211.10 78.39 , 210.25 78.72 , 210.48 79.05 , 210.72 79.39 , 210.62 79.72 , 210.94 80.05 , 210.82 80.38 , 210.53 80.72 , 209.86 81.05 , 209.86 81.38 , 211.33 81.72 , 211.30 82.05 , 210.65 82.38 , 210.94 82.71 , 211.38 83.05 , 211.38 83.38 , 211.24 83.71 , 210.19 84.05 , 210.03 84.38 , 211.12 84.71 , 210.85 85.04 , 210.75 85.38 , 210.48 85.71 , 210.95 86.04 , 210.40 86.38 , 210.63 86.71 , 210.64 87.04 , 210.32 87.37 , 210.20 87.71 , 210.95 88.04 , 210.95 88.37 , 210.07 88.71 , 210.92 89.04 , 210.79 89.37 , 210.35 89.70 , 210.78 90.04 , 210.78 90.37 , 210.78 90.70 , 210.09 91.04 , 210.93 91.37 , 210.26 91.70 , 210.12 92.03 , 211.03 92.37 , 210.28 92.70 , 210.84 93.03 , 210.05 93.37 , 211.16 93.70 , 210.49 94.03 , 210.05 94.36 , 210.72 94.70 , 210.57 95.03 , 209.92 95.36 , 210.00 95.70 , 211.03 96.03 , 210.45 96.36 , 210.56 96.69 , 210.67 97.03 , 210.53 97.36 , 210.62 97.69 , 209.59 98.03 , 211.30 98.36 , 211.31 98.69 , 209.89 99.02 , 209.89 99.36 , 211.20 99.69 , 210.02 100.02 , 210.69 100.36 , 210.69 100.69 , 210.91 101.02 , 210.49 101.35 , 211.25 101.69 , 210.44 102.02 , 210.83 102.35 , 210.20 102.69 , 210.06 103.02 , 211.15 103.35 , 211.01 103.68 , 209.80 104.02 , 210.98 104.35 , 210.88 104.68 , 210.11 105.02 , 210.00 105.35 , 211.13 105.68 , 210.04 106.01 , 211.18 106.35 , 209.92 106.68 , 211.10 107.01 , 211.18 107.35 , 210.38 107.68 , 210.81 108.01 , 210.26 108.35 , 210.26 108.68 , 211.09 109.01 , 211.05 109.34 , 211.23 109.68 , 211.23 110.01 , 210.44 110.34 , 210.94 110.68 , 210.30 111.01 , 210.59 111.34 , 210.67 111.67 , 210.78 112.01 , 210.51 112.34 , 210.29 112.67 , 210.81 113.01 , 209.89 113.34 , 209.89 113.67 , 210.94 114.00 , 210.71 114.34 , 210.71 114.67 , 210.28 115.00 , 210.31 115.34 , 210.39 115.67 , 210.56 116.00 , 210.41 116.33 , 210.41 116.67 , 210.93 117.00 , 210.54 117.33 , 210.88 117.67 , 210.63 118.00 , 210.23 118.33 , 210.68 118.66 , 211.06 119.00 , 211.13 119.33 , 211.25 119.66 , 210.05 120.00 , 210.35 120.33 , 210.41 120.66 , 210.41 120.99 , 209.84 121.33 , 210.94 121.66 , 210.04 121.99 , 209.91 122.33 , 210.56 122.66 , 210.89 122.99 , 210.99 123.32 , 210.54 123.66 , 210.42 123.99 , 210.14 124.32 , 210.18 124.66 , 210.59 124.99 , 210.18 125.32 , 210.73 125.65 , 210.63 125.99 , 210.95 126.32 , 210.94 126.65 , 210.63 126.99 , 210.32 127.32 , 210.23 127.65 , 211.10 127.98 , 211.10 128.32 , 209.85 128.65 , 210.95 128.98 , 210.93 129.32 , 210.19 129.65 , 210.97 129.98 , 210.73 130.31 , 210.15 130.65 , 210.98 130.98 , 211.09 131.31 , 209.97 131.65 , 210.73 131.98 , 210.82 132.31 , 211.04 132.64 , 210.17 132.98 , 210.11 133.31 , 210.11 133.64 , 210.74 133.98 , 211.09 134.31 , 210.22 134.64 , 211.13 134.97 , 211.03 135.31 , 210.31 135.64 , 210.83 135.97 , 211.09 136.31 , 209.99 136.64 , 211.10 136.97 , 210.58 137.30 , 210.63 137.64 , 210.36 137.97 , 210.41 138.30 , 211.03 138.64 , 210.36 138.97 , 210.27 139.30 , 210.29 139.63 , 210.94 139.97 , 210.65 140.30 , 210.65 140.63 , 210.53 140.97 , 210.24 141.30 , 210.44 141.63 , 210.92 141.96 , 210.74 142.30 , 210.40 142.63 , 210.85 142.96 , 210.74 143.30 , 210.95 143.63 , 210.17 143.96 , 211.13 144.29 , 209.31 144.63 , 209.30 144.96 , 209.68 145.29 , 210.48 145.63 , 210.41 145.96 , 210.40 146.29 , 210.83 146.62 , 211.20 146.96 , 210.73 147.29 , 210.83 147.62 , 210.21 147.96 , 210.12 148.29 , 210.32 148.62 , 210.48 148.95 , 211.07 149.29 , 209.95 149.62 , 209.79 149.95 , 210.88 150.29 , 209.92 150.62 , 209.96 150.95 , 211.10 151.28 , 209.86 151.62 , 210.02 151.95 , 211.08 152.28 , 210.13 152.62 , 210.64 152.95 , 210.67 153.28 , 210.53 153.61 , 211.02 153.95 , 210.77 154.28 , 210.27 154.61 , 210.95 154.95 , 211.10 155.28 , 210.83 155.61 , 210.39 155.94 , 210.41 156.28 , 210.54 156.61 , 211.00 156.94 , 210.34 157.28 , 210.28 157.61 , 210.88 157.94 , 210.49 158.27 , 210.41 158.61 , 210.28 158.94 , 210.45 159.27 , 210.73 159.61 , 210.72 159.94 , 209.90 160.27 , 210.79 160.60 , 210.38 160.94 , 209.87 161.27 , 209.88 161.60 , 210.13 161.94 , 210.13 162.27 , 211.32 162.60 , 211.05 162.93 , 210.22 163.27 , 210.32 163.60 , 210.80 163.93 , 210.57 164.27 , 210.40 164.60 , 210.34 164.93 , 210.85 165.26 , 210.21 165.60 , 209.81 165.93 , 211.42 166.26 , 211.40 166.60 , 211.48 166.93 , 209.67 167.26 , 210.63 167.59 , 210.51 167.93 , 211.05 168.26 , 211.05 168.59 , 211.02 168.93 , 210.26 169.26 , 209.77 169.59 , 210.44 169.92 , 210.29 170.26 , 210.73 170.59 , 210.69 170.92 , 210.50 171.26 , 210.48 171.59 , 210.43 171.92 , 210.03 172.25 , 211.15 172.59 , 211.52 172.92 , 209.56 173.25 , 210.95 173.59 , 209.64 173.92 , 209.90 174.25 , 210.78 174.58 , 210.66 174.92 , 210.19 175.25 , 209.98 175.58 , 210.32 175.92 , 210.47 176.25 , 210.56 176.58 , 210.78 176.91 , 210.76 177.25 , 210.94 177.58 , 210.18 177.91 , 210.67 178.25 , 210.70 178.58 , 210.70 178.91 , 210.42 179.24 , 211.23 179.58 , 210.74 179.91 , 210.58 180.24 , 210.80 180.58 , 210.79 180.91 , 210.79 181.24 , 210.21 181.57 , 211.00 181.91 , 210.65 182.24 , 210.53 182.57 , 211.05 182.91 , 211.01 183.24 , 210.32 183.57 , 210.25 183.90 , 210.25 184.24 , 209.85 184.57 , 211.37 184.90 , 209.95 185.24 , 211.13 185.57 , 209.91 185.90 , 211.11 186.24 , 210.21 186.57 , 210.21 186.90 , 210.34 187.23 , 210.42 187.57 , 211.09 187.90 , 210.99 188.23 , 210.97 188.57 , 211.10 188.90 , 210.13 189.23 , 210.67 189.56 , 211.07 189.90 , 210.24 190.23 , 210.36 190.56 , 210.68 190.90 , 210.67 191.23 , 209.91 191.56 , 211.41 191.89 , 209.77 192.23 , 211.17 192.56 , 211.17 192.89 , 210.07 193.23 , 211.23 193.56 , 211.32 193.89 , 210.54 194.22 , 210.86 194.56 , 211.14 194.89 , 211.14 195.22 , 210.03 195.56 , 211.22 195.89 , 209.96 196.22 , 210.16 196.55 , 210.56 196.89 , 210.56 197.22 , 210.33 197.55 , 210.43 197.89 , 210.79 198.22 , 210.65 198.55 , 210.74 198.88 , 210.23 199.22 , 210.29 199.55 , 210.24 199.88 , 210.25 200.22 , 210.58 200.55 , 210.69 200.88 , 210.90 201.21 , 210.55 201.55 , 210.65 201.88 , 210.65 202.21 , 210.67 202.55 , 210.69 202.88 , 210.93 203.21 , 211.14 203.54 , 209.59 203.88 , 210.76 204.21 , 210.02 204.54 , 210.85 204.88 , 211.12 205.21 , 210.16 205.54 , 211.09 205.87 , 210.34 206.21 , 210.82 206.54 , 210.59 206.87 , 211.12 207.21 , 211.02 207.54 , 210.57 207.87 , 210.26 208.20 , 210.62 208.54 , 209.72 208.87 , 210.94 209.20 , 210.18 209.54 , 211.11 209.87 , 209.97 210.20 , 210.95 210.53 , 210.43 210.87 , 210.63 211.20 , 210.47 211.53 , 210.34 211.87 , 210.75 212.20 , 210.92 212.53 , 210.58 212.86 , 210.56 213.20 , 211.02 213.53 , 211.11 213.86 , 210.62 214.20 , 210.75 214.53 , 210.14 214.86 , 209.78 215.19 , 210.03 215.53 , 210.55 215.86 , 210.77 216.19 , 210.58 216.53 , 210.76 216.86 , 210.39 217.19 , 210.87 217.52 , 210.58 217.86 , 210.58 218.19 , 210.76 218.52 , 210.91 218.86 , 211.09 219.19 , 211.63 219.52 , 210.53 219.85 , 210.71 220.19 , 211.30 220.52 , 210.25 220.85 , 211.02 221.19 , 210.55 221.52 , 210.64 221.85 , 209.96 222.18 , 209.95 222.52 , 209.82 222.85 , 210.14 223.18 , 210.87 223.52 , 210.41 223.85 , 210.41 224.18 , 211.05 224.51 , 210.31 224.85 , 210.60 225.18 , 210.21 225.51 , 210.17 225.85 , 210.45 226.18 , 210.66 226.51 , 210.28 226.84 , 210.97 227.18 , 210.36 227.51 , 210.34 227.84 , 210.43 228.18 , 210.59 228.51 , 210.11 228.84 , 210.29 229.17 , 210.50 229.51 , 210.56 229.84 , 211.20 230.17 , 210.56 230.51 , 211.03 230.84 , 211.50 231.17 , 211.16 231.50 , 210.69 231.84 , 210.55 232.17 , 210.56 232.50 , 210.14 232.84 , 211.06 233.17 , 210.15 233.50 , 211.20 233.83 , 209.86 234.17 , 211.31 234.50 , 210.68 234.83 , 210.76 235.17 , 210.46 235.50 , 210.74 235.83 , 211.16 236.16 , 210.31 236.50 , 210.65 236.83 , 210.73 237.16 , 210.19 237.50 , 210.88 237.83 , 211.07 238.16 , 210.25 238.49 , 210.64 238.83 , 210.59 239.16 , 210.59 239.49 , 210.28 239.83 , 210.27 240.16 , 210.96 240.49 , 211.10 240.82 , 211.23 241.16 , 211.17 241.49 , 210.96 241.82 , 210.93 242.16 , 210.77 242.49 , 210.74 242.82 , 210.72 243.15 , 210.45 243.49 , 210.75 243.82 , 210.48 244.15 , 210.14 244.49 , 210.58 244.82 , 210.45 245.15 , 210.87 245.48 , 210.71 245.82 , 210.30 246.15 , 210.66 246.48 , 210.72 246.82 , 210.08 247.15 , 210.70 247.48 , 209.58 247.81 , 210.89 248.15 , 210.59 248.48 , 210.23 248.81 , 210.87 249.15 , 210.73 249.48 , 210.21 249.81 , 210.54 250.14 , 210.28 250.48 , 210.29 250.81 , 211.00 251.14 , 209.89 251.48 , 210.67 251.81 , 211.26 252.14 , 210.19 252.47 , 210.79 252.81 , 210.80 253.14 , 210.73 253.47 , 210.32 253.81 , 210.61 254.14 , 210.61 254.47 , 210.67 254.80 , 210.54 255.14 , 210.74 255.47 , 209.67 255.80 , 211.32 256.14 , 209.70 256.47 , 210.49 256.80 , 210.77 257.13 , 210.29 257.47 , 210.23 257.80 , 210.87 258.13 , 210.21 258.47 , 210.13 258.80 , 210.91 259.13 , 210.82 259.46 , 210.38 259.80 , 210.34 260.13 , 210.35 260.46 , 210.85 260.80 , 210.57 261.13 , 211.24 261.46 , 210.23 261.80 , 210.93 262.13 , 211.00 262.46 , 210.62 262.79 , 210.32 263.13 , 210.78 263.46 , 210.62 263.79 , 210.74 264.13 , 209.41 264.46 , 210.90 264.79 , 210.68 265.12 , 210.46 265.46 , 210.48 265.79 , 210.57 266.12 , 210.89 266.46 , 210.54 266.79 , 210.70 267.12 , 211.08 267.45 , 210.21 267.79 , 211.07 268.12 , 210.37 268.45 , 210.55 268.79 , 209.95 269.12 , 209.94 269.45 , 209.86 269.78 , 211.16 270.12 , 209.94 270.45 , 210.55 270.78 , 210.40 271.12 , 210.17 271.45 , 210.33 271.78 , 210.80 272.11 , 210.42 272.45 , 210.70 272.78 , 210.55 273.11 , 210.52 273.45 , 211.02 273.78 , 210.51 274.11 , 210.62 274.44 , 210.67 274.78 , 210.46 275.11 , 210.62 275.44 , 210.26 275.78 , 210.71 276.11 , 210.45 276.44 , 210.63 276.77 , 210.93 277.11 , 210.63 277.44 , 210.42 277.77 , 210.78 278.11 , 210.56 278.44 , 210.95 278.77 , 210.19 279.10 , 210.53 279.44 , 211.11 279.77 , 209.92 280.10 , 210.57 280.44 , 210.77 280.77 , 210.66 281.10 , 210.76 281.43 , 210.51 281.77 , 210.60 282.10 , 210.18 282.43 , 211.49 282.77 , 211.26 283.10 , 209.90 283.43 , 210.77 283.76 , 210.01 284.10 , 211.08 284.43 , 209.90 284.76 , 211.20 285.10 , 210.13 285.43 , 210.95 285.76 , 210.31 286.09 , 211.40 286.43 , 209.74 286.76 , 210.81 287.09 , 210.23 287.43 , 210.63 287.76 , 210.84 288.09 , 210.74 288.42 , 210.50 288.76 , 210.25 289.09 , 210.59 289.42 , 210.53 289.76 , 211.01 290.09 , 210.82 290.42 , 210.84 290.75 , 210.34 291.09 , 211.07 291.42 , 210.08 291.75 , 210.81 292.09 , 210.79 292.42 , 210.21 292.75 , 210.87 293.08 , 210.86 293.42 , 210.86 293.75 , 210.95 294.08 , 211.06 294.42 , 210.15 294.75 , 209.89 295.08 , 209.78 295.41 , 211.23 295.75 , 210.12 296.08 , 211.04 296.41 , 210.76 296.75 , 210.91 297.08 , 210.00 297.41 , 210.17 297.74 , 210.98 298.08 , 210.91 298.41 , 210.31 298.74 , 210.86 299.08 , 210.89 299.41 , 210.16 299.74 , 210.31 300.07 , 210.18 300.41 , 210.99 300.74 , 210.60 301.07 , 210.59 301.41 , 210.38 301.74 , 211.07 302.07 , 210.79 302.40 , 210.53 302.74 , 210.60 303.07 , 210.31 303.40 , 210.77 303.74 , 209.97 304.07 , 210.59 304.40 , 210.34 304.73 , 211.14 305.07 , 210.55 305.40 , 209.96 305.73 , 210.59 306.07 , 210.76 306.40 , 210.77 306.73 , 210.52 307.06 , 210.35 307.40 , 210.66 307.73 , 210.03 308.06 , 211.23 308.40 , 210.99 308.73 , 210.56 309.06 , 210.84 309.39 , 210.44 309.73 , 210.76 310.06 , 210.46 310.39 , 211.29 310.73 , 209.68 311.06 , 210.42 311.39 , 210.37 311.72 , 210.51 312.06 , 209.93 312.39 , 210.23 312.72 , 210.98 313.06 , 210.92 313.39 , 210.36 313.72 , 210.01 314.05 , 210.70 314.39 , 210.67 314.72 , 210.57 315.05 , 210.21 315.39 , 210.74 315.72 , 210.70 316.05 , 210.82 316.38 , 210.79 316.72 , 210.84 317.05 , 210.28 317.38 , 210.79 317.72 , 210.46 318.05 , 210.06 318.38 , 210.96 318.71 , 210.62 319.05 , 210.59 319.38 , 210.52 319.71 , 210.64 320.05 , 211.00 320.38 , 210.49 320.71 , 210.43 321.04 , 210.33 321.38 , 211.37 321.71 , 211.24 322.04 , 210.25 322.38 , 210.86 322.71 , 210.58 323.04 , 211.11 323.37 , 210.35 323.71 , 210.58 324.04 , 210.53 324.37 , 210.45 324.71 , 210.82 325.04 , 210.83 325.37 , 210.29 325.70 , 210.35 326.04 , 211.13 326.37 , 210.29 326.70 , 210.19 327.04 , 211.04 327.37 , 211.10 327.70 , 210.14 328.03 , 210.47 328.37 , 210.81 328.70 , 210.40 329.03 , 210.66 329.37 , 210.70 329.70 , 210.17 330.03 , 210.94 330.36 , 211.08 330.70 , 210.09 331.03 , 210.75 331.36 , 210.31 331.70 , 210.48 332.03 , 210.69 332.36 , 210.02 332.69 , 209.92 333.03 , 210.53 333.36 , 210.33 333.69 , 210.72 334.03 , 210.47 334.36 , 210.62 334.69 , 210.92 335.02 , 210.20 335.36 , 211.15 335.69 , 210.39 336.02 , 210.88 336.36 , 210.36 336.69 , 211.01 337.02 , 210.57 337.35 , 210.89 337.69 , 210.53 338.02 , 210.07 338.35 , 210.62 338.69 , 210.86 339.02 , 210.60 339.35 , 211.08 339.69 , 211.32 340.02 , 211.12 340.35 , 210.85 340.68 , 210.21 341.02 , 210.07 341.35 , 210.86 341.68 , 210.24 342.02 , 210.75 342.35 , 211.13 342.68 , 210.75 343.01 , 210.74 343.35 , 210.01 343.68 , 210.76 344.01 , 210.74 344.35 , 210.75 344.68 , 210.11 345.01 , 210.18 345.34 , 209.96 345.68 , 210.23 346.01 , 209.98 346.34 , 210.17 346.68 , 210.64 347.01 , 210.67 347.34 , 210.27 347.67 , 210.74 348.01 , 210.64 348.34 , 210.25 348.67 , 210.99 349.01 , 210.62 349.34 , 210.63 349.67 , 210.63 350.00 , 210.35 350.34 , 210.76 350.67 , 210.08 351.00 , 210.55 351.34 , 210.71 351.67 , 210.57 352.00 , 210.59 352.33 , 210.75 352.67 , 210.56 353.00 , 210.59 353.33 , 210.70 353.67 , 210.91 354.00 , 210.37 354.33 , 210.56 354.66 , 210.78 355.00 , 210.36 355.33 , 210.53 355.66 , 210.64 356.00 , 210.67 356.33 , 211.00 356.66 , 210.92 356.99 , 210.80 357.33 , 210.61 357.66 , 210.36 357.99 , 210.33 358.33 , 210.74 358.66 , 210.94 358.99 , 210.64 359.32 , 210.25 359.66 , 210.89 359.99 , 210.37 360.32 , 209.96 360.66 , 210.98 360.99 , 210.25 361.32 , 210.88 361.65 , 210.83 361.99 , 211.15 362.32 , 210.26 362.65 , 210.74 362.99 , 210.40 " style="stroke-width:1;stroke:#998EC3;fill:#000000;stroke-opacity:1.000000;fill-opacity:0.000000"/>
<polyline points="30.79 , 113.02 31.12 , 113.02 31.45 , 113.02 31.79 , 113.02 32.12 , 160.47 32.45 , 171.32 32.79 , 190.80 33.12 , 192.95 33.45 , 200.22 33.78 , 201.43 34.12 , 201.30 34.45 , 206.05 34.78 , 207.01 35.12 , 209.06 35.45 , 209.09 35.78 , 210.23 36.11 , 210.55 36.45 , 210.55 36.78 , 210.34 37.11 , 210.18 37.45 , 210.23 37.78 , 210.32 38.11 , 210.55 38.44 , 210.63 38.78 , 210.47 39.11 , 210.59 39.44 , 210.54 39.78 , 210.54 40.11 , 210.71 40.44 , 211.01 40.77 , 210.96 41.11 , 210.30 41.44 , 210.38 41.77 , 210.26 42.11 , 210.27 42.44 , 210.97 42.77 , 210.83 43.10 , 210.54 43.44 , 210.81 43.77 , 210.81 44.10 , 210.52 44.44 , 210.76 44.77 , 210.57 45.10 , 211.07 45.43 , 211.07 45.77 , 210.84 46.10 , 210.78 46.43 , 210.63 46.77 , 210.97 47.10 , 210.83 47.43 , 210.39 47.76 , 210.30 48.10 , 210.95 48.43 , 210.43 48.76 , 210.19 49.10 , 210.53 49.43 , 210.88 49.76 , 210.57 50.09 , 210.45 50.43 , 211.39 50.76 , 211.39 51.09 , 210.79 51.43 , 210.25 51.76 , 210.90 52.09 , 210.15 52.42 , 211.11 52.76 , 210.16 53.09 , 209.80 53.42 , 209.85 53.76 , 211.11 54.09 , 211.29 54.42 , 210.83 54.75 , 211.16 55.09 , 209.75 55.42 , 210.17 55.75 , 211.02 56.09 , 210.52 56.42 , 210.25 56.75 , 210.57 57.08 , 210.93 57.42 , 209.88 57.75 , 210.34 58.08 , 210.75 58.42 , 210.22 58.75 , 210.39 59.08 , 210.92 59.41 , 210.29 59.75 , 210.06 60.08 , 210.12 60.41 , 210.12 60.75 , 211.28 61.08 , 211.40 61.41 , 210.21 61.74 , 210.99 62.08 , 210.99 62.41 , 210.19 62.74 , 210.68 63.08 , 210.78 63.41 , 210.47 63.74 , 210.77 64.07 , 210.63 64.41 , 210.63 64.74 , 210.21 65.07 , 210.14 65.41 , 210.84 65.74 , 210.38 66.07 , 211.11 66.40 , 211.00 66.74 , 210.36 67.07 , 210.71 67.40 , 210.13 67.74 , 210.31 68.07 , 210.46 68.40 , 210.94 68.73 , 211.04 69.07 , 211.04 69.40 , 210.96 69.73 , 211.11 70.07 , 210.63 70.40 , 210.28 70.73 , 211.16 71.06 , 211.15 71.40 , 211.15 71.73 , 210.87 72.06 , 210.68 72.40 , 210.26 72.73 , 210.63 73.06 , 210.77 73.39 , 210.13 73.73 , 210.90 74.06 , 210.20 74.39 , 210.59 74.73 , 210.66 75.06 , 210.92 75.39 , 210.24 75.72 , 210.43 76.06 , 210.78 76.39 , 210.48 76.72 , 210.30 77.06 , 210.74 77.39 , 211.46 77.72 , 210.31 78.05 , 210.25 78.39 , 210.13 78.72 , 210.71 79.05 , 210.45 79.39 , 210.73 79.72 , 210.84 80.05 , 210.61 80.38 , 210.09 80.72 , 210.70 81.05 , 210.70 81.38 , 210.31 81.72 , 210.96 82.05 , 210.93 82.38 , 210.22 82.71 , 210.22 83.05 , 210.33 83.38 , 210.21 83.71 , 210.40 84.05 , 210.94 84.38 , 210.94 84.71 , 210.87 85.04 , 210.64 85.38 , 210.56 85.71 , 210.84 86.04 , 211.20 86.38 , 211.18 86.71 , 211.04 87.04 , 210.96 87.37 , 210.73 87.71 , 210.88 88.04 , 210.79 88.37 , 210.98 88.71 , 210.98 89.04 , 210.30 89.37 , 210.70 89.70 , 210.69 90.04 , 210.63 90.37 , 210.39 90.70 , 210.36 91.04 , 210.68 91.37 , 210.79 91.70 , 210.78 92.03 , 210.62 92.37 , 210.59 92.70 , 210.28 93.03 , 210.86 93.37 , 210.53 93.70 , 210.63 94.03 , 210.61 94.36 , 210.41 94.70 , 210.79 95.03 , 211.03 95.36 , 210.89 95.70 , 210.74 96.03 , 210.09 96.36 , 209.85 96.69 , 209.79 97.03 , 210.46 97.36 , 210.59 97.69 , 211.17 98.03 , 210.90 98.36 , 210.48 98.69 , 210.60 99.02 , 211.17 99.36 , 211.24 99.69 , 209.84 100.02 , 210.22 100.36 , 210.36 100.69 , 211.07 101.02 , 211.07 101.35 , 209.76 101.69 , 210.76 102.02 , 210.38 102.35 , 210.90 102.69 , 210.80 103.02 , 210.80 103.35 , 210.43 103.68 , 210.59 104.02 , 210.64 104.35 , 210.45 104.68 , 210.14 105.02 , 211.64 105.35 , 211.47 105.68 , 210.71 106.01 , 210.65 106.35 , 210.27 106.68 , 210.69 107.01 , 210.75 107.35 , 210.12 107.68 , 210.19 108.01 , 210.85 108.35 , 210.60 108.68 , 210.38 109.01 , 210.87 109.34 , 210.90 109.68 , 211.10 110.01 , 210.93 110.34 , 210.93 110.68 , 210.69 111.01 , 210.69 111.34 , 210.69 111.67 , 210.76 112.01 , 210.67 112.34 , 210.67 112.67 , 210.73 113.01 , 211.05 113.34 , 210.59 113.67 , 211.03 114.00 , 210.89 114.34 , 210.89 114.67 , 210.67 115.00 , 210.67 115.34 , 210.63 115.67 , 210.87 116.00 , 210.35 116.33 , 211.09 116.67 , 209.97 117.00 , 209.99 117.33 , 210.20 117.67 , 211.14 118.00 , 211.14 118.33 , 210.87 118.66 , 210.91 119.00 , 210.74 119.33 , 210.80 119.66 , 211.26 120.00 , 211.28 120.33 , 210.60 120.66 , 210.86 120.99 , 211.48 121.33 , 211.40 121.66 , 211.47 121.99 , 211.35 122.33 , 210.16 122.66 , 210.27 122.99 , 210.45 123.32 , 210.50 123.66 , 209.91 123.99 , 211.04 124.32 , 210.10 124.66 , 210.87 124.99 , 210.38 125.32 , 210.26 125.65 , 210.26 125.99 , 210.15 126.32 , 210.75 126.65 , 210.48 126.99 , 210.68 127.32 , 210.67 127.65 , 210.51 127.98 , 210.74 128.32 , 210.73 128.65 , 210.65 128.98 , 210.14 129.32 , 210.14 129.65 , 210.85 129.98 , 210.28 130.31 , 210.26 130.65 , 210.53 130.98 , 210.70 131.31 , 210.52 131.65 , 209.81 131.98 , 210.68 132.31 , 210.41 132.64 , 210.90 132.98 , 210.90 133.31 , 210.40 133.64 , 211.30 133.98 , 211.28 134.31 , 211.33 134.64 , 210.09 134.97 , 209.80 135.31 , 211.21 135.64 , 210.78 135.97 , 210.88 136.31 , 210.66 136.64 , 210.99 136.97 , 210.71 137.30 , 210.96 137.64 , 210.53 137.97 , 210.35 138.30 , 210.35 138.64 , 211.32 138.97 , 211.56 139.30 , 210.61 139.63 , 210.17 139.97 , 210.10 140.30 , 210.59 140.63 , 210.40 140.97 , 210.39 141.30 , 210.90 141.63 , 210.24 141.96 , 210.40 142.30 , 209.96 142.63 , 211.10 142.96 , 210.53 143.30 , 210.32 143.63 , 211.07 143.96 , 211.07 144.29 , 209.94 144.63 , 209.94 144.96 , 210.18 145.29 , 210.81 145.63 , 210.17 145.96 , 210.71 146.29 , 210.71 146.62 , 211.12 146.96 , 209.84 147.29 , 211.04 147.62 , 210.44 147.96 , 210.62 148.29 , 209.98 148.62 , 211.01 148.95 , 210.45 149.29 , 210.50 149.62 , 210.59 149.95 , 210.68 150.29 , 210.48 150.62 , 210.89 150.95 , 210.91 151.28 , 210.75 151.62 , 210.91 151.95 , 210.74 152.28 , 210.62 152.62 , 210.61 152.95 , 210.61 153.28 , 210.93 153.61 , 210.95 153.95 , 210.85 154.28 , 210.09 154.61 , 210.22 154.95 , 210.88 155.28 , 210.93 155.61 , 210.72 155.94 , 210.87 156.28 , 210.70 156.61 , 210.29 156.94 , 210.34 157.28 , 210.51 157.61 , 210.51 157.94 , 210.56 158.27 , 210.65 158.61 , 210.59 158.94 , 210.94 159.27 , 210.82 159.61 , 210.59 159.94 , 211.07 160.27 , 210.57 160.60 , 210.57 160.94 , 210.53 161.27 , 210.17 161.60 , 210.17 161.94 , 210.87 162.27 , 210.83 162.60 , 211.08 162.93 , 210.67 163.27 , 210.49 163.60 , 210.55 163.93 , 210.74 164.27 , 210.29 164.60 , 210.21 164.93 , 210.48 165.26 , 210.61 165.60 , 210.50 165.93 , 210.50 166.26 , 211.22 166.60 , 210.53 166.93 , 210.59 167.26 , 210.36 167.59 , 210.40 167.93 , 209.99 168.26 , 211.26 168.59 , 210.74 168.93 , 210.69 169.26 , 210.84 169.59 , 210.63 169.92 , 211.43 170.26 , 211.34 170.59 , 211.25 170.92 , 211.25 171.26 , 211.31 171.59 , 210.62 171.92 , 210.43 172.25 , 210.49 172.59 , 210.38 172.92 , 210.54 173.25 , 210.54 173.59 , 210.68 173.92 , 210.57 174.25 , 211.25 174.58 , 210.78 174.92 , 210.79 175.25 , 210.20 175.58 , 210.44 175.92 , 210.38 176.25 , 210.38 176.58 , 210.16 176.91 , 209.88 177.25 , 209.91 177.58 , 210.71 177.91 , 210.54 178.25 , 210.59 178.58 , 210.85 178.91 , 210.74 179.24 , 211.32 179.58 , 210.77 179.91 , 210.94 180.24 , 210.76 180.58 , 210.24 180.91 , 210.24 181.24 , 210.36 181.57 , 210.02 181.91 , 210.20 182.24 , 210.22 182.57 , 210.52 182.91 , 210.54 183.24 , 210.60 183.57 , 210.60 183.90 , 210.56 184.24 , 210.59 184.57 , 210.59 184.90 , 210.64 185.24 , 210.57 185.57 , 210.66 185.90 , 210.05 186.24 , 210.26 186.57 , 210.16 186.90 , 210.17 187.23 , 210.17 187.57 , 211.05 187.90 , 210.84 188.23 , 210.20 188.57 , 211.06 188.90 , 209.86 189.23 , 210.39 189.56 , 210.79 189.90 , 209.86 190.23 , 211.31 190.56 , 210.49 190.90 , 210.03 191.23 , 210.33 191.56 , 211.02 191.89 , 211.00 192.23 , 210.50 192.56 , 210.71 192.89 , 210.71 193.23 , 210.39 193.56 , 210.80 193.89 , 210.21 194.22 , 210.75 194.56 , 210.12 194.89 , 209.79 195.22 , 211.27 195.56 , 210.04 195.89 , 211.32 196.22 , 211.10 196.55 , 210.69 196.89 , 210.38 197.22 , 210.48 197.55 , 210.87 197.89 , 210.92 198.22 , 210.91 198.55 , 211.02 198.88 , 210.03 199.22 , 210.66 199.55 , 210.25 199.88 , 210.82 200.22 , 210.16 200.55 , 210.30 200.88 , 210.74 201.21 , 210.60 201.55 , 210.49 201.88 , 210.49 202.21 , 210.57 202.55 , 210.44 202.88 , 210.80 203.21 , 210.18 203.54 , 210.50 203.88 , 210.57 204.21 , 210.85 204.54 , 210.50 204.88 , 210.50 205.21 , 210.37 205.54 , 210.23 205.87 , 210.79 206.21 , 211.25 206.54 , 210.69 206.87 , 210.51 207.21 , 210.69 207.54 , 210.54 207.87 , 210.54 208.20 , 210.23 208.54 , 210.32 208.87 , 210.75 209.20 , 210.13 209.54 , 211.04 209.87 , 210.21 210.20 , 210.43 210.53 , 210.93 210.87 , 210.76 211.20 , 210.74 211.53 , 209.88 211.87 , 209.92 212.20 , 210.30 212.53 , 210.16 212.86 , 210.17 213.20 , 211.02 213.53 , 209.53 213.86 , 210.31 214.20 , 210.39 214.53 , 210.39 214.86 , 210.49 215.19 , 210.79 215.53 , 210.78 215.86 , 210.87 216.19 , 210.80 216.53 , 210.72 216.86 , 210.66 217.19 , 210.55 217.52 , 210.49 217.86 , 210.20 218.19 , 210.19 218.52 , 210.59 218.86 , 210.53 219.19 , 210.64 219.52 , 211.06 219.85 , 210.96 220.19 , 210.20 220.52 , 210.42 220.85 , 210.44 221.19 , 210.47 221.52 , 210.68 221.85 , 210.73 222.18 , 210.77 222.52 , 210.35 222.85 , 210.77 223.18 , 210.76 223.52 , 210.78 223.85 , 210.35 224.18 , 210.35 224.51 , 210.91 224.85 , 210.91 225.18 , 210.68 225.51 , 211.13 225.85 , 210.00 226.18 , 209.90 226.51 , 211.26 226.84 , 210.71 227.18 , 211.06 227.51 , 210.88 227.84 , 211.04 228.18 , 210.23 228.51 , 210.32 228.84 , 210.61 229.17 , 210.76 229.51 , 210.90 229.84 , 210.95 230.17 , 210.95 230.51 , 210.95 230.84 , 210.90 231.17 , 210.90 231.50 , 210.90 231.84 , 210.90 232.17 , 210.87 232.50 , 210.87 232.84 , 210.57 233.17 , 210.32 233.50 , 210.64 233.83 , 210.45 234.17 , 210.38 234.50 , 210.70 234.83 , 210.77 235.17 , 210.77 235.50 , 210.77 235.83 , 209.67 236.16 , 209.70 236.50 , 210.72 236.83 , 210.90 237.16 , 211.10 237.50 , 210.20 237.83 , 210.20 238.16 , 210.94 238.49 , 210.71 238.83 , 210.49 239.16 , 210.58 239.49 , 210.72 239.83 , 210.78 240.16 , 211.05 240.49 , 210.67 240.82 , 210.17 241.16 , 210.64 241.49 , 210.36 241.82 , 210.20 242.16 , 210.46 242.49 , 211.07 242.82 , 211.05 243.15 , 211.07 243.49 , 210.93 243.82 , 211.08 244.15 , 210.64 244.49 , 211.03 244.82 , 210.76 245.15 , 210.26 245.48 , 210.36 245.82 , 210.58 246.15 , 210.48 246.48 , 210.71 246.82 , 210.73 247.15 , 209.70 247.48 , 209.87 247.81 , 209.74 248.15 , 209.97 248.48 , 210.04 248.81 , 210.12 249.15 , 210.25 249.48 , 210.18 249.81 , 210.33 250.14 , 210.55 250.48 , 210.45 250.81 , 210.45 251.14 , 210.49 251.48 , 210.71 251.81 , 210.49 252.14 , 210.84 252.47 , 211.13 252.81 , 211.42 253.14 , 211.30 253.47 , 210.63 253.81 , 210.75 254.14 , 209.91 254.47 , 211.42 254.80 , 211.35 255.14 , 211.07 255.47 , 211.09 255.80 , 210.93 256.14 , 210.77 256.47 , 210.77 256.80 , 210.56 257.13 , 210.48 257.47 , 210.64 257.80 , 210.42 258.13 , 210.28 258.47 , 210.26 258.80 , 210.73 259.13 , 210.33 259.46 , 210.23 259.80 , 210.76 260.13 , 210.90 260.46 , 210.40 260.80 , 210.65 261.13 , 210.33 261.46 , 210.30 261.80 , 209.77 262.13 , 211.22 262.46 , 210.42 262.79 , 210.77 263.13 , 210.43 263.46 , 210.40 263.79 , 210.32 264.13 , 210.81 264.46 , 210.59 264.79 , 210.75 265.12 , 210.46 265.46 , 210.84 265.79 , 210.70 266.12 , 211.08 266.46 , 210.04 266.79 , 210.58 267.12 , 210.29 267.45 , 209.99 267.79 , 210.24 268.12 , 210.97 268.45 , 210.88 268.79 , 210.07 269.12 , 210.38 269.45 , 210.26 269.78 , 211.05 270.12 , 210.32 270.45 , 210.56 270.78 , 210.82 271.12 , 210.77 271.45 , 211.12 271.78 , 210.59 272.11 , 210.88 272.45 , 210.62 272.78 , 211.19 273.11 , 210.01 273.45 , 210.21 273.78 , 210.52 274.11 , 210.58 274.44 , 210.78 274.78 , 210.68 275.11 , 210.55 275.44 , 210.85 275.78 , 210.38 276.11 , 210.71 276.44 , 210.59 276.77 , 210.42 277.11 , 210.74 277.44 , 210.39 277.77 , 210.55 278.11 , 211.07 278.44 , 211.25 278.77 , 209.69 279.10 , 211.26 279.44 , 210.94 279.77 , 210.73 280.10 , 210.82 280.44 , 211.11 280.77 , 209.95 281.10 , 209.95 281.43 , 210.94 281.77 , 210.62 282.10 , 210.39 282.43 , 210.40 282.77 , 210.83 283.10 , 211.14 283.43 , 210.85 283.76 , 210.57 284.10 , 210.97 284.43 , 210.38 284.76 , 210.49 285.10 , 210.03 285.43 , 210.91 285.76 , 210.61 286.09 , 210.72 286.43 , 210.75 286.76 , 210.38 287.09 , 210.83 287.43 , 210.96 287.76 , 210.07 288.09 , 211.09 288.42 , 210.00 288.76 , 210.72 289.09 , 210.31 289.42 , 210.62 289.76 , 209.56 290.09 , 209.18 290.42 , 211.35 290.75 , 209.92 291.09 , 210.91 291.42 , 211.32 291.75 , 210.77 292.09 , 209.88 292.42 , 210.91 292.75 , 210.17 293.08 , 210.37 293.42 , 210.46 293.75 , 210.12 294.08 , 211.26 294.42 , 210.31 294.75 , 210.25 295.08 , 210.86 295.41 , 210.49 295.75 , 210.72 296.08 , 210.99 296.41 , 210.82 296.75 , 210.22 297.08 , 210.75 297.41 , 210.61 297.74 , 210.43 298.08 , 210.15 298.41 , 210.87 298.74 , 209.39 299.08 , 209.96 299.41 , 209.96 299.74 , 210.58 300.07 , 210.44 300.41 , 210.22 300.74 , 210.96 301.07 , 210.77 301.41 , 210.58 301.74 , 210.08 302.07 , 209.96 302.40 , 210.34 302.74 , 210.61 303.07 , 209.83 303.40 , 210.31 303.74 , 210.80 304.07 , 210.28 304.40 , 210.75 304.73 , 210.33 305.07 , 211.06 305.40 , 210.13 305.73 , 210.56 306.07 , 211.02 306.40 , 210.04 306.73 , 210.62 307.06 , 210.90 307.40 , 211.09 307.73 , 209.97 308.06 , 209.92 308.40 , 210.09 308.73 , 210.55 309.06 , 210.74 309.39 , 210.40 309.73 , 211.31 310.06 , 211.04 310.39 , 210.17 310.73 , 210.44 311.06 , 210.18 311.39 , 210.38 311.72 , 210.50 312.06 , 210.73 312.39 , 210.43 312.72 , 210.05 313.06 , 209.95 313.39 , 209.97 313.72 , 209.78 314.05 , 210.41 314.39 , 210.19 314.72 , 210.56 315.05 , 210.79 315.39 , 210.78 315.72 , 210.77 316.05 , 210.41 316.38 , 211.00 316.72 , 210.85 317.05 , 211.76 317.38 , 209.49 317.72 , 211.51 318.05 , 211.27 318.38 , 211.14 318.71 , 210.48 319.05 , 210.54 319.38 , 210.71 319.71 , 210.74 320.05 , 210.55 320.38 , 210.24 320.71 , 210.24 321.04 , 210.24 321.38 , 210.55 321.71 , 210.60 322.04 , 210.70 322.38 , 210.56 322.71 , 210.74 323.04 , 210.24 323.37 , 210.86 323.71 , 210.72 324.04 , 210.59 324.37 , 210.69 324.71 , 210.54 325.04 , 210.57 325.37 , 210.94 325.70 , 210.70 326.04 , 210.98 326.37 , 211.23 326.70 , 210.77 327.04 , 210.15 327.37 , 210.25 327.70 , 210.25 328.03 , 210.29 328.37 , 210.33 328.70 , 210.39 329.03 , 210.70 329.37 , 210.80 329.70 , 210.20 330.03 , 210.33 330.36 , 210.58 330.70 , 210.57 331.03 , 210.74 331.36 , 210.85 331.70 , 210.99 332.03 , 210.43 332.36 , 210.33 332.69 , 211.17 333.03 , 210.11 333.36 , 209.90 333.69 , 211.51 334.03 , 210.97 334.36 , 210.32 334.69 , 209.97 335.02 , 210.31 335.36 , 210.06 335.69 , 211.21 336.02 , 210.34 336.36 , 211.35 336.69 , 210.24 337.02 , 210.92 337.35 , 210.31 337.69 , 210.63 338.02 , 210.39 338.35 , 210.59 338.69 , 210.75 339.02 , 210.08 339.35 , 210.91 339.69 , 210.53 340.02 , 210.05 340.35 , 211.33 340.68 , 210.19 341.02 , 210.93 341.35 , 210.66 341.68 , 210.50 342.02 , 210.19 342.35 , 209.99 342.68 , 209.86 343.01 , 209.91 343.35 , 210.01 343.68 , 210.12 344.01 , 210.05 344.35 , 210.15 344.68 , 210.26 345.01 , 210.97 345.34 , 211.06 345.68 , 211.13 346.01 , 210.93 346.34 , 211.15 346.68 , 210.28 347.01 , 210.15 347.34 , 210.85 347.67 , 210.61 348.01 , 210.20 348.34 , 210.03 348.67 , 210.04 349.01 , 210.47 349.34 , 211.13 349.67 , 210.37 350.00 , 210.42 350.34 , 210.30 350.67 , 210.66 351.00 , 209.89 351.34 , 210.24 351.67 , 211.02 352.00 , 211.04 352.33 , 210.92 352.67 , 211.03 353.00 , 210.16 353.33 , 211.16 353.67 , 210.13 354.00 , 209.82 354.33 , 209.88 354.66 , 211.24 355.00 , 210.70 355.33 , 210.62 355.66 , 210.28 356.00 , 210.22 356.33 , 210.21 356.66 , 210.67 356.99 , 210.73 357.33 , 211.25 357.66 , 210.62 357.99 , 210.49 358.33 , 210.42 358.66 , 210.70 358.99 , 210.34 359.32 , 210.53 359.66 , 210.79 359.99 , 210.87 360.32 , 210.82 360.66 , 210.73 360.99 , 210.46 361.32 , 210.86 361.65 , 210.48 361.99 , 209.75 362.32 , 211.04 362.65 , 211.00 362.99 , 210.79 " style="stroke-width:1;stroke:#542788;fill:#000000;stroke-opacity:1.000000;fill-opacity:0.000000"/>
</svg>
