<?xml version="1.0" encoding="UTF-8"?>
<svg xmlns="http://www.w3.org/2000/svg" width="385.44" height="240.90" viewBox="0,0,385.44,240.90">
<desc>R SVG Plot!</desc>
<rect width="100%" height="100%" style="fill:#FFFFFF"/>
<line x1="30.12" y1="219.23" x2="363.65" y2="219.23" style="stroke-width:1;stroke:#000000;fill:#000000;stroke-opacity:1.000000;fill-opacity:0.000000"/>
<line x1="30.12" y1="219.23" x2="30.12" y2="223.27" style="stroke-width:1;stroke:#000000;fill:#000000;stroke-opacity:1.000000;fill-opacity:0.000000"/>
<line x1="96.83" y1="219.23" x2="96.83" y2="223.27" style="stroke-width:1;stroke:#000000;fill:#000000;stroke-opacity:1.000000;fill-opacity:0.000000"/>
<line x1="163.53" y1="219.23" x2="163.53" y2="223.27" style="stroke-width:1;stroke:#000000;fill:#000000;stroke-opacity:1.000000;fill-opacity:0.000000"/>
<line x1="230.24" y1="219.23" x2="230.24" y2="223.27" style="stroke-width:1;stroke:#000000;fill:#000000;stroke-opacity:1.000000;fill-opacity:0.000000"/>
<line x1="296.95" y1="219.23" x2="296.95" y2="223.27" style="stroke-width:1;stroke:#000000;fill:#000000;stroke-opacity:1.000000;fill-opacity:0.000000"/>
<line x1="363.65" y1="219.23" x2="363.65" y2="223.27" style="stroke-width:1;stroke:#000000;fill:#000000;stroke-opacity:1.000000;fill-opacity:0.000000"/>
<text transform="translate(21.12,231.73)"  style="font-size:12" >500</text>
<text transform="translate(86.93,231.73)"  style="font-size:12" >600</text>
<text transform="translate(153.63,231.73)"  style="font-size:12" >700</text>
<text transform="translate(220.34,231.73)"  style="font-size:12" >800</text>
<text transform="translate(287.05,231.73)"  style="font-size:12" >900</text>
<text transform="translate(350.45,231.73)"  style="font-size:12" >1000</text>
<line x1="17.50" y1="198.65" x2="17.50" y2="17.86" style="stroke-width:1;stroke:#000000;fill:#000000;stroke-opacity:1.000000;fill-opacity:0.000000"/>
<line x1="17.50" y1="198.65" x2="13.47" y2="198.65" style="stroke-width:1;stroke:#000000;fill:#000000;stroke-opacity:1.000000;fill-opacity:0.000000"/>
<line x1="17.50" y1="162.49" x2="13.47" y2="162.49" style="stroke-width:1;stroke:#000000;fill:#000000;stroke-opacity:1.000000;fill-opacity:0.000000"/>
<line x1="17.50" y1="126.33" x2="13.47" y2="126.33" style="stroke-width:1;stroke:#000000;fill:#000000;stroke-opacity:1.000000;fill-opacity:0.000000"/>
<line x1="17.50" y1="90.18" x2="13.47" y2="90.18" style="stroke-width:1;stroke:#000000;fill:#000000;stroke-opacity:1.000000;fill-opacity:0.000000"/>
<line x1="17.50" y1="54.02" x2="13.47" y2="54.02" style="stroke-width:1;stroke:#000000;fill:#000000;stroke-opacity:1.000000;fill-opacity:0.000000"/>
<line x1="17.50" y1="17.86" x2="13.47" y2="17.86" style="stroke-width:1;stroke:#000000;fill:#000000;stroke-opacity:1.000000;fill-opacity:0.000000"/>
<text transform="translate(13.33,210.38) rotate(-90)"  style="font-size:12" >0.38</text>
<text transform="translate(13.33,174.22) rotate(-90)"  style="font-size:12" >0.40</text>
<text transform="translate(13.33,138.07) rotate(-90)"  style="font-size:12" >0.42</text>
<text transform="translate(13.33,101.91) rotate(-90)"  style="font-size:12" >0.44</text>
<text transform="translate(13.33,65.75) rotate(-90)"  style="font-size:12" >0.46</text>
<text transform="translate(13.33,29.60) rotate(-90)"  style="font-size:12" >0.48</text>
<polyline points="17.50 , 17.50 17.50 , 219.23 376.27 , 219.23 " style="stroke-width:1;stroke:#000000;fill:#000000;stroke-opacity:1.000000;fill-opacity:0.000000"/>
<text transform="translate(148.57,14.75)"  style="font-size:14" >Trace of  sigma</text>
<text transform="translate(126.85,240.07)"  style="font-size:12" >Iterations (without warmup)</text>
<polyline points="30.79 , 147.78 31.45 , 111.47 32.12 , 114.69 32.79 , 76.57 33.46 , 176.99 34.12 , 88.90 34.79 , 96.57 35.46 , 146.33 36.12 , 153.82 36.79 , 157.82 37.46 , 135.03 38.13 , 137.78 38.79 , 122.01 39.46 , 96.04 40.13 , 105.24 40.79 , 146.77 41.46 , 129.04 42.13 , 106.34 42.80 , 107.83 43.46 , 112.70 44.13 , 152.05 44.80 , 126.71 45.46 , 127.08 46.13 , 140.33 46.80 , 147.05 47.46 , 153.70 48.13 , 160.10 48.80 , 132.67 49.47 , 120.49 50.13 , 115.60 50.80 , 96.27 51.47 , 154.64 52.13 , 135.35 52.80 , 125.45 53.47 , 105.80 54.14 , 101.07 54.80 , 120.56 55.47 , 91.30 56.14 , 123.61 56.80 , 119.45 57.47 , 138.71 58.14 , 115.80 58.80 , 124.05 59.47 , 139.30 60.14 , 89.57 60.81 , 173.69 61.47 , 137.54 62.14 , 136.88 62.81 , 120.24 63.47 , 92.98 64.14 , 93.59 64.81 , 129.48 65.48 , 118.49 66.14 , 128.51 66.81 , 124.25 67.48 , 126.54 68.14 , 132.25 68.81 , 117.17 69.48 , 141.90 70.14 , 106.03 70.81 , 108.43 71.48 , 111.56 72.15 , 117.90 72.81 , 133.04 73.48 , 127.05 74.15 , 101.57 74.81 , 145.51 75.48 , 88.01 76.15 , 124.17 76.82 , 121.24 77.48 , 97.29 78.15 , 104.32 78.82 , 104.52 79.48 , 169.40 80.15 , 79.61 80.82 , 57.74 81.48 , 153.97 82.15 , 101.58 82.82 , 140.91 83.49 , 132.49 84.15 , 145.47 84.82 , 162.05 85.49 , 156.55 86.15 , 145.91 86.82 , 132.13 87.49 , 147.18 88.16 , 99.64 88.82 , 114.84 89.49 , 134.27 90.16 , 91.40 90.82 , 116.16 91.49 , 164.15 92.16 , 142.03 92.82 , 138.81 93.49 , 139.78 94.16 , 97.02 94.83 , 113.43 95.49 , 158.25 96.16 , 92.28 96.83 , 144.10 97.49 , 124.69 98.16 , 130.36 98.83 , 123.36 99.50 , 127.37 100.16 , 152.95 100.83 , 118.33 101.50 , 112.53 102.16 , 99.19 102.83 , 155.63 103.50 , 154.66 104.16 , 158.36 104.83 , 157.35 105.50 , 84.45 106.17 , 75.85 106.83 , 114.64 107.50 , 150.19 108.17 , 154.60 108.83 , 86.44 109.50 , 154.71 110.17 , 113.55 110.84 , 146.71 111.50 , 146.80 112.17 , 144.63 112.84 , 150.15 113.50 , 122.30 114.17 , 88.49 114.84 , 79.79 115.50 , 180.28 116.17 , 159.77 116.84 , 168.83 117.51 , 86.72 118.17 , 136.78 118.84 , 116.60 119.51 , 146.66 120.17 , 135.24 120.84 , 92.81 121.51 , 149.33 122.18 , 115.97 122.84 , 137.47 123.51 , 176.33 124.18 , 76.46 124.84 , 156.93 125.51 , 132.58 126.18 , 142.39 126.85 , 108.37 127.51 , 144.79 128.18 , 102.71 128.85 , 101.56 129.51 , 136.21 130.18 , 119.78 130.85 , 118.59 131.51 , 133.30 132.18 , 133.30 132.85 , 122.67 133.52 , 104.31 134.18 , 130.18 134.85 , 129.59 135.52 , 129.59 136.18 , 140.38 136.85 , 140.38 137.52 , 140.38 138.19 , 140.38 138.85 , 123.93 139.52 , 138.82 140.19 , 153.70 140.85 , 100.94 141.52 , 83.54 142.19 , 77.59 142.85 , 179.78 143.52 , 50.24 144.19 , 156.94 144.86 , 144.69 145.52 , 120.49 146.19 , 85.44 146.86 , 152.29 147.52 , 155.87 148.19 , 103.54 148.86 , 147.21 149.53 , 129.56 150.19 , 132.34 150.86 , 132.34 151.53 , 146.89 152.19 , 150.14 152.86 , 72.35 153.53 , 98.73 154.19 , 101.49 154.86 , 153.78 155.53 , 117.04 156.20 , 83.34 156.86 , 83.64 157.53 , 74.31 158.20 , 166.43 158.86 , 122.55 159.53 , 138.25 160.20 , 89.78 160.87 , 87.32 161.53 , 123.36 162.20 , 141.84 162.87 , 131.41 163.53 , 138.74 164.20 , 114.96 164.87 , 107.66 165.53 , 191.74 166.20 , 188.17 166.87 , 129.09 167.54 , 130.48 168.20 , 117.17 168.87 , 134.81 169.54 , 142.13 170.20 , 125.15 170.87 , 108.57 171.54 , 140.66 172.21 , 180.63 172.87 , 53.73 173.54 , 51.57 174.21 , 187.36 174.87 , 183.07 175.54 , 93.58 176.21 , 79.87 176.87 , 131.30 177.54 , 156.53 178.21 , 24.97 178.88 , 211.76 179.54 , 176.01 180.21 , 61.34 180.88 , 131.75 181.54 , 163.90 182.21 , 109.07 182.88 , 144.28 183.55 , 90.60 184.21 , 115.29 184.88 , 116.11 185.55 , 128.44 186.21 , 97.85 186.88 , 157.84 187.55 , 96.43 188.21 , 97.67 188.88 , 90.98 189.55 , 95.35 190.22 , 116.16 190.88 , 139.99 191.55 , 131.00 192.22 , 118.63 192.88 , 123.25 193.55 , 109.53 194.22 , 100.25 194.89 , 118.10 195.55 , 145.68 196.22 , 148.55 196.89 , 151.15 197.55 , 81.37 198.22 , 164.88 198.89 , 173.65 199.55 , 78.97 200.22 , 170.94 200.89 , 111.55 201.56 , 106.05 202.22 , 108.30 202.89 , 108.90 203.56 , 147.21 204.22 , 120.43 204.89 , 159.01 205.56 , 124.68 206.23 , 135.70 206.89 , 92.65 207.56 , 102.88 208.23 , 140.42 208.89 , 135.31 209.56 , 129.07 210.23 , 137.85 210.89 , 118.61 211.56 , 113.70 212.23 , 112.55 212.90 , 132.85 213.56 , 117.73 214.23 , 133.24 214.90 , 130.88 215.56 , 136.33 216.23 , 130.91 216.90 , 139.06 217.57 , 98.84 218.23 , 95.58 218.90 , 126.76 219.57 , 120.81 220.23 , 125.02 220.90 , 182.86 221.57 , 56.06 222.24 , 65.15 222.90 , 191.23 223.57 , 132.52 224.24 , 135.87 224.90 , 144.48 225.57 , 144.53 226.24 , 112.41 226.90 , 133.15 227.57 , 128.79 228.24 , 102.54 228.91 , 110.37 229.57 , 107.77 230.24 , 140.17 230.91 , 129.71 231.57 , 100.84 232.24 , 97.82 232.91 , 126.16 233.58 , 158.29 234.24 , 93.93 234.91 , 149.63 235.58 , 95.75 236.24 , 129.12 236.91 , 132.58 237.58 , 87.01 238.24 , 157.39 238.91 , 139.16 239.58 , 135.25 240.25 , 145.77 240.91 , 108.10 241.58 , 144.00 242.25 , 106.69 242.91 , 110.50 243.58 , 113.61 244.25 , 138.94 244.92 , 107.97 245.58 , 144.41 246.25 , 103.70 246.92 , 144.35 247.58 , 136.54 248.25 , 132.95 248.92 , 101.41 249.58 , 103.56 250.25 , 136.82 250.92 , 138.93 251.59 , 126.19 252.25 , 145.15 252.92 , 139.74 253.59 , 110.16 254.25 , 155.00 254.92 , 155.52 255.59 , 121.22 256.26 , 130.26 256.92 , 109.98 257.59 , 121.95 258.26 , 126.12 258.92 , 123.75 259.59 , 121.98 260.26 , 128.43 260.92 , 117.23 261.59 , 94.23 262.26 , 88.12 262.93 , 92.74 263.59 , 107.44 264.26 , 89.76 264.93 , 82.65 265.59 , 145.18 266.26 , 135.82 266.93 , 135.13 267.60 , 95.59 268.26 , 150.41 268.93 , 197.07 269.60 , 82.79 270.26 , 100.91 270.93 , 161.55 271.60 , 129.97 272.26 , 148.44 272.93 , 145.31 273.60 , 174.99 274.27 , 179.33 274.93 , 154.29 275.60 , 163.00 276.27 , 158.32 276.93 , 137.91 277.60 , 97.21 278.27 , 137.15 278.94 , 108.91 279.60 , 120.09 280.27 , 163.31 280.94 , 93.65 281.60 , 159.18 282.27 , 157.57 282.94 , 98.15 283.60 , 148.53 284.27 , 123.65 284.94 , 136.07 285.61 , 159.58 286.27 , 116.16 286.94 , 134.55 287.61 , 118.47 288.27 , 137.52 288.94 , 137.77 289.61 , 88.63 290.28 , 161.78 290.94 , 84.97 291.61 , 155.01 292.28 , 165.26 292.94 , 91.50 293.61 , 172.85 294.28 , 173.39 294.94 , 94.66 295.61 , 88.42 296.28 , 140.53 296.95 , 113.37 297.61 , 142.36 298.28 , 149.16 298.95 , 114.18 299.61 , 74.60 300.28 , 153.79 300.95 , 109.55 301.62 , 84.51 302.28 , 80.44 302.95 , 96.07 303.62 , 66.19 304.28 , 113.30 304.95 , 115.26 305.62 , 126.89 306.29 , 88.50 306.95 , 132.09 307.62 , 95.97 308.29 , 164.85 308.95 , 103.63 309.62 , 128.37 310.29 , 119.58 310.95 , 135.19 311.62 , 99.74 312.29 , 187.77 312.96 , 122.22 313.62 , 138.62 314.29 , 84.54 314.96 , 154.29 315.62 , 163.18 316.29 , 158.95 316.96 , 136.65 317.63 , 106.13 318.29 , 96.23 318.96 , 132.75 319.63 , 97.51 320.29 , 170.53 320.96 , 93.32 321.63 , 132.78 322.29 , 131.41 322.96 , 123.74 323.63 , 139.24 324.30 , 143.39 324.96 , 121.04 325.63 , 149.21 326.30 , 104.36 326.96 , 115.77 327.63 , 80.86 328.30 , 174.13 328.97 , 172.36 329.63 , 165.44 330.30 , 74.51 330.97 , 161.88 331.63 , 124.67 332.30 , 100.32 332.97 , 155.00 333.63 , 113.72 334.30 , 117.71 334.97 , 120.21 335.64 , 115.74 336.30 , 124.46 336.97 , 164.88 337.64 , 89.79 338.30 , 140.37 338.97 , 123.51 339.64 , 127.37 340.31 , 119.27 340.97 , 173.69 341.64 , 142.78 342.31 , 134.65 342.97 , 138.85 343.64 , 140.34 344.31 , 132.80 344.97 , 143.47 345.64 , 98.49 346.31 , 75.21 346.98 , 161.47 347.64 , 168.85 348.31 , 94.56 348.98 , 118.25 349.64 , 119.66 350.31 , 114.02 350.98 , 109.55 351.65 , 103.43 352.31 , 112.35 352.98 , 100.39 353.65 , 145.57 354.31 , 135.05 354.98 , 132.41 355.65 , 122.45 356.31 , 140.53 356.98 , 164.20 357.65 , 153.54 358.32 , 101.77 358.98 , 155.83 359.65 , 96.79 360.32 , 135.23 360.98 , 119.40 361.65 , 145.64 362.32 , 125.42 362.99 , 73.42 " style="stroke-width:1;stroke:#E66101;fill:#000000;stroke-opacity:1.000000;fill-opacity:0.000000"/>
<polyline points="30.79 , 138.07 31.45 , 142.55 32.12 , 146.33 32.79 , 113.85 33.46 , 106.97 34.12 , 103.76 34.79 , 90.20 35.46 , 127.85 36.12 , 140.17 36.79 , 143.79 37.46 , 145.79 38.13 , 112.30 38.79 , 102.89 39.46 , 171.39 40.13 , 117.39 40.79 , 82.07 41.46 , 143.22 42.13 , 113.08 42.80 , 137.27 43.46 , 147.50 44.13 , 144.26 44.80 , 124.26 45.46 , 97.83 46.13 , 78.77 46.80 , 152.99 47.46 , 91.83 48.13 , 87.66 48.80 , 156.54 49.47 , 148.83 50.13 , 154.45 50.80 , 152.34 51.47 , 53.30 52.13 , 143.42 52.80 , 147.59 53.47 , 99.96 54.14 , 138.64 54.80 , 113.59 55.47 , 106.09 56.14 , 141.59 56.80 , 103.70 57.47 , 124.09 58.14 , 122.68 58.80 , 149.74 59.47 , 125.56 60.14 , 136.72 60.81 , 123.99 61.47 , 76.82 62.14 , 126.26 62.81 , 144.60 63.47 , 124.98 64.14 , 100.28 64.81 , 123.21 65.48 , 149.52 66.14 , 146.02 66.81 , 123.07 67.48 , 165.52 68.14 , 87.83 68.81 , 151.39 69.48 , 137.32 70.14 , 154.53 70.81 , 107.37 71.48 , 150.80 72.15 , 107.52 72.81 , 142.19 73.48 , 142.45 74.15 , 133.59 74.81 , 69.42 75.48 , 118.12 76.15 , 136.64 76.82 , 126.04 77.48 , 142.05 78.15 , 147.75 78.82 , 103.08 79.48 , 126.04 80.15 , 114.96 80.82 , 155.88 81.48 , 123.65 82.15 , 129.14 82.82 , 144.79 83.49 , 149.70 84.15 , 111.18 84.82 , 135.98 85.49 , 107.52 86.15 , 107.52 86.82 , 108.67 87.49 , 101.52 88.16 , 155.66 88.82 , 111.26 89.49 , 149.60 90.16 , 126.37 90.82 , 131.31 91.49 , 108.29 92.16 , 175.23 92.82 , 153.44 93.49 , 120.04 94.16 , 143.06 94.83 , 146.23 95.49 , 119.10 96.16 , 123.42 96.83 , 134.59 97.49 , 172.41 98.16 , 85.49 98.83 , 148.80 99.50 , 114.55 100.16 , 139.72 100.83 , 133.36 101.50 , 96.45 102.16 , 111.59 102.83 , 124.14 103.50 , 142.20 104.16 , 104.48 104.83 , 154.68 105.50 , 88.57 106.17 , 112.56 106.83 , 149.29 107.50 , 119.45 108.17 , 103.33 108.83 , 124.74 109.50 , 159.22 110.17 , 100.69 110.84 , 173.30 111.50 , 79.67 112.17 , 148.34 112.84 , 88.37 113.50 , 94.20 114.17 , 129.30 114.84 , 98.91 115.50 , 140.46 116.17 , 114.06 116.84 , 123.82 117.51 , 155.43 118.17 , 104.10 118.84 , 134.43 119.51 , 125.21 120.17 , 115.55 120.84 , 92.18 121.51 , 139.31 122.18 , 152.57 122.84 , 127.83 123.51 , 132.76 124.18 , 124.13 124.84 , 121.94 125.51 , 158.36 126.18 , 97.95 126.85 , 131.67 127.51 , 151.87 128.18 , 113.26 128.85 , 107.39 129.51 , 135.95 130.18 , 98.52 130.85 , 134.41 131.51 , 139.13 132.18 , 123.72 132.85 , 124.10 133.52 , 155.06 134.18 , 103.52 134.85 , 131.50 135.52 , 138.49 136.18 , 102.44 136.85 , 120.35 137.52 , 115.30 138.19 , 173.10 138.85 , 75.99 139.52 , 121.08 140.19 , 115.05 140.85 , 122.18 141.52 , 105.60 142.19 , 137.18 142.85 , 104.17 143.52 , 147.64 144.19 , 105.99 144.86 , 162.26 145.52 , 103.26 146.19 , 112.35 146.86 , 124.31 147.52 , 105.90 148.19 , 112.77 148.86 , 176.31 149.53 , 135.66 150.19 , 111.01 150.86 , 166.16 151.53 , 98.85 152.19 , 92.73 152.86 , 168.01 153.53 , 127.68 154.19 , 121.28 154.86 , 116.24 155.53 , 141.03 156.20 , 118.39 156.86 , 132.74 157.53 , 176.90 158.20 , 148.56 158.86 , 120.97 159.53 , 127.30 160.20 , 83.18 160.87 , 156.32 161.53 , 111.96 162.20 , 117.38 162.87 , 90.33 163.53 , 155.66 164.20 , 97.38 164.87 , 130.17 165.53 , 151.73 166.20 , 123.95 166.87 , 140.72 167.54 , 143.59 168.20 , 114.48 168.87 , 112.46 169.54 , 127.86 170.20 , 105.81 170.87 , 126.89 171.54 , 118.12 172.21 , 121.80 172.87 , 149.10 173.54 , 114.47 174.21 , 151.19 174.87 , 121.17 175.54 , 142.85 176.21 , 149.66 176.87 , 117.87 177.54 , 47.92 178.21 , 199.23 178.88 , 134.95 179.54 , 108.23 180.21 , 110.68 180.88 , 145.51 181.54 , 105.95 182.21 , 97.80 182.88 , 123.88 183.55 , 130.82 184.21 , 126.04 184.88 , 143.07 185.55 , 174.77 186.21 , 78.00 186.88 , 182.15 187.55 , 98.77 188.21 , 144.28 188.88 , 130.45 189.55 , 142.45 190.22 , 128.78 190.88 , 73.09 191.55 , 102.25 192.22 , 153.78 192.88 , 150.90 193.55 , 130.34 194.22 , 135.08 194.89 , 104.63 195.55 , 149.22 196.22 , 148.25 196.89 , 140.92 197.55 , 156.88 198.22 , 124.98 198.89 , 131.11 199.55 , 142.90 200.22 , 141.80 200.89 , 118.14 201.56 , 138.83 202.22 , 119.04 202.89 , 87.79 203.56 , 99.69 204.22 , 189.37 204.89 , 141.22 205.56 , 103.31 206.23 , 154.21 206.89 , 114.63 207.56 , 87.97 208.23 , 158.64 208.89 , 145.32 209.56 , 61.04 210.23 , 168.03 210.89 , 77.30 211.56 , 111.64 212.23 , 89.01 212.90 , 101.60 213.56 , 132.22 214.23 , 115.20 214.90 , 144.45 215.56 , 136.79 216.23 , 116.75 216.90 , 135.73 217.57 , 128.59 218.23 , 82.89 218.90 , 171.21 219.57 , 75.31 220.23 , 170.87 220.90 , 103.72 221.57 , 138.29 222.24 , 136.59 222.90 , 118.06 223.57 , 113.64 224.24 , 89.77 224.90 , 140.13 225.57 , 150.71 226.24 , 88.40 226.90 , 82.53 227.57 , 157.08 228.24 , 159.15 228.91 , 93.55 229.57 , 97.90 230.24 , 92.44 230.91 , 160.31 231.57 , 112.86 232.24 , 127.07 232.91 , 163.03 233.58 , 128.44 234.24 , 128.12 234.91 , 107.17 235.58 , 149.64 236.24 , 118.89 236.91 , 83.89 237.58 , 91.70 238.24 , 106.38 238.91 , 132.15 239.58 , 130.06 240.25 , 107.80 240.91 , 132.78 241.58 , 159.80 242.25 , 147.41 242.91 , 105.48 243.58 , 152.62 244.25 , 95.76 244.92 , 149.52 245.58 , 140.05 246.25 , 114.04 246.92 , 152.89 247.58 , 150.81 248.25 , 85.24 248.92 , 104.49 249.58 , 136.37 250.25 , 111.16 250.92 , 179.95 251.59 , 48.60 252.25 , 200.25 252.92 , 77.46 253.59 , 181.83 254.25 , 170.02 254.92 , 98.33 255.59 , 117.83 256.26 , 145.48 256.92 , 89.23 257.59 , 91.22 258.26 , 95.21 258.92 , 95.49 259.59 , 160.96 260.26 , 121.44 260.92 , 119.88 261.59 , 114.63 262.26 , 117.92 262.93 , 114.11 263.59 , 145.18 264.26 , 134.83 264.93 , 113.85 265.59 , 115.78 266.26 , 138.55 266.93 , 126.92 267.60 , 131.30 268.26 , 132.42 268.93 , 112.06 269.60 , 147.81 270.26 , 118.18 270.93 , 129.32 271.60 , 108.82 272.26 , 162.21 272.93 , 130.38 273.60 , 124.90 274.27 , 125.65 274.93 , 142.57 275.60 , 180.82 276.27 , 183.93 276.93 , 124.96 277.60 , 116.48 278.27 , 120.85 278.94 , 107.09 279.60 , 101.39 280.27 , 126.23 280.94 , 101.81 281.60 , 95.17 282.27 , 114.99 282.94 , 107.03 283.60 , 123.60 284.27 , 123.60 284.94 , 126.46 285.61 , 119.80 286.27 , 127.82 286.94 , 131.93 287.61 , 128.48 288.27 , 162.19 288.94 , 113.50 289.61 , 123.93 290.28 , 147.08 290.94 , 143.81 291.61 , 139.74 292.28 , 88.20 292.94 , 158.78 293.61 , 58.01 294.28 , 150.76 294.94 , 124.03 295.61 , 124.03 296.28 , 124.03 296.95 , 124.03 297.61 , 140.37 298.28 , 113.31 298.95 , 142.78 299.61 , 137.04 300.28 , 127.06 300.95 , 123.98 301.62 , 130.85 302.28 , 147.56 302.95 , 171.69 303.62 , 149.77 304.28 , 143.55 304.95 , 122.77 305.62 , 111.57 306.29 , 111.61 306.95 , 145.76 307.62 , 51.71 308.29 , 187.13 308.95 , 79.49 309.62 , 129.52 310.29 , 135.39 310.95 , 140.61 311.62 , 113.59 312.29 , 156.99 312.96 , 109.35 313.62 , 157.69 314.29 , 90.18 314.96 , 147.65 315.62 , 109.11 316.29 , 93.94 316.96 , 149.51 317.63 , 111.38 318.29 , 169.11 318.96 , 100.35 319.63 , 109.81 320.29 , 149.95 320.96 , 126.14 321.63 , 87.67 322.29 , 111.52 322.96 , 132.14 323.63 , 150.69 324.30 , 118.67 324.96 , 117.48 325.63 , 103.78 326.30 , 111.80 326.96 , 121.20 327.63 , 125.03 328.30 , 130.54 328.97 , 86.33 329.63 , 162.49 330.30 , 160.83 330.97 , 105.89 331.63 , 135.28 332.30 , 132.74 332.97 , 144.58 333.63 , 137.97 334.30 , 132.23 334.97 , 137.60 335.64 , 115.76 336.30 , 129.91 336.97 , 118.64 337.64 , 108.05 338.30 , 147.67 338.97 , 192.84 339.64 , 178.70 340.31 , 81.25 340.97 , 118.57 341.64 , 125.57 342.31 , 90.15 342.97 , 193.76 343.64 , 74.78 344.31 , 108.19 344.97 , 116.34 345.64 , 99.71 346.31 , 96.17 346.98 , 122.24 347.64 , 98.50 348.31 , 88.85 348.98 , 127.12 349.64 , 119.95 350.31 , 142.59 350.98 , 122.18 351.65 , 149.18 352.31 , 100.85 352.98 , 180.57 353.65 , 88.12 354.31 , 84.43 354.98 , 165.78 355.65 , 110.30 356.31 , 131.99 356.98 , 120.48 357.65 , 82.59 358.32 , 89.79 358.98 , 165.21 359.65 , 95.27 360.32 , 161.05 360.98 , 116.81 361.65 , 91.28 362.32 , 169.03 362.99 , 108.33 " style="stroke-width:1;stroke:#998EC3;fill:#000000;stroke-opacity:1.000000;fill-opacity:0.000000"/>
<polyline points="30.79 , 158.20 31.45 , 135.90 32.12 , 156.97 32.79 , 94.46 33.46 , 163.13 34.12 , 165.50 34.79 , 94.86 35.46 , 162.16 36.12 , 89.63 36.79 , 159.24 37.46 , 117.09 38.13 , 92.33 38.79 , 134.66 39.46 , 77.14 40.13 , 58.40 40.79 , 183.00 41.46 , 83.22 42.13 , 165.84 42.80 , 102.80 43.46 , 118.64 44.13 , 105.66 44.80 , 119.24 45.46 , 117.38 46.13 , 140.03 46.80 , 106.49 47.46 , 169.46 48.13 , 127.23 48.80 , 130.74 49.47 , 133.68 50.13 , 135.07 50.80 , 113.00 51.47 , 154.41 52.13 , 153.81 52.80 , 106.22 53.47 , 129.03 54.14 , 139.43 54.80 , 129.41 55.47 , 132.17 56.14 , 166.14 56.80 , 82.47 57.47 , 195.97 58.14 , 130.46 58.80 , 136.60 59.47 , 132.28 60.14 , 135.97 60.81 , 151.68 61.47 , 109.06 62.14 , 130.91 62.81 , 132.50 63.47 , 133.35 64.14 , 119.64 64.81 , 122.79 65.48 , 110.17 66.14 , 84.59 66.81 , 178.28 67.48 , 120.09 68.14 , 108.56 68.81 , 145.04 69.48 , 168.05 70.14 , 121.99 70.81 , 136.06 71.48 , 139.64 72.15 , 103.19 72.81 , 119.47 73.48 , 147.23 74.15 , 133.39 74.81 , 162.17 75.48 , 99.95 76.15 , 126.42 76.82 , 151.83 77.48 , 114.96 78.15 , 158.81 78.82 , 177.31 79.48 , 75.84 80.15 , 173.38 80.82 , 94.55 81.48 , 147.40 82.15 , 124.71 82.82 , 132.77 83.49 , 158.89 84.15 , 119.12 84.82 , 69.10 85.49 , 137.61 86.15 , 124.55 86.82 , 153.27 87.49 , 127.01 88.16 , 138.54 88.82 , 115.67 89.49 , 128.06 90.16 , 143.41 90.82 , 108.63 91.49 , 130.15 92.16 , 171.16 92.82 , 171.16 93.49 , 177.68 94.16 , 173.15 94.83 , 159.17 95.49 , 110.95 96.16 , 66.54 96.83 , 190.12 97.49 , 52.08 98.16 , 124.50 98.83 , 137.30 99.50 , 133.09 100.16 , 178.07 100.83 , 73.97 101.50 , 130.28 102.16 , 90.33 102.83 , 164.61 103.50 , 78.16 104.16 , 66.13 104.83 , 174.82 105.50 , 115.41 106.17 , 151.05 106.83 , 127.46 107.50 , 152.34 108.17 , 136.92 108.83 , 74.46 109.50 , 113.63 110.17 , 97.17 110.84 , 146.17 111.50 , 116.52 112.17 , 115.26 112.84 , 134.46 113.50 , 109.52 114.17 , 110.09 114.84 , 138.49 115.50 , 109.46 116.17 , 129.36 116.84 , 122.61 117.51 , 106.93 118.17 , 130.65 118.84 , 127.21 119.51 , 115.64 120.17 , 149.30 120.84 , 115.86 121.51 , 132.52 122.18 , 117.77 122.84 , 122.48 123.51 , 144.87 124.18 , 106.45 124.84 , 139.40 125.51 , 150.28 126.18 , 144.29 126.85 , 105.11 127.51 , 149.92 128.18 , 115.15 128.85 , 135.32 129.51 , 98.09 130.18 , 154.10 130.85 , 183.75 131.51 , 65.00 132.18 , 105.13 132.85 , 148.41 133.52 , 137.65 134.18 , 118.86 134.85 , 112.93 135.52 , 113.42 136.18 , 140.76 136.85 , 146.98 137.52 , 124.49 138.19 , 122.42 138.85 , 153.12 139.52 , 140.55 140.19 , 97.01 140.85 , 121.45 141.52 , 161.51 142.19 , 152.02 142.85 , 78.33 143.52 , 99.17 144.19 , 145.11 144.86 , 98.65 145.52 , 128.23 146.19 , 125.75 146.86 , 133.98 147.52 , 82.94 148.19 , 111.74 148.86 , 103.58 149.53 , 119.94 150.19 , 109.41 150.86 , 144.01 151.53 , 126.19 152.19 , 124.93 152.86 , 132.05 153.53 , 120.07 154.19 , 163.81 154.86 , 68.63 155.53 , 67.91 156.20 , 79.75 156.86 , 136.85 157.53 , 120.41 158.20 , 104.11 158.86 , 167.02 159.53 , 150.49 160.20 , 98.57 160.87 , 140.92 161.53 , 128.71 162.20 , 141.59 162.87 , 126.02 163.53 , 133.51 164.20 , 162.01 164.87 , 163.00 165.53 , 90.74 166.20 , 138.69 166.87 , 127.40 167.54 , 146.42 168.20 , 153.89 168.87 , 119.56 169.54 , 115.18 170.20 , 133.32 170.87 , 96.19 171.54 , 137.35 172.21 , 134.25 172.87 , 130.65 173.54 , 127.44 174.21 , 139.43 174.87 , 139.96 175.54 , 98.03 176.21 , 113.65 176.87 , 141.62 177.54 , 190.52 178.21 , 180.94 178.88 , 195.01 179.54 , 177.53 180.21 , 165.15 180.88 , 159.13 181.54 , 172.75 182.21 , 164.09 182.88 , 127.43 183.55 , 131.08 184.21 , 126.95 184.88 , 172.54 185.55 , 91.70 186.21 , 116.38 186.88 , 178.39 187.55 , 188.32 188.21 , 157.15 188.88 , 185.66 189.55 , 139.83 190.22 , 156.23 190.88 , 87.49 191.55 , 118.38 192.22 , 146.71 192.88 , 121.75 193.55 , 124.10 194.22 , 145.35 194.89 , 133.67 195.55 , 114.70 196.22 , 140.84 196.89 , 144.68 197.55 , 136.90 198.22 , 146.98 198.89 , 172.69 199.55 , 186.39 200.22 , 183.75 200.89 , 179.93 201.56 , 178.31 202.22 , 176.86 202.89 , 197.18 203.56 , 83.72 204.22 , 160.60 204.89 , 88.21 205.56 , 114.69 206.23 , 119.87 206.89 , 124.17 207.56 , 133.33 208.23 , 125.18 208.89 , 111.17 209.56 , 101.17 210.23 , 95.54 210.89 , 120.19 211.56 , 120.49 212.23 , 115.98 212.90 , 141.90 213.56 , 109.02 214.23 , 115.59 214.90 , 119.83 215.56 , 91.04 216.23 , 99.16 216.90 , 177.10 217.57 , 88.76 218.23 , 146.13 218.90 , 126.13 219.57 , 136.60 220.23 , 143.97 220.90 , 109.75 221.57 , 62.07 222.24 , 171.50 222.90 , 135.42 223.57 , 154.67 224.24 , 93.97 224.90 , 125.09 225.57 , 135.78 226.24 , 186.85 226.90 , 166.21 227.57 , 112.59 228.24 , 127.42 228.91 , 124.99 229.57 , 134.03 230.24 , 129.71 230.91 , 119.84 231.57 , 100.16 232.24 , 135.63 232.91 , 127.35 233.58 , 123.80 234.24 , 135.58 234.91 , 109.38 235.58 , 155.64 236.24 , 145.99 236.91 , 117.83 237.58 , 97.30 238.24 , 160.40 238.91 , 73.62 239.58 , 172.83 240.25 , 122.03 240.91 , 144.59 241.58 , 121.56 242.25 , 119.73 242.91 , 67.65 243.58 , 38.59 244.25 , 165.11 244.92 , 158.92 245.58 , 123.05 246.25 , 64.69 246.92 , 165.39 247.58 , 55.19 248.25 , 55.64 248.92 , 146.63 249.58 , 80.06 250.25 , 47.24 250.92 , 160.76 251.59 , 96.08 252.25 , 162.57 252.92 , 149.73 253.59 , 103.71 254.25 , 146.72 254.92 , 71.64 255.59 , 182.10 256.26 , 162.51 256.92 , 90.13 257.59 , 163.16 258.26 , 98.29 258.92 , 169.92 259.59 , 107.03 260.26 , 119.66 260.92 , 151.39 261.59 , 139.33 262.26 , 129.56 262.93 , 74.66 263.59 , 164.29 264.26 , 77.05 264.93 , 84.87 265.59 , 156.16 266.26 , 83.47 266.93 , 98.02 267.60 , 134.87 268.26 , 111.74 268.93 , 119.81 269.60 , 101.16 270.26 , 99.31 270.93 , 133.32 271.60 , 136.09 272.26 , 120.59 272.93 , 138.21 273.60 , 128.06 274.27 , 126.59 274.93 , 128.76 275.60 , 119.19 276.27 , 105.98 276.93 , 148.64 277.60 , 149.33 278.27 , 161.18 278.94 , 164.27 279.60 , 82.73 280.27 , 161.44 280.94 , 97.19 281.60 , 161.07 282.27 , 108.17 282.94 , 156.84 283.60 , 131.03 284.27 , 128.21 284.94 , 114.78 285.61 , 126.08 286.27 , 164.30 286.94 , 91.07 287.61 , 159.69 288.27 , 128.55 288.94 , 135.04 289.61 , 103.86 290.28 , 123.15 290.94 , 103.87 291.61 , 153.09 292.28 , 122.10 292.94 , 100.08 293.61 , 79.79 294.28 , 127.57 294.94 , 153.30 295.61 , 114.15 296.28 , 135.05 296.95 , 133.11 297.61 , 168.39 298.28 , 170.73 298.95 , 179.61 299.61 , 84.86 300.28 , 83.04 300.95 , 107.40 301.62 , 140.38 302.28 , 133.47 302.95 , 117.06 303.62 , 122.14 304.28 , 110.31 304.95 , 105.46 305.62 , 141.10 306.29 , 138.74 306.95 , 159.33 307.62 , 158.63 308.29 , 106.44 308.95 , 157.46 309.62 , 161.40 310.29 , 136.77 310.95 , 148.67 311.62 , 81.08 312.29 , 166.47 312.96 , 89.49 313.62 , 180.42 314.29 , 67.05 314.96 , 204.32 315.62 , 139.78 316.29 , 121.30 316.96 , 132.84 317.63 , 128.28 318.29 , 93.76 318.96 , 154.32 319.63 , 108.56 320.29 , 95.47 320.96 , 161.43 321.63 , 145.99 322.29 , 148.67 322.96 , 128.94 323.63 , 136.06 324.30 , 118.23 324.96 , 139.75 325.63 , 125.88 326.30 , 157.15 326.96 , 152.13 327.63 , 145.29 328.30 , 90.10 328.97 , 97.65 329.63 , 138.88 330.30 , 125.67 330.97 , 110.15 331.63 , 150.68 332.30 , 105.17 332.97 , 135.24 333.63 , 159.04 334.30 , 137.61 334.97 , 127.28 335.64 , 114.98 336.30 , 127.08 336.97 , 129.01 337.64 , 136.62 338.30 , 130.49 338.97 , 117.43 339.64 , 134.29 340.31 , 178.74 340.97 , 129.04 341.64 , 112.36 342.31 , 110.93 342.97 , 116.35 343.64 , 84.95 344.31 , 138.69 344.97 , 111.13 345.64 , 114.17 346.31 , 114.53 346.98 , 98.23 347.64 , 106.51 348.31 , 144.96 348.98 , 93.84 349.64 , 97.77 350.31 , 107.93 350.98 , 139.71 351.65 , 121.80 352.31 , 110.53 352.98 , 136.02 353.65 , 106.60 354.31 , 129.53 354.98 , 117.41 355.65 , 150.29 356.31 , 130.42 356.98 , 104.27 357.65 , 148.15 358.32 , 104.38 358.98 , 156.38 359.65 , 103.54 360.32 , 154.03 360.98 , 138.47 361.65 , 99.01 362.32 , 174.24 362.99 , 184.67 " style="stroke-width:1;stroke:#542788;fill:#000000;stroke-opacity:1.000000;fill-opacity:0.000000"/>
</svg>
