<?xml version="1.0" encoding="UTF-8"?>
<svg xmlns="http://www.w3.org/2000/svg" width="385.44" height="240.90" viewBox="0,0,385.44,240.90">
<desc>R SVG Plot!</desc>
<rect width="100%" height="100%" style="fill:#FFFFFF"/>
<polygon points="0.00 , 0.00 385.44 , 0.00 385.44 , 240.90 0.00 , 240.90 " style="stroke-width:1;stroke:#FFFFFF;fill:#FFFFFF;stroke-opacity:1.000000;fill-opacity:1.000000" />
<polygon points="46.35 , 205.54 46.35 , 12.05 373.39 , 12.05 373.39 , 205.54 " style="stroke-width:1;stroke:#FFFFFF;fill:#E5E5E5;stroke-opacity:0.000000;fill-opacity:1.000000" />
<polyline points="94.23 , 205.54 94.23 , 12.05 " style="stroke-width:0;stroke:#F2F2F2;fill:#000000;stroke-opacity:1.000000;fill-opacity:0.000000"/>
<polyline points="170.88 , 205.54 170.88 , 12.05 " style="stroke-width:0;stroke:#F2F2F2;fill:#000000;stroke-opacity:1.000000;fill-opacity:0.000000"/>
<polyline points="247.53 , 205.54 247.53 , 12.05 " style="stroke-width:0;stroke:#F2F2F2;fill:#000000;stroke-opacity:1.000000;fill-opacity:0.000000"/>
<polyline points="324.18 , 205.54 324.18 , 12.05 " style="stroke-width:0;stroke:#F2F2F2;fill:#000000;stroke-opacity:1.000000;fill-opacity:0.000000"/>
<polyline points="46.35 , 183.22 373.39 , 183.22 " style="stroke-width:1;stroke:#FFFFFF;fill:#000000;stroke-opacity:1.000000;fill-opacity:0.000000"/>
<polyline points="46.35 , 146.00 373.39 , 146.00 " style="stroke-width:1;stroke:#FFFFFF;fill:#000000;stroke-opacity:1.000000;fill-opacity:0.000000"/>
<polyline points="46.35 , 108.79 373.39 , 108.79 " style="stroke-width:1;stroke:#FFFFFF;fill:#000000;stroke-opacity:1.000000;fill-opacity:0.000000"/>
<polyline points="46.35 , 71.58 373.39 , 71.58 " style="stroke-width:1;stroke:#FFFFFF;fill:#000000;stroke-opacity:1.000000;fill-opacity:0.000000"/>
<polyline points="46.35 , 34.37 373.39 , 34.37 " style="stroke-width:1;stroke:#FFFFFF;fill:#000000;stroke-opacity:1.000000;fill-opacity:0.000000"/>
<polyline points="55.91 , 205.54 55.91 , 12.05 " style="stroke-width:1;stroke:#FFFFFF;fill:#000000;stroke-opacity:1.000000;fill-opacity:0.000000"/>
<polyline points="132.55 , 205.54 132.55 , 12.05 " style="stroke-width:1;stroke:#FFFFFF;fill:#000000;stroke-opacity:1.000000;fill-opacity:0.000000"/>
<polyline points="209.20 , 205.54 209.20 , 12.05 " style="stroke-width:1;stroke:#FFFFFF;fill:#000000;stroke-opacity:1.000000;fill-opacity:0.000000"/>
<polyline points="285.85 , 205.54 285.85 , 12.05 " style="stroke-width:1;stroke:#FFFFFF;fill:#000000;stroke-opacity:1.000000;fill-opacity:0.000000"/>
<polyline points="362.50 , 205.54 362.50 , 12.05 " style="stroke-width:1;stroke:#FFFFFF;fill:#000000;stroke-opacity:1.000000;fill-opacity:0.000000"/>
<line x1="209.20" y1="205.54" x2="209.20" y2="12.05" style="stroke-width:1;stroke:#7F7F7F;fill:#000000;stroke-opacity:1.000000;fill-opacity:0.000000"/>
<line x1="97.70" y1="183.22" x2="275.89" y2="183.22" style="stroke-width:1;stroke:#000000;fill:#000000;stroke-opacity:1.000000;fill-opacity:0.000000"/>
<circle cx="183.43" cy="183.22" r="3.20" style="stroke-width:1;stroke:#FFFFFF;fill:#000000;stroke-opacity:0.000000;fill-opacity:1.000000" />
<line x1="61.22" y1="146.00" x2="290.51" y2="146.00" style="stroke-width:1;stroke:#000000;fill:#000000;stroke-opacity:1.000000;fill-opacity:0.000000"/>
<circle cx="188.62" cy="146.00" r="3.20" style="stroke-width:1;stroke:#FFFFFF;fill:#000000;stroke-opacity:0.000000;fill-opacity:1.000000" />
<line x1="80.64" y1="108.79" x2="299.52" y2="108.79" style="stroke-width:1;stroke:#000000;fill:#000000;stroke-opacity:1.000000;fill-opacity:0.000000"/>
<circle cx="196.22" cy="108.79" r="3.20" style="stroke-width:1;stroke:#FFFFFF;fill:#000000;stroke-opacity:0.000000;fill-opacity:1.000000" />
<line x1="168.62" y1="71.58" x2="358.53" y2="71.58" style="stroke-width:1;stroke:#000000;fill:#000000;stroke-opacity:1.000000;fill-opacity:0.000000"/>
<circle cx="245.93" cy="71.58" r="3.20" style="stroke-width:1;stroke:#FFFFFF;fill:#000000;stroke-opacity:0.000000;fill-opacity:1.000000" />
<line x1="132.84" y1="34.37" x2="342.61" y2="34.37" style="stroke-width:1;stroke:#000000;fill:#000000;stroke-opacity:1.000000;fill-opacity:0.000000"/>
<circle cx="223.94" cy="34.37" r="3.20" style="stroke-width:1;stroke:#FFFFFF;fill:#000000;stroke-opacity:0.000000;fill-opacity:1.000000" />
<text transform="translate(36.46,186.82)"  style="font-size:10" >I</text>
<text transform="translate(24.93,149.60)"  style="font-size:10" >I'D</text>
<text transform="translate(21.27,112.39)"  style="font-size:10" >I'LL</text>
<text transform="translate(23.10,75.18)"  style="font-size:10" >I'M</text>
<text transform="translate(19.13,37.97)"  style="font-size:10" >I'VE</text>
<polyline points="42.08 , 183.22 46.35 , 183.22 " style="stroke-width:1;stroke:#7F7F7F;fill:#000000;stroke-opacity:1.000000;fill-opacity:0.000000"/>
<polyline points="42.08 , 146.00 46.35 , 146.00 " style="stroke-width:1;stroke:#7F7F7F;fill:#000000;stroke-opacity:1.000000;fill-opacity:0.000000"/>
<polyline points="42.08 , 108.79 46.35 , 108.79 " style="stroke-width:1;stroke:#7F7F7F;fill:#000000;stroke-opacity:1.000000;fill-opacity:0.000000"/>
<polyline points="42.08 , 71.58 46.35 , 71.58 " style="stroke-width:1;stroke:#7F7F7F;fill:#000000;stroke-opacity:1.000000;fill-opacity:0.000000"/>
<polyline points="42.08 , 34.37 46.35 , 34.37 " style="stroke-width:1;stroke:#7F7F7F;fill:#000000;stroke-opacity:1.000000;fill-opacity:0.000000"/>
<polyline points="55.91 , 209.81 55.91 , 205.54 " style="stroke-width:1;stroke:#7F7F7F;fill:#000000;stroke-opacity:1.000000;fill-opacity:0.000000"/>
<polyline points="132.55 , 209.81 132.55 , 205.54 " style="stroke-width:1;stroke:#7F7F7F;fill:#000000;stroke-opacity:1.000000;fill-opacity:0.000000"/>
<polyline points="209.20 , 209.81 209.20 , 205.54 " style="stroke-width:1;stroke:#7F7F7F;fill:#000000;stroke-opacity:1.000000;fill-opacity:0.000000"/>
<polyline points="285.85 , 209.81 285.85 , 205.54 " style="stroke-width:1;stroke:#7F7F7F;fill:#000000;stroke-opacity:1.000000;fill-opacity:0.000000"/>
<polyline points="362.50 , 209.81 362.50 , 205.54 " style="stroke-width:1;stroke:#7F7F7F;fill:#000000;stroke-opacity:1.000000;fill-opacity:0.000000"/>
<text transform="translate(47.04,219.85)"  style="font-size:10" >-0.4</text>
<text transform="translate(123.69,219.85)"  style="font-size:10" >-0.2</text>
<text transform="translate(202.17,219.85)"  style="font-size:10" >0.0</text>
<text transform="translate(278.82,219.85)"  style="font-size:10" >0.2</text>
<text transform="translate(355.47,219.85)"  style="font-size:10" >0.4</text>
<text transform="translate(195.09,231.87)"  style="font-size:12" >mean</text>
<text transform="translate(18.03,122.16) rotate(-90)"  style="font-size:12" >word</text>
</svg>
