<?xml version="1.0" encoding="UTF-8"?>
<svg xmlns="http://www.w3.org/2000/svg" width="385.44" height="240.90" viewBox="0,0,385.44,240.90">
<desc>R SVG Plot!</desc>
<rect width="100%" height="100%" style="fill:#FFFFFF"/>
<polygon points="0.00 , 0.00 385.44 , 0.00 385.44 , 240.90 0.00 , 240.90 " style="stroke-width:1;stroke:#FFFFFF;fill:#FFFFFF;stroke-opacity:1.000000;fill-opacity:1.000000" />
<polygon points="40.94 , 205.54 40.94 , 12.05 373.39 , 12.05 373.39 , 205.54 " style="stroke-width:1;stroke:#FFFFFF;fill:#E5E5E5;stroke-opacity:0.000000;fill-opacity:1.000000" />
<polyline points="40.94 , 46.80 373.39 , 46.80 " style="stroke-width:0;stroke:#F2F2F2;fill:#000000;stroke-opacity:1.000000;fill-opacity:0.000000"/>
<polyline points="40.94 , 97.27 373.39 , 97.27 " style="stroke-width:0;stroke:#F2F2F2;fill:#000000;stroke-opacity:1.000000;fill-opacity:0.000000"/>
<polyline points="40.94 , 147.75 373.39 , 147.75 " style="stroke-width:0;stroke:#F2F2F2;fill:#000000;stroke-opacity:1.000000;fill-opacity:0.000000"/>
<polyline points="56.05 , 205.54 56.05 , 12.05 " style="stroke-width:0;stroke:#F2F2F2;fill:#000000;stroke-opacity:1.000000;fill-opacity:0.000000"/>
<polyline points="137.73 , 205.54 137.73 , 12.05 " style="stroke-width:0;stroke:#F2F2F2;fill:#000000;stroke-opacity:1.000000;fill-opacity:0.000000"/>
<polyline points="219.42 , 205.54 219.42 , 12.05 " style="stroke-width:0;stroke:#F2F2F2;fill:#000000;stroke-opacity:1.000000;fill-opacity:0.000000"/>
<polyline points="301.10 , 205.54 301.10 , 12.05 " style="stroke-width:0;stroke:#F2F2F2;fill:#000000;stroke-opacity:1.000000;fill-opacity:0.000000"/>
<polyline points="40.94 , 21.56 373.39 , 21.56 " style="stroke-width:1;stroke:#FFFFFF;fill:#000000;stroke-opacity:1.000000;fill-opacity:0.000000"/>
<polyline points="40.94 , 72.04 373.39 , 72.04 " style="stroke-width:1;stroke:#FFFFFF;fill:#000000;stroke-opacity:1.000000;fill-opacity:0.000000"/>
<polyline points="40.94 , 122.51 373.39 , 122.51 " style="stroke-width:1;stroke:#FFFFFF;fill:#000000;stroke-opacity:1.000000;fill-opacity:0.000000"/>
<polyline points="40.94 , 172.99 373.39 , 172.99 " style="stroke-width:1;stroke:#FFFFFF;fill:#000000;stroke-opacity:1.000000;fill-opacity:0.000000"/>
<polyline points="96.89 , 205.54 96.89 , 12.05 " style="stroke-width:1;stroke:#FFFFFF;fill:#000000;stroke-opacity:1.000000;fill-opacity:0.000000"/>
<polyline points="178.58 , 205.54 178.58 , 12.05 " style="stroke-width:1;stroke:#FFFFFF;fill:#000000;stroke-opacity:1.000000;fill-opacity:0.000000"/>
<polyline points="260.26 , 205.54 260.26 , 12.05 " style="stroke-width:1;stroke:#FFFFFF;fill:#000000;stroke-opacity:1.000000;fill-opacity:0.000000"/>
<polyline points="341.95 , 205.54 341.95 , 12.05 " style="stroke-width:1;stroke:#FFFFFF;fill:#000000;stroke-opacity:1.000000;fill-opacity:0.000000"/>
<polyline points="56.05 , 47.67 64.22 , 58.28 72.38 , 68.51 80.55 , 78.54 88.72 , 87.75 96.89 , 95.62 105.06 , 102.61 113.23 , 109.10 121.40 , 115.09 129.56 , 121.49 137.73 , 127.86 145.90 , 133.60 154.07 , 138.77 162.24 , 143.48 170.41 , 147.73 178.58 , 151.26 186.74 , 154.03 194.91 , 155.89 203.08 , 156.52 211.25 , 155.56 219.42 , 153.56 227.59 , 151.05 235.76 , 148.53 243.92 , 146.16 252.09 , 144.32 260.26 , 142.93 268.43 , 142.03 276.60 , 141.54 284.77 , 141.54 292.94 , 141.54 301.10 , 141.46 309.27 , 141.24 317.44 , 140.56 325.61 , 139.42 333.78 , 137.87 341.95 , 135.91 350.11 , 133.83 358.28 , 131.75 " style="stroke-width:1;stroke:#CD0000;fill:#000000;stroke-opacity:1.000000;fill-opacity:0.000000"/>
<polygon points="56.05 , 74.00 64.22 , 81.25 72.38 , 89.42 80.55 , 98.83 88.72 , 108.35 96.89 , 115.33 105.06 , 122.86 113.23 , 129.43 121.40 , 135.96 129.56 , 142.68 137.73 , 148.90 145.90 , 154.29 154.07 , 159.59 162.24 , 164.64 170.41 , 169.05 178.58 , 172.81 186.74 , 176.29 194.91 , 178.68 203.08 , 179.71 211.25 , 179.06 219.42 , 178.38 227.59 , 178.29 235.76 , 176.89 243.92 , 176.79 252.09 , 176.03 260.26 , 174.50 268.43 , 173.67 276.60 , 173.07 284.77 , 173.81 292.94 , 175.89 301.10 , 176.68 309.27 , 178.71 317.44 , 180.78 325.61 , 182.68 333.78 , 184.51 341.95 , 187.99 350.11 , 191.67 358.28 , 196.75 358.28 , 64.61 350.11 , 73.72 341.95 , 82.30 333.78 , 89.25 325.61 , 94.35 317.44 , 98.37 309.27 , 100.93 301.10 , 101.57 292.94 , 103.40 284.77 , 105.44 276.60 , 106.63 268.43 , 106.98 260.26 , 108.26 252.09 , 110.77 243.92 , 114.67 235.76 , 120.09 227.59 , 124.22 219.42 , 127.25 211.25 , 130.94 203.08 , 131.68 194.91 , 131.59 186.74 , 130.83 178.58 , 129.36 170.41 , 125.05 162.24 , 121.55 154.07 , 116.05 145.90 , 110.94 137.73 , 105.76 129.56 , 98.39 121.40 , 92.80 113.23 , 86.61 105.06 , 81.17 96.89 , 74.15 88.72 , 66.47 80.55 , 58.03 72.38 , 46.34 64.22 , 33.91 56.05 , 20.84 " style="stroke-width:1;stroke:#FFFFFF;fill:#CD0000;stroke-opacity:0.000000;fill-opacity:0.606299" />
<polygon points="56.05 , 21.11 59.87 , 30.45 63.70 , 39.12 67.53 , 47.06 71.35 , 54.25 75.18 , 60.66 79.00 , 66.31 82.83 , 71.26 86.65 , 75.64 90.48 , 79.63 94.31 , 83.23 98.13 , 86.60 101.96 , 89.33 105.78 , 91.92 109.61 , 93.79 113.43 , 95.39 117.26 , 98.53 121.09 , 102.00 124.91 , 105.12 128.74 , 108.01 132.56 , 111.15 136.39 , 114.45 140.21 , 117.44 144.04 , 120.07 147.87 , 122.57 151.69 , 125.13 155.52 , 127.70 159.34 , 130.17 163.17 , 132.48 166.99 , 134.58 170.82 , 136.46 174.65 , 138.10 178.47 , 139.49 182.30 , 140.66 186.12 , 141.65 189.95 , 142.47 193.78 , 143.16 197.60 , 143.71 201.43 , 144.14 205.25 , 144.46 209.08 , 144.67 212.90 , 144.77 216.73 , 144.76 220.56 , 144.65 224.38 , 144.44 228.21 , 144.11 232.03 , 143.68 235.86 , 143.13 239.68 , 142.46 243.51 , 141.67 247.34 , 140.75 251.16 , 139.69 254.99 , 138.50 258.81 , 137.16 262.64 , 135.68 266.46 , 134.05 270.29 , 132.27 274.12 , 130.33 277.94 , 128.23 281.77 , 125.98 285.59 , 123.58 289.42 , 121.02 293.25 , 118.30 297.07 , 115.43 300.90 , 112.41 304.72 , 109.23 308.55 , 105.91 312.37 , 102.43 316.20 , 98.81 320.03 , 95.05 323.85 , 91.14 327.68 , 87.09 331.50 , 82.89 335.33 , 78.56 339.15 , 74.09 342.98 , 69.49 346.81 , 64.75 350.63 , 59.87 354.46 , 54.87 358.28 , 49.73 358.28 , 173.16 354.46 , 172.43 350.63 , 171.77 346.81 , 171.17 342.98 , 170.63 339.15 , 170.15 335.33 , 169.72 331.50 , 169.34 327.68 , 169.01 323.85 , 168.72 320.03 , 168.48 316.20 , 168.28 312.37 , 168.13 308.55 , 168.01 304.72 , 167.92 300.90 , 167.87 297.07 , 167.85 293.25 , 167.86 289.42 , 167.90 285.59 , 167.96 281.77 , 168.04 277.94 , 168.14 274.12 , 168.26 270.29 , 168.38 266.46 , 168.51 262.64 , 168.64 258.81 , 168.76 254.99 , 168.87 251.16 , 168.95 247.34 , 169.01 243.51 , 169.02 239.68 , 169.00 235.86 , 168.91 232.03 , 168.76 228.21 , 168.55 224.38 , 168.25 220.56 , 167.87 216.73 , 167.39 212.90 , 166.82 209.08 , 166.15 205.25 , 165.38 201.43 , 164.50 197.60 , 163.53 193.78 , 162.45 189.95 , 161.29 186.12 , 160.04 182.30 , 158.72 178.47 , 157.35 174.65 , 155.75 170.82 , 153.82 166.99 , 151.64 163.17 , 149.29 159.34 , 146.84 155.52 , 144.33 151.69 , 141.78 147.87 , 139.20 144.04 , 136.50 140.21 , 133.33 136.39 , 130.12 132.56 , 127.13 128.74 , 124.20 124.91 , 120.81 121.09 , 117.43 117.26 , 114.51 113.43 , 111.75 109.61 , 109.24 105.78 , 106.89 101.96 , 103.66 98.13 , 100.42 94.31 , 96.91 90.48 , 93.28 86.65 , 89.36 82.83 , 85.37 79.00 , 81.37 75.18 , 77.46 71.35 , 73.77 67.53 , 70.31 63.70 , 67.06 59.87 , 64.02 56.05 , 61.14 " style="stroke-width:1;stroke:#FFFFFF;fill:#0000CD;stroke-opacity:0.000000;fill-opacity:0.803150" />
<polyline points="56.05 , 41.13 59.87 , 47.24 63.70 , 53.09 67.53 , 58.68 71.35 , 64.01 75.18 , 69.06 79.00 , 73.84 82.83 , 78.32 86.65 , 82.50 90.48 , 86.45 94.31 , 90.07 98.13 , 93.51 101.96 , 96.50 105.78 , 99.41 109.61 , 101.51 113.43 , 103.57 117.26 , 106.52 121.09 , 109.71 124.91 , 112.96 128.74 , 116.11 132.56 , 119.14 136.39 , 122.28 140.21 , 125.39 144.04 , 128.28 147.87 , 130.89 151.69 , 133.46 155.52 , 136.01 159.34 , 138.50 163.17 , 140.88 166.99 , 143.11 170.82 , 145.14 174.65 , 146.92 178.47 , 148.42 182.30 , 149.69 186.12 , 150.84 189.95 , 151.88 193.78 , 152.81 197.60 , 153.62 201.43 , 154.32 205.25 , 154.92 209.08 , 155.41 212.90 , 155.79 216.73 , 156.08 220.56 , 156.26 224.38 , 156.34 228.21 , 156.33 232.03 , 156.22 235.86 , 156.02 239.68 , 155.73 243.51 , 155.35 247.34 , 154.88 251.16 , 154.32 254.99 , 153.68 258.81 , 152.96 262.64 , 152.16 266.46 , 151.28 270.29 , 150.32 274.12 , 149.29 277.94 , 148.19 281.77 , 147.01 285.59 , 145.77 289.42 , 144.46 293.25 , 143.08 297.07 , 141.64 300.90 , 140.14 304.72 , 138.58 308.55 , 136.96 312.37 , 135.28 316.20 , 133.55 320.03 , 131.76 323.85 , 129.93 327.68 , 128.05 331.50 , 126.12 335.33 , 124.14 339.15 , 122.12 342.98 , 120.06 346.81 , 117.96 350.63 , 115.82 354.46 , 113.65 358.28 , 111.44 " style="stroke-width:1;stroke:#0000CD;fill:#000000;stroke-opacity:1.000000;fill-opacity:0.000000"/>
<text transform="translate(21.04,25.16)"  style="font-size:10" >0.5</text>
<text transform="translate(19.77,75.64)"  style="font-size:10" >1.0</text>
<text transform="translate(19.77,126.11)"  style="font-size:10" >1.5</text>
<text transform="translate(19.77,176.59)"  style="font-size:10" >2.0</text>
<polyline points="36.67 , 21.56 40.94 , 21.56 " style="stroke-width:1;stroke:#7F7F7F;fill:#000000;stroke-opacity:1.000000;fill-opacity:0.000000"/>
<polyline points="36.67 , 72.04 40.94 , 72.04 " style="stroke-width:1;stroke:#7F7F7F;fill:#000000;stroke-opacity:1.000000;fill-opacity:0.000000"/>
<polyline points="36.67 , 122.51 40.94 , 122.51 " style="stroke-width:1;stroke:#7F7F7F;fill:#000000;stroke-opacity:1.000000;fill-opacity:0.000000"/>
<polyline points="36.67 , 172.99 40.94 , 172.99 " style="stroke-width:1;stroke:#7F7F7F;fill:#000000;stroke-opacity:1.000000;fill-opacity:0.000000"/>
<polyline points="96.89 , 209.81 96.89 , 205.54 " style="stroke-width:1;stroke:#7F7F7F;fill:#000000;stroke-opacity:1.000000;fill-opacity:0.000000"/>
<polyline points="178.58 , 209.81 178.58 , 205.54 " style="stroke-width:1;stroke:#7F7F7F;fill:#000000;stroke-opacity:1.000000;fill-opacity:0.000000"/>
<polyline points="260.26 , 209.81 260.26 , 205.54 " style="stroke-width:1;stroke:#7F7F7F;fill:#000000;stroke-opacity:1.000000;fill-opacity:0.000000"/>
<polyline points="341.95 , 209.81 341.95 , 205.54 " style="stroke-width:1;stroke:#7F7F7F;fill:#000000;stroke-opacity:1.000000;fill-opacity:0.000000"/>
<text transform="translate(88.64,219.85)"  style="font-size:10" >100</text>
<text transform="translate(170.33,219.85)"  style="font-size:10" >200</text>
<text transform="translate(252.01,219.85)"  style="font-size:10" >300</text>
<text transform="translate(333.70,219.85)"  style="font-size:10" >400</text>
<text transform="translate(162.63,231.87)"  style="font-size:12" >Duration (msec)</text>
<text transform="translate(18.03,131.12) rotate(-90)"  style="font-size:12" >time mu</text>
</svg>
