<?xml version="1.0" encoding="UTF-8"?>
<svg xmlns="http://www.w3.org/2000/svg" width="385.44" height="240.90" viewBox="0,0,385.44,240.90">
<desc>R SVG Plot!</desc>
<rect width="100%" height="100%" style="fill:#FFFFFF"/>
<polygon points="0.00 , 0.00 385.44 , 0.00 385.44 , 240.90 0.00 , 240.90 " style="stroke-width:1;stroke:#FFFFFF;fill:#FFFFFF;stroke-opacity:1.000000;fill-opacity:1.000000" />
<polygon points="40.94 , 205.54 40.94 , 12.05 373.39 , 12.05 373.39 , 205.54 " style="stroke-width:1;stroke:#FFFFFF;fill:#E5E5E5;stroke-opacity:0.000000;fill-opacity:1.000000" />
<polyline points="40.94 , 45.89 373.39 , 45.89 " style="stroke-width:0;stroke:#F2F2F2;fill:#000000;stroke-opacity:1.000000;fill-opacity:0.000000"/>
<polyline points="40.94 , 95.11 373.39 , 95.11 " style="stroke-width:0;stroke:#F2F2F2;fill:#000000;stroke-opacity:1.000000;fill-opacity:0.000000"/>
<polyline points="40.94 , 144.33 373.39 , 144.33 " style="stroke-width:0;stroke:#F2F2F2;fill:#000000;stroke-opacity:1.000000;fill-opacity:0.000000"/>
<polyline points="56.05 , 205.54 56.05 , 12.05 " style="stroke-width:0;stroke:#F2F2F2;fill:#000000;stroke-opacity:1.000000;fill-opacity:0.000000"/>
<polyline points="137.73 , 205.54 137.73 , 12.05 " style="stroke-width:0;stroke:#F2F2F2;fill:#000000;stroke-opacity:1.000000;fill-opacity:0.000000"/>
<polyline points="219.42 , 205.54 219.42 , 12.05 " style="stroke-width:0;stroke:#F2F2F2;fill:#000000;stroke-opacity:1.000000;fill-opacity:0.000000"/>
<polyline points="301.10 , 205.54 301.10 , 12.05 " style="stroke-width:0;stroke:#F2F2F2;fill:#000000;stroke-opacity:1.000000;fill-opacity:0.000000"/>
<polyline points="40.94 , 21.28 373.39 , 21.28 " style="stroke-width:1;stroke:#FFFFFF;fill:#000000;stroke-opacity:1.000000;fill-opacity:0.000000"/>
<polyline points="40.94 , 70.50 373.39 , 70.50 " style="stroke-width:1;stroke:#FFFFFF;fill:#000000;stroke-opacity:1.000000;fill-opacity:0.000000"/>
<polyline points="40.94 , 119.72 373.39 , 119.72 " style="stroke-width:1;stroke:#FFFFFF;fill:#000000;stroke-opacity:1.000000;fill-opacity:0.000000"/>
<polyline points="40.94 , 168.95 373.39 , 168.95 " style="stroke-width:1;stroke:#FFFFFF;fill:#000000;stroke-opacity:1.000000;fill-opacity:0.000000"/>
<polyline points="96.89 , 205.54 96.89 , 12.05 " style="stroke-width:1;stroke:#FFFFFF;fill:#000000;stroke-opacity:1.000000;fill-opacity:0.000000"/>
<polyline points="178.58 , 205.54 178.58 , 12.05 " style="stroke-width:1;stroke:#FFFFFF;fill:#000000;stroke-opacity:1.000000;fill-opacity:0.000000"/>
<polyline points="260.26 , 205.54 260.26 , 12.05 " style="stroke-width:1;stroke:#FFFFFF;fill:#000000;stroke-opacity:1.000000;fill-opacity:0.000000"/>
<polyline points="341.95 , 205.54 341.95 , 12.05 " style="stroke-width:1;stroke:#FFFFFF;fill:#000000;stroke-opacity:1.000000;fill-opacity:0.000000"/>
<polyline points="56.05 , 48.24 64.22 , 58.57 72.38 , 68.55 80.55 , 78.23 88.72 , 87.16 96.89 , 94.97 105.06 , 101.93 113.23 , 108.49 121.40 , 114.39 129.56 , 120.67 137.73 , 126.93 145.90 , 132.54 154.07 , 137.57 162.24 , 142.09 170.41 , 146.05 178.58 , 149.25 186.74 , 151.84 194.91 , 153.62 203.08 , 154.31 211.25 , 153.67 219.42 , 152.16 227.59 , 150.09 235.76 , 147.84 243.92 , 145.63 252.09 , 143.82 260.26 , 142.27 268.43 , 141.16 276.60 , 140.57 284.77 , 140.33 292.94 , 140.09 301.10 , 139.92 309.27 , 139.68 317.44 , 139.10 325.61 , 138.29 333.78 , 137.20 341.95 , 135.89 350.11 , 134.48 358.28 , 132.88 " style="stroke-width:1;stroke:#CD0000;fill:#000000;stroke-opacity:1.000000;fill-opacity:0.000000"/>
<polygon points="56.05 , 74.57 64.22 , 81.47 72.38 , 91.53 80.55 , 101.84 88.72 , 109.62 96.89 , 117.52 105.06 , 124.30 113.23 , 131.34 121.40 , 136.66 129.56 , 143.49 137.73 , 149.96 145.90 , 155.44 154.07 , 160.10 162.24 , 164.25 170.41 , 168.24 178.58 , 171.88 186.74 , 175.04 194.91 , 177.70 203.08 , 178.34 211.25 , 178.81 219.42 , 178.24 227.59 , 177.75 235.76 , 176.72 243.92 , 176.42 252.09 , 176.63 260.26 , 175.84 268.43 , 175.80 276.60 , 175.20 284.77 , 175.74 292.94 , 176.79 301.10 , 178.55 309.27 , 181.24 317.44 , 183.92 325.61 , 187.64 333.78 , 188.99 341.95 , 191.82 350.11 , 193.43 358.28 , 196.75 358.28 , 69.36 350.11 , 75.68 341.95 , 81.87 333.78 , 89.52 325.61 , 91.41 317.44 , 94.31 309.27 , 96.43 301.10 , 98.99 292.94 , 101.66 284.77 , 104.15 276.60 , 105.16 268.43 , 104.59 260.26 , 107.58 252.09 , 110.68 243.92 , 112.53 235.76 , 117.95 227.59 , 121.80 219.42 , 125.88 211.25 , 127.96 203.08 , 129.00 194.91 , 128.44 186.74 , 128.12 178.58 , 124.72 170.41 , 121.37 162.24 , 117.35 154.07 , 112.45 145.90 , 108.63 137.73 , 102.61 129.56 , 97.08 121.40 , 90.78 113.23 , 84.96 105.06 , 78.00 96.89 , 71.23 88.72 , 63.11 80.55 , 54.19 72.38 , 44.23 64.22 , 33.59 56.05 , 21.27 " style="stroke-width:1;stroke:#FFFFFF;fill:#CD0000;stroke-opacity:0.000000;fill-opacity:0.606299" />
<polygon points="56.05 , 20.84 59.87 , 29.95 63.70 , 38.40 67.53 , 46.15 71.35 , 53.16 75.18 , 59.41 79.00 , 64.92 82.83 , 69.74 86.65 , 74.02 90.48 , 77.90 94.31 , 81.41 98.13 , 84.71 101.96 , 87.37 105.78 , 89.89 109.61 , 91.71 113.43 , 93.27 117.26 , 96.33 121.09 , 99.72 124.91 , 102.76 128.74 , 105.58 132.56 , 108.64 136.39 , 111.86 140.21 , 114.78 144.04 , 117.34 147.87 , 119.78 151.69 , 122.28 155.52 , 124.78 159.34 , 127.19 163.17 , 129.44 166.99 , 131.49 170.82 , 133.32 174.65 , 134.92 178.47 , 136.28 182.30 , 137.42 186.12 , 138.38 189.95 , 139.19 193.78 , 139.86 197.60 , 140.40 201.43 , 140.82 205.25 , 141.13 209.08 , 141.33 212.90 , 141.43 216.73 , 141.42 220.56 , 141.31 224.38 , 141.10 228.21 , 140.79 232.03 , 140.37 235.86 , 139.83 239.68 , 139.18 243.51 , 138.40 247.34 , 137.51 251.16 , 136.48 254.99 , 135.31 258.81 , 134.01 262.64 , 132.57 266.46 , 130.97 270.29 , 129.23 274.12 , 127.34 277.94 , 125.30 281.77 , 123.11 285.59 , 120.76 289.42 , 118.27 293.25 , 115.62 297.07 , 112.82 300.90 , 109.87 304.72 , 106.77 308.55 , 103.53 312.37 , 100.14 316.20 , 96.61 320.03 , 92.94 323.85 , 89.13 327.68 , 85.18 331.50 , 81.09 335.33 , 76.87 339.15 , 72.51 342.98 , 68.02 346.81 , 63.40 350.63 , 58.64 354.46 , 53.76 358.28 , 48.75 358.28 , 169.11 354.46 , 168.40 350.63 , 167.76 346.81 , 167.18 342.98 , 166.65 339.15 , 166.18 335.33 , 165.76 331.50 , 165.38 327.68 , 165.06 323.85 , 164.78 320.03 , 164.55 316.20 , 164.36 312.37 , 164.20 308.55 , 164.09 304.72 , 164.00 300.90 , 163.95 297.07 , 163.94 293.25 , 163.95 289.42 , 163.98 285.59 , 164.04 281.77 , 164.12 277.94 , 164.22 274.12 , 164.33 270.29 , 164.45 266.46 , 164.58 262.64 , 164.70 258.81 , 164.82 254.99 , 164.93 251.16 , 165.01 247.34 , 165.06 243.51 , 165.08 239.68 , 165.05 235.86 , 164.97 232.03 , 164.83 228.21 , 164.61 224.38 , 164.32 220.56 , 163.95 216.73 , 163.49 212.90 , 162.93 209.08 , 162.28 205.25 , 161.52 201.43 , 160.67 197.60 , 159.72 193.78 , 158.67 189.95 , 157.54 186.12 , 156.32 182.30 , 155.04 178.47 , 153.69 174.65 , 152.14 170.82 , 150.26 166.99 , 148.13 163.17 , 145.84 159.34 , 143.44 155.52 , 141.00 151.69 , 138.52 147.87 , 136.00 144.04 , 133.36 140.21 , 130.27 136.39 , 127.14 132.56 , 124.23 128.74 , 121.37 124.91 , 118.06 121.09 , 114.77 117.26 , 111.92 113.43 , 109.23 109.61 , 106.78 105.78 , 104.49 101.96 , 101.34 98.13 , 98.18 94.31 , 94.76 90.48 , 91.22 86.65 , 87.39 82.83 , 83.51 79.00 , 79.60 75.18 , 75.79 71.35 , 72.19 67.53 , 68.81 63.70 , 65.65 59.87 , 62.68 56.05 , 59.88 " style="stroke-width:1;stroke:#FFFFFF;fill:#0000CD;stroke-opacity:0.000000;fill-opacity:0.803150" />
<polyline points="56.05 , 40.36 59.87 , 46.32 63.70 , 52.03 67.53 , 57.48 71.35 , 62.68 75.18 , 67.60 79.00 , 72.26 82.83 , 76.62 86.65 , 80.70 90.48 , 84.56 94.31 , 88.09 98.13 , 91.44 101.96 , 94.35 105.78 , 97.19 109.61 , 99.25 113.43 , 101.25 117.26 , 104.13 121.09 , 107.24 124.91 , 110.41 128.74 , 113.48 132.56 , 116.44 136.39 , 119.50 140.21 , 122.53 144.04 , 125.35 147.87 , 127.89 151.69 , 130.40 155.52 , 132.89 159.34 , 135.32 163.17 , 137.64 166.99 , 139.81 170.82 , 141.79 174.65 , 143.53 178.47 , 144.99 182.30 , 146.23 186.12 , 147.35 189.95 , 148.36 193.78 , 149.27 197.60 , 150.06 201.43 , 150.74 205.25 , 151.32 209.08 , 151.80 212.90 , 152.18 216.73 , 152.45 220.56 , 152.63 224.38 , 152.71 228.21 , 152.70 232.03 , 152.60 235.86 , 152.40 239.68 , 152.11 243.51 , 151.74 247.34 , 151.28 251.16 , 150.74 254.99 , 150.12 258.81 , 149.42 262.64 , 148.63 266.46 , 147.78 270.29 , 146.84 274.12 , 145.84 277.94 , 144.76 281.77 , 143.62 285.59 , 142.40 289.42 , 141.12 293.25 , 139.78 297.07 , 138.38 300.90 , 136.91 304.72 , 135.39 308.55 , 133.81 312.37 , 132.17 316.20 , 130.48 320.03 , 128.75 323.85 , 126.96 327.68 , 125.12 331.50 , 123.24 335.33 , 121.31 339.15 , 119.34 342.98 , 117.33 346.81 , 115.29 350.63 , 113.20 354.46 , 111.08 358.28 , 108.93 " style="stroke-width:1;stroke:#0000CD;fill:#000000;stroke-opacity:1.000000;fill-opacity:0.000000"/>
<text transform="translate(21.04,24.88)"  style="font-size:10" >0.5</text>
<text transform="translate(19.77,74.10)"  style="font-size:10" >1.0</text>
<text transform="translate(19.77,123.32)"  style="font-size:10" >1.5</text>
<text transform="translate(19.77,172.55)"  style="font-size:10" >2.0</text>
<polyline points="36.67 , 21.28 40.94 , 21.28 " style="stroke-width:1;stroke:#7F7F7F;fill:#000000;stroke-opacity:1.000000;fill-opacity:0.000000"/>
<polyline points="36.67 , 70.50 40.94 , 70.50 " style="stroke-width:1;stroke:#7F7F7F;fill:#000000;stroke-opacity:1.000000;fill-opacity:0.000000"/>
<polyline points="36.67 , 119.72 40.94 , 119.72 " style="stroke-width:1;stroke:#7F7F7F;fill:#000000;stroke-opacity:1.000000;fill-opacity:0.000000"/>
<polyline points="36.67 , 168.95 40.94 , 168.95 " style="stroke-width:1;stroke:#7F7F7F;fill:#000000;stroke-opacity:1.000000;fill-opacity:0.000000"/>
<polyline points="96.89 , 209.81 96.89 , 205.54 " style="stroke-width:1;stroke:#7F7F7F;fill:#000000;stroke-opacity:1.000000;fill-opacity:0.000000"/>
<polyline points="178.58 , 209.81 178.58 , 205.54 " style="stroke-width:1;stroke:#7F7F7F;fill:#000000;stroke-opacity:1.000000;fill-opacity:0.000000"/>
<polyline points="260.26 , 209.81 260.26 , 205.54 " style="stroke-width:1;stroke:#7F7F7F;fill:#000000;stroke-opacity:1.000000;fill-opacity:0.000000"/>
<polyline points="341.95 , 209.81 341.95 , 205.54 " style="stroke-width:1;stroke:#7F7F7F;fill:#000000;stroke-opacity:1.000000;fill-opacity:0.000000"/>
<text transform="translate(88.64,219.85)"  style="font-size:10" >100</text>
<text transform="translate(170.33,219.85)"  style="font-size:10" >200</text>
<text transform="translate(252.01,219.85)"  style="font-size:10" >300</text>
<text transform="translate(333.70,219.85)"  style="font-size:10" >400</text>
<text transform="translate(162.63,231.87)"  style="font-size:12" >Duration (msec)</text>
<text transform="translate(18.03,131.12) rotate(-90)"  style="font-size:12" >time mu</text>
</svg>
