<?xml version="1.0" encoding="UTF-8"?>
<svg xmlns="http://www.w3.org/2000/svg" width="385.44" height="240.90" viewBox="0,0,385.44,240.90">
<desc>R SVG Plot!</desc>
<rect width="100%" height="100%" style="fill:#FFFFFF"/>
<line x1="30.46" y1="219.23" x2="363.32" y2="219.23" style="stroke-width:1;stroke:#000000;fill:#000000;stroke-opacity:1.000000;fill-opacity:0.000000"/>
<line x1="30.46" y1="219.23" x2="30.46" y2="223.27" style="stroke-width:1;stroke:#000000;fill:#000000;stroke-opacity:1.000000;fill-opacity:0.000000"/>
<line x1="97.03" y1="219.23" x2="97.03" y2="223.27" style="stroke-width:1;stroke:#000000;fill:#000000;stroke-opacity:1.000000;fill-opacity:0.000000"/>
<line x1="163.60" y1="219.23" x2="163.60" y2="223.27" style="stroke-width:1;stroke:#000000;fill:#000000;stroke-opacity:1.000000;fill-opacity:0.000000"/>
<line x1="230.17" y1="219.23" x2="230.17" y2="223.27" style="stroke-width:1;stroke:#000000;fill:#000000;stroke-opacity:1.000000;fill-opacity:0.000000"/>
<line x1="296.75" y1="219.23" x2="296.75" y2="223.27" style="stroke-width:1;stroke:#000000;fill:#000000;stroke-opacity:1.000000;fill-opacity:0.000000"/>
<line x1="363.32" y1="219.23" x2="363.32" y2="223.27" style="stroke-width:1;stroke:#000000;fill:#000000;stroke-opacity:1.000000;fill-opacity:0.000000"/>
<text transform="translate(27.46,231.73)"  style="font-size:12" >0</text>
<text transform="translate(87.13,231.73)"  style="font-size:12" >200</text>
<text transform="translate(153.70,231.73)"  style="font-size:12" >400</text>
<text transform="translate(220.27,231.73)"  style="font-size:12" >600</text>
<text transform="translate(286.85,231.73)"  style="font-size:12" >800</text>
<text transform="translate(350.12,231.73)"  style="font-size:12" >1000</text>
<line x1="17.50" y1="212.64" x2="17.50" y2="17.82" style="stroke-width:1;stroke:#000000;fill:#000000;stroke-opacity:1.000000;fill-opacity:0.000000"/>
<line x1="17.50" y1="212.64" x2="13.47" y2="212.64" style="stroke-width:1;stroke:#000000;fill:#000000;stroke-opacity:1.000000;fill-opacity:0.000000"/>
<line x1="17.50" y1="163.93" x2="13.47" y2="163.93" style="stroke-width:1;stroke:#000000;fill:#000000;stroke-opacity:1.000000;fill-opacity:0.000000"/>
<line x1="17.50" y1="115.23" x2="13.47" y2="115.23" style="stroke-width:1;stroke:#000000;fill:#000000;stroke-opacity:1.000000;fill-opacity:0.000000"/>
<line x1="17.50" y1="66.53" x2="13.47" y2="66.53" style="stroke-width:1;stroke:#000000;fill:#000000;stroke-opacity:1.000000;fill-opacity:0.000000"/>
<line x1="17.50" y1="17.82" x2="13.47" y2="17.82" style="stroke-width:1;stroke:#000000;fill:#000000;stroke-opacity:1.000000;fill-opacity:0.000000"/>
<text transform="translate(13.33,215.94) rotate(-90)"  style="font-size:12" >0</text>
<text transform="translate(13.33,170.53) rotate(-90)"  style="font-size:12" >20</text>
<text transform="translate(13.33,121.83) rotate(-90)"  style="font-size:12" >40</text>
<text transform="translate(13.33,73.13) rotate(-90)"  style="font-size:12" >60</text>
<text transform="translate(13.33,24.42) rotate(-90)"  style="font-size:12" >80</text>
<polyline points="17.50 , 17.50 17.50 , 219.23 376.27 , 219.23 " style="stroke-width:1;stroke:#000000;fill:#000000;stroke-opacity:1.000000;fill-opacity:0.000000"/>
<text transform="translate(148.57,14.75)"  style="font-size:14" >Trace of  sigma</text>
<text transform="translate(173.45,240.07)"  style="font-size:12" >Iterations</text>
<polygon points="17.50 , 219.23 17.50 , 17.50 196.89 , 17.50 196.89 , 219.23 " style="stroke-width:1;stroke:#FFFFFF;fill:#969696;stroke-opacity:0.000000;fill-opacity:0.787402" />
<polyline points="30.79 , 24.97 31.12 , 24.97 31.45 , 24.97 31.79 , 33.08 32.12 , 82.31 32.45 , 94.46 32.79 , 140.95 33.12 , 153.70 33.45 , 182.82 33.78 , 206.71 34.12 , 206.11 34.45 , 207.54 34.78 , 209.19 35.12 , 210.56 35.45 , 210.56 35.78 , 210.90 36.11 , 211.28 36.45 , 211.52 36.78 , 211.52 37.11 , 211.50 37.45 , 211.54 37.78 , 211.57 38.11 , 211.56 38.44 , 211.56 38.78 , 211.58 39.11 , 211.64 39.44 , 211.54 39.78 , 211.53 40.11 , 211.62 40.44 , 211.59 40.77 , 211.57 41.11 , 211.58 41.44 , 211.65 41.77 , 211.57 42.11 , 211.61 42.44 , 211.60 42.77 , 211.60 43.10 , 211.61 43.44 , 211.61 43.77 , 211.63 44.10 , 211.61 44.44 , 211.61 44.77 , 211.63 45.10 , 211.63 45.43 , 211.59 45.77 , 211.64 46.10 , 211.60 46.43 , 211.60 46.77 , 211.67 47.10 , 211.60 47.43 , 211.60 47.76 , 211.60 48.10 , 211.61 48.43 , 211.60 48.76 , 211.59 49.10 , 211.56 49.43 , 211.62 49.76 , 211.62 50.09 , 211.62 50.43 , 211.62 50.76 , 211.64 51.09 , 211.66 51.43 , 211.61 51.76 , 211.64 52.09 , 211.64 52.42 , 211.59 52.76 , 211.60 53.09 , 211.62 53.42 , 211.63 53.76 , 211.59 54.09 , 211.61 54.42 , 211.59 54.75 , 211.61 55.09 , 211.58 55.42 , 211.57 55.75 , 211.68 56.09 , 211.57 56.42 , 211.58 56.75 , 211.59 57.08 , 211.61 57.42 , 211.59 57.75 , 211.64 58.08 , 211.58 58.42 , 211.54 58.75 , 211.56 59.08 , 211.63 59.41 , 211.60 59.75 , 211.59 60.08 , 211.65 60.41 , 211.63 60.75 , 211.58 61.08 , 211.59 61.41 , 211.62 61.74 , 211.64 62.08 , 211.62 62.41 , 211.60 62.74 , 211.65 63.08 , 211.57 63.41 , 211.69 63.74 , 211.67 64.07 , 211.61 64.41 , 211.61 64.74 , 211.61 65.07 , 211.62 65.41 , 211.61 65.74 , 211.56 66.07 , 211.66 66.40 , 211.68 66.74 , 211.68 67.07 , 211.64 67.40 , 211.61 67.74 , 211.61 68.07 , 211.58 68.40 , 211.59 68.73 , 211.59 69.07 , 211.62 69.40 , 211.65 69.73 , 211.62 70.07 , 211.60 70.40 , 211.60 70.73 , 211.66 71.06 , 211.58 71.40 , 211.60 71.73 , 211.60 72.06 , 211.67 72.40 , 211.58 72.73 , 211.62 73.06 , 211.56 73.39 , 211.67 73.73 , 211.69 74.06 , 211.55 74.39 , 211.55 74.73 , 211.68 75.06 , 211.55 75.39 , 211.62 75.72 , 211.61 76.06 , 211.64 76.39 , 211.63 76.72 , 211.63 77.06 , 211.64 77.39 , 211.60 77.72 , 211.60 78.05 , 211.63 78.39 , 211.61 78.72 , 211.53 79.05 , 211.54 79.39 , 211.67 79.72 , 211.69 80.05 , 211.57 80.38 , 211.64 80.72 , 211.64 81.05 , 211.64 81.38 , 211.64 81.72 , 211.65 82.05 , 211.67 82.38 , 211.50 82.71 , 211.54 83.05 , 211.58 83.38 , 211.59 83.71 , 211.65 84.05 , 211.63 84.38 , 211.61 84.71 , 211.62 85.04 , 211.59 85.38 , 211.68 85.71 , 211.62 86.04 , 211.61 86.38 , 211.61 86.71 , 211.60 87.04 , 211.65 87.37 , 211.57 87.71 , 211.60 88.04 , 211.60 88.37 , 211.59 88.71 , 211.62 89.04 , 211.62 89.37 , 211.59 89.70 , 211.62 90.04 , 211.62 90.37 , 211.61 90.70 , 211.62 91.04 , 211.61 91.37 , 211.60 91.70 , 211.55 92.03 , 211.55 92.37 , 211.56 92.70 , 211.61 93.03 , 211.67 93.37 , 211.64 93.70 , 211.63 94.03 , 211.61 94.36 , 211.57 94.70 , 211.65 95.03 , 211.57 95.36 , 211.57 95.70 , 211.63 96.03 , 211.60 96.36 , 211.63 96.69 , 211.66 97.03 , 211.58 97.36 , 211.66 97.69 , 211.66 98.03 , 211.62 98.36 , 211.63 98.69 , 211.62 99.02 , 211.66 99.36 , 211.56 99.69 , 211.60 100.02 , 211.54 100.36 , 211.69 100.69 , 211.71 101.02 , 211.61 101.35 , 211.61 101.69 , 211.64 102.02 , 211.63 102.35 , 211.64 102.69 , 211.59 103.02 , 211.62 103.35 , 211.66 103.68 , 211.63 104.02 , 211.68 104.35 , 211.68 104.68 , 211.56 105.02 , 211.60 105.35 , 211.64 105.68 , 211.62 106.01 , 211.55 106.35 , 211.54 106.68 , 211.54 107.01 , 211.59 107.35 , 211.65 107.68 , 211.57 108.01 , 211.58 108.35 , 211.66 108.68 , 211.56 109.01 , 211.59 109.34 , 211.60 109.68 , 211.57 110.01 , 211.64 110.34 , 211.61 110.68 , 211.58 111.01 , 211.63 111.34 , 211.62 111.67 , 211.62 112.01 , 211.62 112.34 , 211.66 112.67 , 211.58 113.01 , 211.66 113.34 , 211.65 113.67 , 211.60 114.00 , 211.60 114.34 , 211.60 114.67 , 211.63 115.00 , 211.56 115.34 , 211.66 115.67 , 211.66 116.00 , 211.58 116.33 , 211.61 116.67 , 211.63 117.00 , 211.63 117.33 , 211.59 117.67 , 211.69 118.00 , 211.66 118.33 , 211.66 118.66 , 211.59 119.00 , 211.65 119.33 , 211.58 119.66 , 211.58 120.00 , 211.63 120.33 , 211.59 120.66 , 211.58 120.99 , 211.66 121.33 , 211.60 121.66 , 211.60 121.99 , 211.58 122.33 , 211.67 122.66 , 211.55 122.99 , 211.53 123.32 , 211.59 123.66 , 211.60 123.99 , 211.60 124.32 , 211.61 124.66 , 211.58 124.99 , 211.61 125.32 , 211.62 125.65 , 211.62 125.99 , 211.62 126.32 , 211.60 126.65 , 211.62 126.99 , 211.56 127.32 , 211.62 127.65 , 211.62 127.98 , 211.62 128.32 , 211.68 128.65 , 211.58 128.98 , 211.63 129.32 , 211.61 129.65 , 211.62 129.98 , 211.62 130.31 , 211.62 130.65 , 211.62 130.98 , 211.59 131.31 , 211.64 131.65 , 211.64 131.98 , 211.59 132.31 , 211.63 132.64 , 211.60 132.98 , 211.58 133.31 , 211.59 133.64 , 211.59 133.98 , 211.63 134.31 , 211.59 134.64 , 211.59 134.97 , 211.60 135.31 , 211.66 135.64 , 211.63 135.97 , 211.64 136.31 , 211.69 136.64 , 211.64 136.97 , 211.60 137.30 , 211.61 137.64 , 211.62 137.97 , 211.62 138.30 , 211.60 138.64 , 211.61 138.97 , 211.62 139.30 , 211.63 139.63 , 211.56 139.97 , 211.56 140.30 , 211.63 140.63 , 211.66 140.97 , 211.56 141.30 , 211.59 141.63 , 211.62 141.96 , 211.62 142.30 , 211.67 142.63 , 211.57 142.96 , 211.65 143.30 , 211.64 143.63 , 211.64 143.96 , 211.58 144.29 , 211.66 144.63 , 211.64 144.96 , 211.63 145.29 , 211.60 145.63 , 211.63 145.96 , 211.61 146.29 , 211.63 146.62 , 211.61 146.96 , 211.62 147.29 , 211.63 147.62 , 211.57 147.96 , 211.66 148.29 , 211.65 148.62 , 211.63 148.95 , 211.60 149.29 , 211.63 149.62 , 211.60 149.95 , 211.59 150.29 , 211.67 150.62 , 211.57 150.95 , 211.59 151.28 , 211.64 151.62 , 211.59 151.95 , 211.60 152.28 , 211.62 152.62 , 211.63 152.95 , 211.67 153.28 , 211.60 153.61 , 211.59 153.95 , 211.62 154.28 , 211.64 154.61 , 211.57 154.95 , 211.60 155.28 , 211.61 155.61 , 211.61 155.94 , 211.62 156.28 , 211.62 156.61 , 211.63 156.94 , 211.64 157.28 , 211.65 157.61 , 211.62 157.94 , 211.67 158.27 , 211.61 158.61 , 211.66 158.94 , 211.65 159.27 , 211.59 159.61 , 211.60 159.94 , 211.63 160.27 , 211.64 160.60 , 211.60 160.94 , 211.58 161.27 , 211.65 161.60 , 211.65 161.94 , 211.64 162.27 , 211.63 162.60 , 211.60 162.93 , 211.63 163.27 , 211.61 163.60 , 211.63 163.93 , 211.55 164.27 , 211.54 164.60 , 211.65 164.93 , 211.63 165.26 , 211.59 165.60 , 211.60 165.93 , 211.67 166.26 , 211.65 166.60 , 211.65 166.93 , 211.58 167.26 , 211.65 167.59 , 211.57 167.93 , 211.63 168.26 , 211.60 168.59 , 211.56 168.93 , 211.56 169.26 , 211.54 169.59 , 211.56 169.92 , 211.63 170.26 , 211.61 170.59 , 211.62 170.92 , 211.60 171.26 , 211.57 171.59 , 211.63 171.92 , 211.63 172.25 , 211.64 172.59 , 211.65 172.92 , 211.65 173.25 , 211.56 173.59 , 211.60 173.92 , 211.63 174.25 , 211.63 174.58 , 211.64 174.92 , 211.64 175.25 , 211.66 175.58 , 211.63 175.92 , 211.62 176.25 , 211.59 176.58 , 211.62 176.91 , 211.63 177.25 , 211.58 177.58 , 211.60 177.91 , 211.60 178.25 , 211.58 178.58 , 211.58 178.91 , 211.60 179.24 , 211.60 179.58 , 211.59 179.91 , 211.65 180.24 , 211.63 180.58 , 211.65 180.91 , 211.65 181.24 , 211.65 181.57 , 211.68 181.91 , 211.58 182.24 , 211.61 182.57 , 211.62 182.91 , 211.63 183.24 , 211.67 183.57 , 211.58 183.90 , 211.57 184.24 , 211.57 184.57 , 211.65 184.90 , 211.63 185.24 , 211.62 185.57 , 211.63 185.90 , 211.64 186.24 , 211.60 186.57 , 211.60 186.90 , 211.61 187.23 , 211.57 187.57 , 211.54 187.90 , 211.65 188.23 , 211.60 188.57 , 211.60 188.90 , 211.63 189.23 , 211.61 189.56 , 211.69 189.90 , 211.69 190.23 , 211.69 190.56 , 211.69 190.90 , 211.69 191.23 , 211.64 191.56 , 211.66 191.89 , 211.55 192.23 , 211.53 192.56 , 211.66 192.89 , 211.60 193.23 , 211.55 193.56 , 211.67 193.89 , 211.67 194.22 , 211.68 194.56 , 211.60 194.89 , 211.65 195.22 , 211.61 195.56 , 211.63 195.89 , 211.65 196.22 , 211.64 196.55 , 211.61 196.89 , 211.61 197.22 , 211.59 197.55 , 211.58 197.89 , 211.59 198.22 , 211.60 198.55 , 211.61 198.88 , 211.61 199.22 , 211.61 199.55 , 211.64 199.88 , 211.64 200.22 , 211.58 200.55 , 211.58 200.88 , 211.57 201.21 , 211.67 201.55 , 211.65 201.88 , 211.58 202.21 , 211.53 202.55 , 211.53 202.88 , 211.66 203.21 , 211.69 203.54 , 211.55 203.88 , 211.65 204.21 , 211.62 204.54 , 211.57 204.88 , 211.60 205.21 , 211.59 205.54 , 211.59 205.87 , 211.60 206.21 , 211.67 206.54 , 211.63 206.87 , 211.58 207.21 , 211.59 207.54 , 211.59 207.87 , 211.62 208.20 , 211.65 208.54 , 211.66 208.87 , 211.58 209.20 , 211.65 209.54 , 211.63 209.87 , 211.62 210.20 , 211.62 210.53 , 211.66 210.87 , 211.61 211.20 , 211.66 211.53 , 211.62 211.87 , 211.61 212.20 , 211.60 212.53 , 211.58 212.86 , 211.67 213.20 , 211.60 213.53 , 211.60 213.86 , 211.65 214.20 , 211.63 214.53 , 211.62 214.86 , 211.62 215.19 , 211.55 215.53 , 211.63 215.86 , 211.59 216.19 , 211.58 216.53 , 211.63 216.86 , 211.62 217.19 , 211.62 217.52 , 211.61 217.86 , 211.62 218.19 , 211.62 218.52 , 211.60 218.86 , 211.61 219.19 , 211.62 219.52 , 211.63 219.85 , 211.55 220.19 , 211.53 220.52 , 211.58 220.85 , 211.58 221.19 , 211.66 221.52 , 211.61 221.85 , 211.63 222.18 , 211.59 222.52 , 211.62 222.85 , 211.61 223.18 , 211.62 223.52 , 211.63 223.85 , 211.63 224.18 , 211.63 224.51 , 211.64 224.85 , 211.67 225.18 , 211.60 225.51 , 211.66 225.85 , 211.55 226.18 , 211.55 226.51 , 211.59 226.84 , 211.66 227.18 , 211.63 227.51 , 211.65 227.84 , 211.65 228.18 , 211.56 228.51 , 211.65 228.84 , 211.60 229.17 , 211.63 229.51 , 211.62 229.84 , 211.57 230.17 , 211.63 230.51 , 211.62 230.84 , 211.61 231.17 , 211.66 231.50 , 211.65 231.84 , 211.60 232.17 , 211.65 232.50 , 211.61 232.84 , 211.59 233.17 , 211.58 233.50 , 211.67 233.83 , 211.68 234.17 , 211.57 234.50 , 211.60 234.83 , 211.62 235.17 , 211.62 235.50 , 211.64 235.83 , 211.59 236.16 , 211.61 236.50 , 211.64 236.83 , 211.62 237.16 , 211.64 237.50 , 211.59 237.83 , 211.58 238.16 , 211.58 238.49 , 211.58 238.83 , 211.65 239.16 , 211.59 239.49 , 211.63 239.83 , 211.57 240.16 , 211.67 240.49 , 211.55 240.82 , 211.68 241.16 , 211.67 241.49 , 211.63 241.82 , 211.64 242.16 , 211.62 242.49 , 211.62 242.82 , 211.65 243.15 , 211.57 243.49 , 211.61 243.82 , 211.57 244.15 , 211.58 244.49 , 211.59 244.82 , 211.61 245.15 , 211.58 245.48 , 211.67 245.82 , 211.59 246.15 , 211.66 246.48 , 211.56 246.82 , 211.54 247.15 , 211.62 247.48 , 211.61 247.81 , 211.61 248.15 , 211.57 248.48 , 211.62 248.81 , 211.64 249.15 , 211.63 249.48 , 211.62 249.81 , 211.63 250.14 , 211.63 250.48 , 211.65 250.81 , 211.61 251.14 , 211.66 251.48 , 211.61 251.81 , 211.62 252.14 , 211.62 252.47 , 211.63 252.81 , 211.58 253.14 , 211.62 253.47 , 211.62 253.81 , 211.62 254.14 , 211.57 254.47 , 211.59 254.80 , 211.59 255.14 , 211.57 255.47 , 211.65 255.80 , 211.59 256.14 , 211.65 256.47 , 211.64 256.80 , 211.61 257.13 , 211.61 257.47 , 211.66 257.80 , 211.60 258.13 , 211.61 258.47 , 211.62 258.80 , 211.68 259.13 , 211.69 259.46 , 211.70 259.80 , 211.68 260.13 , 211.61 260.46 , 211.62 260.80 , 211.61 261.13 , 211.61 261.46 , 211.61 261.80 , 211.66 262.13 , 211.59 262.46 , 211.59 262.79 , 211.54 263.13 , 211.68 263.46 , 211.64 263.79 , 211.59 264.13 , 211.59 264.46 , 211.64 264.79 , 211.65 265.12 , 211.59 265.46 , 211.57 265.79 , 211.57 266.12 , 211.65 266.46 , 211.65 266.79 , 211.62 267.12 , 211.64 267.45 , 211.65 267.79 , 211.54 268.12 , 211.55 268.45 , 211.56 268.79 , 211.53 269.12 , 211.65 269.45 , 211.67 269.78 , 211.63 270.12 , 211.65 270.45 , 211.63 270.78 , 211.65 271.12 , 211.62 271.45 , 211.63 271.78 , 211.55 272.11 , 211.55 272.45 , 211.60 272.78 , 211.60 273.11 , 211.65 273.45 , 211.56 273.78 , 211.55 274.11 , 211.56 274.44 , 211.58 274.78 , 211.65 275.11 , 211.60 275.44 , 211.61 275.78 , 211.62 276.11 , 211.58 276.44 , 211.62 276.77 , 211.70 277.11 , 211.66 277.44 , 211.57 277.77 , 211.55 278.11 , 211.56 278.44 , 211.64 278.77 , 211.65 279.10 , 211.65 279.44 , 211.64 279.77 , 211.58 280.10 , 211.61 280.44 , 211.60 280.77 , 211.60 281.10 , 211.62 281.43 , 211.63 281.77 , 211.66 282.10 , 211.68 282.43 , 211.64 282.77 , 211.63 283.10 , 211.61 283.43 , 211.58 283.76 , 211.58 284.10 , 211.68 284.43 , 211.63 284.76 , 211.64 285.10 , 211.59 285.43 , 211.65 285.76 , 211.63 286.09 , 211.63 286.43 , 211.57 286.76 , 211.58 287.09 , 211.66 287.43 , 211.61 287.76 , 211.67 288.09 , 211.66 288.42 , 211.63 288.76 , 211.60 289.09 , 211.64 289.42 , 211.62 289.76 , 211.63 290.09 , 211.62 290.42 , 211.60 290.75 , 211.57 291.09 , 211.63 291.42 , 211.63 291.75 , 211.62 292.09 , 211.62 292.42 , 211.62 292.75 , 211.62 293.08 , 211.59 293.42 , 211.65 293.75 , 211.65 294.08 , 211.64 294.42 , 211.67 294.75 , 211.66 295.08 , 211.56 295.41 , 211.68 295.75 , 211.68 296.08 , 211.60 296.41 , 211.65 296.75 , 211.62 297.08 , 211.58 297.41 , 211.65 297.74 , 211.66 298.08 , 211.57 298.41 , 211.62 298.74 , 211.61 299.08 , 211.62 299.41 , 211.62 299.74 , 211.57 300.07 , 211.58 300.41 , 211.65 300.74 , 211.56 301.07 , 211.59 301.41 , 211.68 301.74 , 211.61 302.07 , 211.62 302.40 , 211.60 302.74 , 211.57 303.07 , 211.64 303.40 , 211.57 303.74 , 211.57 304.07 , 211.56 304.40 , 211.64 304.73 , 211.65 305.07 , 211.52 305.40 , 211.53 305.73 , 211.66 306.07 , 211.62 306.40 , 211.65 306.73 , 211.59 307.06 , 211.64 307.40 , 211.63 307.73 , 211.62 308.06 , 211.59 308.40 , 211.65 308.73 , 211.60 309.06 , 211.58 309.39 , 211.62 309.73 , 211.65 310.06 , 211.63 310.39 , 211.62 310.73 , 211.61 311.06 , 211.59 311.39 , 211.62 311.72 , 211.62 312.06 , 211.63 312.39 , 211.64 312.72 , 211.65 313.06 , 211.59 313.39 , 211.65 313.72 , 211.61 314.05 , 211.59 314.39 , 211.60 314.72 , 211.62 315.05 , 211.59 315.39 , 211.64 315.72 , 211.64 316.05 , 211.60 316.38 , 211.63 316.72 , 211.67 317.05 , 211.66 317.38 , 211.68 317.72 , 211.60 318.05 , 211.63 318.38 , 211.56 318.71 , 211.62 319.05 , 211.61 319.38 , 211.59 319.71 , 211.66 320.05 , 211.61 320.38 , 211.64 320.71 , 211.58 321.04 , 211.65 321.38 , 211.56 321.71 , 211.64 322.04 , 211.58 322.38 , 211.61 322.71 , 211.56 323.04 , 211.60 323.37 , 211.61 323.71 , 211.60 324.04 , 211.64 324.37 , 211.59 324.71 , 211.61 325.04 , 211.64 325.37 , 211.58 325.70 , 211.63 326.04 , 211.59 326.37 , 211.60 326.70 , 211.65 327.04 , 211.61 327.37 , 211.60 327.70 , 211.61 328.03 , 211.63 328.37 , 211.58 328.70 , 211.62 329.03 , 211.60 329.37 , 211.59 329.70 , 211.63 330.03 , 211.64 330.36 , 211.57 330.70 , 211.57 331.03 , 211.58 331.36 , 211.58 331.70 , 211.56 332.03 , 211.65 332.36 , 211.65 332.69 , 211.57 333.03 , 211.57 333.36 , 211.61 333.69 , 211.57 334.03 , 211.57 334.36 , 211.55 334.69 , 211.59 335.02 , 211.57 335.36 , 211.58 335.69 , 211.60 336.02 , 211.61 336.36 , 211.61 336.69 , 211.63 337.02 , 211.61 337.35 , 211.57 337.69 , 211.66 338.02 , 211.60 338.35 , 211.64 338.69 , 211.60 339.02 , 211.65 339.35 , 211.57 339.69 , 211.62 340.02 , 211.60 340.35 , 211.61 340.68 , 211.60 341.02 , 211.63 341.35 , 211.64 341.68 , 211.58 342.02 , 211.64 342.35 , 211.61 342.68 , 211.61 343.01 , 211.56 343.35 , 211.68 343.68 , 211.53 344.01 , 211.64 344.35 , 211.56 344.68 , 211.68 345.01 , 211.66 345.34 , 211.55 345.68 , 211.62 346.01 , 211.68 346.34 , 211.62 346.68 , 211.64 347.01 , 211.66 347.34 , 211.61 347.67 , 211.60 348.01 , 211.61 348.34 , 211.61 348.67 , 211.60 349.01 , 211.61 349.34 , 211.63 349.67 , 211.68 350.00 , 211.64 350.34 , 211.59 350.67 , 211.58 351.00 , 211.58 351.34 , 211.57 351.67 , 211.63 352.00 , 211.63 352.33 , 211.61 352.67 , 211.62 353.00 , 211.60 353.33 , 211.59 353.67 , 211.62 354.00 , 211.62 354.33 , 211.62 354.66 , 211.59 355.00 , 211.64 355.33 , 211.56 355.66 , 211.62 356.00 , 211.64 356.33 , 211.58 356.66 , 211.66 356.99 , 211.58 357.33 , 211.60 357.66 , 211.63 357.99 , 211.61 358.33 , 211.67 358.66 , 211.63 358.99 , 211.61 359.32 , 211.57 359.66 , 211.63 359.99 , 211.58 360.32 , 211.56 360.66 , 211.56 360.99 , 211.57 361.32 , 211.61 361.65 , 211.63 361.99 , 211.65 362.32 , 211.62 362.65 , 211.61 362.99 , 211.55 " style="stroke-width:1;stroke:#E66101;fill:#000000;stroke-opacity:1.000000;fill-opacity:0.000000"/>
<polyline points="30.79 , 204.42 31.12 , 204.42 31.45 , 204.42 31.79 , 204.42 32.12 , 204.10 32.45 , 202.39 32.79 , 193.28 33.12 , 207.11 33.45 , 209.75 33.78 , 210.20 34.12 , 210.21 34.45 , 210.93 34.78 , 211.20 35.12 , 210.97 35.45 , 210.97 35.78 , 211.23 36.11 , 211.51 36.45 , 211.58 36.78 , 211.58 37.11 , 211.63 37.45 , 211.67 37.78 , 211.59 38.11 , 211.59 38.44 , 211.59 38.78 , 211.64 39.11 , 211.57 39.44 , 211.59 39.78 , 211.57 40.11 , 211.60 40.44 , 211.63 40.77 , 211.69 41.11 , 211.71 41.44 , 211.52 41.77 , 211.53 42.11 , 211.57 42.44 , 211.63 42.77 , 211.63 43.10 , 211.64 43.44 , 211.58 43.77 , 211.61 44.10 , 211.58 44.44 , 211.64 44.77 , 211.61 45.10 , 211.59 45.43 , 211.57 45.77 , 211.64 46.10 , 211.62 46.43 , 211.61 46.77 , 211.61 47.10 , 211.59 47.43 , 211.61 47.76 , 211.59 48.10 , 211.64 48.43 , 211.62 48.76 , 211.65 49.10 , 211.63 49.43 , 211.61 49.76 , 211.63 50.09 , 211.63 50.43 , 211.68 50.76 , 211.66 51.09 , 211.63 51.43 , 211.58 51.76 , 211.61 52.09 , 211.65 52.42 , 211.59 52.76 , 211.62 53.09 , 211.60 53.42 , 211.58 53.76 , 211.61 54.09 , 211.65 54.42 , 211.63 54.75 , 211.62 55.09 , 211.67 55.42 , 211.64 55.75 , 211.61 56.09 , 211.60 56.42 , 211.60 56.75 , 211.59 57.08 , 211.59 57.42 , 211.64 57.75 , 211.62 58.08 , 211.61 58.42 , 211.63 58.75 , 211.60 59.08 , 211.63 59.41 , 211.64 59.75 , 211.61 60.08 , 211.57 60.41 , 211.67 60.75 , 211.66 61.08 , 211.65 61.41 , 211.65 61.74 , 211.64 62.08 , 211.61 62.41 , 211.68 62.74 , 211.53 63.08 , 211.70 63.41 , 211.65 63.74 , 211.61 64.07 , 211.61 64.41 , 211.61 64.74 , 211.64 65.07 , 211.62 65.41 , 211.60 65.74 , 211.59 66.07 , 211.63 66.40 , 211.62 66.74 , 211.64 67.07 , 211.62 67.40 , 211.60 67.74 , 211.68 68.07 , 211.64 68.40 , 211.61 68.73 , 211.62 69.07 , 211.60 69.40 , 211.61 69.73 , 211.68 70.07 , 211.53 70.40 , 211.64 70.73 , 211.64 71.06 , 211.57 71.40 , 211.56 71.73 , 211.56 72.06 , 211.65 72.40 , 211.69 72.73 , 211.68 73.06 , 211.58 73.39 , 211.67 73.73 , 211.61 74.06 , 211.57 74.39 , 211.57 74.73 , 211.61 75.06 , 211.56 75.39 , 211.65 75.72 , 211.57 76.06 , 211.57 76.39 , 211.65 76.72 , 211.61 77.06 , 211.59 77.39 , 211.59 77.72 , 211.58 78.05 , 211.64 78.39 , 211.59 78.72 , 211.59 79.05 , 211.65 79.39 , 211.64 79.72 , 211.64 80.05 , 211.60 80.38 , 211.62 80.72 , 211.65 81.05 , 211.65 81.38 , 211.65 81.72 , 211.63 82.05 , 211.63 82.38 , 211.63 82.71 , 211.60 83.05 , 211.63 83.38 , 211.52 83.71 , 211.61 84.05 , 211.63 84.38 , 211.60 84.71 , 211.67 85.04 , 211.58 85.38 , 211.62 85.71 , 211.61 86.04 , 211.61 86.38 , 211.63 86.71 , 211.61 87.04 , 211.57 87.37 , 211.57 87.71 , 211.55 88.04 , 211.61 88.37 , 211.61 88.71 , 211.61 89.04 , 211.62 89.37 , 211.62 89.70 , 211.62 90.04 , 211.64 90.37 , 211.66 90.70 , 211.66 91.04 , 211.59 91.37 , 211.64 91.70 , 211.63 92.03 , 211.66 92.37 , 211.65 92.70 , 211.57 93.03 , 211.64 93.37 , 211.59 93.70 , 211.61 94.03 , 211.62 94.36 , 211.56 94.70 , 211.54 95.03 , 211.67 95.36 , 211.55 95.70 , 211.58 96.03 , 211.58 96.36 , 211.62 96.69 , 211.66 97.03 , 211.66 97.36 , 211.66 97.69 , 211.58 98.03 , 211.57 98.36 , 211.59 98.69 , 211.63 99.02 , 211.59 99.36 , 211.60 99.69 , 211.52 100.02 , 211.71 100.36 , 211.70 100.69 , 211.66 101.02 , 211.59 101.35 , 211.65 101.69 , 211.63 102.02 , 211.60 102.35 , 211.61 102.69 , 211.70 103.02 , 211.54 103.35 , 211.58 103.68 , 211.58 104.02 , 211.63 104.35 , 211.64 104.68 , 211.64 105.02 , 211.64 105.35 , 211.63 105.68 , 211.61 106.01 , 211.62 106.35 , 211.65 106.68 , 211.64 107.01 , 211.65 107.35 , 211.68 107.68 , 211.68 108.01 , 211.62 108.35 , 211.63 108.68 , 211.58 109.01 , 211.65 109.34 , 211.59 109.68 , 211.59 110.01 , 211.63 110.34 , 211.62 110.68 , 211.61 111.01 , 211.61 111.34 , 211.64 111.67 , 211.61 112.01 , 211.63 112.34 , 211.61 112.67 , 211.61 113.01 , 211.60 113.34 , 211.60 113.67 , 211.62 114.00 , 211.62 114.34 , 211.62 114.67 , 211.62 115.00 , 211.62 115.34 , 211.64 115.67 , 211.57 116.00 , 211.64 116.33 , 211.61 116.67 , 211.62 117.00 , 211.59 117.33 , 211.61 117.67 , 211.58 118.00 , 211.65 118.33 , 211.65 118.66 , 211.65 119.00 , 211.58 119.33 , 211.64 119.66 , 211.60 120.00 , 211.60 120.33 , 211.65 120.66 , 211.60 120.99 , 211.67 121.33 , 211.60 121.66 , 211.64 121.99 , 211.62 122.33 , 211.61 122.66 , 211.61 122.99 , 211.61 123.32 , 211.62 123.66 , 211.58 123.99 , 211.55 124.32 , 211.55 124.66 , 211.65 124.99 , 211.64 125.32 , 211.60 125.65 , 211.61 125.99 , 211.62 126.32 , 211.63 126.65 , 211.57 126.99 , 211.55 127.32 , 211.68 127.65 , 211.65 127.98 , 211.57 128.32 , 211.61 128.65 , 211.61 128.98 , 211.59 129.32 , 211.60 129.65 , 211.61 129.98 , 211.61 130.31 , 211.61 130.65 , 211.64 130.98 , 211.65 131.31 , 211.65 131.65 , 211.66 131.98 , 211.64 132.31 , 211.60 132.64 , 211.59 132.98 , 211.68 133.31 , 211.54 133.64 , 211.61 133.98 , 211.60 134.31 , 211.64 134.64 , 211.65 134.97 , 211.66 135.31 , 211.66 135.64 , 211.66 135.97 , 211.66 136.31 , 211.66 136.64 , 211.57 136.97 , 211.69 137.30 , 211.59 137.64 , 211.67 137.97 , 211.56 138.30 , 211.65 138.64 , 211.59 138.97 , 211.59 139.30 , 211.51 139.63 , 211.68 139.97 , 211.57 140.30 , 211.59 140.63 , 211.60 140.97 , 211.65 141.30 , 211.64 141.63 , 211.60 141.96 , 211.64 142.30 , 211.64 142.63 , 211.63 142.96 , 211.60 143.30 , 211.67 143.63 , 211.61 143.96 , 211.62 144.29 , 211.62 144.63 , 211.58 144.96 , 211.58 145.29 , 211.53 145.63 , 211.52 145.96 , 211.53 146.29 , 211.55 146.62 , 211.66 146.96 , 211.66 147.29 , 211.65 147.62 , 211.65 147.96 , 211.62 148.29 , 211.63 148.62 , 211.64 148.95 , 211.63 149.29 , 211.62 149.62 , 211.62 149.95 , 211.63 150.29 , 211.63 150.62 , 211.63 150.95 , 211.64 151.28 , 211.62 151.62 , 211.59 151.95 , 211.66 152.28 , 211.70 152.62 , 211.70 152.95 , 211.70 153.28 , 211.67 153.61 , 211.63 153.95 , 211.60 154.28 , 211.60 154.61 , 211.59 154.95 , 211.69 155.28 , 211.66 155.61 , 211.66 155.94 , 211.66 156.28 , 211.66 156.61 , 211.60 156.94 , 211.61 157.28 , 211.61 157.61 , 211.62 157.94 , 211.61 158.27 , 211.58 158.61 , 211.60 158.94 , 211.59 159.27 , 211.59 159.61 , 211.62 159.94 , 211.57 160.27 , 211.59 160.60 , 211.62 160.94 , 211.58 161.27 , 211.64 161.60 , 211.64 161.94 , 211.62 162.27 , 211.62 162.60 , 211.68 162.93 , 211.62 163.27 , 211.67 163.60 , 211.67 163.93 , 211.60 164.27 , 211.67 164.60 , 211.66 164.93 , 211.60 165.26 , 211.58 165.60 , 211.64 165.93 , 211.64 166.26 , 211.65 166.60 , 211.53 166.93 , 211.61 167.26 , 211.63 167.59 , 211.64 167.93 , 211.58 168.26 , 211.56 168.59 , 211.59 168.93 , 211.58 169.26 , 211.59 169.59 , 211.60 169.92 , 211.62 170.26 , 211.58 170.59 , 211.61 170.92 , 211.59 171.26 , 211.55 171.59 , 211.61 171.92 , 211.64 172.25 , 211.57 172.59 , 211.58 172.92 , 211.66 173.25 , 211.54 173.59 , 211.64 173.92 , 211.60 174.25 , 211.62 174.58 , 211.61 174.92 , 211.64 175.25 , 211.64 175.58 , 211.62 175.92 , 211.59 176.25 , 211.60 176.58 , 211.60 176.91 , 211.58 177.25 , 211.58 177.58 , 211.65 177.91 , 211.63 178.25 , 211.66 178.58 , 211.60 178.91 , 211.62 179.24 , 211.59 179.58 , 211.58 179.91 , 211.58 180.24 , 211.65 180.58 , 211.65 180.91 , 211.65 181.24 , 211.56 181.57 , 211.58 181.91 , 211.60 182.24 , 211.58 182.57 , 211.63 182.91 , 211.63 183.24 , 211.61 183.57 , 211.60 183.90 , 211.63 184.24 , 211.64 184.57 , 211.57 184.90 , 211.67 185.24 , 211.55 185.57 , 211.66 185.90 , 211.66 186.24 , 211.61 186.57 , 211.58 186.90 , 211.59 187.23 , 211.65 187.57 , 211.66 187.90 , 211.67 188.23 , 211.67 188.57 , 211.60 188.90 , 211.58 189.23 , 211.60 189.56 , 211.62 189.90 , 211.60 190.23 , 211.51 190.56 , 211.62 190.90 , 211.64 191.23 , 211.59 191.56 , 211.61 191.89 , 211.62 192.23 , 211.67 192.56 , 211.60 192.89 , 211.58 193.23 , 211.64 193.56 , 211.63 193.89 , 211.62 194.22 , 211.65 194.56 , 211.60 194.89 , 211.60 195.22 , 211.59 195.56 , 211.56 195.89 , 211.59 196.22 , 211.58 196.55 , 211.62 196.89 , 211.58 197.22 , 211.60 197.55 , 211.63 197.89 , 211.57 198.22 , 211.62 198.55 , 211.59 198.88 , 211.57 199.22 , 211.56 199.55 , 211.63 199.88 , 211.62 200.22 , 211.57 200.55 , 211.57 200.88 , 211.60 201.21 , 211.59 201.55 , 211.60 201.88 , 211.59 202.21 , 211.59 202.55 , 211.58 202.88 , 211.58 203.21 , 211.58 203.54 , 211.58 203.88 , 211.62 204.21 , 211.59 204.54 , 211.64 204.88 , 211.55 205.21 , 211.66 205.54 , 211.61 205.87 , 211.67 206.21 , 211.57 206.54 , 211.60 206.87 , 211.55 207.21 , 211.56 207.54 , 211.63 207.87 , 211.61 208.20 , 211.62 208.54 , 211.63 208.87 , 211.67 209.20 , 211.69 209.54 , 211.61 209.87 , 211.61 210.20 , 211.53 210.53 , 211.60 210.87 , 211.61 211.20 , 211.62 211.53 , 211.66 211.87 , 211.67 212.20 , 211.62 212.53 , 211.61 212.86 , 211.64 213.20 , 211.58 213.53 , 211.63 213.86 , 211.64 214.20 , 211.64 214.53 , 211.70 214.86 , 211.68 215.19 , 211.68 215.53 , 211.63 215.86 , 211.55 216.19 , 211.69 216.53 , 211.64 216.86 , 211.65 217.19 , 211.62 217.52 , 211.61 217.86 , 211.60 218.19 , 211.65 218.52 , 211.58 218.86 , 211.65 219.19 , 211.60 219.52 , 211.60 219.85 , 211.61 220.19 , 211.66 220.52 , 211.64 220.85 , 211.64 221.19 , 211.61 221.52 , 211.58 221.85 , 211.58 222.18 , 211.65 222.52 , 211.64 222.85 , 211.61 223.18 , 211.60 223.52 , 211.56 223.85 , 211.58 224.18 , 211.64 224.51 , 211.60 224.85 , 211.58 225.18 , 211.61 225.51 , 211.59 225.85 , 211.55 226.18 , 211.68 226.51 , 211.64 226.84 , 211.55 227.18 , 211.64 227.51 , 211.61 227.84 , 211.69 228.18 , 211.68 228.51 , 211.58 228.84 , 211.60 229.17 , 211.64 229.51 , 211.64 229.84 , 211.61 230.17 , 211.63 230.51 , 211.62 230.84 , 211.60 231.17 , 211.61 231.50 , 211.62 231.84 , 211.62 232.17 , 211.63 232.50 , 211.61 232.84 , 211.63 233.17 , 211.62 233.50 , 211.60 233.83 , 211.63 234.17 , 211.61 234.50 , 211.61 234.83 , 211.64 235.17 , 211.64 235.50 , 211.61 235.83 , 211.63 236.16 , 211.65 236.50 , 211.67 236.83 , 211.62 237.16 , 211.70 237.50 , 211.65 237.83 , 211.61 238.16 , 211.64 238.49 , 211.59 238.83 , 211.59 239.16 , 211.61 239.49 , 211.62 239.83 , 211.62 240.16 , 211.65 240.49 , 211.60 240.82 , 211.64 241.16 , 211.61 241.49 , 211.64 241.82 , 211.70 242.16 , 211.57 242.49 , 211.56 242.82 , 211.63 243.15 , 211.59 243.49 , 211.61 243.82 , 211.62 244.15 , 211.62 244.49 , 211.65 244.82 , 211.63 245.15 , 211.62 245.48 , 211.61 245.82 , 211.62 246.15 , 211.53 246.48 , 211.54 246.82 , 211.59 247.15 , 211.59 247.48 , 211.67 247.81 , 211.62 248.15 , 211.61 248.48 , 211.60 248.81 , 211.66 249.15 , 211.61 249.48 , 211.66 249.81 , 211.54 250.14 , 211.54 250.48 , 211.56 250.81 , 211.67 251.14 , 211.59 251.48 , 211.61 251.81 , 211.63 252.14 , 211.57 252.47 , 211.63 252.81 , 211.60 253.14 , 211.64 253.47 , 211.65 253.81 , 211.64 254.14 , 211.56 254.47 , 211.68 254.80 , 211.61 255.14 , 211.64 255.47 , 211.64 255.80 , 211.69 256.14 , 211.68 256.47 , 211.69 256.80 , 211.55 257.13 , 211.60 257.47 , 211.62 257.80 , 211.59 258.13 , 211.59 258.47 , 211.60 258.80 , 211.64 259.13 , 211.55 259.46 , 211.66 259.80 , 211.64 260.13 , 211.57 260.46 , 211.57 260.80 , 211.65 261.13 , 211.64 261.46 , 211.63 261.80 , 211.66 262.13 , 211.58 262.46 , 211.66 262.79 , 211.60 263.13 , 211.61 263.46 , 211.54 263.79 , 211.60 264.13 , 211.63 264.46 , 211.63 264.79 , 211.64 265.12 , 211.66 265.46 , 211.63 265.79 , 211.62 266.12 , 211.61 266.46 , 211.62 266.79 , 211.62 267.12 , 211.69 267.45 , 211.66 267.79 , 211.57 268.12 , 211.66 268.45 , 211.60 268.79 , 211.52 269.12 , 211.54 269.45 , 211.55 269.78 , 211.68 270.12 , 211.53 270.45 , 211.56 270.78 , 211.67 271.12 , 211.62 271.45 , 211.62 271.78 , 211.60 272.11 , 211.59 272.45 , 211.63 272.78 , 211.62 273.11 , 211.65 273.45 , 211.62 273.78 , 211.62 274.11 , 211.63 274.44 , 211.61 274.78 , 211.59 275.11 , 211.59 275.44 , 211.62 275.78 , 211.65 276.11 , 211.65 276.44 , 211.60 276.77 , 211.65 277.11 , 211.57 277.44 , 211.63 277.77 , 211.64 278.11 , 211.59 278.44 , 211.60 278.77 , 211.69 279.10 , 211.69 279.44 , 211.66 279.77 , 211.62 280.10 , 211.60 280.44 , 211.60 280.77 , 211.64 281.10 , 211.63 281.43 , 211.71 281.77 , 211.63 282.10 , 211.64 282.43 , 211.63 282.77 , 211.59 283.10 , 211.58 283.43 , 211.62 283.76 , 211.60 284.10 , 211.59 284.43 , 211.64 284.76 , 211.62 285.10 , 211.64 285.43 , 211.64 285.76 , 211.64 286.09 , 211.67 286.43 , 211.67 286.76 , 211.54 287.09 , 211.69 287.43 , 211.53 287.76 , 211.69 288.09 , 211.56 288.42 , 211.58 288.76 , 211.58 289.09 , 211.66 289.42 , 211.60 289.76 , 211.62 290.09 , 211.54 290.42 , 211.59 290.75 , 211.61 291.09 , 211.65 291.42 , 211.63 291.75 , 211.60 292.09 , 211.63 292.42 , 211.57 292.75 , 211.60 293.08 , 211.59 293.42 , 211.63 293.75 , 211.60 294.08 , 211.60 294.42 , 211.63 294.75 , 211.62 295.08 , 211.58 295.41 , 211.65 295.75 , 211.63 296.08 , 211.60 296.41 , 211.60 296.75 , 211.62 297.08 , 211.60 297.41 , 211.60 297.74 , 211.56 298.08 , 211.66 298.41 , 211.63 298.74 , 211.64 299.08 , 211.59 299.41 , 211.63 299.74 , 211.61 300.07 , 211.60 300.41 , 211.61 300.74 , 211.66 301.07 , 211.67 301.41 , 211.63 301.74 , 211.59 302.07 , 211.63 302.40 , 211.61 302.74 , 211.60 303.07 , 211.63 303.40 , 211.63 303.74 , 211.63 304.07 , 211.56 304.40 , 211.63 304.73 , 211.59 305.07 , 211.62 305.40 , 211.60 305.73 , 211.60 306.07 , 211.64 306.40 , 211.61 306.73 , 211.62 307.06 , 211.61 307.40 , 211.61 307.73 , 211.59 308.06 , 211.55 308.40 , 211.61 308.73 , 211.66 309.06 , 211.61 309.39 , 211.62 309.73 , 211.63 310.06 , 211.63 310.39 , 211.62 310.73 , 211.61 311.06 , 211.61 311.39 , 211.57 311.72 , 211.57 312.06 , 211.66 312.39 , 211.59 312.72 , 211.58 313.06 , 211.64 313.39 , 211.64 313.72 , 211.63 314.05 , 211.61 314.39 , 211.63 314.72 , 211.64 315.05 , 211.63 315.39 , 211.66 315.72 , 211.58 316.05 , 211.67 316.38 , 211.60 316.72 , 211.63 317.05 , 211.59 317.38 , 211.59 317.72 , 211.66 318.05 , 211.60 318.38 , 211.57 318.71 , 211.57 319.05 , 211.57 319.38 , 211.64 319.71 , 211.59 320.05 , 211.59 320.38 , 211.60 320.71 , 211.57 321.04 , 211.61 321.38 , 211.65 321.71 , 211.56 322.04 , 211.59 322.38 , 211.61 322.71 , 211.61 323.04 , 211.56 323.37 , 211.58 323.71 , 211.67 324.04 , 211.56 324.37 , 211.56 324.71 , 211.58 325.04 , 211.62 325.37 , 211.65 325.70 , 211.56 326.04 , 211.61 326.37 , 211.63 326.70 , 211.60 327.04 , 211.60 327.37 , 211.59 327.70 , 211.59 328.03 , 211.57 328.37 , 211.66 328.70 , 211.66 329.03 , 211.63 329.37 , 211.59 329.70 , 211.59 330.03 , 211.67 330.36 , 211.54 330.70 , 211.64 331.03 , 211.59 331.36 , 211.63 331.70 , 211.62 332.03 , 211.64 332.36 , 211.64 332.69 , 211.66 333.03 , 211.66 333.36 , 211.59 333.69 , 211.58 334.03 , 211.61 334.36 , 211.61 334.69 , 211.62 335.02 , 211.59 335.36 , 211.69 335.69 , 211.66 336.02 , 211.58 336.36 , 211.61 336.69 , 211.59 337.02 , 211.69 337.35 , 211.64 337.69 , 211.63 338.02 , 211.61 338.35 , 211.62 338.69 , 211.58 339.02 , 211.66 339.35 , 211.56 339.69 , 211.57 340.02 , 211.63 340.35 , 211.60 340.68 , 211.63 341.02 , 211.70 341.35 , 211.55 341.68 , 211.59 342.02 , 211.60 342.35 , 211.61 342.68 , 211.64 343.01 , 211.59 343.35 , 211.64 343.68 , 211.59 344.01 , 211.58 344.35 , 211.57 344.68 , 211.65 345.01 , 211.65 345.34 , 211.58 345.68 , 211.58 346.01 , 211.59 346.34 , 211.63 346.68 , 211.63 347.01 , 211.64 347.34 , 211.59 347.67 , 211.64 348.01 , 211.58 348.34 , 211.64 348.67 , 211.58 349.01 , 211.67 349.34 , 211.61 349.67 , 211.64 350.00 , 211.61 350.34 , 211.62 350.67 , 211.61 351.00 , 211.60 351.34 , 211.62 351.67 , 211.64 352.00 , 211.59 352.33 , 211.61 352.67 , 211.63 353.00 , 211.61 353.33 , 211.61 353.67 , 211.64 354.00 , 211.60 354.33 , 211.51 354.66 , 211.70 355.00 , 211.62 355.33 , 211.61 355.66 , 211.58 356.00 , 211.62 356.33 , 211.64 356.66 , 211.59 356.99 , 211.60 357.33 , 211.62 357.66 , 211.68 357.99 , 211.65 358.33 , 211.59 358.66 , 211.71 358.99 , 211.53 359.32 , 211.61 359.66 , 211.65 359.99 , 211.60 360.32 , 211.65 360.66 , 211.66 360.99 , 211.68 361.32 , 211.60 361.65 , 211.64 361.99 , 211.59 362.32 , 211.62 362.65 , 211.63 362.99 , 211.69 " style="stroke-width:1;stroke:#998EC3;fill:#000000;stroke-opacity:1.000000;fill-opacity:0.000000"/>
<polyline points="30.79 , 134.70 31.12 , 134.70 31.45 , 134.70 31.79 , 198.30 32.12 , 208.35 32.45 , 208.30 32.79 , 210.44 33.12 , 210.78 33.45 , 210.78 33.78 , 211.21 34.12 , 211.08 34.45 , 211.56 34.78 , 211.62 35.12 , 211.63 35.45 , 211.65 35.78 , 211.64 36.11 , 211.64 36.45 , 211.64 36.78 , 211.57 37.11 , 211.64 37.45 , 211.64 37.78 , 211.57 38.11 , 211.65 38.44 , 211.64 38.78 , 211.56 39.11 , 211.56 39.44 , 211.60 39.78 , 211.59 40.11 , 211.65 40.44 , 211.63 40.77 , 211.61 41.11 , 211.61 41.44 , 211.64 41.77 , 211.61 42.11 , 211.61 42.44 , 211.59 42.77 , 211.64 43.10 , 211.57 43.44 , 211.63 43.77 , 211.63 44.10 , 211.64 44.44 , 211.59 44.77 , 211.66 45.10 , 211.58 45.43 , 211.65 45.77 , 211.61 46.10 , 211.66 46.43 , 211.67 46.77 , 211.55 47.10 , 211.69 47.43 , 211.58 47.76 , 211.59 48.10 , 211.62 48.43 , 211.59 48.76 , 211.60 49.10 , 211.64 49.43 , 211.64 49.76 , 211.61 50.09 , 211.63 50.43 , 211.64 50.76 , 211.63 51.09 , 211.55 51.43 , 211.67 51.76 , 211.60 52.09 , 211.59 52.42 , 211.64 52.76 , 211.63 53.09 , 211.65 53.42 , 211.65 53.76 , 211.65 54.09 , 211.57 54.42 , 211.65 54.75 , 211.62 55.09 , 211.62 55.42 , 211.61 55.75 , 211.60 56.09 , 211.63 56.42 , 211.61 56.75 , 211.57 57.08 , 211.65 57.42 , 211.57 57.75 , 211.59 58.08 , 211.62 58.42 , 211.62 58.75 , 211.61 59.08 , 211.57 59.41 , 211.66 59.75 , 211.67 60.08 , 211.57 60.41 , 211.57 60.75 , 211.67 61.08 , 211.74 61.41 , 211.69 61.74 , 211.66 62.08 , 211.64 62.41 , 211.62 62.74 , 211.59 63.08 , 211.57 63.41 , 211.56 63.74 , 211.65 64.07 , 211.65 64.41 , 211.65 64.74 , 211.66 65.07 , 211.67 65.41 , 211.75 65.74 , 211.76 66.07 , 211.61 66.40 , 211.61 66.74 , 211.63 67.07 , 211.54 67.40 , 211.54 67.74 , 211.57 68.07 , 211.65 68.40 , 211.64 68.73 , 211.60 69.07 , 211.59 69.40 , 211.66 69.73 , 211.58 70.07 , 211.58 70.40 , 211.66 70.73 , 211.63 71.06 , 211.60 71.40 , 211.58 71.73 , 211.58 72.06 , 211.64 72.40 , 211.57 72.73 , 211.64 73.06 , 211.60 73.39 , 211.61 73.73 , 211.62 74.06 , 211.58 74.39 , 211.57 74.73 , 211.59 75.06 , 211.62 75.39 , 211.62 75.72 , 211.60 76.06 , 211.62 76.39 , 211.60 76.72 , 211.63 77.06 , 211.61 77.39 , 211.63 77.72 , 211.58 78.05 , 211.62 78.39 , 211.63 78.72 , 211.59 79.05 , 211.57 79.39 , 211.57 79.72 , 211.59 80.05 , 211.58 80.38 , 211.65 80.72 , 211.65 81.05 , 211.65 81.38 , 211.52 81.72 , 211.68 82.05 , 211.52 82.38 , 211.64 82.71 , 211.64 83.05 , 211.64 83.38 , 211.62 83.71 , 211.61 84.05 , 211.62 84.38 , 211.60 84.71 , 211.57 85.04 , 211.64 85.38 , 211.58 85.71 , 211.58 86.04 , 211.64 86.38 , 211.61 86.71 , 211.62 87.04 , 211.60 87.37 , 211.63 87.71 , 211.63 88.04 , 211.59 88.37 , 211.59 88.71 , 211.62 89.04 , 211.60 89.37 , 211.62 89.70 , 211.62 90.04 , 211.62 90.37 , 211.61 90.70 , 211.62 91.04 , 211.67 91.37 , 211.49 91.70 , 211.71 92.03 , 211.69 92.37 , 211.70 92.70 , 211.70 93.03 , 211.66 93.37 , 211.59 93.70 , 211.66 94.03 , 211.68 94.36 , 211.56 94.70 , 211.64 95.03 , 211.61 95.36 , 211.62 95.70 , 211.61 96.03 , 211.65 96.36 , 211.62 96.69 , 211.63 97.03 , 211.64 97.36 , 211.64 97.69 , 211.56 98.03 , 211.66 98.36 , 211.57 98.69 , 211.60 99.02 , 211.60 99.36 , 211.66 99.69 , 211.61 100.02 , 211.59 100.36 , 211.54 100.69 , 211.60 101.02 , 211.64 101.35 , 211.64 101.69 , 211.58 102.02 , 211.65 102.35 , 211.58 102.69 , 211.68 103.02 , 211.68 103.35 , 211.68 103.68 , 211.68 104.02 , 211.54 104.35 , 211.61 104.68 , 211.61 105.02 , 211.63 105.35 , 211.59 105.68 , 211.63 106.01 , 211.63 106.35 , 211.65 106.68 , 211.59 107.01 , 211.61 107.35 , 211.56 107.68 , 211.65 108.01 , 211.61 108.35 , 211.61 108.68 , 211.66 109.01 , 211.67 109.34 , 211.53 109.68 , 211.68 110.01 , 211.59 110.34 , 211.57 110.68 , 211.68 111.01 , 211.63 111.34 , 211.59 111.67 , 211.64 112.01 , 211.58 112.34 , 211.58 112.67 , 211.66 113.01 , 211.62 113.34 , 211.64 113.67 , 211.61 114.00 , 211.62 114.34 , 211.62 114.67 , 211.61 115.00 , 211.64 115.34 , 211.61 115.67 , 211.59 116.00 , 211.57 116.33 , 211.57 116.67 , 211.55 117.00 , 211.56 117.33 , 211.54 117.67 , 211.58 118.00 , 211.62 118.33 , 211.62 118.66 , 211.60 119.00 , 211.65 119.33 , 211.60 119.66 , 211.60 120.00 , 211.60 120.33 , 211.58 120.66 , 211.54 120.99 , 211.57 121.33 , 211.57 121.66 , 211.63 121.99 , 211.59 122.33 , 211.59 122.66 , 211.59 122.99 , 211.64 123.32 , 211.61 123.66 , 211.63 123.99 , 211.63 124.32 , 211.63 124.66 , 211.64 124.99 , 211.59 125.32 , 211.56 125.65 , 211.60 125.99 , 211.60 126.32 , 211.66 126.65 , 211.68 126.99 , 211.65 127.32 , 211.60 127.65 , 211.57 127.98 , 211.59 128.32 , 211.58 128.65 , 211.64 128.98 , 211.64 129.32 , 211.65 129.65 , 211.58 129.98 , 211.66 130.31 , 211.68 130.65 , 211.68 130.98 , 211.60 131.31 , 211.64 131.65 , 211.62 131.98 , 211.62 132.31 , 211.66 132.64 , 211.66 132.98 , 211.67 133.31 , 211.67 133.64 , 211.62 133.98 , 211.62 134.31 , 211.64 134.64 , 211.63 134.97 , 211.58 135.31 , 211.57 135.64 , 211.57 135.97 , 211.66 136.31 , 211.56 136.64 , 211.59 136.97 , 211.63 137.30 , 211.60 137.64 , 211.62 137.97 , 211.62 138.30 , 211.59 138.64 , 211.61 138.97 , 211.58 139.30 , 211.60 139.63 , 211.65 139.97 , 211.62 140.30 , 211.60 140.63 , 211.63 140.97 , 211.61 141.30 , 211.59 141.63 , 211.59 141.96 , 211.58 142.30 , 211.62 142.63 , 211.62 142.96 , 211.62 143.30 , 211.60 143.63 , 211.61 143.96 , 211.63 144.29 , 211.62 144.63 , 211.61 144.96 , 211.61 145.29 , 211.61 145.63 , 211.58 145.96 , 211.61 146.29 , 211.64 146.62 , 211.57 146.96 , 211.57 147.29 , 211.66 147.62 , 211.59 147.96 , 211.62 148.29 , 211.60 148.62 , 211.62 148.95 , 211.62 149.29 , 211.63 149.62 , 211.64 149.95 , 211.63 150.29 , 211.62 150.62 , 211.63 150.95 , 211.57 151.28 , 211.64 151.62 , 211.72 151.95 , 211.62 152.28 , 211.63 152.62 , 211.56 152.95 , 211.55 153.28 , 211.56 153.61 , 211.64 153.95 , 211.59 154.28 , 211.64 154.61 , 211.62 154.95 , 211.63 155.28 , 211.65 155.61 , 211.59 155.94 , 211.54 156.28 , 211.58 156.61 , 211.54 156.94 , 211.63 157.28 , 211.59 157.61 , 211.64 157.94 , 211.56 158.27 , 211.60 158.61 , 211.60 158.94 , 211.64 159.27 , 211.60 159.61 , 211.56 159.94 , 211.69 160.27 , 211.56 160.60 , 211.63 160.94 , 211.61 161.27 , 211.63 161.60 , 211.60 161.94 , 211.61 162.27 , 211.61 162.60 , 211.65 162.93 , 211.61 163.27 , 211.60 163.60 , 211.59 163.93 , 211.68 164.27 , 211.60 164.60 , 211.59 164.93 , 211.58 165.26 , 211.65 165.60 , 211.62 165.93 , 211.62 166.26 , 211.62 166.60 , 211.62 166.93 , 211.60 167.26 , 211.64 167.59 , 211.64 167.93 , 211.68 168.26 , 211.71 168.59 , 211.71 168.93 , 211.47 169.26 , 211.57 169.59 , 211.59 169.92 , 211.57 170.26 , 211.56 170.59 , 211.55 170.92 , 211.54 171.26 , 211.69 171.59 , 211.63 171.92 , 211.63 172.25 , 211.62 172.59 , 211.62 172.92 , 211.61 173.25 , 211.61 173.59 , 211.64 173.92 , 211.64 174.25 , 211.67 174.58 , 211.56 174.92 , 211.67 175.25 , 211.63 175.58 , 211.61 175.92 , 211.64 176.25 , 211.61 176.58 , 211.63 176.91 , 211.64 177.25 , 211.64 177.58 , 211.61 177.91 , 211.63 178.25 , 211.57 178.58 , 211.63 178.91 , 211.55 179.24 , 211.66 179.58 , 211.71 179.91 , 211.71 180.24 , 211.62 180.58 , 211.62 180.91 , 211.62 181.24 , 211.62 181.57 , 211.63 181.91 , 211.62 182.24 , 211.63 182.57 , 211.58 182.91 , 211.58 183.24 , 211.57 183.57 , 211.67 183.90 , 211.56 184.24 , 211.54 184.57 , 211.54 184.90 , 211.66 185.24 , 211.58 185.57 , 211.59 185.90 , 211.63 186.24 , 211.60 186.57 , 211.63 186.90 , 211.55 187.23 , 211.55 187.57 , 211.68 187.90 , 211.65 188.23 , 211.60 188.57 , 211.61 188.90 , 211.60 189.23 , 211.67 189.56 , 211.67 189.90 , 211.53 190.23 , 211.58 190.56 , 211.60 190.90 , 211.63 191.23 , 211.61 191.56 , 211.61 191.89 , 211.64 192.23 , 211.62 192.56 , 211.65 192.89 , 211.63 193.23 , 211.59 193.56 , 211.65 193.89 , 211.64 194.22 , 211.60 194.56 , 211.66 194.89 , 211.65 195.22 , 211.57 195.56 , 211.54 195.89 , 211.60 196.22 , 211.57 196.55 , 211.57 196.89 , 211.67 197.22 , 211.63 197.55 , 211.64 197.89 , 211.62 198.22 , 211.53 198.55 , 211.67 198.88 , 211.59 199.22 , 211.61 199.55 , 211.63 199.88 , 211.56 200.22 , 211.65 200.55 , 211.63 200.88 , 211.58 201.21 , 211.61 201.55 , 211.60 201.88 , 211.63 202.21 , 211.56 202.55 , 211.64 202.88 , 211.56 203.21 , 211.66 203.54 , 211.59 203.88 , 211.58 204.21 , 211.61 204.54 , 211.55 204.88 , 211.61 205.21 , 211.63 205.54 , 211.61 205.87 , 211.63 206.21 , 211.68 206.54 , 211.57 206.87 , 211.58 207.21 , 211.64 207.54 , 211.60 207.87 , 211.64 208.20 , 211.62 208.54 , 211.58 208.87 , 211.62 209.20 , 211.57 209.54 , 211.66 209.87 , 211.59 210.20 , 211.58 210.53 , 211.65 210.87 , 211.55 211.20 , 211.66 211.53 , 211.58 211.87 , 211.57 212.20 , 211.63 212.53 , 211.65 212.86 , 211.65 213.20 , 211.65 213.53 , 211.66 213.86 , 211.54 214.20 , 211.60 214.53 , 211.61 214.86 , 211.64 215.19 , 211.66 215.53 , 211.66 215.86 , 211.66 216.19 , 211.64 216.53 , 211.65 216.86 , 211.65 217.19 , 211.68 217.52 , 211.60 217.86 , 211.64 218.19 , 211.64 218.52 , 211.60 218.86 , 211.58 219.19 , 211.60 219.52 , 211.63 219.85 , 211.63 220.19 , 211.60 220.52 , 211.64 220.85 , 211.63 221.19 , 211.64 221.52 , 211.64 221.85 , 211.67 222.18 , 211.66 222.52 , 211.61 222.85 , 211.59 223.18 , 211.63 223.52 , 211.68 223.85 , 211.68 224.18 , 211.68 224.51 , 211.61 224.85 , 211.60 225.18 , 211.65 225.51 , 211.62 225.85 , 211.64 226.18 , 211.58 226.51 , 211.64 226.84 , 211.65 227.18 , 211.56 227.51 , 211.55 227.84 , 211.53 228.18 , 211.69 228.51 , 211.67 228.84 , 211.61 229.17 , 211.56 229.51 , 211.56 229.84 , 211.63 230.17 , 211.57 230.51 , 211.64 230.84 , 211.56 231.17 , 211.64 231.50 , 211.64 231.84 , 211.58 232.17 , 211.63 232.50 , 211.61 232.84 , 211.58 233.17 , 211.63 233.50 , 211.66 233.83 , 211.56 234.17 , 211.61 234.50 , 211.61 234.83 , 211.70 235.17 , 211.59 235.50 , 211.60 235.83 , 211.60 236.16 , 211.64 236.50 , 211.62 236.83 , 211.64 237.16 , 211.66 237.50 , 211.58 237.83 , 211.65 238.16 , 211.61 238.49 , 211.61 238.83 , 211.64 239.16 , 211.65 239.49 , 211.71 239.83 , 211.51 240.16 , 211.70 240.49 , 211.49 240.82 , 211.58 241.16 , 211.57 241.49 , 211.63 241.82 , 211.60 242.16 , 211.60 242.49 , 211.60 242.82 , 211.67 243.15 , 211.67 243.49 , 211.60 243.82 , 211.59 244.15 , 211.58 244.49 , 211.62 244.82 , 211.61 245.15 , 211.63 245.48 , 211.64 245.82 , 211.65 246.15 , 211.64 246.48 , 211.57 246.82 , 211.61 247.15 , 211.64 247.48 , 211.66 247.81 , 211.56 248.15 , 211.58 248.48 , 211.56 248.81 , 211.66 249.15 , 211.58 249.48 , 211.66 249.81 , 211.58 250.14 , 211.61 250.48 , 211.61 250.81 , 211.65 251.14 , 211.61 251.48 , 211.59 251.81 , 211.66 252.14 , 211.65 252.47 , 211.58 252.81 , 211.65 253.14 , 211.60 253.47 , 211.65 253.81 , 211.60 254.14 , 211.58 254.47 , 211.65 254.80 , 211.66 255.14 , 211.66 255.47 , 211.62 255.80 , 211.61 256.14 , 211.56 256.47 , 211.61 256.80 , 211.60 257.13 , 211.63 257.47 , 211.61 257.80 , 211.66 258.13 , 211.58 258.47 , 211.63 258.80 , 211.63 259.13 , 211.61 259.46 , 211.62 259.80 , 211.61 260.13 , 211.65 260.46 , 211.60 260.80 , 211.57 261.13 , 211.59 261.46 , 211.67 261.80 , 211.63 262.13 , 211.60 262.46 , 211.60 262.79 , 211.62 263.13 , 211.68 263.46 , 211.54 263.79 , 211.68 264.13 , 211.55 264.46 , 211.70 264.79 , 211.67 265.12 , 211.60 265.46 , 211.62 265.79 , 211.62 266.12 , 211.62 266.46 , 211.68 266.79 , 211.60 267.12 , 211.60 267.45 , 211.64 267.79 , 211.60 268.12 , 211.61 268.45 , 211.62 268.79 , 211.62 269.12 , 211.61 269.45 , 211.62 269.78 , 211.56 270.12 , 211.59 270.45 , 211.62 270.78 , 211.61 271.12 , 211.62 271.45 , 211.61 271.78 , 211.64 272.11 , 211.63 272.45 , 211.61 272.78 , 211.62 273.11 , 211.57 273.45 , 211.65 273.78 , 211.64 274.11 , 211.55 274.44 , 211.58 274.78 , 211.62 275.11 , 211.61 275.44 , 211.59 275.78 , 211.65 276.11 , 211.56 276.44 , 211.56 276.77 , 211.64 277.11 , 211.59 277.44 , 211.59 277.77 , 211.61 278.11 , 211.59 278.44 , 211.67 278.77 , 211.56 279.10 , 211.66 279.44 , 211.66 279.77 , 211.57 280.10 , 211.54 280.44 , 211.68 280.77 , 211.66 281.10 , 211.59 281.43 , 211.56 281.77 , 211.66 282.10 , 211.66 282.43 , 211.54 282.77 , 211.62 283.10 , 211.63 283.43 , 211.64 283.76 , 211.59 284.10 , 211.64 284.43 , 211.63 284.76 , 211.64 285.10 , 211.65 285.43 , 211.60 285.76 , 211.63 286.09 , 211.62 286.43 , 211.62 286.76 , 211.65 287.09 , 211.66 287.43 , 211.63 287.76 , 211.66 288.09 , 211.68 288.42 , 211.69 288.76 , 211.55 289.09 , 211.55 289.42 , 211.65 289.76 , 211.59 290.09 , 211.61 290.42 , 211.61 290.75 , 211.61 291.09 , 211.65 291.42 , 211.63 291.75 , 211.60 292.09 , 211.61 292.42 , 211.65 292.75 , 211.60 293.08 , 211.61 293.42 , 211.66 293.75 , 211.66 294.08 , 211.62 294.42 , 211.62 294.75 , 211.67 295.08 , 211.56 295.41 , 211.65 295.75 , 211.59 296.08 , 211.49 296.41 , 211.52 296.75 , 211.70 297.08 , 211.65 297.41 , 211.66 297.74 , 211.62 298.08 , 211.59 298.41 , 211.65 298.74 , 211.59 299.08 , 211.61 299.41 , 211.64 299.74 , 211.59 300.07 , 211.65 300.41 , 211.64 300.74 , 211.61 301.07 , 211.58 301.41 , 211.63 301.74 , 211.63 302.07 , 211.60 302.40 , 211.66 302.74 , 211.61 303.07 , 211.53 303.40 , 211.68 303.74 , 211.55 304.07 , 211.63 304.40 , 211.59 304.73 , 211.59 305.07 , 211.58 305.40 , 211.57 305.73 , 211.66 306.07 , 211.64 306.40 , 211.61 306.73 , 211.61 307.06 , 211.56 307.40 , 211.57 307.73 , 211.63 308.06 , 211.60 308.40 , 211.64 308.73 , 211.64 309.06 , 211.61 309.39 , 211.61 309.73 , 211.61 310.06 , 211.67 310.39 , 211.59 310.73 , 211.62 311.06 , 211.64 311.39 , 211.59 311.72 , 211.59 312.06 , 211.63 312.39 , 211.60 312.72 , 211.63 313.06 , 211.53 313.39 , 211.54 313.72 , 211.66 314.05 , 211.57 314.39 , 211.66 314.72 , 211.60 315.05 , 211.61 315.39 , 211.61 315.72 , 211.61 316.05 , 211.66 316.38 , 211.59 316.72 , 211.63 317.05 , 211.59 317.38 , 211.65 317.72 , 211.61 318.05 , 211.62 318.38 , 211.64 318.71 , 211.65 319.05 , 211.59 319.38 , 211.59 319.71 , 211.62 320.05 , 211.59 320.38 , 211.58 320.71 , 211.60 321.04 , 211.64 321.38 , 211.67 321.71 , 211.61 322.04 , 211.65 322.38 , 211.58 322.71 , 211.64 323.04 , 211.59 323.37 , 211.65 323.71 , 211.60 324.04 , 211.63 324.37 , 211.59 324.71 , 211.61 325.04 , 211.60 325.37 , 211.60 325.70 , 211.61 326.04 , 211.62 326.37 , 211.63 326.70 , 211.61 327.04 , 211.60 327.37 , 211.61 327.70 , 211.63 328.03 , 211.60 328.37 , 211.64 328.70 , 211.60 329.03 , 211.63 329.37 , 211.64 329.70 , 211.63 330.03 , 211.61 330.36 , 211.59 330.70 , 211.60 331.03 , 211.61 331.36 , 211.61 331.70 , 211.66 332.03 , 211.64 332.36 , 211.63 332.69 , 211.59 333.03 , 211.61 333.36 , 211.65 333.69 , 211.59 334.03 , 211.58 334.36 , 211.59 334.69 , 211.65 335.02 , 211.59 335.36 , 211.57 335.69 , 211.57 336.02 , 211.59 336.36 , 211.60 336.69 , 211.67 337.02 , 211.61 337.35 , 211.61 337.69 , 211.54 338.02 , 211.69 338.35 , 211.53 338.69 , 211.62 339.02 , 211.58 339.35 , 211.61 339.69 , 211.63 340.02 , 211.62 340.35 , 211.62 340.68 , 211.54 341.02 , 211.56 341.35 , 211.58 341.68 , 211.67 342.02 , 211.61 342.35 , 211.60 342.68 , 211.60 343.01 , 211.59 343.35 , 211.61 343.68 , 211.63 344.01 , 211.60 344.35 , 211.60 344.68 , 211.64 345.01 , 211.63 345.34 , 211.67 345.68 , 211.67 346.01 , 211.56 346.34 , 211.59 346.68 , 211.61 347.01 , 211.63 347.34 , 211.63 347.67 , 211.60 348.01 , 211.60 348.34 , 211.62 348.67 , 211.61 349.01 , 211.62 349.34 , 211.65 349.67 , 211.60 350.00 , 211.65 350.34 , 211.58 350.67 , 211.57 351.00 , 211.53 351.34 , 211.71 351.67 , 211.57 352.00 , 211.66 352.33 , 211.60 352.67 , 211.64 353.00 , 211.64 353.33 , 211.61 353.67 , 211.64 354.00 , 211.60 354.33 , 211.64 354.66 , 211.65 355.00 , 211.63 355.33 , 211.67 355.66 , 211.60 356.00 , 211.64 356.33 , 211.61 356.66 , 211.60 356.99 , 211.65 357.33 , 211.58 357.66 , 211.57 357.99 , 211.63 358.33 , 211.65 358.66 , 211.58 358.99 , 211.62 359.32 , 211.62 359.66 , 211.61 359.99 , 211.63 360.32 , 211.65 360.66 , 211.61 360.99 , 211.64 361.32 , 211.59 361.65 , 211.57 361.99 , 211.66 362.32 , 211.56 362.65 , 211.71 362.99 , 211.71 " style="stroke-width:1;stroke:#542788;fill:#000000;stroke-opacity:1.000000;fill-opacity:0.000000"/>
</svg>
