<?xml version="1.0" encoding="UTF-8"?>
<svg xmlns="http://www.w3.org/2000/svg" width="385.44" height="240.90" viewBox="0,0,385.44,240.90">
<desc>R SVG Plot!</desc>
<rect width="100%" height="100%" style="fill:#FFFFFF"/>
<polygon points="0.00 , 0.00 385.44 , 0.00 385.44 , 240.90 0.00 , 240.90 " style="stroke-width:1;stroke:#FFFFFF;fill:#FFFFFF;stroke-opacity:1.000000;fill-opacity:1.000000" />
<polygon points="40.94 , 205.54 40.94 , 12.05 373.39 , 12.05 373.39 , 205.54 " style="stroke-width:1;stroke:#FFFFFF;fill:#E5E5E5;stroke-opacity:0.000000;fill-opacity:1.000000" />
<polyline points="40.94 , 45.91 373.39 , 45.91 " style="stroke-width:0;stroke:#F2F2F2;fill:#000000;stroke-opacity:1.000000;fill-opacity:0.000000"/>
<polyline points="40.94 , 95.18 373.39 , 95.18 " style="stroke-width:0;stroke:#F2F2F2;fill:#000000;stroke-opacity:1.000000;fill-opacity:0.000000"/>
<polyline points="40.94 , 144.45 373.39 , 144.45 " style="stroke-width:0;stroke:#F2F2F2;fill:#000000;stroke-opacity:1.000000;fill-opacity:0.000000"/>
<polyline points="56.05 , 205.54 56.05 , 12.05 " style="stroke-width:0;stroke:#F2F2F2;fill:#000000;stroke-opacity:1.000000;fill-opacity:0.000000"/>
<polyline points="137.73 , 205.54 137.73 , 12.05 " style="stroke-width:0;stroke:#F2F2F2;fill:#000000;stroke-opacity:1.000000;fill-opacity:0.000000"/>
<polyline points="219.42 , 205.54 219.42 , 12.05 " style="stroke-width:0;stroke:#F2F2F2;fill:#000000;stroke-opacity:1.000000;fill-opacity:0.000000"/>
<polyline points="301.10 , 205.54 301.10 , 12.05 " style="stroke-width:0;stroke:#F2F2F2;fill:#000000;stroke-opacity:1.000000;fill-opacity:0.000000"/>
<polyline points="40.94 , 21.28 373.39 , 21.28 " style="stroke-width:1;stroke:#FFFFFF;fill:#000000;stroke-opacity:1.000000;fill-opacity:0.000000"/>
<polyline points="40.94 , 70.55 373.39 , 70.55 " style="stroke-width:1;stroke:#FFFFFF;fill:#000000;stroke-opacity:1.000000;fill-opacity:0.000000"/>
<polyline points="40.94 , 119.81 373.39 , 119.81 " style="stroke-width:1;stroke:#FFFFFF;fill:#000000;stroke-opacity:1.000000;fill-opacity:0.000000"/>
<polyline points="40.94 , 169.08 373.39 , 169.08 " style="stroke-width:1;stroke:#FFFFFF;fill:#000000;stroke-opacity:1.000000;fill-opacity:0.000000"/>
<polyline points="96.89 , 205.54 96.89 , 12.05 " style="stroke-width:1;stroke:#FFFFFF;fill:#000000;stroke-opacity:1.000000;fill-opacity:0.000000"/>
<polyline points="178.58 , 205.54 178.58 , 12.05 " style="stroke-width:1;stroke:#FFFFFF;fill:#000000;stroke-opacity:1.000000;fill-opacity:0.000000"/>
<polyline points="260.26 , 205.54 260.26 , 12.05 " style="stroke-width:1;stroke:#FFFFFF;fill:#000000;stroke-opacity:1.000000;fill-opacity:0.000000"/>
<polyline points="341.95 , 205.54 341.95 , 12.05 " style="stroke-width:1;stroke:#FFFFFF;fill:#000000;stroke-opacity:1.000000;fill-opacity:0.000000"/>
<polyline points="56.05 , 48.84 64.22 , 58.79 72.38 , 68.46 80.55 , 77.89 88.72 , 86.68 96.89 , 94.45 105.06 , 101.45 113.23 , 108.07 121.40 , 114.21 129.56 , 120.55 137.73 , 126.74 145.90 , 132.22 154.07 , 137.11 162.24 , 141.52 170.41 , 145.51 178.58 , 148.90 186.74 , 151.53 194.91 , 153.27 203.08 , 153.97 211.25 , 153.42 219.42 , 151.86 227.59 , 149.77 235.76 , 147.51 243.92 , 145.28 252.09 , 143.45 260.26 , 141.94 268.43 , 140.83 276.60 , 140.09 284.77 , 139.69 292.94 , 139.41 301.10 , 139.13 309.27 , 138.72 317.44 , 138.14 325.61 , 137.43 333.78 , 136.58 341.95 , 135.62 350.11 , 134.57 358.28 , 133.37 " style="stroke-width:1;stroke:#CD0000;fill:#000000;stroke-opacity:1.000000;fill-opacity:0.000000"/>
<polygon points="56.05 , 72.85 64.22 , 81.06 72.38 , 89.33 80.55 , 98.95 88.72 , 107.91 96.89 , 115.11 105.06 , 122.14 113.23 , 128.53 121.40 , 133.88 129.56 , 140.67 137.73 , 147.59 145.90 , 152.70 154.07 , 157.66 162.24 , 163.11 170.41 , 167.34 178.58 , 172.13 186.74 , 174.68 194.91 , 178.07 203.08 , 179.26 211.25 , 177.72 219.42 , 176.17 227.59 , 175.48 235.76 , 174.68 243.92 , 172.67 252.09 , 172.13 260.26 , 171.67 268.43 , 170.80 276.60 , 171.24 284.77 , 172.47 292.94 , 173.70 301.10 , 175.86 309.27 , 178.54 317.44 , 179.65 325.61 , 181.05 333.78 , 183.65 341.95 , 187.48 350.11 , 190.78 358.28 , 196.75 358.28 , 68.91 350.11 , 78.07 341.95 , 85.16 333.78 , 91.26 325.61 , 95.16 317.44 , 98.23 309.27 , 100.44 301.10 , 102.04 292.94 , 103.03 284.77 , 104.35 276.60 , 106.11 268.43 , 108.80 260.26 , 110.48 252.09 , 113.36 243.92 , 117.02 235.76 , 121.00 227.59 , 123.85 219.42 , 126.14 211.25 , 129.33 203.08 , 130.23 194.91 , 129.16 186.74 , 127.10 178.58 , 124.09 170.41 , 121.48 162.24 , 117.67 154.07 , 113.58 145.90 , 110.00 137.73 , 104.32 129.56 , 97.76 121.40 , 92.25 113.23 , 85.68 105.06 , 78.90 96.89 , 72.80 88.72 , 63.81 80.55 , 54.77 72.38 , 44.65 64.22 , 33.94 56.05 , 21.77 " style="stroke-width:1;stroke:#FFFFFF;fill:#CD0000;stroke-opacity:0.000000;fill-opacity:0.606299" />
<polygon points="56.05 , 20.84 59.87 , 29.96 63.70 , 38.42 67.53 , 46.17 71.35 , 53.19 75.18 , 59.45 79.00 , 64.96 82.83 , 69.79 86.65 , 74.06 90.48 , 77.96 94.31 , 81.47 98.13 , 84.76 101.96 , 87.43 105.78 , 89.96 109.61 , 91.78 113.43 , 93.34 117.26 , 96.40 121.09 , 99.79 124.91 , 102.84 128.74 , 105.66 132.56 , 108.72 136.39 , 111.94 140.21 , 114.86 144.04 , 117.43 147.87 , 119.87 151.69 , 122.37 155.52 , 124.87 159.34 , 127.29 163.17 , 129.54 166.99 , 131.59 170.82 , 133.42 174.65 , 135.02 178.47 , 136.38 182.30 , 137.52 186.12 , 138.49 189.95 , 139.30 193.78 , 139.97 197.60 , 140.51 201.43 , 140.93 205.25 , 141.24 209.08 , 141.44 212.90 , 141.54 216.73 , 141.53 220.56 , 141.42 224.38 , 141.21 228.21 , 140.90 232.03 , 140.47 235.86 , 139.94 239.68 , 139.28 243.51 , 138.51 247.34 , 137.61 251.16 , 136.58 254.99 , 135.42 258.81 , 134.11 262.64 , 132.67 266.46 , 131.07 270.29 , 129.33 274.12 , 127.44 277.94 , 125.40 281.77 , 123.20 285.59 , 120.85 289.42 , 118.35 293.25 , 115.70 297.07 , 112.90 300.90 , 109.95 304.72 , 106.85 308.55 , 103.60 312.37 , 100.21 316.20 , 96.68 320.03 , 93.01 323.85 , 89.19 327.68 , 85.24 331.50 , 81.14 335.33 , 76.92 339.15 , 72.56 342.98 , 68.06 346.81 , 63.43 350.63 , 58.68 354.46 , 53.79 358.28 , 48.77 358.28 , 169.24 354.46 , 168.54 350.63 , 167.89 346.81 , 167.31 342.98 , 166.78 339.15 , 166.31 335.33 , 165.89 331.50 , 165.52 327.68 , 165.19 323.85 , 164.92 320.03 , 164.68 316.20 , 164.49 312.37 , 164.33 308.55 , 164.22 304.72 , 164.13 300.90 , 164.08 297.07 , 164.07 293.25 , 164.08 289.42 , 164.11 285.59 , 164.17 281.77 , 164.25 277.94 , 164.35 274.12 , 164.46 270.29 , 164.58 266.46 , 164.71 262.64 , 164.83 258.81 , 164.95 254.99 , 165.06 251.16 , 165.14 247.34 , 165.19 243.51 , 165.21 239.68 , 165.18 235.86 , 165.10 232.03 , 164.96 228.21 , 164.74 224.38 , 164.45 220.56 , 164.08 216.73 , 163.62 212.90 , 163.06 209.08 , 162.40 205.25 , 161.65 201.43 , 160.80 197.60 , 159.85 193.78 , 158.80 189.95 , 157.66 186.12 , 156.44 182.30 , 155.16 178.47 , 153.81 174.65 , 152.26 170.82 , 150.37 166.99 , 148.24 163.17 , 145.95 159.34 , 143.56 155.52 , 141.11 151.69 , 138.62 147.87 , 136.11 144.04 , 133.47 140.21 , 130.37 136.39 , 127.24 132.56 , 124.32 128.74 , 121.46 124.91 , 118.15 121.09 , 114.86 117.26 , 112.01 113.43 , 109.31 109.61 , 106.86 105.78 , 104.56 101.96 , 101.41 98.13 , 98.25 94.31 , 94.83 90.48 , 91.28 86.65 , 87.45 82.83 , 83.56 79.00 , 79.65 75.18 , 75.84 71.35 , 72.24 67.53 , 68.86 63.70 , 65.69 59.87 , 62.72 56.05 , 59.91 " style="stroke-width:1;stroke:#FFFFFF;fill:#0000CD;stroke-opacity:0.000000;fill-opacity:0.803150" />
<polyline points="56.05 , 40.38 59.87 , 46.34 63.70 , 52.05 67.53 , 57.51 71.35 , 62.71 75.18 , 67.65 79.00 , 72.31 82.83 , 76.68 86.65 , 80.76 90.48 , 84.62 94.31 , 88.15 98.13 , 91.51 101.96 , 94.42 105.78 , 97.26 109.61 , 99.32 113.43 , 101.32 117.26 , 104.20 121.09 , 107.32 124.91 , 110.49 128.74 , 113.56 132.56 , 116.52 136.39 , 119.59 140.21 , 122.62 144.04 , 125.45 147.87 , 127.99 151.69 , 130.50 155.52 , 132.99 159.34 , 135.42 163.17 , 137.74 166.99 , 139.92 170.82 , 141.90 174.65 , 143.64 178.47 , 145.10 182.30 , 146.34 186.12 , 147.47 189.95 , 148.48 193.78 , 149.38 197.60 , 150.18 201.43 , 150.86 205.25 , 151.44 209.08 , 151.92 212.90 , 152.30 216.73 , 152.57 220.56 , 152.75 224.38 , 152.83 228.21 , 152.82 232.03 , 152.72 235.86 , 152.52 239.68 , 152.23 243.51 , 151.86 247.34 , 151.40 251.16 , 150.86 254.99 , 150.24 258.81 , 149.53 262.64 , 148.75 266.46 , 147.89 270.29 , 146.96 274.12 , 145.95 277.94 , 144.87 281.77 , 143.73 285.59 , 142.51 289.42 , 141.23 293.25 , 139.89 297.07 , 138.48 300.90 , 137.02 304.72 , 135.49 308.55 , 133.91 312.37 , 132.27 316.20 , 130.58 320.03 , 128.84 323.85 , 127.05 327.68 , 125.21 331.50 , 123.33 335.33 , 121.40 339.15 , 119.43 342.98 , 117.42 346.81 , 115.37 350.63 , 113.28 354.46 , 111.16 358.28 , 109.01 " style="stroke-width:1;stroke:#0000CD;fill:#000000;stroke-opacity:1.000000;fill-opacity:0.000000"/>
<text transform="translate(21.04,24.88)"  style="font-size:10" >0.5</text>
<text transform="translate(19.77,74.15)"  style="font-size:10" >1.0</text>
<text transform="translate(19.77,123.41)"  style="font-size:10" >1.5</text>
<text transform="translate(19.77,172.68)"  style="font-size:10" >2.0</text>
<polyline points="36.67 , 21.28 40.94 , 21.28 " style="stroke-width:1;stroke:#7F7F7F;fill:#000000;stroke-opacity:1.000000;fill-opacity:0.000000"/>
<polyline points="36.67 , 70.55 40.94 , 70.55 " style="stroke-width:1;stroke:#7F7F7F;fill:#000000;stroke-opacity:1.000000;fill-opacity:0.000000"/>
<polyline points="36.67 , 119.81 40.94 , 119.81 " style="stroke-width:1;stroke:#7F7F7F;fill:#000000;stroke-opacity:1.000000;fill-opacity:0.000000"/>
<polyline points="36.67 , 169.08 40.94 , 169.08 " style="stroke-width:1;stroke:#7F7F7F;fill:#000000;stroke-opacity:1.000000;fill-opacity:0.000000"/>
<polyline points="96.89 , 209.81 96.89 , 205.54 " style="stroke-width:1;stroke:#7F7F7F;fill:#000000;stroke-opacity:1.000000;fill-opacity:0.000000"/>
<polyline points="178.58 , 209.81 178.58 , 205.54 " style="stroke-width:1;stroke:#7F7F7F;fill:#000000;stroke-opacity:1.000000;fill-opacity:0.000000"/>
<polyline points="260.26 , 209.81 260.26 , 205.54 " style="stroke-width:1;stroke:#7F7F7F;fill:#000000;stroke-opacity:1.000000;fill-opacity:0.000000"/>
<polyline points="341.95 , 209.81 341.95 , 205.54 " style="stroke-width:1;stroke:#7F7F7F;fill:#000000;stroke-opacity:1.000000;fill-opacity:0.000000"/>
<text transform="translate(88.64,219.85)"  style="font-size:10" >100</text>
<text transform="translate(170.33,219.85)"  style="font-size:10" >200</text>
<text transform="translate(252.01,219.85)"  style="font-size:10" >300</text>
<text transform="translate(333.70,219.85)"  style="font-size:10" >400</text>
<text transform="translate(162.63,231.87)"  style="font-size:12" >Duration (msec)</text>
<text transform="translate(18.03,131.12) rotate(-90)"  style="font-size:12" >time mu</text>
</svg>
