<?xml version="1.0" encoding="UTF-8"?>
<svg xmlns="http://www.w3.org/2000/svg" width="385.44" height="240.90" viewBox="0,0,385.44,240.90">
<desc>R SVG Plot!</desc>
<rect width="100%" height="100%" style="fill:#FFFFFF"/>
<line x1="30.46" y1="219.23" x2="363.32" y2="219.23" style="stroke-width:1;stroke:#000000;fill:#000000;stroke-opacity:1.000000;fill-opacity:0.000000"/>
<line x1="30.46" y1="219.23" x2="30.46" y2="223.27" style="stroke-width:1;stroke:#000000;fill:#000000;stroke-opacity:1.000000;fill-opacity:0.000000"/>
<line x1="97.03" y1="219.23" x2="97.03" y2="223.27" style="stroke-width:1;stroke:#000000;fill:#000000;stroke-opacity:1.000000;fill-opacity:0.000000"/>
<line x1="163.60" y1="219.23" x2="163.60" y2="223.27" style="stroke-width:1;stroke:#000000;fill:#000000;stroke-opacity:1.000000;fill-opacity:0.000000"/>
<line x1="230.17" y1="219.23" x2="230.17" y2="223.27" style="stroke-width:1;stroke:#000000;fill:#000000;stroke-opacity:1.000000;fill-opacity:0.000000"/>
<line x1="296.75" y1="219.23" x2="296.75" y2="223.27" style="stroke-width:1;stroke:#000000;fill:#000000;stroke-opacity:1.000000;fill-opacity:0.000000"/>
<line x1="363.32" y1="219.23" x2="363.32" y2="223.27" style="stroke-width:1;stroke:#000000;fill:#000000;stroke-opacity:1.000000;fill-opacity:0.000000"/>
<text transform="translate(27.46,231.73)"  style="font-size:12" >0</text>
<text transform="translate(87.13,231.73)"  style="font-size:12" >200</text>
<text transform="translate(153.70,231.73)"  style="font-size:12" >400</text>
<text transform="translate(220.27,231.73)"  style="font-size:12" >600</text>
<text transform="translate(286.85,231.73)"  style="font-size:12" >800</text>
<text transform="translate(350.12,231.73)"  style="font-size:12" >1000</text>
<line x1="17.50" y1="212.65" x2="17.50" y2="22.17" style="stroke-width:1;stroke:#000000;fill:#000000;stroke-opacity:1.000000;fill-opacity:0.000000"/>
<line x1="17.50" y1="212.65" x2="13.47" y2="212.65" style="stroke-width:1;stroke:#000000;fill:#000000;stroke-opacity:1.000000;fill-opacity:0.000000"/>
<line x1="17.50" y1="165.03" x2="13.47" y2="165.03" style="stroke-width:1;stroke:#000000;fill:#000000;stroke-opacity:1.000000;fill-opacity:0.000000"/>
<line x1="17.50" y1="117.41" x2="13.47" y2="117.41" style="stroke-width:1;stroke:#000000;fill:#000000;stroke-opacity:1.000000;fill-opacity:0.000000"/>
<line x1="17.50" y1="69.79" x2="13.47" y2="69.79" style="stroke-width:1;stroke:#000000;fill:#000000;stroke-opacity:1.000000;fill-opacity:0.000000"/>
<line x1="17.50" y1="22.17" x2="13.47" y2="22.17" style="stroke-width:1;stroke:#000000;fill:#000000;stroke-opacity:1.000000;fill-opacity:0.000000"/>
<text transform="translate(13.33,215.95) rotate(-90)"  style="font-size:12" >0</text>
<text transform="translate(13.33,171.63) rotate(-90)"  style="font-size:12" >20</text>
<text transform="translate(13.33,124.01) rotate(-90)"  style="font-size:12" >40</text>
<text transform="translate(13.33,76.39) rotate(-90)"  style="font-size:12" >60</text>
<text transform="translate(13.33,28.77) rotate(-90)"  style="font-size:12" >80</text>
<polyline points="17.50 , 17.50 17.50 , 219.23 376.27 , 219.23 " style="stroke-width:1;stroke:#000000;fill:#000000;stroke-opacity:1.000000;fill-opacity:0.000000"/>
<text transform="translate(148.57,14.75)"  style="font-size:14" >Trace of  sigma</text>
<text transform="translate(173.45,240.07)"  style="font-size:12" >Iterations</text>
<polygon points="17.50 , 219.23 17.50 , 17.50 196.89 , 17.50 196.89 , 219.23 " style="stroke-width:1;stroke:#FFFFFF;fill:#969696;stroke-opacity:0.000000;fill-opacity:0.787402" />
<polyline points="30.79 , 24.97 31.12 , 24.97 31.45 , 24.97 31.79 , 31.30 32.12 , 80.49 32.45 , 147.01 32.79 , 149.13 33.12 , 175.00 33.45 , 194.12 33.78 , 204.48 34.12 , 206.48 34.45 , 206.46 34.78 , 207.62 35.12 , 209.54 35.45 , 210.82 35.78 , 210.82 36.11 , 211.32 36.45 , 211.24 36.78 , 211.39 37.11 , 211.54 37.45 , 211.53 37.78 , 211.54 38.11 , 211.64 38.44 , 211.66 38.78 , 211.66 39.11 , 211.66 39.44 , 211.63 39.78 , 211.66 40.11 , 211.65 40.44 , 211.65 40.77 , 211.66 41.11 , 211.62 41.44 , 211.62 41.77 , 211.66 42.11 , 211.66 42.44 , 211.64 42.77 , 211.64 43.10 , 211.64 43.44 , 211.65 43.77 , 211.70 44.10 , 211.60 44.44 , 211.66 44.77 , 211.64 45.10 , 211.62 45.43 , 211.60 45.77 , 211.73 46.10 , 211.69 46.43 , 211.62 46.77 , 211.65 47.10 , 211.65 47.43 , 211.64 47.76 , 211.68 48.10 , 211.67 48.43 , 211.60 48.76 , 211.57 49.10 , 211.72 49.43 , 211.72 49.76 , 211.75 50.09 , 211.73 50.43 , 211.56 50.76 , 211.69 51.09 , 211.63 51.43 , 211.62 51.76 , 211.67 52.09 , 211.63 52.42 , 211.69 52.76 , 211.60 53.09 , 211.66 53.42 , 211.67 53.76 , 211.64 54.09 , 211.73 54.42 , 211.68 54.75 , 211.69 55.09 , 211.68 55.42 , 211.68 55.75 , 211.66 56.09 , 211.60 56.42 , 211.59 56.75 , 211.69 57.08 , 211.66 57.42 , 211.67 57.75 , 211.62 58.08 , 211.61 58.42 , 211.61 58.75 , 211.63 59.08 , 211.64 59.41 , 211.68 59.75 , 211.69 60.08 , 211.64 60.41 , 211.65 60.75 , 211.64 61.08 , 211.64 61.41 , 211.63 61.74 , 211.64 62.08 , 211.64 62.41 , 211.69 62.74 , 211.66 63.08 , 211.65 63.41 , 211.64 63.74 , 211.63 64.07 , 211.64 64.41 , 211.64 64.74 , 211.64 65.07 , 211.64 65.41 , 211.57 65.74 , 211.61 66.07 , 211.65 66.40 , 211.64 66.74 , 211.64 67.07 , 211.66 67.40 , 211.63 67.74 , 211.62 68.07 , 211.62 68.40 , 211.65 68.73 , 211.65 69.07 , 211.64 69.40 , 211.63 69.73 , 211.67 70.07 , 211.66 70.40 , 211.68 70.73 , 211.62 71.06 , 211.63 71.40 , 211.63 71.73 , 211.63 72.06 , 211.65 72.40 , 211.62 72.73 , 211.69 73.06 , 211.64 73.39 , 211.64 73.73 , 211.71 74.06 , 211.68 74.39 , 211.67 74.73 , 211.66 75.06 , 211.65 75.39 , 211.67 75.72 , 211.67 76.06 , 211.66 76.39 , 211.65 76.72 , 211.67 77.06 , 211.60 77.39 , 211.60 77.72 , 211.65 78.05 , 211.63 78.39 , 211.63 78.72 , 211.60 79.05 , 211.64 79.39 , 211.67 79.72 , 211.66 80.05 , 211.66 80.38 , 211.66 80.72 , 211.66 81.05 , 211.66 81.38 , 211.65 81.72 , 211.64 82.05 , 211.67 82.38 , 211.66 82.71 , 211.65 83.05 , 211.66 83.38 , 211.65 83.71 , 211.63 84.05 , 211.62 84.38 , 211.62 84.71 , 211.70 85.04 , 211.66 85.38 , 211.66 85.71 , 211.64 86.04 , 211.64 86.38 , 211.65 86.71 , 211.65 87.04 , 211.65 87.37 , 211.63 87.71 , 211.63 88.04 , 211.64 88.37 , 211.68 88.71 , 211.68 89.04 , 211.67 89.37 , 211.66 89.70 , 211.64 90.04 , 211.66 90.37 , 211.65 90.70 , 211.64 91.04 , 211.63 91.37 , 211.63 91.70 , 211.63 92.03 , 211.62 92.37 , 211.58 92.70 , 211.70 93.03 , 211.70 93.37 , 211.68 93.70 , 211.61 94.03 , 211.66 94.36 , 211.66 94.70 , 211.65 95.03 , 211.66 95.36 , 211.66 95.70 , 211.69 96.03 , 211.65 96.36 , 211.70 96.69 , 211.66 97.03 , 211.69 97.36 , 211.69 97.69 , 211.61 98.03 , 211.70 98.36 , 211.61 98.69 , 211.60 99.02 , 211.69 99.36 , 211.68 99.69 , 211.67 100.02 , 211.68 100.36 , 211.61 100.69 , 211.59 101.02 , 211.69 101.35 , 211.67 101.69 , 211.68 102.02 , 211.69 102.35 , 211.71 102.69 , 211.70 103.02 , 211.71 103.35 , 211.70 103.68 , 211.62 104.02 , 211.63 104.35 , 211.62 104.68 , 211.62 105.02 , 211.68 105.35 , 211.66 105.68 , 211.65 106.01 , 211.64 106.35 , 211.64 106.68 , 211.70 107.01 , 211.68 107.35 , 211.69 107.68 , 211.70 108.01 , 211.60 108.35 , 211.60 108.68 , 211.65 109.01 , 211.64 109.34 , 211.66 109.68 , 211.64 110.01 , 211.67 110.34 , 211.65 110.68 , 211.65 111.01 , 211.66 111.34 , 211.65 111.67 , 211.65 112.01 , 211.67 112.34 , 211.64 112.67 , 211.63 113.01 , 211.63 113.34 , 211.63 113.67 , 211.63 114.00 , 211.62 114.34 , 211.62 114.67 , 211.62 115.00 , 211.61 115.34 , 211.63 115.67 , 211.61 116.00 , 211.70 116.33 , 211.70 116.67 , 211.66 117.00 , 211.67 117.33 , 211.70 117.67 , 211.64 118.00 , 211.62 118.33 , 211.58 118.66 , 211.56 119.00 , 211.65 119.33 , 211.66 119.66 , 211.58 120.00 , 211.65 120.33 , 211.64 120.66 , 211.65 120.99 , 211.64 121.33 , 211.70 121.66 , 211.59 121.99 , 211.61 122.33 , 211.61 122.66 , 211.65 122.99 , 211.67 123.32 , 211.64 123.66 , 211.65 123.99 , 211.65 124.32 , 211.64 124.66 , 211.65 124.99 , 211.66 125.32 , 211.66 125.65 , 211.66 125.99 , 211.65 126.32 , 211.63 126.65 , 211.65 126.99 , 211.58 127.32 , 211.58 127.65 , 211.59 127.98 , 211.65 128.32 , 211.58 128.65 , 211.62 128.98 , 211.70 129.32 , 211.69 129.65 , 211.69 129.98 , 211.68 130.31 , 211.67 130.65 , 211.66 130.98 , 211.64 131.31 , 211.68 131.65 , 211.66 131.98 , 211.66 132.31 , 211.68 132.64 , 211.70 132.98 , 211.70 133.31 , 211.68 133.64 , 211.61 133.98 , 211.68 134.31 , 211.58 134.64 , 211.57 134.97 , 211.58 135.31 , 211.56 135.64 , 211.55 135.97 , 211.59 136.31 , 211.66 136.64 , 211.66 136.97 , 211.69 137.30 , 211.69 137.64 , 211.68 137.97 , 211.66 138.30 , 211.61 138.64 , 211.64 138.97 , 211.65 139.30 , 211.67 139.63 , 211.66 139.97 , 211.63 140.30 , 211.69 140.63 , 211.62 140.97 , 211.68 141.30 , 211.62 141.63 , 211.68 141.96 , 211.68 142.30 , 211.69 142.63 , 211.61 142.96 , 211.61 143.30 , 211.63 143.63 , 211.61 143.96 , 211.62 144.29 , 211.62 144.63 , 211.62 144.96 , 211.62 145.29 , 211.63 145.63 , 211.63 145.96 , 211.64 146.29 , 211.69 146.62 , 211.64 146.96 , 211.59 147.29 , 211.62 147.62 , 211.68 147.96 , 211.68 148.29 , 211.68 148.62 , 211.66 148.95 , 211.66 149.29 , 211.61 149.62 , 211.62 149.95 , 211.63 150.29 , 211.58 150.62 , 211.63 150.95 , 211.63 151.28 , 211.62 151.62 , 211.60 151.95 , 211.64 152.28 , 211.65 152.62 , 211.65 152.95 , 211.61 153.28 , 211.61 153.61 , 211.65 153.95 , 211.63 154.28 , 211.59 154.61 , 211.61 154.95 , 211.68 155.28 , 211.69 155.61 , 211.66 155.94 , 211.67 156.28 , 211.68 156.61 , 211.68 156.94 , 211.67 157.28 , 211.63 157.61 , 211.67 157.94 , 211.64 158.27 , 211.65 158.61 , 211.67 158.94 , 211.60 159.27 , 211.65 159.61 , 211.66 159.94 , 211.62 160.27 , 211.65 160.60 , 211.65 160.94 , 211.65 161.27 , 211.59 161.60 , 211.64 161.94 , 211.65 162.27 , 211.66 162.60 , 211.69 162.93 , 211.63 163.27 , 211.63 163.60 , 211.67 163.93 , 211.68 164.27 , 211.72 164.60 , 211.70 164.93 , 211.63 165.26 , 211.69 165.60 , 211.68 165.93 , 211.67 166.26 , 211.61 166.60 , 211.59 166.93 , 211.56 167.26 , 211.55 167.59 , 211.59 167.93 , 211.61 168.26 , 211.70 168.59 , 211.64 168.93 , 211.63 169.26 , 211.66 169.59 , 211.66 169.92 , 211.66 170.26 , 211.63 170.59 , 211.64 170.92 , 211.61 171.26 , 211.62 171.59 , 211.58 171.92 , 211.60 172.25 , 211.64 172.59 , 211.67 172.92 , 211.63 173.25 , 211.65 173.59 , 211.65 173.92 , 211.66 174.25 , 211.65 174.58 , 211.63 174.92 , 211.63 175.25 , 211.63 175.58 , 211.66 175.92 , 211.65 176.25 , 211.65 176.58 , 211.65 176.91 , 211.67 177.25 , 211.67 177.58 , 211.67 177.91 , 211.61 178.25 , 211.60 178.58 , 211.60 178.91 , 211.67 179.24 , 211.65 179.58 , 211.66 179.91 , 211.64 180.24 , 211.63 180.58 , 211.63 180.91 , 211.63 181.24 , 211.68 181.57 , 211.66 181.91 , 211.64 182.24 , 211.62 182.57 , 211.62 182.91 , 211.62 183.24 , 211.53 183.57 , 211.53 183.90 , 211.73 184.24 , 211.72 184.57 , 211.66 184.90 , 211.66 185.24 , 211.68 185.57 , 211.64 185.90 , 211.67 186.24 , 211.61 186.57 , 211.58 186.90 , 211.71 187.23 , 211.71 187.57 , 211.61 187.90 , 211.63 188.23 , 211.58 188.57 , 211.60 188.90 , 211.60 189.23 , 211.66 189.56 , 211.66 189.90 , 211.65 190.23 , 211.66 190.56 , 211.67 190.90 , 211.65 191.23 , 211.65 191.56 , 211.64 191.89 , 211.64 192.23 , 211.67 192.56 , 211.63 192.89 , 211.63 193.23 , 211.63 193.56 , 211.66 193.89 , 211.67 194.22 , 211.64 194.56 , 211.64 194.89 , 211.67 195.22 , 211.64 195.56 , 211.65 195.89 , 211.72 196.22 , 211.58 196.55 , 211.73 196.89 , 211.68 197.22 , 211.62 197.55 , 211.65 197.89 , 211.60 198.22 , 211.65 198.55 , 211.68 198.88 , 211.62 199.22 , 211.64 199.55 , 211.63 199.88 , 211.66 200.22 , 211.67 200.55 , 211.66 200.88 , 211.60 201.21 , 211.67 201.55 , 211.64 201.88 , 211.66 202.21 , 211.65 202.55 , 211.65 202.88 , 211.64 203.21 , 211.64 203.54 , 211.65 203.88 , 211.67 204.21 , 211.63 204.54 , 211.67 204.88 , 211.64 205.21 , 211.65 205.54 , 211.63 205.87 , 211.65 206.21 , 211.62 206.54 , 211.66 206.87 , 211.65 207.21 , 211.67 207.54 , 211.64 207.87 , 211.64 208.20 , 211.68 208.54 , 211.61 208.87 , 211.67 209.20 , 211.69 209.54 , 211.66 209.87 , 211.67 210.20 , 211.68 210.53 , 211.68 210.87 , 211.61 211.20 , 211.61 211.53 , 211.69 211.87 , 211.62 212.20 , 211.67 212.53 , 211.62 212.86 , 211.64 213.20 , 211.63 213.53 , 211.61 213.86 , 211.66 214.20 , 211.62 214.53 , 211.67 214.86 , 211.63 215.19 , 211.68 215.53 , 211.67 215.86 , 211.63 216.19 , 211.65 216.53 , 211.64 216.86 , 211.67 217.19 , 211.63 217.52 , 211.64 217.86 , 211.65 218.19 , 211.63 218.52 , 211.66 218.86 , 211.65 219.19 , 211.65 219.52 , 211.65 219.85 , 211.68 220.19 , 211.59 220.52 , 211.59 220.85 , 211.68 221.19 , 211.56 221.52 , 211.73 221.85 , 211.62 222.18 , 211.61 222.52 , 211.63 222.85 , 211.64 223.18 , 211.64 223.52 , 211.63 223.85 , 211.70 224.18 , 211.68 224.51 , 211.57 224.85 , 211.68 225.18 , 211.60 225.51 , 211.59 225.85 , 211.61 226.18 , 211.62 226.51 , 211.64 226.84 , 211.66 227.18 , 211.64 227.51 , 211.65 227.84 , 211.67 228.18 , 211.64 228.51 , 211.64 228.84 , 211.65 229.17 , 211.65 229.51 , 211.66 229.84 , 211.66 230.17 , 211.67 230.51 , 211.67 230.84 , 211.69 231.17 , 211.57 231.50 , 211.69 231.84 , 211.59 232.17 , 211.63 232.50 , 211.60 232.84 , 211.69 233.17 , 211.68 233.50 , 211.63 233.83 , 211.65 234.17 , 211.69 234.50 , 211.67 234.83 , 211.67 235.17 , 211.71 235.50 , 211.67 235.83 , 211.66 236.16 , 211.66 236.50 , 211.70 236.83 , 211.66 237.16 , 211.58 237.50 , 211.57 237.83 , 211.57 238.16 , 211.57 238.49 , 211.57 238.83 , 211.57 239.16 , 211.57 239.49 , 211.57 239.83 , 211.60 240.16 , 211.66 240.49 , 211.69 240.82 , 211.64 241.16 , 211.57 241.49 , 211.58 241.82 , 211.66 242.16 , 211.67 242.49 , 211.56 242.82 , 211.68 243.15 , 211.63 243.49 , 211.66 243.82 , 211.65 244.15 , 211.66 244.49 , 211.62 244.82 , 211.66 245.15 , 211.64 245.48 , 211.65 245.82 , 211.68 246.15 , 211.60 246.48 , 211.68 246.82 , 211.71 247.15 , 211.69 247.48 , 211.69 247.81 , 211.66 248.15 , 211.65 248.48 , 211.67 248.81 , 211.64 249.15 , 211.58 249.48 , 211.67 249.81 , 211.64 250.14 , 211.63 250.48 , 211.66 250.81 , 211.66 251.14 , 211.65 251.48 , 211.61 251.81 , 211.67 252.14 , 211.68 252.47 , 211.63 252.81 , 211.66 253.14 , 211.71 253.47 , 211.65 253.81 , 211.63 254.14 , 211.58 254.47 , 211.66 254.80 , 211.65 255.14 , 211.63 255.47 , 211.68 255.80 , 211.67 256.14 , 211.68 256.47 , 211.69 256.80 , 211.62 257.13 , 211.68 257.47 , 211.64 257.80 , 211.62 258.13 , 211.65 258.47 , 211.66 258.80 , 211.66 259.13 , 211.61 259.46 , 211.68 259.80 , 211.64 260.13 , 211.64 260.46 , 211.66 260.80 , 211.63 261.13 , 211.65 261.46 , 211.67 261.80 , 211.64 262.13 , 211.64 262.46 , 211.54 262.79 , 211.57 263.13 , 211.53 263.46 , 211.61 263.79 , 211.63 264.13 , 211.68 264.46 , 211.70 264.79 , 211.60 265.12 , 211.62 265.46 , 211.60 265.79 , 211.54 266.12 , 211.54 266.46 , 211.73 266.79 , 211.69 267.12 , 211.68 267.45 , 211.63 267.79 , 211.65 268.12 , 211.66 268.45 , 211.67 268.79 , 211.68 269.12 , 211.68 269.45 , 211.62 269.78 , 211.67 270.12 , 211.65 270.45 , 211.60 270.78 , 211.69 271.12 , 211.70 271.45 , 211.59 271.78 , 211.67 272.11 , 211.65 272.45 , 211.65 272.78 , 211.66 273.11 , 211.65 273.45 , 211.65 273.78 , 211.65 274.11 , 211.64 274.44 , 211.64 274.78 , 211.63 275.11 , 211.63 275.44 , 211.62 275.78 , 211.67 276.11 , 211.65 276.44 , 211.66 276.77 , 211.66 277.11 , 211.65 277.44 , 211.66 277.77 , 211.61 278.11 , 211.62 278.44 , 211.59 278.77 , 211.68 279.10 , 211.68 279.44 , 211.58 279.77 , 211.62 280.10 , 211.68 280.44 , 211.64 280.77 , 211.64 281.10 , 211.60 281.43 , 211.69 281.77 , 211.61 282.10 , 211.66 282.43 , 211.60 282.77 , 211.57 283.10 , 211.61 283.43 , 211.59 283.76 , 211.70 284.10 , 211.68 284.43 , 211.56 284.76 , 211.72 285.10 , 211.56 285.43 , 211.57 285.76 , 211.74 286.09 , 211.75 286.43 , 211.72 286.76 , 211.69 287.09 , 211.62 287.43 , 211.67 287.76 , 211.63 288.09 , 211.59 288.42 , 211.54 288.76 , 211.74 289.09 , 211.55 289.42 , 211.69 289.76 , 211.58 290.09 , 211.71 290.42 , 211.60 290.75 , 211.61 291.09 , 211.75 291.42 , 211.62 291.75 , 211.66 292.09 , 211.66 292.42 , 211.64 292.75 , 211.64 293.08 , 211.64 293.42 , 211.65 293.75 , 211.61 294.08 , 211.61 294.42 , 211.66 294.75 , 211.63 295.08 , 211.66 295.41 , 211.64 295.75 , 211.70 296.08 , 211.70 296.41 , 211.66 296.75 , 211.64 297.08 , 211.65 297.41 , 211.63 297.74 , 211.64 298.08 , 211.69 298.41 , 211.66 298.74 , 211.64 299.08 , 211.66 299.41 , 211.64 299.74 , 211.68 300.07 , 211.61 300.41 , 211.66 300.74 , 211.65 301.07 , 211.67 301.41 , 211.67 301.74 , 211.61 302.07 , 211.63 302.40 , 211.65 302.74 , 211.63 303.07 , 211.65 303.40 , 211.63 303.74 , 211.63 304.07 , 211.61 304.40 , 211.72 304.73 , 211.68 305.07 , 211.64 305.40 , 211.61 305.73 , 211.65 306.07 , 211.61 306.40 , 211.67 306.73 , 211.65 307.06 , 211.66 307.40 , 211.63 307.73 , 211.66 308.06 , 211.61 308.40 , 211.62 308.73 , 211.68 309.06 , 211.60 309.39 , 211.60 309.73 , 211.70 310.06 , 211.56 310.39 , 211.57 310.73 , 211.58 311.06 , 211.58 311.39 , 211.59 311.72 , 211.61 312.06 , 211.61 312.39 , 211.61 312.72 , 211.61 313.06 , 211.61 313.39 , 211.61 313.72 , 211.66 314.05 , 211.66 314.39 , 211.66 314.72 , 211.63 315.05 , 211.66 315.39 , 211.65 315.72 , 211.65 316.05 , 211.65 316.38 , 211.65 316.72 , 211.66 317.05 , 211.66 317.38 , 211.66 317.72 , 211.66 318.05 , 211.67 318.38 , 211.66 318.71 , 211.61 319.05 , 211.66 319.38 , 211.67 319.71 , 211.64 320.05 , 211.69 320.38 , 211.60 320.71 , 211.64 321.04 , 211.68 321.38 , 211.60 321.71 , 211.67 322.04 , 211.67 322.38 , 211.66 322.71 , 211.64 323.04 , 211.67 323.37 , 211.67 323.71 , 211.71 324.04 , 211.57 324.37 , 211.73 324.71 , 211.57 325.04 , 211.69 325.37 , 211.60 325.70 , 211.66 326.04 , 211.62 326.37 , 211.61 326.70 , 211.64 327.04 , 211.66 327.37 , 211.67 327.70 , 211.67 328.03 , 211.64 328.37 , 211.66 328.70 , 211.65 329.03 , 211.66 329.37 , 211.61 329.70 , 211.67 330.03 , 211.65 330.36 , 211.64 330.70 , 211.68 331.03 , 211.62 331.36 , 211.66 331.70 , 211.65 332.03 , 211.61 332.36 , 211.58 332.69 , 211.63 333.03 , 211.65 333.36 , 211.67 333.69 , 211.65 334.03 , 211.62 334.36 , 211.62 334.69 , 211.60 335.02 , 211.70 335.36 , 211.70 335.69 , 211.61 336.02 , 211.70 336.36 , 211.60 336.69 , 211.70 337.02 , 211.70 337.35 , 211.70 337.69 , 211.60 338.02 , 211.58 338.35 , 211.71 338.69 , 211.69 339.02 , 211.61 339.35 , 211.63 339.69 , 211.65 340.02 , 211.63 340.35 , 211.65 340.68 , 211.63 341.02 , 211.63 341.35 , 211.69 341.68 , 211.67 342.02 , 211.68 342.35 , 211.60 342.68 , 211.62 343.01 , 211.63 343.35 , 211.65 343.68 , 211.65 344.01 , 211.61 344.35 , 211.61 344.68 , 211.63 345.01 , 211.62 345.34 , 211.62 345.68 , 211.69 346.01 , 211.67 346.34 , 211.63 346.68 , 211.69 347.01 , 211.63 347.34 , 211.65 347.67 , 211.59 348.01 , 211.57 348.34 , 211.71 348.67 , 211.58 349.01 , 211.67 349.34 , 211.56 349.67 , 211.55 350.00 , 211.73 350.34 , 211.55 350.67 , 211.70 351.00 , 211.60 351.34 , 211.69 351.67 , 211.60 352.00 , 211.61 352.33 , 211.68 352.67 , 211.63 353.00 , 211.67 353.33 , 211.65 353.67 , 211.65 354.00 , 211.63 354.33 , 211.65 354.66 , 211.64 355.00 , 211.66 355.33 , 211.70 355.66 , 211.70 356.00 , 211.59 356.33 , 211.67 356.66 , 211.64 356.99 , 211.63 357.33 , 211.64 357.66 , 211.64 357.99 , 211.61 358.33 , 211.61 358.66 , 211.61 358.99 , 211.62 359.32 , 211.67 359.66 , 211.65 359.99 , 211.69 360.32 , 211.66 360.66 , 211.63 360.99 , 211.64 361.32 , 211.65 361.65 , 211.65 361.99 , 211.65 362.32 , 211.66 362.65 , 211.67 362.99 , 211.61 " style="stroke-width:1;stroke:#E66101;fill:#000000;stroke-opacity:1.000000;fill-opacity:0.000000"/>
<polyline points="30.79 , 166.22 31.12 , 166.22 31.45 , 166.22 31.79 , 202.96 32.12 , 200.81 32.45 , 209.11 32.79 , 209.11 33.12 , 207.24 33.45 , 210.12 33.78 , 211.08 34.12 , 210.91 34.45 , 210.97 34.78 , 211.27 35.12 , 211.44 35.45 , 211.35 35.78 , 211.63 36.11 , 211.63 36.45 , 211.63 36.78 , 211.61 37.11 , 211.61 37.45 , 211.66 37.78 , 211.66 38.11 , 211.64 38.44 , 211.62 38.78 , 211.65 39.11 , 211.61 39.44 , 211.69 39.78 , 211.68 40.11 , 211.60 40.44 , 211.60 40.77 , 211.65 41.11 , 211.67 41.44 , 211.61 41.77 , 211.68 42.11 , 211.60 42.44 , 211.60 42.77 , 211.67 43.10 , 211.63 43.44 , 211.67 43.77 , 211.64 44.10 , 211.66 44.44 , 211.64 44.77 , 211.67 45.10 , 211.63 45.43 , 211.61 45.77 , 211.67 46.10 , 211.67 46.43 , 211.73 46.77 , 211.69 47.10 , 211.63 47.43 , 211.67 47.76 , 211.70 48.10 , 211.70 48.43 , 211.69 48.76 , 211.59 49.10 , 211.59 49.43 , 211.59 49.76 , 211.66 50.09 , 211.62 50.43 , 211.64 50.76 , 211.65 51.09 , 211.62 51.43 , 211.66 51.76 , 211.65 52.09 , 211.62 52.42 , 211.67 52.76 , 211.63 53.09 , 211.66 53.42 , 211.66 53.76 , 211.65 54.09 , 211.66 54.42 , 211.63 54.75 , 211.67 55.09 , 211.64 55.42 , 211.61 55.75 , 211.65 56.09 , 211.66 56.42 , 211.63 56.75 , 211.60 57.08 , 211.68 57.42 , 211.63 57.75 , 211.64 58.08 , 211.65 58.42 , 211.65 58.75 , 211.60 59.08 , 211.64 59.41 , 211.65 59.75 , 211.64 60.08 , 211.63 60.41 , 211.59 60.75 , 211.58 61.08 , 211.70 61.41 , 211.59 61.74 , 211.62 62.08 , 211.64 62.41 , 211.68 62.74 , 211.66 63.08 , 211.63 63.41 , 211.70 63.74 , 211.69 64.07 , 211.61 64.41 , 211.61 64.74 , 211.59 65.07 , 211.70 65.41 , 211.63 65.74 , 211.60 66.07 , 211.61 66.40 , 211.60 66.74 , 211.65 67.07 , 211.64 67.40 , 211.66 67.74 , 211.70 68.07 , 211.70 68.40 , 211.60 68.73 , 211.66 69.07 , 211.63 69.40 , 211.68 69.73 , 211.66 70.07 , 211.64 70.40 , 211.65 70.73 , 211.64 71.06 , 211.66 71.40 , 211.61 71.73 , 211.69 72.06 , 211.62 72.40 , 211.64 72.73 , 211.61 73.06 , 211.61 73.39 , 211.59 73.73 , 211.71 74.06 , 211.58 74.39 , 211.66 74.73 , 211.64 75.06 , 211.61 75.39 , 211.69 75.72 , 211.59 76.06 , 211.68 76.39 , 211.61 76.72 , 211.69 77.06 , 211.66 77.39 , 211.65 77.72 , 211.64 78.05 , 211.66 78.39 , 211.67 78.72 , 211.66 79.05 , 211.64 79.39 , 211.63 79.72 , 211.65 80.05 , 211.69 80.38 , 211.67 80.72 , 211.65 81.05 , 211.65 81.38 , 211.66 81.72 , 211.70 82.05 , 211.67 82.38 , 211.71 82.71 , 211.63 83.05 , 211.68 83.38 , 211.63 83.71 , 211.62 84.05 , 211.58 84.38 , 211.59 84.71 , 211.64 85.04 , 211.64 85.38 , 211.64 85.71 , 211.67 86.04 , 211.67 86.38 , 211.65 86.71 , 211.65 87.04 , 211.64 87.37 , 211.64 87.71 , 211.65 88.04 , 211.66 88.37 , 211.65 88.71 , 211.61 89.04 , 211.59 89.37 , 211.59 89.70 , 211.60 90.04 , 211.61 90.37 , 211.62 90.70 , 211.63 91.04 , 211.63 91.37 , 211.62 91.70 , 211.61 92.03 , 211.66 92.37 , 211.66 92.70 , 211.70 93.03 , 211.64 93.37 , 211.66 93.70 , 211.71 94.03 , 211.69 94.36 , 211.71 94.70 , 211.62 95.03 , 211.73 95.36 , 211.60 95.70 , 211.60 96.03 , 211.59 96.36 , 211.67 96.69 , 211.65 97.03 , 211.67 97.36 , 211.67 97.69 , 211.65 98.03 , 211.63 98.36 , 211.61 98.69 , 211.58 99.02 , 211.64 99.36 , 211.64 99.69 , 211.69 100.02 , 211.65 100.36 , 211.61 100.69 , 211.61 101.02 , 211.61 101.35 , 211.60 101.69 , 211.59 102.02 , 211.59 102.35 , 211.59 102.69 , 211.68 103.02 , 211.60 103.35 , 211.60 103.68 , 211.59 104.02 , 211.59 104.35 , 211.60 104.68 , 211.64 105.02 , 211.65 105.35 , 211.69 105.68 , 211.69 106.01 , 211.71 106.35 , 211.75 106.68 , 211.64 107.01 , 211.65 107.35 , 211.60 107.68 , 211.62 108.01 , 211.65 108.35 , 211.64 108.68 , 211.65 109.01 , 211.64 109.34 , 211.64 109.68 , 211.70 110.01 , 211.62 110.34 , 211.62 110.68 , 211.62 111.01 , 211.61 111.34 , 211.63 111.67 , 211.64 112.01 , 211.66 112.34 , 211.63 112.67 , 211.64 113.01 , 211.66 113.34 , 211.67 113.67 , 211.67 114.00 , 211.67 114.34 , 211.67 114.67 , 211.67 115.00 , 211.68 115.34 , 211.60 115.67 , 211.60 116.00 , 211.70 116.33 , 211.62 116.67 , 211.67 117.00 , 211.65 117.33 , 211.65 117.67 , 211.56 118.00 , 211.73 118.33 , 211.61 118.66 , 211.65 119.00 , 211.65 119.33 , 211.64 119.66 , 211.64 120.00 , 211.64 120.33 , 211.66 120.66 , 211.62 120.99 , 211.66 121.33 , 211.66 121.66 , 211.58 121.99 , 211.69 122.33 , 211.69 122.66 , 211.67 122.99 , 211.70 123.32 , 211.59 123.66 , 211.57 123.99 , 211.68 124.32 , 211.62 124.66 , 211.59 124.99 , 211.59 125.32 , 211.64 125.65 , 211.61 125.99 , 211.61 126.32 , 211.66 126.65 , 211.66 126.99 , 211.68 127.32 , 211.67 127.65 , 211.67 127.98 , 211.62 128.32 , 211.65 128.65 , 211.65 128.98 , 211.64 129.32 , 211.67 129.65 , 211.64 129.98 , 211.62 130.31 , 211.67 130.65 , 211.64 130.98 , 211.64 131.31 , 211.62 131.65 , 211.67 131.98 , 211.69 132.31 , 211.67 132.64 , 211.61 132.98 , 211.61 133.31 , 211.62 133.64 , 211.72 133.98 , 211.72 134.31 , 211.69 134.64 , 211.69 134.97 , 211.65 135.31 , 211.64 135.64 , 211.63 135.97 , 211.64 136.31 , 211.64 136.64 , 211.64 136.97 , 211.64 137.30 , 211.61 137.64 , 211.69 137.97 , 211.64 138.30 , 211.64 138.64 , 211.64 138.97 , 211.65 139.30 , 211.69 139.63 , 211.69 139.97 , 211.59 140.30 , 211.72 140.63 , 211.65 140.97 , 211.66 141.30 , 211.68 141.63 , 211.68 141.96 , 211.63 142.30 , 211.64 142.63 , 211.64 142.96 , 211.64 143.30 , 211.65 143.63 , 211.67 143.96 , 211.67 144.29 , 211.63 144.63 , 211.63 144.96 , 211.68 145.29 , 211.71 145.63 , 211.68 145.96 , 211.70 146.29 , 211.67 146.62 , 211.65 146.96 , 211.64 147.29 , 211.64 147.62 , 211.65 147.96 , 211.65 148.29 , 211.61 148.62 , 211.64 148.95 , 211.63 149.29 , 211.69 149.62 , 211.62 149.95 , 211.62 150.29 , 211.67 150.62 , 211.68 150.95 , 211.64 151.28 , 211.66 151.62 , 211.66 151.95 , 211.65 152.28 , 211.69 152.62 , 211.64 152.95 , 211.64 153.28 , 211.66 153.61 , 211.63 153.95 , 211.59 154.28 , 211.59 154.61 , 211.67 154.95 , 211.62 155.28 , 211.72 155.61 , 211.62 155.94 , 211.61 156.28 , 211.65 156.61 , 211.65 156.94 , 211.63 157.28 , 211.66 157.61 , 211.71 157.94 , 211.68 158.27 , 211.61 158.61 , 211.62 158.94 , 211.69 159.27 , 211.73 159.61 , 211.53 159.94 , 211.59 160.27 , 211.60 160.60 , 211.65 160.94 , 211.65 161.27 , 211.62 161.60 , 211.66 161.94 , 211.65 162.27 , 211.65 162.60 , 211.65 162.93 , 211.65 163.27 , 211.68 163.60 , 211.64 163.93 , 211.69 164.27 , 211.65 164.60 , 211.66 164.93 , 211.66 165.26 , 211.66 165.60 , 211.58 165.93 , 211.65 166.26 , 211.65 166.60 , 211.65 166.93 , 211.59 167.26 , 211.68 167.59 , 211.68 167.93 , 211.62 168.26 , 211.63 168.59 , 211.66 168.93 , 211.66 169.26 , 211.67 169.59 , 211.65 169.92 , 211.62 170.26 , 211.68 170.59 , 211.62 170.92 , 211.67 171.26 , 211.63 171.59 , 211.63 171.92 , 211.67 172.25 , 211.60 172.59 , 211.69 172.92 , 211.65 173.25 , 211.65 173.59 , 211.65 173.92 , 211.62 174.25 , 211.57 174.58 , 211.68 174.92 , 211.62 175.25 , 211.62 175.58 , 211.64 175.92 , 211.61 176.25 , 211.62 176.58 , 211.69 176.91 , 211.68 177.25 , 211.63 177.58 , 211.67 177.91 , 211.64 178.25 , 211.70 178.58 , 211.66 178.91 , 211.64 179.24 , 211.70 179.58 , 211.75 179.91 , 211.59 180.24 , 211.72 180.58 , 211.72 180.91 , 211.72 181.24 , 211.69 181.57 , 211.67 181.91 , 211.65 182.24 , 211.72 182.57 , 211.73 182.91 , 211.71 183.24 , 211.61 183.57 , 211.66 183.90 , 211.66 184.24 , 211.59 184.57 , 211.64 184.90 , 211.65 185.24 , 211.65 185.57 , 211.61 185.90 , 211.69 186.24 , 211.65 186.57 , 211.66 186.90 , 211.66 187.23 , 211.65 187.57 , 211.69 187.90 , 211.68 188.23 , 211.68 188.57 , 211.68 188.90 , 211.69 189.23 , 211.68 189.56 , 211.76 189.90 , 211.74 190.23 , 211.69 190.56 , 211.64 190.90 , 211.64 191.23 , 211.64 191.56 , 211.69 191.89 , 211.62 192.23 , 211.62 192.56 , 211.65 192.89 , 211.64 193.23 , 211.62 193.56 , 211.67 193.89 , 211.69 194.22 , 211.62 194.56 , 211.75 194.89 , 211.58 195.22 , 211.58 195.56 , 211.70 195.89 , 211.62 196.22 , 211.63 196.55 , 211.66 196.89 , 211.65 197.22 , 211.67 197.55 , 211.67 197.89 , 211.62 198.22 , 211.61 198.55 , 211.65 198.88 , 211.66 199.22 , 211.62 199.55 , 211.63 199.88 , 211.63 200.22 , 211.63 200.55 , 211.64 200.88 , 211.65 201.21 , 211.64 201.55 , 211.64 201.88 , 211.67 202.21 , 211.67 202.55 , 211.64 202.88 , 211.62 203.21 , 211.63 203.54 , 211.63 203.88 , 211.67 204.21 , 211.71 204.54 , 211.64 204.88 , 211.67 205.21 , 211.68 205.54 , 211.68 205.87 , 211.67 206.21 , 211.66 206.54 , 211.71 206.87 , 211.59 207.21 , 211.71 207.54 , 211.70 207.87 , 211.68 208.20 , 211.68 208.54 , 211.57 208.87 , 211.67 209.20 , 211.67 209.54 , 211.67 209.87 , 211.66 210.20 , 211.63 210.53 , 211.67 210.87 , 211.60 211.20 , 211.65 211.53 , 211.68 211.87 , 211.61 212.20 , 211.64 212.53 , 211.64 212.86 , 211.69 213.20 , 211.59 213.53 , 211.63 213.86 , 211.68 214.20 , 211.61 214.53 , 211.67 214.86 , 211.66 215.19 , 211.62 215.53 , 211.61 215.86 , 211.67 216.19 , 211.65 216.53 , 211.64 216.86 , 211.67 217.19 , 211.63 217.52 , 211.63 217.86 , 211.67 218.19 , 211.64 218.52 , 211.61 218.86 , 211.61 219.19 , 211.61 219.52 , 211.61 219.85 , 211.61 220.19 , 211.61 220.52 , 211.69 220.85 , 211.68 221.19 , 211.69 221.52 , 211.66 221.85 , 211.63 222.18 , 211.65 222.52 , 211.68 222.85 , 211.59 223.18 , 211.59 223.52 , 211.67 223.85 , 211.61 224.18 , 211.67 224.51 , 211.62 224.85 , 211.67 225.18 , 211.66 225.51 , 211.68 225.85 , 211.61 226.18 , 211.69 226.51 , 211.61 226.84 , 211.61 227.18 , 211.68 227.51 , 211.68 227.84 , 211.58 228.18 , 211.71 228.51 , 211.58 228.84 , 211.71 229.17 , 211.73 229.51 , 211.64 229.84 , 211.62 230.17 , 211.69 230.51 , 211.62 230.84 , 211.59 231.17 , 211.60 231.50 , 211.63 231.84 , 211.66 232.17 , 211.63 232.50 , 211.68 232.84 , 211.62 233.17 , 211.68 233.50 , 211.66 233.83 , 211.67 234.17 , 211.69 234.50 , 211.61 234.83 , 211.67 235.17 , 211.63 235.50 , 211.63 235.83 , 211.60 236.16 , 211.63 236.50 , 211.66 236.83 , 211.64 237.16 , 211.64 237.50 , 211.63 237.83 , 211.66 238.16 , 211.66 238.49 , 211.67 238.83 , 211.65 239.16 , 211.67 239.49 , 211.66 239.83 , 211.62 240.16 , 211.72 240.49 , 211.57 240.82 , 211.67 241.16 , 211.62 241.49 , 211.65 241.82 , 211.64 242.16 , 211.59 242.49 , 211.69 242.82 , 211.58 243.15 , 211.70 243.49 , 211.60 243.82 , 211.69 244.15 , 211.66 244.49 , 211.66 244.82 , 211.69 245.15 , 211.61 245.48 , 211.63 245.82 , 211.67 246.15 , 211.63 246.48 , 211.62 246.82 , 211.59 247.15 , 211.58 247.48 , 211.70 247.81 , 211.69 248.15 , 211.68 248.48 , 211.59 248.81 , 211.64 249.15 , 211.66 249.48 , 211.67 249.81 , 211.68 250.14 , 211.69 250.48 , 211.65 250.81 , 211.65 251.14 , 211.65 251.48 , 211.65 251.81 , 211.61 252.14 , 211.63 252.47 , 211.63 252.81 , 211.68 253.14 , 211.64 253.47 , 211.71 253.81 , 211.66 254.14 , 211.62 254.47 , 211.65 254.80 , 211.63 255.14 , 211.62 255.47 , 211.64 255.80 , 211.65 256.14 , 211.60 256.47 , 211.68 256.80 , 211.62 257.13 , 211.68 257.47 , 211.67 257.80 , 211.62 258.13 , 211.66 258.47 , 211.68 258.80 , 211.62 259.13 , 211.69 259.46 , 211.68 259.80 , 211.70 260.13 , 211.68 260.46 , 211.68 260.80 , 211.63 261.13 , 211.62 261.46 , 211.70 261.80 , 211.65 262.13 , 211.58 262.46 , 211.66 262.79 , 211.69 263.13 , 211.58 263.46 , 211.63 263.79 , 211.67 264.13 , 211.64 264.46 , 211.65 264.79 , 211.64 265.12 , 211.62 265.46 , 211.66 265.79 , 211.62 266.12 , 211.66 266.46 , 211.58 266.79 , 211.70 267.12 , 211.66 267.45 , 211.66 267.79 , 211.65 268.12 , 211.65 268.45 , 211.63 268.79 , 211.67 269.12 , 211.59 269.45 , 211.71 269.78 , 211.62 270.12 , 211.69 270.45 , 211.64 270.78 , 211.66 271.12 , 211.71 271.45 , 211.57 271.78 , 211.70 272.11 , 211.69 272.45 , 211.63 272.78 , 211.64 273.11 , 211.64 273.45 , 211.64 273.78 , 211.60 274.11 , 211.64 274.44 , 211.62 274.78 , 211.67 275.11 , 211.70 275.44 , 211.71 275.78 , 211.70 276.11 , 211.57 276.44 , 211.71 276.77 , 211.70 277.11 , 211.70 277.44 , 211.65 277.77 , 211.63 278.11 , 211.70 278.44 , 211.60 278.77 , 211.69 279.10 , 211.59 279.44 , 211.70 279.77 , 211.59 280.10 , 211.69 280.44 , 211.63 280.77 , 211.65 281.10 , 211.66 281.43 , 211.65 281.77 , 211.67 282.10 , 211.63 282.43 , 211.58 282.77 , 211.58 283.10 , 211.55 283.43 , 211.57 283.76 , 211.70 284.10 , 211.68 284.43 , 211.62 284.76 , 211.62 285.10 , 211.65 285.43 , 211.59 285.76 , 211.61 286.09 , 211.69 286.43 , 211.59 286.76 , 211.64 287.09 , 211.63 287.43 , 211.64 287.76 , 211.59 288.09 , 211.60 288.42 , 211.71 288.76 , 211.61 289.09 , 211.70 289.42 , 211.61 289.76 , 211.53 290.09 , 211.72 290.42 , 211.65 290.75 , 211.65 291.09 , 211.66 291.42 , 211.66 291.75 , 211.66 292.09 , 211.66 292.42 , 211.72 292.75 , 211.65 293.08 , 211.62 293.42 , 211.62 293.75 , 211.67 294.08 , 211.65 294.42 , 211.61 294.75 , 211.60 295.08 , 211.58 295.41 , 211.70 295.75 , 211.61 296.08 , 211.68 296.41 , 211.63 296.75 , 211.62 297.08 , 211.68 297.41 , 211.64 297.74 , 211.64 298.08 , 211.64 298.41 , 211.63 298.74 , 211.65 299.08 , 211.64 299.41 , 211.65 299.74 , 211.64 300.07 , 211.62 300.41 , 211.64 300.74 , 211.66 301.07 , 211.64 301.41 , 211.66 301.74 , 211.62 302.07 , 211.70 302.40 , 211.61 302.74 , 211.68 303.07 , 211.63 303.40 , 211.65 303.74 , 211.66 304.07 , 211.61 304.40 , 211.65 304.73 , 211.58 305.07 , 211.68 305.40 , 211.60 305.73 , 211.67 306.07 , 211.65 306.40 , 211.66 306.73 , 211.64 307.06 , 211.65 307.40 , 211.64 307.73 , 211.66 308.06 , 211.61 308.40 , 211.69 308.73 , 211.62 309.06 , 211.67 309.39 , 211.66 309.73 , 211.62 310.06 , 211.68 310.39 , 211.63 310.73 , 211.67 311.06 , 211.68 311.39 , 211.65 311.72 , 211.67 312.06 , 211.61 312.39 , 211.68 312.72 , 211.66 313.06 , 211.65 313.39 , 211.61 313.72 , 211.64 314.05 , 211.65 314.39 , 211.66 314.72 , 211.66 315.05 , 211.64 315.39 , 211.64 315.72 , 211.58 316.05 , 211.58 316.38 , 211.64 316.72 , 211.65 317.05 , 211.65 317.38 , 211.64 317.72 , 211.68 318.05 , 211.59 318.38 , 211.69 318.71 , 211.60 319.05 , 211.70 319.38 , 211.71 319.71 , 211.62 320.05 , 211.64 320.38 , 211.64 320.71 , 211.64 321.04 , 211.66 321.38 , 211.60 321.71 , 211.70 322.04 , 211.60 322.38 , 211.61 322.71 , 211.66 323.04 , 211.66 323.37 , 211.68 323.71 , 211.68 324.04 , 211.65 324.37 , 211.65 324.71 , 211.63 325.04 , 211.67 325.37 , 211.63 325.70 , 211.62 326.04 , 211.62 326.37 , 211.62 326.70 , 211.67 327.04 , 211.68 327.37 , 211.64 327.70 , 211.61 328.03 , 211.68 328.37 , 211.69 328.70 , 211.70 329.03 , 211.66 329.37 , 211.63 329.70 , 211.67 330.03 , 211.66 330.36 , 211.63 330.70 , 211.66 331.03 , 211.66 331.36 , 211.70 331.70 , 211.68 332.03 , 211.62 332.36 , 211.67 332.69 , 211.65 333.03 , 211.64 333.36 , 211.64 333.69 , 211.61 334.03 , 211.62 334.36 , 211.67 334.69 , 211.63 335.02 , 211.63 335.36 , 211.63 335.69 , 211.64 336.02 , 211.67 336.36 , 211.69 336.69 , 211.64 337.02 , 211.68 337.35 , 211.65 337.69 , 211.62 338.02 , 211.64 338.35 , 211.63 338.69 , 211.72 339.02 , 211.59 339.35 , 211.61 339.69 , 211.61 340.02 , 211.71 340.35 , 211.65 340.68 , 211.65 341.02 , 211.66 341.35 , 211.59 341.68 , 211.68 342.02 , 211.60 342.35 , 211.61 342.68 , 211.66 343.01 , 211.60 343.35 , 211.63 343.68 , 211.65 344.01 , 211.64 344.35 , 211.66 344.68 , 211.66 345.01 , 211.66 345.34 , 211.65 345.68 , 211.63 346.01 , 211.63 346.34 , 211.65 346.68 , 211.57 347.01 , 211.56 347.34 , 211.63 347.67 , 211.66 348.01 , 211.70 348.34 , 211.70 348.67 , 211.58 349.01 , 211.64 349.34 , 211.64 349.67 , 211.58 350.00 , 211.72 350.34 , 211.70 350.67 , 211.69 351.00 , 211.62 351.34 , 211.64 351.67 , 211.68 352.00 , 211.63 352.33 , 211.62 352.67 , 211.67 353.00 , 211.63 353.33 , 211.65 353.67 , 211.68 354.00 , 211.66 354.33 , 211.63 354.66 , 211.66 355.00 , 211.63 355.33 , 211.63 355.66 , 211.59 356.00 , 211.59 356.33 , 211.62 356.66 , 211.68 356.99 , 211.68 357.33 , 211.69 357.66 , 211.57 357.99 , 211.69 358.33 , 211.60 358.66 , 211.65 358.99 , 211.70 359.32 , 211.60 359.66 , 211.60 359.99 , 211.62 360.32 , 211.68 360.66 , 211.61 360.99 , 211.71 361.32 , 211.71 361.65 , 211.69 361.99 , 211.61 362.32 , 211.65 362.65 , 211.66 362.99 , 211.63 " style="stroke-width:1;stroke:#998EC3;fill:#000000;stroke-opacity:1.000000;fill-opacity:0.000000"/>
<polyline points="30.79 , 201.01 31.12 , 201.01 31.45 , 201.01 31.79 , 205.40 32.12 , 209.18 32.45 , 210.79 32.79 , 210.62 33.12 , 211.64 33.45 , 211.64 33.78 , 211.14 34.12 , 211.68 34.45 , 211.72 34.78 , 211.73 35.12 , 211.73 35.45 , 211.75 35.78 , 211.66 36.11 , 211.64 36.45 , 211.65 36.78 , 211.55 37.11 , 211.71 37.45 , 211.71 37.78 , 211.67 38.11 , 211.66 38.44 , 211.59 38.78 , 211.62 39.11 , 211.66 39.44 , 211.65 39.78 , 211.63 40.11 , 211.64 40.44 , 211.64 40.77 , 211.70 41.11 , 211.70 41.44 , 211.58 41.77 , 211.67 42.11 , 211.64 42.44 , 211.62 42.77 , 211.67 43.10 , 211.62 43.44 , 211.66 43.77 , 211.66 44.10 , 211.67 44.44 , 211.67 44.77 , 211.57 45.10 , 211.67 45.43 , 211.65 45.77 , 211.61 46.10 , 211.68 46.43 , 211.55 46.77 , 211.72 47.10 , 211.71 47.43 , 211.74 47.76 , 211.75 48.10 , 211.73 48.43 , 211.62 48.76 , 211.69 49.10 , 211.60 49.43 , 211.60 49.76 , 211.69 50.09 , 211.68 50.43 , 211.58 50.76 , 211.62 51.09 , 211.59 51.43 , 211.56 51.76 , 211.73 52.09 , 211.64 52.42 , 211.64 52.76 , 211.64 53.09 , 211.69 53.42 , 211.60 53.76 , 211.60 54.09 , 211.66 54.42 , 211.65 54.75 , 211.63 55.09 , 211.64 55.42 , 211.65 55.75 , 211.65 56.09 , 211.61 56.42 , 211.71 56.75 , 211.66 57.08 , 211.64 57.42 , 211.71 57.75 , 211.59 58.08 , 211.68 58.42 , 211.68 58.75 , 211.66 59.08 , 211.63 59.41 , 211.68 59.75 , 211.64 60.08 , 211.62 60.41 , 211.68 60.75 , 211.62 61.08 , 211.65 61.41 , 211.65 61.74 , 211.70 62.08 , 211.68 62.41 , 211.61 62.74 , 211.65 63.08 , 211.64 63.41 , 211.64 63.74 , 211.65 64.07 , 211.65 64.41 , 211.65 64.74 , 211.62 65.07 , 211.66 65.41 , 211.62 65.74 , 211.68 66.07 , 211.64 66.40 , 211.64 66.74 , 211.64 67.07 , 211.65 67.40 , 211.62 67.74 , 211.63 68.07 , 211.67 68.40 , 211.69 68.73 , 211.65 69.07 , 211.66 69.40 , 211.71 69.73 , 211.67 70.07 , 211.68 70.40 , 211.61 70.73 , 211.65 71.06 , 211.65 71.40 , 211.64 71.73 , 211.68 72.06 , 211.63 72.40 , 211.59 72.73 , 211.69 73.06 , 211.61 73.39 , 211.68 73.73 , 211.68 74.06 , 211.71 74.39 , 211.71 74.73 , 211.59 75.06 , 211.71 75.39 , 211.63 75.72 , 211.66 76.06 , 211.61 76.39 , 211.71 76.72 , 211.67 77.06 , 211.69 77.39 , 211.58 77.72 , 211.63 78.05 , 211.62 78.39 , 211.63 78.72 , 211.63 79.05 , 211.63 79.39 , 211.67 79.72 , 211.63 80.05 , 211.63 80.38 , 211.63 80.72 , 211.63 81.05 , 211.63 81.38 , 211.63 81.72 , 211.64 82.05 , 211.69 82.38 , 211.65 82.71 , 211.70 83.05 , 211.61 83.38 , 211.64 83.71 , 211.65 84.05 , 211.65 84.38 , 211.64 84.71 , 211.62 85.04 , 211.60 85.38 , 211.60 85.71 , 211.60 86.04 , 211.62 86.38 , 211.62 86.71 , 211.66 87.04 , 211.67 87.37 , 211.71 87.71 , 211.70 88.04 , 211.73 88.37 , 211.72 88.71 , 211.71 89.04 , 211.65 89.37 , 211.65 89.70 , 211.62 90.04 , 211.64 90.37 , 211.64 90.70 , 211.63 91.04 , 211.63 91.37 , 211.62 91.70 , 211.64 92.03 , 211.62 92.37 , 211.62 92.70 , 211.63 93.03 , 211.68 93.37 , 211.59 93.70 , 211.71 94.03 , 211.69 94.36 , 211.68 94.70 , 211.61 95.03 , 211.63 95.36 , 211.65 95.70 , 211.60 96.03 , 211.61 96.36 , 211.69 96.69 , 211.71 97.03 , 211.58 97.36 , 211.68 97.69 , 211.65 98.03 , 211.66 98.36 , 211.60 98.69 , 211.63 99.02 , 211.70 99.36 , 211.62 99.69 , 211.63 100.02 , 211.60 100.36 , 211.67 100.69 , 211.65 101.02 , 211.61 101.35 , 211.67 101.69 , 211.66 102.02 , 211.62 102.35 , 211.67 102.69 , 211.66 103.02 , 211.71 103.35 , 211.72 103.68 , 211.70 104.02 , 211.57 104.35 , 211.58 104.68 , 211.69 105.02 , 211.64 105.35 , 211.67 105.68 , 211.65 106.01 , 211.63 106.35 , 211.59 106.68 , 211.61 107.01 , 211.60 107.35 , 211.59 107.68 , 211.62 108.01 , 211.67 108.35 , 211.61 108.68 , 211.67 109.01 , 211.68 109.34 , 211.66 109.68 , 211.66 110.01 , 211.65 110.34 , 211.66 110.68 , 211.69 111.01 , 211.71 111.34 , 211.68 111.67 , 211.65 112.01 , 211.69 112.34 , 211.69 112.67 , 211.69 113.01 , 211.69 113.34 , 211.66 113.67 , 211.64 114.00 , 211.64 114.34 , 211.64 114.67 , 211.67 115.00 , 211.65 115.34 , 211.63 115.67 , 211.65 116.00 , 211.64 116.33 , 211.62 116.67 , 211.67 117.00 , 211.63 117.33 , 211.62 117.67 , 211.61 118.00 , 211.60 118.33 , 211.62 118.66 , 211.66 119.00 , 211.66 119.33 , 211.61 119.66 , 211.70 120.00 , 211.68 120.33 , 211.62 120.66 , 211.62 120.99 , 211.61 121.33 , 211.62 121.66 , 211.66 121.99 , 211.67 122.33 , 211.67 122.66 , 211.67 122.99 , 211.67 123.32 , 211.64 123.66 , 211.65 123.99 , 211.65 124.32 , 211.66 124.66 , 211.62 124.99 , 211.61 125.32 , 211.61 125.65 , 211.65 125.99 , 211.66 126.32 , 211.66 126.65 , 211.63 126.99 , 211.66 127.32 , 211.66 127.65 , 211.60 127.98 , 211.58 128.32 , 211.58 128.65 , 211.58 128.98 , 211.58 129.32 , 211.66 129.65 , 211.63 129.98 , 211.66 130.31 , 211.64 130.65 , 211.65 130.98 , 211.66 131.31 , 211.68 131.65 , 211.69 131.98 , 211.67 132.31 , 211.66 132.64 , 211.66 132.98 , 211.63 133.31 , 211.67 133.64 , 211.65 133.98 , 211.54 134.31 , 211.54 134.64 , 211.69 134.97 , 211.70 135.31 , 211.60 135.64 , 211.69 135.97 , 211.70 136.31 , 211.59 136.64 , 211.62 136.97 , 211.60 137.30 , 211.68 137.64 , 211.60 137.97 , 211.60 138.30 , 211.57 138.64 , 211.57 138.97 , 211.71 139.30 , 211.59 139.63 , 211.53 139.97 , 211.55 140.30 , 211.74 140.63 , 211.68 140.97 , 211.70 141.30 , 211.70 141.63 , 211.70 141.96 , 211.67 142.30 , 211.63 142.63 , 211.63 142.96 , 211.64 143.30 , 211.67 143.63 , 211.68 143.96 , 211.62 144.29 , 211.62 144.63 , 211.70 144.96 , 211.65 145.29 , 211.61 145.63 , 211.61 145.96 , 211.62 146.29 , 211.64 146.62 , 211.63 146.96 , 211.63 147.29 , 211.63 147.62 , 211.66 147.96 , 211.60 148.29 , 211.64 148.62 , 211.65 148.95 , 211.64 149.29 , 211.67 149.62 , 211.58 149.95 , 211.56 150.29 , 211.58 150.62 , 211.63 150.95 , 211.56 151.28 , 211.61 151.62 , 211.56 151.95 , 211.60 152.28 , 211.68 152.62 , 211.59 152.95 , 211.63 153.28 , 211.62 153.61 , 211.64 153.95 , 211.64 154.28 , 211.63 154.61 , 211.66 154.95 , 211.66 155.28 , 211.66 155.61 , 211.64 155.94 , 211.73 156.28 , 211.72 156.61 , 211.59 156.94 , 211.70 157.28 , 211.62 157.61 , 211.66 157.94 , 211.66 158.27 , 211.66 158.61 , 211.65 158.94 , 211.65 159.27 , 211.64 159.61 , 211.66 159.94 , 211.64 160.27 , 211.66 160.60 , 211.66 160.94 , 211.64 161.27 , 211.67 161.60 , 211.63 161.94 , 211.67 162.27 , 211.70 162.60 , 211.69 162.93 , 211.64 163.27 , 211.67 163.60 , 211.60 163.93 , 211.63 164.27 , 211.62 164.60 , 211.68 164.93 , 211.65 165.26 , 211.62 165.60 , 211.64 165.93 , 211.67 166.26 , 211.68 166.60 , 211.66 166.93 , 211.67 167.26 , 211.68 167.59 , 211.59 167.93 , 211.69 168.26 , 211.66 168.59 , 211.64 168.93 , 211.70 169.26 , 211.70 169.59 , 211.65 169.92 , 211.64 170.26 , 211.65 170.59 , 211.69 170.92 , 211.64 171.26 , 211.70 171.59 , 211.58 171.92 , 211.70 172.25 , 211.62 172.59 , 211.68 172.92 , 211.59 173.25 , 211.57 173.59 , 211.70 173.92 , 211.59 174.25 , 211.70 174.58 , 211.68 174.92 , 211.73 175.25 , 211.67 175.58 , 211.70 175.92 , 211.60 176.25 , 211.62 176.58 , 211.67 176.91 , 211.70 177.25 , 211.66 177.58 , 211.65 177.91 , 211.65 178.25 , 211.64 178.58 , 211.66 178.91 , 211.65 179.24 , 211.65 179.58 , 211.66 179.91 , 211.65 180.24 , 211.63 180.58 , 211.63 180.91 , 211.63 181.24 , 211.63 181.57 , 211.64 181.91 , 211.63 182.24 , 211.64 182.57 , 211.65 182.91 , 211.66 183.24 , 211.70 183.57 , 211.61 183.90 , 211.63 184.24 , 211.67 184.57 , 211.65 184.90 , 211.65 185.24 , 211.58 185.57 , 211.70 185.90 , 211.65 186.24 , 211.63 186.57 , 211.63 186.90 , 211.66 187.23 , 211.63 187.57 , 211.65 187.90 , 211.64 188.23 , 211.65 188.57 , 211.67 188.90 , 211.67 189.23 , 211.59 189.56 , 211.59 189.90 , 211.72 190.23 , 211.61 190.56 , 211.68 190.90 , 211.61 191.23 , 211.69 191.56 , 211.66 191.89 , 211.66 192.23 , 211.65 192.56 , 211.63 192.89 , 211.63 193.23 , 211.63 193.56 , 211.65 193.89 , 211.65 194.22 , 211.63 194.56 , 211.64 194.89 , 211.71 195.22 , 211.61 195.56 , 211.66 195.89 , 211.61 196.22 , 211.65 196.55 , 211.62 196.89 , 211.67 197.22 , 211.63 197.55 , 211.70 197.89 , 211.65 198.22 , 211.66 198.55 , 211.69 198.88 , 211.58 199.22 , 211.54 199.55 , 211.72 199.88 , 211.57 200.22 , 211.71 200.55 , 211.55 200.88 , 211.72 201.21 , 211.67 201.55 , 211.65 201.88 , 211.67 202.21 , 211.64 202.55 , 211.67 202.88 , 211.64 203.21 , 211.70 203.54 , 211.62 203.88 , 211.70 204.21 , 211.61 204.54 , 211.71 204.88 , 211.57 205.21 , 211.69 205.54 , 211.61 205.87 , 211.65 206.21 , 211.65 206.54 , 211.70 206.87 , 211.68 207.21 , 211.63 207.54 , 211.69 207.87 , 211.59 208.20 , 211.64 208.54 , 211.63 208.87 , 211.60 209.20 , 211.63 209.54 , 211.63 209.87 , 211.65 210.20 , 211.63 210.53 , 211.64 210.87 , 211.57 211.20 , 211.59 211.53 , 211.64 211.87 , 211.62 212.20 , 211.60 212.53 , 211.69 212.86 , 211.67 213.20 , 211.56 213.53 , 211.61 213.86 , 211.65 214.20 , 211.64 214.53 , 211.64 214.86 , 211.67 215.19 , 211.68 215.53 , 211.61 215.86 , 211.66 216.19 , 211.64 216.53 , 211.62 216.86 , 211.69 217.19 , 211.70 217.52 , 211.65 217.86 , 211.69 218.19 , 211.64 218.52 , 211.70 218.86 , 211.64 219.19 , 211.64 219.52 , 211.66 219.85 , 211.68 220.19 , 211.61 220.52 , 211.57 220.85 , 211.71 221.19 , 211.58 221.52 , 211.71 221.85 , 211.59 222.18 , 211.69 222.52 , 211.62 222.85 , 211.63 223.18 , 211.66 223.52 , 211.59 223.85 , 211.58 224.18 , 211.70 224.51 , 211.59 224.85 , 211.65 225.18 , 211.68 225.51 , 211.65 225.85 , 211.69 226.18 , 211.66 226.51 , 211.61 226.84 , 211.60 227.18 , 211.59 227.51 , 211.62 227.84 , 211.65 228.18 , 211.63 228.51 , 211.64 228.84 , 211.64 229.17 , 211.66 229.51 , 211.64 229.84 , 211.61 230.17 , 211.68 230.51 , 211.63 230.84 , 211.64 231.17 , 211.64 231.50 , 211.61 231.84 , 211.63 232.17 , 211.66 232.50 , 211.67 232.84 , 211.65 233.17 , 211.60 233.50 , 211.67 233.83 , 211.63 234.17 , 211.67 234.50 , 211.63 234.83 , 211.69 235.17 , 211.62 235.50 , 211.68 235.83 , 211.68 236.16 , 211.67 236.50 , 211.68 236.83 , 211.70 237.16 , 211.59 237.50 , 211.70 237.83 , 211.62 238.16 , 211.57 238.49 , 211.71 238.83 , 211.59 239.16 , 211.57 239.49 , 211.64 239.83 , 211.65 240.16 , 211.66 240.49 , 211.62 240.82 , 211.68 241.16 , 211.67 241.49 , 211.68 241.82 , 211.65 242.16 , 211.72 242.49 , 211.67 242.82 , 211.65 243.15 , 211.57 243.49 , 211.64 243.82 , 211.60 244.15 , 211.68 244.49 , 211.62 244.82 , 211.69 245.15 , 211.61 245.48 , 211.70 245.82 , 211.56 246.15 , 211.63 246.48 , 211.61 246.82 , 211.55 247.15 , 211.68 247.48 , 211.68 247.81 , 211.57 248.15 , 211.67 248.48 , 211.67 248.81 , 211.68 249.15 , 211.62 249.48 , 211.64 249.81 , 211.64 250.14 , 211.66 250.48 , 211.63 250.81 , 211.63 251.14 , 211.63 251.48 , 211.65 251.81 , 211.67 252.14 , 211.62 252.47 , 211.64 252.81 , 211.65 253.14 , 211.67 253.47 , 211.66 253.81 , 211.64 254.14 , 211.68 254.47 , 211.63 254.80 , 211.64 255.14 , 211.60 255.47 , 211.68 255.80 , 211.64 256.14 , 211.64 256.47 , 211.62 256.80 , 211.65 257.13 , 211.60 257.47 , 211.70 257.80 , 211.71 258.13 , 211.57 258.47 , 211.66 258.80 , 211.64 259.13 , 211.62 259.46 , 211.62 259.80 , 211.71 260.13 , 211.70 260.46 , 211.63 260.80 , 211.61 261.13 , 211.64 261.46 , 211.64 261.80 , 211.69 262.13 , 211.61 262.46 , 211.68 262.79 , 211.68 263.13 , 211.73 263.46 , 211.74 263.79 , 211.72 264.13 , 211.58 264.46 , 211.68 264.79 , 211.66 265.12 , 211.65 265.46 , 211.64 265.79 , 211.68 266.12 , 211.66 266.46 , 211.71 266.79 , 211.57 267.12 , 211.71 267.45 , 211.54 267.79 , 211.68 268.12 , 211.60 268.45 , 211.64 268.79 , 211.66 269.12 , 211.69 269.45 , 211.61 269.78 , 211.70 270.12 , 211.64 270.45 , 211.65 270.78 , 211.67 271.12 , 211.69 271.45 , 211.59 271.78 , 211.68 272.11 , 211.69 272.45 , 211.61 272.78 , 211.65 273.11 , 211.64 273.45 , 211.56 273.78 , 211.56 274.11 , 211.53 274.44 , 211.51 274.78 , 211.71 275.11 , 211.61 275.44 , 211.70 275.78 , 211.61 276.11 , 211.68 276.44 , 211.67 276.77 , 211.63 277.11 , 211.70 277.44 , 211.63 277.77 , 211.69 278.11 , 211.62 278.44 , 211.70 278.77 , 211.59 279.10 , 211.70 279.44 , 211.65 279.77 , 211.67 280.10 , 211.64 280.44 , 211.64 280.77 , 211.63 281.10 , 211.63 281.43 , 211.68 281.77 , 211.69 282.10 , 211.67 282.43 , 211.70 282.77 , 211.65 283.10 , 211.66 283.43 , 211.65 283.76 , 211.62 284.10 , 211.63 284.43 , 211.69 284.76 , 211.65 285.10 , 211.64 285.43 , 211.64 285.76 , 211.63 286.09 , 211.60 286.43 , 211.66 286.76 , 211.66 287.09 , 211.68 287.43 , 211.59 287.76 , 211.69 288.09 , 211.67 288.42 , 211.63 288.76 , 211.66 289.09 , 211.64 289.42 , 211.65 289.76 , 211.62 290.09 , 211.68 290.42 , 211.61 290.75 , 211.64 291.09 , 211.66 291.42 , 211.59 291.75 , 211.70 292.09 , 211.60 292.42 , 211.58 292.75 , 211.70 293.08 , 211.64 293.42 , 211.60 293.75 , 211.66 294.08 , 211.66 294.42 , 211.64 294.75 , 211.65 295.08 , 211.65 295.41 , 211.68 295.75 , 211.70 296.08 , 211.58 296.41 , 211.65 296.75 , 211.64 297.08 , 211.66 297.41 , 211.63 297.74 , 211.68 298.08 , 211.60 298.41 , 211.62 298.74 , 211.67 299.08 , 211.55 299.41 , 211.72 299.74 , 211.56 300.07 , 211.71 300.41 , 211.67 300.74 , 211.63 301.07 , 211.66 301.41 , 211.68 301.74 , 211.61 302.07 , 211.69 302.40 , 211.66 302.74 , 211.63 303.07 , 211.69 303.40 , 211.68 303.74 , 211.63 304.07 , 211.69 304.40 , 211.57 304.73 , 211.60 305.07 , 211.68 305.40 , 211.61 305.73 , 211.63 306.07 , 211.67 306.40 , 211.66 306.73 , 211.68 307.06 , 211.61 307.40 , 211.67 307.73 , 211.66 308.06 , 211.59 308.40 , 211.62 308.73 , 211.62 309.06 , 211.64 309.39 , 211.59 309.73 , 211.56 310.06 , 211.56 310.39 , 211.64 310.73 , 211.67 311.06 , 211.65 311.39 , 211.64 311.72 , 211.66 312.06 , 211.61 312.39 , 211.67 312.72 , 211.60 313.06 , 211.68 313.39 , 211.62 313.72 , 211.67 314.05 , 211.68 314.39 , 211.68 314.72 , 211.61 315.05 , 211.61 315.39 , 211.68 315.72 , 211.62 316.05 , 211.69 316.38 , 211.60 316.72 , 211.72 317.05 , 211.68 317.38 , 211.68 317.72 , 211.63 318.05 , 211.65 318.38 , 211.65 318.71 , 211.64 319.05 , 211.62 319.38 , 211.68 319.71 , 211.65 320.05 , 211.60 320.38 , 211.70 320.71 , 211.64 321.04 , 211.64 321.38 , 211.60 321.71 , 211.68 322.04 , 211.62 322.38 , 211.67 322.71 , 211.61 323.04 , 211.65 323.37 , 211.65 323.71 , 211.64 324.04 , 211.59 324.37 , 211.59 324.71 , 211.68 325.04 , 211.58 325.37 , 211.57 325.70 , 211.59 326.04 , 211.71 326.37 , 211.68 326.70 , 211.62 327.04 , 211.67 327.37 , 211.59 327.70 , 211.65 328.03 , 211.66 328.37 , 211.64 328.70 , 211.63 329.03 , 211.66 329.37 , 211.66 329.70 , 211.64 330.03 , 211.66 330.36 , 211.64 330.70 , 211.66 331.03 , 211.66 331.36 , 211.66 331.70 , 211.64 332.03 , 211.64 332.36 , 211.67 332.69 , 211.65 333.03 , 211.59 333.36 , 211.73 333.69 , 211.55 334.03 , 211.68 334.36 , 211.60 334.69 , 211.65 335.02 , 211.64 335.36 , 211.67 335.69 , 211.69 336.02 , 211.67 336.36 , 211.67 336.69 , 211.63 337.02 , 211.70 337.35 , 211.60 337.69 , 211.69 338.02 , 211.67 338.35 , 211.65 338.69 , 211.58 339.02 , 211.66 339.35 , 211.63 339.69 , 211.61 340.02 , 211.70 340.35 , 211.61 340.68 , 211.60 341.02 , 211.62 341.35 , 211.60 341.68 , 211.59 342.02 , 211.69 342.35 , 211.62 342.68 , 211.68 343.01 , 211.61 343.35 , 211.70 343.68 , 211.74 344.01 , 211.60 344.35 , 211.65 344.68 , 211.64 345.01 , 211.66 345.34 , 211.66 345.68 , 211.66 346.01 , 211.66 346.34 , 211.66 346.68 , 211.64 347.01 , 211.64 347.34 , 211.63 347.67 , 211.68 348.01 , 211.69 348.34 , 211.71 348.67 , 211.66 349.01 , 211.66 349.34 , 211.64 349.67 , 211.66 350.00 , 211.64 350.34 , 211.65 350.67 , 211.64 351.00 , 211.72 351.34 , 211.58 351.67 , 211.67 352.00 , 211.63 352.33 , 211.62 352.67 , 211.65 353.00 , 211.64 353.33 , 211.68 353.67 , 211.61 354.00 , 211.67 354.33 , 211.59 354.66 , 211.65 355.00 , 211.67 355.33 , 211.68 355.66 , 211.61 356.00 , 211.61 356.33 , 211.68 356.66 , 211.62 356.99 , 211.63 357.33 , 211.65 357.66 , 211.66 357.99 , 211.57 358.33 , 211.59 358.66 , 211.67 358.99 , 211.63 359.32 , 211.63 359.66 , 211.67 359.99 , 211.65 360.32 , 211.66 360.66 , 211.65 360.99 , 211.66 361.32 , 211.68 361.65 , 211.64 361.99 , 211.67 362.32 , 211.64 362.65 , 211.65 362.99 , 211.64 " style="stroke-width:1;stroke:#542788;fill:#000000;stroke-opacity:1.000000;fill-opacity:0.000000"/>
</svg>
