<?xml version="1.0" encoding="UTF-8"?>
<svg xmlns="http://www.w3.org/2000/svg" width="385.44" height="240.90" viewBox="0,0,385.44,240.90">
<desc>R SVG Plot!</desc>
<rect width="100%" height="100%" style="fill:#FFFFFF"/>
<polygon points="0.00 , 0.00 385.44 , 0.00 385.44 , 240.90 0.00 , 240.90 " style="stroke-width:1;stroke:#FFFFFF;fill:#FFFFFF;stroke-opacity:1.000000;fill-opacity:1.000000" />
<polygon points="44.27 , 205.54 44.27 , 12.05 373.39 , 12.05 373.39 , 205.54 " style="stroke-width:1;stroke:#FFFFFF;fill:#E5E5E5;stroke-opacity:0.000000;fill-opacity:1.000000" />
<polyline points="44.27 , 64.36 373.39 , 64.36 " style="stroke-width:0;stroke:#F2F2F2;fill:#000000;stroke-opacity:1.000000;fill-opacity:0.000000"/>
<polyline points="44.27 , 118.98 373.39 , 118.98 " style="stroke-width:0;stroke:#F2F2F2;fill:#000000;stroke-opacity:1.000000;fill-opacity:0.000000"/>
<polyline points="44.27 , 173.61 373.39 , 173.61 " style="stroke-width:0;stroke:#F2F2F2;fill:#000000;stroke-opacity:1.000000;fill-opacity:0.000000"/>
<polyline points="50.92 , 205.54 50.92 , 12.05 " style="stroke-width:0;stroke:#F2F2F2;fill:#000000;stroke-opacity:1.000000;fill-opacity:0.000000"/>
<polyline points="134.03 , 205.54 134.03 , 12.05 " style="stroke-width:0;stroke:#F2F2F2;fill:#000000;stroke-opacity:1.000000;fill-opacity:0.000000"/>
<polyline points="217.14 , 205.54 217.14 , 12.05 " style="stroke-width:0;stroke:#F2F2F2;fill:#000000;stroke-opacity:1.000000;fill-opacity:0.000000"/>
<polyline points="300.26 , 205.54 300.26 , 12.05 " style="stroke-width:0;stroke:#F2F2F2;fill:#000000;stroke-opacity:1.000000;fill-opacity:0.000000"/>
<polyline points="44.27 , 37.05 373.39 , 37.05 " style="stroke-width:1;stroke:#FFFFFF;fill:#000000;stroke-opacity:1.000000;fill-opacity:0.000000"/>
<polyline points="44.27 , 91.67 373.39 , 91.67 " style="stroke-width:1;stroke:#FFFFFF;fill:#000000;stroke-opacity:1.000000;fill-opacity:0.000000"/>
<polyline points="44.27 , 146.30 373.39 , 146.30 " style="stroke-width:1;stroke:#FFFFFF;fill:#000000;stroke-opacity:1.000000;fill-opacity:0.000000"/>
<polyline points="44.27 , 200.92 373.39 , 200.92 " style="stroke-width:1;stroke:#FFFFFF;fill:#000000;stroke-opacity:1.000000;fill-opacity:0.000000"/>
<polyline points="92.47 , 205.54 92.47 , 12.05 " style="stroke-width:1;stroke:#FFFFFF;fill:#000000;stroke-opacity:1.000000;fill-opacity:0.000000"/>
<polyline points="175.59 , 205.54 175.59 , 12.05 " style="stroke-width:1;stroke:#FFFFFF;fill:#000000;stroke-opacity:1.000000;fill-opacity:0.000000"/>
<polyline points="258.70 , 205.54 258.70 , 12.05 " style="stroke-width:1;stroke:#FFFFFF;fill:#000000;stroke-opacity:1.000000;fill-opacity:0.000000"/>
<polyline points="341.81 , 205.54 341.81 , 12.05 " style="stroke-width:1;stroke:#FFFFFF;fill:#000000;stroke-opacity:1.000000;fill-opacity:0.000000"/>
<line x1="44.27" y1="91.67" x2="373.39" y2="91.67" style="stroke-width:1;stroke:#7F7F7F;fill:#000000;stroke-opacity:1.000000;fill-opacity:0.000000"/>
<polyline points="59.23 , 148.98 67.54 , 147.07 75.85 , 145.37 84.16 , 141.25 92.47 , 134.99 100.79 , 130.29 109.10 , 128.06 117.41 , 124.41 125.72 , 126.55 134.03 , 126.39 142.34 , 122.77 150.65 , 119.59 158.96 , 116.75 167.28 , 113.64 175.59 , 109.44 183.90 , 106.03 192.21 , 101.57 200.52 , 95.50 208.83 , 88.13 217.14 , 83.30 225.45 , 80.17 233.77 , 79.19 242.08 , 79.43 250.39 , 81.64 258.70 , 83.07 267.01 , 85.48 275.32 , 88.39 283.63 , 90.36 291.94 , 90.36 300.26 , 90.69 308.57 , 90.36 316.88 , 88.43 325.19 , 87.20 333.50 , 85.62 341.81 , 84.39 350.12 , 83.85 358.43 , 82.83 " style="stroke-width:1;stroke:#000000;fill:#000000;stroke-opacity:1.000000;fill-opacity:0.000000"/>
<polygon points="59.23 , 196.75 67.54 , 184.87 75.85 , 176.69 84.16 , 166.07 92.47 , 158.30 100.79 , 149.89 109.10 , 147.17 117.41 , 142.78 125.72 , 147.52 134.03 , 148.86 142.34 , 146.01 150.65 , 143.90 158.96 , 141.91 167.28 , 136.90 175.59 , 131.89 183.90 , 133.44 192.21 , 129.39 200.52 , 122.56 208.83 , 112.70 217.14 , 109.00 225.45 , 106.06 233.77 , 104.94 242.08 , 106.63 250.39 , 109.80 258.70 , 111.79 267.01 , 121.87 275.32 , 132.41 283.63 , 136.99 291.94 , 142.52 300.26 , 141.28 308.57 , 140.83 316.88 , 136.20 325.19 , 135.47 333.50 , 133.86 341.81 , 135.06 350.12 , 135.02 358.43 , 140.85 358.43 , 20.84 350.12 , 26.80 341.81 , 34.54 333.50 , 40.76 325.19 , 45.03 316.88 , 45.32 308.57 , 51.55 300.26 , 52.17 291.94 , 53.44 283.63 , 54.06 275.32 , 53.77 267.01 , 51.99 258.70 , 47.93 250.39 , 46.00 242.08 , 38.44 233.77 , 39.69 225.45 , 39.12 217.14 , 43.57 208.83 , 55.27 200.52 , 67.74 192.21 , 75.50 183.90 , 81.02 175.59 , 87.05 167.28 , 92.40 158.96 , 93.57 150.65 , 97.24 142.34 , 101.29 134.03 , 105.73 125.72 , 105.45 117.41 , 99.55 109.10 , 105.36 100.79 , 108.30 92.47 , 111.62 84.16 , 119.70 75.85 , 120.41 67.54 , 117.28 59.23 , 113.84 " style="stroke-width:1;stroke:#FFFFFF;fill:#333333;stroke-opacity:0.000000;fill-opacity:0.606299" />
<text transform="translate(21.05,40.65)"  style="font-size:10" >-0.1</text>
<text transform="translate(23.10,95.27)"  style="font-size:10" >0.0</text>
<text transform="translate(23.10,149.90)"  style="font-size:10" >0.1</text>
<text transform="translate(23.10,204.52)"  style="font-size:10" >0.2</text>
<polyline points="40.00 , 37.05 44.27 , 37.05 " style="stroke-width:1;stroke:#7F7F7F;fill:#000000;stroke-opacity:1.000000;fill-opacity:0.000000"/>
<polyline points="40.00 , 91.67 44.27 , 91.67 " style="stroke-width:1;stroke:#7F7F7F;fill:#000000;stroke-opacity:1.000000;fill-opacity:0.000000"/>
<polyline points="40.00 , 146.30 44.27 , 146.30 " style="stroke-width:1;stroke:#7F7F7F;fill:#000000;stroke-opacity:1.000000;fill-opacity:0.000000"/>
<polyline points="40.00 , 200.92 44.27 , 200.92 " style="stroke-width:1;stroke:#7F7F7F;fill:#000000;stroke-opacity:1.000000;fill-opacity:0.000000"/>
<polyline points="92.47 , 209.81 92.47 , 205.54 " style="stroke-width:1;stroke:#7F7F7F;fill:#000000;stroke-opacity:1.000000;fill-opacity:0.000000"/>
<polyline points="175.59 , 209.81 175.59 , 205.54 " style="stroke-width:1;stroke:#7F7F7F;fill:#000000;stroke-opacity:1.000000;fill-opacity:0.000000"/>
<polyline points="258.70 , 209.81 258.70 , 205.54 " style="stroke-width:1;stroke:#7F7F7F;fill:#000000;stroke-opacity:1.000000;fill-opacity:0.000000"/>
<polyline points="341.81 , 209.81 341.81 , 205.54 " style="stroke-width:1;stroke:#7F7F7F;fill:#000000;stroke-opacity:1.000000;fill-opacity:0.000000"/>
<text transform="translate(84.22,219.85)"  style="font-size:10" >100</text>
<text transform="translate(167.34,219.85)"  style="font-size:10" >200</text>
<text transform="translate(250.45,219.85)"  style="font-size:10" >300</text>
<text transform="translate(333.56,219.85)"  style="font-size:10" >400</text>
<text transform="translate(164.29,231.87)"  style="font-size:12" >Duration (msec)</text>
<text transform="translate(18.03,136.09) rotate(-90)"  style="font-size:12" >time delta</text>
</svg>
